<svg width="24" height="24" viewBox="0 0 24 24" fill="none" xmlns="http://www.w3.org/2000/svg">
<path d="M12 3.00016C7.57697 3.02792 4 6.62155 4 11.0505C4 15.841 8.18859 18.8593 10.5236 20.2104C11.4255 20.7322 12.5745 20.7322 13.4764 20.2104C15.8114 18.8593 20 15.841 20 11.0505C20 6.62155 16.423 3.02792 12 3.00016ZM12 3.00016C12.0172 3.00005 12.0344 3 12.0516 3H11.9484C11.9656 3 11.9828 3.00005 12 3.00016Z" stroke="#2B2028" stroke-width="1.5" stroke-linecap="round" stroke-linejoin="round"/>
<path d="M16 11C16 13.2091 14.2091 15 12 15C9.79086 15 8 13.2091 8 11C8 8.79086 9.79086 7 12 7C14.2091 7 16 8.79086 16 11Z" stroke="#2B2028" stroke-width="1.5" stroke-linecap="round" stroke-linejoin="round"/>
</svg>
