<svg width="24" height="24" viewBox="0 0 24 24" fill="none" xmlns="http://www.w3.org/2000/svg">
<path fill-rule="evenodd" clip-rule="evenodd" d="M8 0.25C8.41421 0.25 8.75 0.585786 8.75 1V1.28225C9.65846 1.24999 10.7167 1.25 11.9622 1.25L12 1.25L12.0378 1.25C13.2833 1.25 14.3415 1.24999 15.25 1.28225V1C15.25 0.585786 15.5858 0.25 16 0.25C16.4142 0.25 16.75 0.585786 16.75 1V1.38414C17.773 1.49909 18.6189 1.71782 19.375 2.15433C20.4011 2.74676 21.2532 3.59887 21.8457 4.625C22.3245 5.45433 22.5413 6.39182 22.6465 7.55249C22.75 8.69502 22.75 10.1249 22.75 11.9621V12V12.0379C22.75 13.8751 22.75 15.305 22.6465 16.4475C22.5413 17.6082 22.3245 18.5457 21.8457 19.375C21.2532 20.4011 20.4011 21.2532 19.375 21.8457C18.5457 22.3245 17.6082 22.5413 16.4475 22.6465C15.305 22.75 13.8751 22.75 12.0379 22.75H12H11.9621C10.1249 22.75 8.69502 22.75 7.55249 22.6465C6.39182 22.5413 5.45433 22.3245 4.625 21.8457C3.59887 21.2532 2.74677 20.4011 2.15433 19.375C1.67552 18.5457 1.45874 17.6082 1.35354 16.4475C1.24999 15.305 1.25 13.875 1.25 12.0378V12.0378V12V11.9622V11.9622C1.25 10.125 1.24999 8.69502 1.35354 7.55249C1.45874 6.39182 1.67552 5.45433 2.15433 4.625C2.74677 3.59887 3.59887 2.74676 4.625 2.15433C5.38106 1.71782 6.22701 1.49909 7.25 1.38414V1C7.25 0.585786 7.58579 0.25 8 0.25ZM6.25 8C6.25 7.58579 6.58579 7.25 7 7.25H17C17.4142 7.25 17.75 7.58579 17.75 8C17.75 8.41421 17.4142 8.75 17 8.75H7C6.58579 8.75 6.25 8.41421 6.25 8Z" fill="white"/>
<path d="M8 1L8 4" stroke="white" stroke-width="1.5" stroke-linecap="round" stroke-linejoin="round"/>
<path d="M12 1L12 4" stroke="white" stroke-width="1.5" stroke-linecap="round" stroke-linejoin="round"/>
<rect x="10" y="12.5" width="1.5" height="7" rx="0.75" transform="rotate(-90 10 12.5)" fill="#212121"/>
<rect x="10" y="16.5" width="1.5" height="7" rx="0.75" transform="rotate(-90 10 16.5)" fill="#212121"/>
</svg>
