<svg width="20" height="20" viewBox="0 0 20 20" fill="none" xmlns="http://www.w3.org/2000/svg">
<path d="M18.3346 15.2743C18.3346 15.5743 18.2679 15.8827 18.126 16.1827C17.9841 16.4827 17.8005 16.766 17.5585 17.0327C17.1495 17.4827 16.6988 17.8077 16.1898 18.016C15.689 18.2243 15.1465 18.3327 14.5623 18.3327C13.711 18.3327 12.8013 18.1327 11.8416 17.7243C10.8818 17.316 9.92202 16.766 8.97059 16.0743C8.01082 15.3743 7.10112 14.5993 6.23315 13.741C5.37353 12.8743 4.59736 11.966 3.90466 11.016C3.2203 10.066 2.66947 9.11602 2.26887 8.17435C1.86827 7.22435 1.66797 6.31602 1.66797 5.44935C1.66797 4.88268 1.76812 4.34102 1.96842 3.84102C2.16872 3.33268 2.48586 2.86602 2.92819 2.44935C3.46233 1.92435 4.04654 1.66602 4.66413 1.66602C4.89781 1.66602 5.1315 1.71602 5.34014 1.81602C5.55714 1.91602 5.74909 2.06602 5.89932 2.28268L7.83555 5.00768C7.98578 5.21602 8.09427 5.40768 8.16939 5.59102C8.2445 5.76602 8.28623 5.94102 8.28623 6.09935C8.28623 6.29935 8.22781 6.49935 8.11097 6.69102C8.00247 6.88268 7.8439 7.08268 7.6436 7.28268L7.00931 7.94102C6.91751 8.03268 6.87578 8.14102 6.87578 8.27435C6.87578 8.34102 6.88413 8.39935 6.90082 8.46602C6.92586 8.53268 6.95089 8.58268 6.96759 8.63268C7.11781 8.90768 7.37653 9.26602 7.74375 9.69935C8.11931 10.1327 8.51991 10.5743 8.9539 11.016C9.40457 11.4577 9.83856 11.866 10.2809 12.241C10.7149 12.6077 11.0737 12.8577 11.3575 13.0077C11.3992 13.0243 11.4493 13.0493 11.5077 13.0743C11.5745 13.0993 11.6413 13.1077 11.7164 13.1077C11.8583 13.1077 11.9667 13.0577 12.0586 12.966L12.6928 12.341C12.9015 12.1327 13.1018 11.9743 13.2937 11.8743C13.4857 11.7577 13.6776 11.6993 13.8863 11.6993C14.0449 11.6993 14.2118 11.7327 14.3954 11.8077C14.579 11.8827 14.771 11.991 14.9796 12.1327L17.7421 14.091C17.9591 14.241 18.1093 14.416 18.2011 14.6243C18.2846 14.8327 18.3346 15.041 18.3346 15.2743Z" stroke="#2B2028" stroke-width="1.5" stroke-miterlimit="10"/>
<path d="M15.8353 8.33333C15.8353 7.7619 15.3877 6.88571 14.721 6.17143C14.1115 5.51429 13.302 5 12.502 5" stroke="#2B2028" stroke-width="1.5" stroke-linecap="round" stroke-linejoin="round"/>
<path d="M18.3353 7.49935C18.3353 4.27435 15.727 1.66602 12.502 1.66602" stroke="#2B2028" stroke-width="1.5" stroke-linecap="round" stroke-linejoin="round"/>
</svg>
