<svg width="200" height="200" viewBox="0 0 200 200" fill="none" xmlns="http://www.w3.org/2000/svg">
<path d="M155.535 83.244C156.225 87.8276 153.061 92.1044 148.467 92.7968C143.873 93.4892 139.589 90.3352 138.898 85.7516C138.207 81.1684 141.371 76.8912 145.965 76.1988C150.56 75.5064 154.844 78.6608 155.535 83.244Z" fill="#F5F5F5"/>
<path d="M153.555 83.5433C154.082 87.0361 151.671 90.2953 148.169 90.8229C144.669 91.3505 141.404 88.9469 140.877 85.4541C140.351 81.9613 142.762 78.7017 146.263 78.1741C149.764 77.6469 153.029 80.0505 153.555 83.5433Z" fill="#EBEBEB"/>
<path d="M153.524 83.3439C153.486 83.3511 153.417 83.0771 153.242 82.6067C153.065 82.1399 152.767 81.4707 152.218 80.7739C151.943 80.4271 151.608 80.0751 151.205 79.7483C150.8 79.4259 150.331 79.1243 149.8 78.8899C149.535 78.7715 149.255 78.6663 148.963 78.5855C148.671 78.5031 148.368 78.4351 148.055 78.3975C147.742 78.3587 147.421 78.3367 147.095 78.3467C146.77 78.3563 146.441 78.3895 146.111 78.4471C145.782 78.5095 145.462 78.5951 145.155 78.7015C144.846 78.8075 144.554 78.9419 144.275 79.0887C143.996 79.2351 143.736 79.4059 143.492 79.5863C143.247 79.7655 143.023 79.9631 142.817 80.1675C142.403 80.5751 142.072 81.0231 141.807 81.4683C141.546 81.9163 141.357 82.3643 141.223 82.7859C140.956 83.6319 140.916 84.3627 140.915 84.8619C140.918 85.3635 140.951 85.6443 140.913 85.6511C140.885 85.6567 140.787 85.3867 140.725 84.8731C140.665 84.3627 140.652 83.5967 140.889 82.6903C141.009 82.2387 141.19 81.7551 141.452 81.2691C141.718 80.7859 142.059 80.2975 142.495 79.8507C142.712 79.6271 142.948 79.4107 143.209 79.2135C143.469 79.0151 143.746 78.8279 144.046 78.6667C144.345 78.5051 144.659 78.3579 144.991 78.2419C145.323 78.1255 145.668 78.0323 146.023 77.9651C146.378 77.9023 146.733 77.8675 147.085 77.8591C147.436 77.8503 147.783 77.8767 148.119 77.9219C148.457 77.9663 148.783 78.0431 149.096 78.1367C149.409 78.2287 149.707 78.3471 149.989 78.4795C150.554 78.7431 151.047 79.0787 151.467 79.4367C151.884 79.7983 152.225 80.1863 152.496 80.5663C153.04 81.3299 153.298 82.0511 153.424 82.5495C153.548 83.0523 153.553 83.3391 153.524 83.3439Z" fill="#E0E0E0"/>
<path d="M148.503 88.1702L148.686 89.2718L147.702 89.4342L147.525 88.3622C146.541 88.4642 145.557 88.3142 144.946 87.9806L145.288 86.691C145.84 86.9738 146.592 87.1218 147.312 87.0734L147.04 85.4306C145.904 85.3462 144.624 85.1838 144.391 83.7774C144.219 82.7346 144.828 81.7142 146.353 81.2802L146.172 80.1882L147.155 80.0254L147.333 81.0978C148.081 81.0346 148.831 81.1126 149.429 81.367L149.138 82.6586C148.589 82.4566 148.05 82.3738 147.548 82.3958L147.825 84.0682C148.959 84.143 150.219 84.3086 150.449 85.6954C150.618 86.7186 150.017 87.7278 148.503 88.1702ZM146.801 83.985L146.569 82.5882C146.067 82.7926 145.908 83.1122 145.962 83.4366C146.019 83.781 146.345 83.9194 146.801 83.985ZM148.885 86.0758C148.827 85.7314 148.511 85.5918 148.064 85.5138L148.289 86.8714C148.763 86.6822 148.937 86.3906 148.885 86.0758Z" fill="#E0E0E0"/>
<path d="M36.6984 91.4549C37.6352 97.6733 33.3428 103.475 27.1104 104.415C20.878 105.354 15.0656 101.075 14.1284 94.8565C13.1912 88.6385 17.4836 82.8361 23.7164 81.8969C29.9488 80.9577 35.7612 85.2369 36.6984 91.4549Z" fill="#F5F5F5"/>
<path d="M34.0132 91.859C34.7272 96.5974 31.456 101.019 26.7064 101.735C21.9572 102.451 17.5276 99.1897 16.8136 94.4513C16.0996 89.7125 19.3708 85.2909 24.1204 84.5749C28.8696 83.8597 33.2988 87.1206 34.0132 91.859Z" fill="#EBEBEB"/>
<path d="M33.9708 91.5904C33.9188 91.6 33.8256 91.2284 33.5876 90.5904C33.3472 89.9572 32.9444 89.0492 32.1984 88.104C31.826 87.6336 31.3708 87.156 30.8244 86.7128C30.2748 86.2752 29.6392 85.866 28.918 85.5484C28.5584 85.388 28.1796 85.2452 27.7824 85.1352C27.3864 85.0232 26.9748 84.9312 26.55 84.88C26.126 84.8276 25.6904 84.7972 25.2488 84.8108C24.8072 84.8236 24.3608 84.8688 23.9136 84.9472C23.4676 85.032 23.0336 85.148 22.6164 85.2924C22.1984 85.436 21.802 85.6184 21.4236 85.8176C21.044 86.0164 20.692 86.248 20.3612 86.4928C20.0288 86.736 19.7252 87.004 19.4456 87.2812C18.8836 87.834 18.434 88.442 18.0756 89.0456C17.7216 89.6532 17.4648 90.2612 17.2832 90.8332C16.9208 91.9808 16.8656 92.9724 16.8652 93.6496C16.8692 94.33 16.9132 94.7112 16.8612 94.72C16.8228 94.728 16.6912 94.3616 16.6064 93.6648C16.5264 92.9724 16.5076 91.9328 16.8304 90.7032C16.9924 90.0908 17.238 89.4348 17.594 88.7752C17.9544 88.1196 18.4176 87.4568 19.0084 86.8508C19.3024 86.5472 19.6232 86.2536 19.9768 85.9864C20.3288 85.7176 20.7056 85.4632 21.1124 85.2448C21.518 85.0256 21.9452 84.826 22.3956 84.6684C22.8452 84.51 23.3136 84.384 23.7944 84.2928C24.2764 84.2076 24.7588 84.1604 25.2352 84.1488C25.712 84.1368 26.182 84.1724 26.6392 84.2336C27.0968 84.2936 27.5392 84.398 27.9636 84.5252C28.3892 84.65 28.7932 84.8108 29.1756 84.9904C29.9424 85.348 30.6108 85.8036 31.1804 86.2892C31.7464 86.7796 32.2088 87.3064 32.5776 87.8216C33.3152 88.8572 33.666 89.836 33.8368 90.512C34.0028 91.1948 34.0092 91.584 33.9708 91.5904Z" fill="#E0E0E0"/>
<path d="M27.1595 98.1379L27.4071 99.6327L26.0727 99.8531L25.8319 98.3987C24.4975 98.5371 23.1615 98.3335 22.3327 97.8811L22.7967 96.1315C23.5459 96.5151 24.5659 96.7163 25.5427 96.6503L25.1735 94.4215C23.6327 94.3067 21.8963 94.0867 21.5807 92.1783C21.3467 90.7639 22.1731 89.3795 24.2415 88.7903L23.9963 87.3087L25.3307 87.0879L25.5715 88.5427C26.5855 88.4571 27.6035 88.5627 28.4147 88.9079L28.0195 90.6599C27.2747 90.3859 26.5435 90.2735 25.8627 90.3035L26.2383 92.5723C27.7767 92.6739 29.4867 92.8983 29.7983 94.7795C30.0279 96.1687 29.2123 97.5375 27.1595 98.1379ZM24.8487 92.4603L24.5347 90.5655C23.8543 90.8427 23.6379 91.2763 23.7107 91.7167C23.7883 92.1835 24.2307 92.3711 24.8487 92.4603ZM27.6767 95.2967C27.5991 94.8295 27.1703 94.6403 26.5635 94.5347L26.8683 96.3763C27.5111 96.1191 27.7471 95.7235 27.6767 95.2967Z" fill="#E0E0E0"/>
<path d="M73.9933 184.767H18.0981C16.1641 184.767 14.5957 183.199 14.5957 181.265V133.139C14.5957 131.204 16.1637 129.637 18.0981 129.637H73.9933C75.9273 129.637 77.4957 131.205 77.4957 133.139V181.265C77.4957 183.199 75.9273 184.767 73.9933 184.767Z" fill="#455A64"/>
<g opacity="0.3">
<path d="M14.5959 165.788H37.5071C38.3879 165.788 39.1015 165.074 39.1015 164.193H14.6595L14.5959 165.788Z" fill="black"/>
</g>
<path d="M38.0509 164.392H14.9053C13.8041 164.392 12.9109 163.499 12.9109 162.397V152.078C12.9109 150.977 13.8037 150.084 14.9053 150.084H38.0509C39.1525 150.084 40.0453 150.977 40.0453 152.078V162.397C40.0453 163.499 39.1525 164.392 38.0509 164.392Z" fill="#455A64"/>
<path d="M38.0508 164.391C38.0464 164.371 38.3408 164.414 38.828 164.21C39.0656 164.104 39.3444 163.921 39.5828 163.622C39.8168 163.325 40.004 162.902 40.004 162.406C39.9964 160.387 39.9852 157.48 39.9712 153.892C39.97 153.442 39.9688 152.982 39.9676 152.512C39.9644 152.277 39.9764 152.036 39.9452 151.811C39.9136 151.583 39.8392 151.358 39.7252 151.152C39.4988 150.739 39.1052 150.408 38.6388 150.26C38.4036 150.182 38.1636 150.164 37.9028 150.169C37.6432 150.169 37.3812 150.17 37.1172 150.17C35.0032 150.174 32.7452 150.177 30.3692 150.18C25.6156 150.182 20.3912 150.185 14.9068 150.188C14.2544 150.186 13.6196 150.542 13.2912 151.098C13.1212 151.371 13.0296 151.688 13.018 152.006C13.0104 152.335 13.0156 152.676 13.014 153.008C13.0136 154.344 13.0128 155.66 13.0124 156.953C13.0116 158.246 13.0108 159.517 13.01 160.761C13.0144 161.378 12.9984 162.009 13.0188 162.596C13.08 163.172 13.4116 163.708 13.896 164.004C14.1352 164.154 14.4064 164.25 14.6836 164.283C14.9552 164.31 15.2612 164.292 15.5464 164.298C16.1252 164.299 16.6964 164.3 17.2596 164.3C18.3856 164.302 19.4784 164.304 20.5352 164.306C22.648 164.31 24.6168 164.314 26.4148 164.318C30.0028 164.332 32.9092 164.344 34.9284 164.352C35.9264 164.36 36.7048 164.367 37.2432 164.371C37.5012 164.376 37.7012 164.379 37.8452 164.382C37.9812 164.384 38.0508 164.391 38.0508 164.391C38.0508 164.391 37.9812 164.398 37.8456 164.402C37.7016 164.404 37.5016 164.408 37.2436 164.412C36.7052 164.416 35.9272 164.423 34.9288 164.432C32.9096 164.44 30.0032 164.451 26.4152 164.465C24.6172 164.469 22.6484 164.473 20.5356 164.478C19.4788 164.479 18.3856 164.481 17.26 164.483C16.6972 164.484 16.126 164.484 15.5468 164.485C15.2536 164.48 14.9748 164.5 14.6624 164.471C14.3572 164.436 14.058 164.331 13.7944 164.166C13.2608 163.841 12.8932 163.252 12.8248 162.616C12.8012 161.988 12.8172 161.387 12.8116 160.76C12.8108 159.516 12.81 158.246 12.8092 156.953C12.8088 155.66 12.808 154.343 12.8076 153.008C12.8092 152.672 12.8036 152.342 12.8112 151.998C12.8236 151.645 12.9256 151.293 13.114 150.99C13.4776 150.374 14.1832 149.978 14.9072 149.98C20.3912 149.983 25.616 149.986 30.3696 149.989C32.7456 149.992 35.0036 149.996 37.1176 149.998C37.3816 149.999 37.6436 149.999 37.9032 150C38.1608 149.996 38.4404 150.017 38.6904 150.103C39.1972 150.266 39.6224 150.627 39.866 151.076C39.9888 151.299 40.0684 151.544 40.1016 151.791C40.1344 152.042 40.1196 152.279 40.1224 152.514C40.1212 152.984 40.12 153.444 40.1188 153.893C40.1048 157.481 40.0932 160.388 40.0852 162.408C40.0788 162.924 39.8776 163.36 39.6312 163.663C39.3804 163.967 39.09 164.148 38.8448 164.25C38.5968 164.354 38.3916 164.376 38.2568 164.392C38.1204 164.395 38.0508 164.391 38.0508 164.391Z" fill="#2B2028"/>
<g opacity="0.3">
<path d="M33.3571 162.805C35.5755 162.805 37.3739 161.007 37.3739 158.788C37.3739 156.57 35.5755 154.771 33.3571 154.771C31.1387 154.771 29.3403 156.57 29.3403 158.788C29.3403 161.007 31.1387 162.805 33.3571 162.805Z" fill="black"/>
</g>
<path d="M36.1961 160.229C37.7648 158.66 37.7648 156.117 36.1961 154.548C34.6275 152.98 32.0842 152.98 30.5156 154.548C28.9469 156.117 28.9469 158.66 30.5156 160.229C32.0842 161.798 34.6275 161.798 36.1961 160.229Z" fill="#EBEBEB"/>
<path d="M37.3741 157.39C37.3473 157.392 37.3685 157.032 37.2093 156.419C37.0517 155.818 36.6473 154.936 35.7429 154.256C35.2949 153.923 34.7313 153.641 34.0825 153.529C33.4381 153.421 32.7117 153.443 32.0213 153.708C31.6737 153.829 31.3385 154.012 31.0309 154.243C30.7197 154.47 30.4369 154.751 30.2041 155.076C29.7229 155.717 29.4521 156.541 29.4441 157.39C29.4517 158.239 29.7225 159.062 30.2041 159.704C30.4369 160.029 30.7197 160.31 31.0309 160.537C31.3385 160.768 31.6737 160.951 32.0213 161.072C32.7117 161.337 33.4381 161.359 34.0825 161.251C34.7313 161.138 35.2949 160.857 35.7429 160.524C36.6473 159.844 37.0513 158.962 37.2089 158.361C37.3685 157.748 37.3473 157.388 37.3741 157.39C37.3741 157.39 37.4257 157.749 37.2877 158.38C37.1513 158.999 36.7585 159.92 35.8325 160.641C35.3737 160.994 34.7909 161.296 34.1145 161.42C33.4429 161.541 32.6829 161.525 31.9561 161.253C31.5905 161.128 31.2373 160.938 30.9125 160.696C30.5841 160.46 30.2861 160.166 30.0397 159.824C29.5313 159.152 29.2433 158.283 29.2361 157.389C29.2437 156.496 29.5317 155.628 30.0401 154.955C30.2865 154.613 30.5845 154.319 30.9129 154.083C31.2377 153.842 31.5905 153.652 31.9561 153.526C32.6829 153.254 33.4429 153.238 34.1145 153.359C34.7905 153.484 35.3733 153.785 35.8325 154.138C36.7589 154.86 37.1517 155.78 37.2881 156.399C37.4257 157.031 37.3741 157.39 37.3741 157.39Z" fill="#2B2028"/>
<path d="M135.882 184.66L81.6985 184.41C75.1817 184.38 69.9225 179.074 69.9501 172.557L70.5241 36.7182C70.5517 30.1978 75.8609 24.935 82.3813 24.965L136.565 25.2154C143.082 25.2454 148.34 30.5514 148.313 37.0682L147.738 172.908C147.712 179.428 142.402 184.691 135.882 184.66Z" fill="#2B2028"/>
<path d="M136.488 29.904L125.983 29.8556L95.3022 29.714L91.6074 29.6968L82.4126 29.6544C77.8462 29.6336 74.1278 33.3192 74.1086 37.8856L73.5482 170.474C73.529 175.039 77.2122 178.755 81.7762 178.776L135.851 179.026C140.417 179.047 144.136 175.361 144.155 170.795L144.716 38.2056C144.735 33.6412 141.052 29.9252 136.488 29.904Z" fill="#FAFAFA"/>
<path d="M136.889 41.9526C136.887 42.3266 136.584 42.6282 136.21 42.6266C135.836 42.6254 135.534 42.3214 135.536 41.9474C135.537 41.5738 135.841 41.2718 136.215 41.2734C136.588 41.2746 136.89 41.5786 136.889 41.9526Z" fill="#2B2028"/>
<path d="M136.88 44.3858C136.878 44.7594 136.574 45.0614 136.2 45.0602C135.827 45.0586 135.525 44.7546 135.526 44.381C135.528 44.0074 135.832 43.7054 136.206 43.707C136.58 43.7082 136.881 44.0122 136.88 44.3858Z" fill="#2B2028"/>
<path d="M136.871 46.8198C136.87 47.1938 136.565 47.4954 136.192 47.4938C135.818 47.4926 135.516 47.1882 135.518 46.8146C135.519 46.441 135.823 46.139 136.197 46.1406C136.57 46.1422 136.872 46.4462 136.871 46.8198Z" fill="#2B2028"/>
<path d="M139.27 101.627H85.0691C84.1191 101.627 83.3491 100.857 83.3491 99.9066V66.7786C83.3491 65.8286 84.1191 65.0586 85.0691 65.0586H139.27C140.22 65.0586 140.99 65.8286 140.99 66.7786V99.9066C140.99 100.857 140.22 101.627 139.27 101.627Z" fill="#EBEBEB"/>
<path d="M137.686 99.2516H83.4844C82.5344 99.2516 81.7644 98.4816 81.7644 97.5316V64.4036C81.7644 63.4536 82.5344 62.6836 83.4844 62.6836H137.685C138.635 62.6836 139.405 63.4536 139.405 64.4036V97.5316C139.405 98.4812 138.635 99.2516 137.686 99.2516Z" fill="#E0E0E0"/>
<path d="M135.857 97.2789H81.656C80.706 97.2789 79.936 96.5089 79.936 95.5589V62.4309C79.936 61.4809 80.706 60.7109 81.656 60.7109H135.857C136.807 60.7109 137.577 61.4809 137.577 62.4309V95.5589C137.577 96.5089 136.807 97.2789 135.857 97.2789Z" fill="#2B2028"/>
<path d="M89.4285 69.0633C89.4285 69.5313 89.0573 69.8017 88.3461 69.8017H86.9465V67.0957H88.2689C88.9453 67.0957 89.2933 67.3777 89.2933 67.7993C89.2933 68.0697 89.1541 68.2785 88.9341 68.3945C89.2353 68.4913 89.4285 68.7233 89.4285 69.0633ZM87.5693 67.5673V68.2049H88.1917C88.4969 68.2049 88.6633 68.0969 88.6633 67.8841C88.6633 67.6713 88.4969 67.5669 88.1917 67.5669H87.5693V67.5673ZM88.7981 68.9973C88.7981 68.7693 88.6245 68.6613 88.2993 68.6613H87.5689V69.3301H88.2993C88.6245 69.3297 88.7981 69.2297 88.7981 68.9973Z" fill="white"/>
<path d="M91.6837 69.2217H90.4273L90.1873 69.8017H89.5457L90.7517 67.0957H91.3705L92.5805 69.8017H91.9233L91.6837 69.2217ZM91.4865 68.7461L91.0573 67.7101L90.6281 68.7461H91.4865Z" fill="white"/>
<path d="M95.3421 67.0957V69.8017H94.8277L93.4789 68.1589V69.8017H92.8601V67.0957H93.3785L94.7233 68.7385V67.0957H95.3421Z" fill="white"/>
<path d="M96.9674 68.7385L96.6042 69.1173V69.8017H95.9814V67.0957H96.6042V68.3597L97.8022 67.0957H98.4978L97.377 68.3017L98.5634 69.8017H97.8326L96.9674 68.7385Z" fill="white"/>
<path d="M88.9217 80.3152H88.4249V80.968H88.1697V80.3152H86.7681V80.1308L88.0845 78.4844H88.3685L87.0985 80.088H88.1769V79.5132H88.4249V80.088H88.9217V80.3152Z" fill="white"/>
<path d="M90.7456 80.2552C90.7456 80.6704 90.4439 80.9896 89.8443 80.9896C89.4859 80.9896 89.1416 80.8652 88.95 80.6704L89.0744 80.468C89.234 80.6348 89.5211 80.7556 89.8443 80.7556C90.2559 80.7556 90.4831 80.564 90.4831 80.2552C90.4831 79.9572 90.2736 79.762 89.8124 79.762H89.6352V79.574L90.3236 78.7116H89.0531V78.4844H90.65V78.6656L89.9476 79.5492C90.4792 79.5772 90.7456 79.8576 90.7456 80.2552Z" fill="white"/>
<path d="M92.7537 80.2368C92.7537 80.6588 92.4589 80.9888 91.8521 80.9888C91.4937 80.9888 91.1533 80.8644 90.9617 80.6696L91.0861 80.4672C91.2453 80.634 91.5297 80.7548 91.8485 80.7548C92.2709 80.7548 92.4945 80.5488 92.4945 80.2476C92.4945 79.9284 92.2961 79.7296 91.6641 79.7296H91.1353L91.2633 78.4844H92.6221V78.7116H91.4869L91.4017 79.5028H91.7213C92.4697 79.5024 92.7537 79.7968 92.7537 80.2368Z" fill="white"/>
<path d="M94.9426 80.2265C94.9426 80.6913 94.577 80.9893 94.0946 80.9893C93.435 80.9893 93.0762 80.5317 93.0762 79.7473C93.0762 78.9029 93.5374 78.4629 94.2118 78.4629C94.4354 78.4629 94.645 78.5021 94.801 78.5977L94.6978 78.8033C94.5702 78.7181 94.3998 78.6865 94.2154 78.6865C93.6794 78.6865 93.3354 79.0305 93.3354 79.7049C93.3354 79.7617 93.339 79.8325 93.3462 79.9069C93.4706 79.6337 93.7614 79.4813 94.1054 79.4813C94.5986 79.4817 94.9426 79.7725 94.9426 80.2265ZM94.6906 80.2337C94.6906 79.9073 94.4494 79.6977 94.0662 79.6977C93.6866 79.6977 93.4274 79.9321 93.4274 80.2405C93.4274 80.5137 93.6546 80.7729 94.0834 80.7729C94.4422 80.7729 94.6906 80.5637 94.6906 80.2337Z" fill="white"/>
<path d="M100.31 80.968L99.7172 80.1872L99.1212 80.968H98.8372L99.5756 80.01L98.8728 79.1016H99.1568L99.7172 79.8324L100.278 79.1016H100.554L99.8516 80.01L100.597 80.968H100.31Z" fill="white"/>
<path d="M102.205 80.968L101.612 80.1872L101.016 80.968H100.732L101.471 80.01L100.768 79.1016H101.052L101.612 79.8324L102.173 79.1016H102.449L101.747 80.01L102.492 80.968H102.205Z" fill="white"/>
<path d="M104.099 80.968L103.506 80.1872L102.91 80.968H102.626L103.365 80.01L102.662 79.1016H102.946L103.506 79.8324L104.067 79.1016H104.344L103.641 80.01L104.386 80.968H104.099Z" fill="white"/>
<path d="M105.994 80.968L105.401 80.1872L104.805 80.968H104.521L105.26 80.01L104.557 79.1016H104.841L105.401 79.8324L105.962 79.1016H106.238L105.536 80.01L106.281 80.968H105.994Z" fill="white"/>
<path d="M112.536 80.968L111.943 80.1872L111.347 80.968H111.063L111.801 80.01L111.098 79.1016H111.382L111.943 79.8324L112.503 79.1016H112.78L112.077 80.01L112.822 80.968H112.536Z" fill="white"/>
<path d="M114.43 80.968L113.838 80.1872L113.242 80.968H112.958L113.696 80.01L112.993 79.1016H113.277L113.838 79.8324L114.398 79.1016H114.675L113.972 80.01L114.717 80.968H114.43Z" fill="white"/>
<path d="M116.324 80.968L115.732 80.1872L115.136 80.968H114.852L115.59 80.01L114.887 79.1016H115.171L115.732 79.8324L116.292 79.1016H116.569L115.866 80.01L116.611 80.968H116.324Z" fill="white"/>
<path d="M118.219 80.968L117.627 80.1872L117.031 80.968H116.747L117.485 80.01L116.782 79.1016H117.066L117.627 79.8324L118.187 79.1016H118.464L117.761 80.01L118.506 80.968H118.219Z" fill="white"/>
<path d="M124.094 78.4848V80.9684H123.839V78.7116H123.254V78.4844H124.094V78.4848Z" fill="white"/>
<path d="M126.329 80.2552C126.329 80.6704 126.028 80.9896 125.428 80.9896C125.07 80.9896 124.725 80.8652 124.534 80.6704L124.658 80.468C124.818 80.6348 125.105 80.7556 125.428 80.7556C125.84 80.7556 126.066 80.564 126.066 80.2552C126.066 79.9572 125.857 79.762 125.396 79.762H125.218V79.574L125.907 78.7116H124.636V78.4844H126.233V78.6656L125.531 79.5492C126.063 79.5772 126.329 79.8576 126.329 80.2552Z" fill="white"/>
<path d="M128.798 80.3152H128.302V80.968H128.046V80.3152H126.645V80.1308L127.961 78.4844H128.245L126.975 80.088H128.054V79.5132H128.302V80.088H128.798V80.3152Z" fill="white"/>
<path d="M130.714 80.7405V80.9677H128.972V80.7869L130.005 79.7757C130.286 79.4989 130.339 79.3321 130.339 79.1617C130.339 78.8745 130.137 78.6969 129.757 78.6969C129.466 78.6969 129.242 78.7857 129.08 78.9737L128.898 78.8177C129.09 78.5905 129.399 78.4629 129.778 78.4629C130.282 78.4629 130.602 78.7185 130.602 79.1337C130.602 79.3713 130.527 79.5841 130.194 79.9109L129.349 80.7413H130.714V80.7405Z" fill="white"/>
<path d="M85.4907 86.1226C85.4907 85.7654 85.7647 85.5098 86.1339 85.5098C86.3387 85.5098 86.5095 85.5842 86.6215 85.7198L86.4455 85.8822C86.3659 85.7906 86.2659 85.7434 86.1475 85.7434C85.9255 85.7434 85.7683 85.899 85.7683 86.1226C85.7683 86.3462 85.9255 86.5018 86.1475 86.5018C86.2659 86.5018 86.3659 86.4546 86.4455 86.3614L86.6215 86.5238C86.5095 86.661 86.3387 86.7354 86.1323 86.7354C85.7647 86.7354 85.4907 86.4802 85.4907 86.1226Z" fill="white"/>
<path d="M87.5651 86.4625H87.0147L86.9095 86.7164H86.6287L87.1571 85.5312H87.4279L87.9579 86.7164H87.6703L87.5651 86.4625ZM87.4787 86.254L87.2911 85.8005L87.1031 86.254H87.4787Z" fill="white"/>
<path d="M88.8383 86.7164L88.6095 86.3865H88.5959H88.3575V86.7164H88.0835V85.5312H88.5963C88.9131 85.5312 89.1111 85.6956 89.1111 85.9612C89.1111 86.1388 89.0215 86.2692 88.8675 86.3352L89.1335 86.7164H88.8383ZM88.5811 85.7544H88.3575V86.1677H88.5811C88.7487 86.1677 88.8335 86.0896 88.8335 85.9612C88.8335 85.8308 88.7487 85.7544 88.5811 85.7544Z" fill="white"/>
<path d="M89.2368 86.5986L89.33 86.3922C89.4296 86.465 89.5784 86.5158 89.7212 86.5158C89.8836 86.5158 89.9496 86.4618 89.9496 86.3886C89.9496 86.167 89.2608 86.3194 89.2608 85.879C89.2608 85.6774 89.4236 85.5098 89.76 85.5098C89.9088 85.5098 90.0616 85.5454 90.1716 85.6146L90.0872 85.823C89.9768 85.7602 89.8632 85.7298 89.7584 85.7298C89.596 85.7298 89.5332 85.7906 89.5332 85.8654C89.5332 86.0838 90.2224 85.933 90.2224 86.3682C90.2224 86.5662 90.058 86.7358 89.7192 86.7358C89.5316 86.7358 89.342 86.6802 89.2368 86.5986Z" fill="white"/>
<path d="M91.9784 85.5312V86.7164H91.7044V86.2305H91.1656V86.7164H90.8916V85.5312H91.1656V85.9984H91.7044V85.5312H91.9784Z" fill="white"/>
<path d="M92.187 86.1226C92.187 85.7706 92.461 85.5098 92.8358 85.5098C93.2078 85.5098 93.4838 85.769 93.4838 86.1226C93.4838 86.4766 93.2078 86.7354 92.8358 86.7354C92.461 86.7354 92.187 86.475 92.187 86.1226ZM93.2062 86.1226C93.2062 85.8974 93.0474 85.7434 92.8358 85.7434C92.6238 85.7434 92.465 85.8974 92.465 86.1226C92.465 86.3478 92.6242 86.5018 92.8358 86.5018C93.047 86.5018 93.2062 86.3478 93.2062 86.1226Z" fill="white"/>
<path d="M93.6931 85.5312H93.9671V86.4928H94.5615V86.7164H93.6931V85.5312Z" fill="white"/>
<path d="M94.7175 85.5312H95.2559C95.6439 85.5312 95.9095 85.7649 95.9095 86.1237C95.9095 86.4825 95.6439 86.7164 95.2559 86.7164H94.7175V85.5312ZM95.2419 86.4909C95.4775 86.4909 95.6315 86.3505 95.6315 86.1237C95.6315 85.8969 95.4775 85.7565 95.2419 85.7565H94.9915V86.4912L95.2419 86.4909Z" fill="white"/>
<path d="M97.0355 86.4945V86.7145H96.1179V85.5293H97.0135V85.7493H96.3903V86.0065H96.9403V86.2197H96.3903V86.4941H97.0355V86.4945Z" fill="white"/>
<path d="M98.0108 86.7164L97.782 86.3865H97.7684H97.5296V86.7164H97.2556V85.5312H97.768C98.0848 85.5312 98.2828 85.6956 98.2828 85.9612C98.2828 86.1388 98.1932 86.2692 98.0392 86.3352L98.3052 86.7164H98.0108ZM97.7532 85.7544H97.5296V86.1677H97.7532C97.9208 86.1677 98.0056 86.0896 98.0056 85.9612C98.006 85.8308 97.9212 85.7544 97.7532 85.7544Z" fill="white"/>
<path d="M102.165 91.1825H85.8537C85.5029 91.1825 85.2185 90.8981 85.2185 90.5473V90.2973C85.2185 89.9465 85.5029 89.6621 85.8537 89.6621H102.165C102.516 89.6621 102.801 89.9465 102.801 90.2973V90.5473C102.8 90.8981 102.516 91.1825 102.165 91.1825Z" fill="white"/>
<path d="M131.223 91.1825H122.727C122.376 91.1825 122.092 90.8981 122.092 90.5473V90.2973C122.092 89.9465 122.376 89.6621 122.727 89.6621H131.223C131.574 89.6621 131.858 89.9465 131.858 90.2973V90.5473C131.858 90.8981 131.574 91.1825 131.223 91.1825Z" fill="white"/>
<g opacity="0.2">
<path d="M135.667 60.7109H81.8461C80.7913 60.7109 79.9365 61.5657 79.9365 62.6205V72.2765C83.3381 74.6473 88.0077 75.0645 92.1513 74.1985C97.0357 73.1773 101.459 70.6801 106.01 68.6329C110.561 66.5857 115.559 64.9425 120.478 65.7853C125.119 66.5809 129.076 69.4721 133.271 71.6113C134.626 72.3025 136.085 72.9117 137.577 73.3465V62.6205C137.577 61.5661 136.722 60.7109 135.667 60.7109Z" fill="white"/>
</g>
<path d="M92.592 126.491H84.6544C82.7144 126.491 81.1416 124.918 81.1416 122.978V115.04C81.1416 113.1 82.7144 111.527 84.6544 111.527H92.592C94.532 111.527 96.1048 113.1 96.1048 115.04V122.978C96.1048 124.918 94.532 126.491 92.592 126.491Z" fill="#2B2028"/>
<path d="M90.0995 121.299H86.8299C86.7415 121.299 86.6643 121.238 86.6427 121.153L85.4327 116.34H84.2979C84.1911 116.34 84.1047 116.253 84.1047 116.146C84.1047 116.04 84.1911 115.953 84.2979 115.953H85.5835C85.6719 115.953 85.7491 116.013 85.7707 116.099L86.9807 120.912H90.0999C90.2067 120.912 90.2931 120.999 90.2931 121.106C90.2931 121.212 90.2063 121.299 90.0995 121.299Z" fill="white"/>
<path d="M87.449 122.835C87.7874 122.835 88.0618 122.561 88.0618 122.222C88.0618 121.884 87.7874 121.609 87.449 121.609C87.1105 121.609 86.8362 121.884 86.8362 122.222C86.8362 122.561 87.1105 122.835 87.449 122.835Z" fill="#2B2028"/>
<path d="M87.4491 123.028C87.0047 123.028 86.6431 122.666 86.6431 122.222C86.6431 121.778 87.0047 121.416 87.4491 121.416C87.8935 121.416 88.2551 121.778 88.2551 122.222C88.2551 122.667 87.8935 123.028 87.4491 123.028ZM87.4491 121.803C87.2179 121.803 87.0295 121.991 87.0295 122.222C87.0295 122.454 87.2179 122.642 87.4491 122.642C87.6803 122.642 87.8687 122.454 87.8687 122.222C87.8687 121.991 87.6803 121.803 87.4491 121.803Z" fill="white"/>
<path d="M90.8504 122.835C91.1888 122.835 91.4632 122.561 91.4632 122.222C91.4632 121.884 91.1888 121.609 90.8504 121.609C90.5119 121.609 90.2375 121.884 90.2375 122.222C90.2375 122.561 90.5119 122.835 90.8504 122.835Z" fill="#2B2028"/>
<path d="M90.8504 123.028C90.406 123.028 90.0444 122.666 90.0444 122.222C90.0444 121.778 90.406 121.416 90.8504 121.416C91.2948 121.416 91.6564 121.778 91.6564 122.222C91.6564 122.667 91.2948 123.028 90.8504 123.028ZM90.8504 121.803C90.6192 121.803 90.4308 121.991 90.4308 122.222C90.4308 122.454 90.6192 122.642 90.8504 122.642C91.082 122.642 91.27 122.454 91.27 122.222C91.27 121.991 91.0816 121.803 90.8504 121.803Z" fill="white"/>
<path d="M91.3772 120.41H86.7184C86.6116 120.41 86.5252 120.324 86.5252 120.217C86.5252 120.11 86.6116 120.024 86.7184 120.024H91.2156L91.7276 117.142C90.604 117.142 85.8936 117.142 85.8528 117.142C85.7464 117.141 85.6608 117.054 85.6616 116.948C85.6624 116.841 85.7488 116.756 85.8548 116.756C85.864 116.752 86.5388 116.756 87.4488 116.756C89.2572 116.756 91.958 116.756 91.958 116.756C92.0152 116.756 92.0692 116.781 92.106 116.825C92.1424 116.868 92.158 116.926 92.148 116.983L91.5672 120.251C91.5512 120.343 91.4708 120.41 91.3772 120.41Z" fill="white"/>
<path d="M129.911 117.769H102.576C101.742 117.769 101.067 117.093 101.067 116.26V115.666C101.067 114.832 101.743 114.156 102.576 114.156H129.911C130.745 114.156 131.421 114.832 131.421 115.666V116.26C131.421 117.093 130.745 117.769 129.911 117.769Z" fill="#E0E0E0"/>
<path d="M114.902 124.869H102.576C101.742 124.869 101.067 124.193 101.067 123.359V122.765C101.067 121.931 101.743 121.256 102.576 121.256H114.902C115.736 121.256 116.411 121.932 116.411 122.765V123.359C116.411 124.193 115.736 124.869 114.902 124.869Z" fill="#E0E0E0"/>
<path d="M144.036 105.891C144.036 105.949 128.239 105.995 108.758 105.995C89.2703 105.995 73.4775 105.948 73.4775 105.891C73.4775 105.834 89.2703 105.787 108.758 105.787C128.239 105.787 144.036 105.834 144.036 105.891Z" fill="#E0E0E0"/>
<path d="M125.657 148.005H92.6068C89.0264 148.005 86.124 145.102 86.124 141.522V138.971C86.124 135.391 89.0264 132.488 92.6068 132.488H125.657C129.237 132.488 132.14 135.391 132.14 138.971V141.522C132.14 145.102 129.237 148.005 125.657 148.005Z" fill="#2B2028"/>
<path d="M108.225 139.512C108.225 140.29 107.638 140.775 106.703 140.775H106.106V141.671H105.136V138.244H106.703C107.638 138.244 108.225 138.729 108.225 139.512ZM107.246 139.512C107.246 139.194 107.046 139.008 106.644 139.008H106.106V140.011H106.644C107.046 140.011 107.246 139.825 107.246 139.512Z" fill="white"/>
<path d="M110.82 141.005H109.371L109.102 141.671H108.113L109.625 138.244H110.58L112.097 141.671H111.089L110.82 141.005ZM110.536 140.29L110.095 139.194L109.654 140.29H110.536Z" fill="white"/>
<path d="M113.992 140.442V141.671H113.023V140.427L111.716 138.244H112.739L113.552 139.605L114.364 138.244H115.304L113.992 140.442Z" fill="white"/>
<path d="M84.9651 46.1601C85.3453 44.5551 84.3524 42.9459 82.7474 42.5657C81.1424 42.1855 79.5331 43.1784 79.153 44.7834C78.7728 46.3884 79.7657 47.9976 81.3707 48.3778C82.9756 48.758 84.5849 47.7651 84.9651 46.1601Z" fill="#2B2028"/>
<path d="M118.85 46.5579H98.6636C98.0592 46.5579 97.5696 46.0679 97.5696 45.4639V45.0335C97.5696 44.4291 98.0596 43.9395 98.6636 43.9395H118.85C119.454 43.9395 119.944 44.4295 119.944 45.0335V45.4639C119.944 46.0683 119.454 46.5579 118.85 46.5579Z" fill="#E0E0E0"/>
<path d="M134.232 152.479H88.5576V155.529H134.232V152.479Z" fill="#2B2028"/>
<path d="M90.7197 154.004C91.1209 154.138 96.4701 154.138 96.4701 164.703C96.4701 175.268 96.2025 188.374 101.82 188.775C107.437 189.176 136.992 188.775 136.992 188.775V162.26C136.992 157.841 133.423 154.251 129.004 154.225L90.7197 154.004Z" fill="#FAFAFA"/>
<path d="M90.7197 154.004C91.2913 154.006 99.2685 154.03 112.935 154.07C116.381 154.083 120.156 154.097 124.207 154.112C125.221 154.117 126.251 154.122 127.298 154.126C128.34 154.149 129.415 154.071 130.491 154.284C131.56 154.486 132.605 154.911 133.533 155.54C134.457 156.174 135.261 157.008 135.865 157.986C136.471 158.962 136.875 160.082 137.021 161.25C137.092 161.836 137.094 162.43 137.091 163.015C137.091 163.603 137.091 164.195 137.092 164.79C137.093 167.169 137.093 169.598 137.094 172.07C137.095 177.016 137.096 182.136 137.096 187.381C137.096 187.859 137.096 188.335 137.096 188.775V188.878L136.993 188.879C126.657 189.003 116.826 189.096 107.894 189.025C106.777 189.016 105.675 188.997 104.587 188.974C103.496 188.933 102.432 188.945 101.361 188.8C100.829 188.685 100.334 188.446 99.9109 188.12C99.4993 187.78 99.1577 187.374 98.8713 186.94C98.3101 186.063 97.9569 185.098 97.6781 184.144C97.1361 182.224 96.8965 180.31 96.7281 178.477C96.5645 176.641 96.4937 174.874 96.4521 173.189C96.3653 169.819 96.4325 166.769 96.3933 164.098C96.3413 161.436 95.9277 159.126 95.1029 157.438C94.6993 156.59 94.1809 155.927 93.6729 155.419C93.1485 154.922 92.6117 154.618 92.1653 154.413C91.2521 154.041 90.7069 154.035 90.7197 154.004C90.7789 154.013 90.8797 154.028 91.0989 154.062C91.3477 154.108 91.7213 154.185 92.1813 154.375C92.6341 154.576 93.1801 154.878 93.7149 155.375C94.2329 155.884 94.7621 156.55 95.1749 157.403C96.0181 159.101 96.4453 161.424 96.5085 164.096C96.5589 166.772 96.5017 169.818 96.5981 173.186C96.6445 174.869 96.7197 176.633 96.8869 178.463C97.0589 180.29 97.3025 182.196 97.8429 184.097C98.1205 185.041 98.4717 185.992 99.0197 186.844C99.2993 187.265 99.6297 187.655 100.023 187.979C100.426 188.289 100.894 188.514 101.397 188.622C102.421 188.759 103.511 188.75 104.591 188.787C105.678 188.809 106.78 188.827 107.896 188.834C116.825 188.894 126.655 188.796 136.991 188.671L136.888 188.775C136.888 188.335 136.888 187.858 136.888 187.381C136.889 182.137 136.889 177.016 136.89 172.07C136.891 169.598 136.891 167.168 136.892 164.79C136.893 164.195 136.893 163.603 136.893 163.015C136.897 162.424 136.895 161.844 136.826 161.275C136.684 160.134 136.292 159.041 135.701 158.087C135.112 157.132 134.328 156.316 133.426 155.696C132.521 155.079 131.501 154.664 130.456 154.464C129.411 154.254 128.345 154.328 127.304 154.304C126.263 154.297 125.237 154.29 124.229 154.283C120.198 154.252 116.442 154.222 113.013 154.195C99.2989 154.077 91.2933 154.009 90.7197 154.004Z" fill="#2B2028"/>
<path d="M101.956 188.775C101.956 188.775 106.579 188.775 107.57 181.954C108.751 173.828 107.57 166.709 113.856 166.441C120.142 166.174 136.992 166.441 136.992 166.441V188.775H101.956Z" fill="#E0E0E0"/>
<path d="M113.066 166.521C113.066 166.521 118.135 165.906 118.135 174.331C118.135 182.757 118.269 188.329 123.886 188.953C129.502 189.577 164.006 188.953 164.006 188.953C164.006 188.953 158.523 186.367 158.122 178.745C157.72 171.122 156.116 166.471 150.632 166.322C145.15 166.173 113.066 166.521 113.066 166.521Z" fill="#FAFAFA"/>
<path d="M113.066 166.52C113.124 166.518 113.215 166.514 113.407 166.506C113.637 166.502 113.97 166.495 114.405 166.486C115.288 166.472 116.582 166.453 118.246 166.428C121.589 166.391 126.418 166.338 132.388 166.273C135.376 166.252 138.65 166.23 142.165 166.205C143.923 166.203 145.741 166.2 147.615 166.197C148.552 166.202 149.502 166.206 150.467 166.225C151.434 166.263 152.431 166.387 153.362 166.782C154.286 167.184 155.103 167.848 155.714 168.672C156.331 169.495 156.771 170.446 157.102 171.434C157.728 173.427 158.008 175.547 158.156 177.698C158.192 178.237 158.22 178.78 158.279 179.315L158.359 180.122L158.51 180.923L158.585 181.324L158.694 181.718L158.92 182.507C159.119 183.018 159.294 183.54 159.555 184.028C160.519 186.001 162.072 187.776 164.05 188.858L164.4 189.05L164.008 189.057C163.706 189.062 163.379 189.068 163.052 189.073C153.792 189.225 144.97 189.326 136.946 189.324C132.934 189.316 129.12 189.305 125.552 189.153C124.662 189.092 123.778 189.073 122.926 188.87C122.081 188.664 121.281 188.288 120.652 187.724C120.018 187.166 119.56 186.458 119.242 185.724C118.918 184.99 118.713 184.23 118.567 183.483C118.277 181.986 118.188 180.536 118.133 179.17C118.082 177.803 118.079 176.514 118.077 175.308C118.082 174.705 118.079 174.124 118.051 173.567C118.036 173.288 118.041 173.013 118.012 172.747C117.979 172.481 117.947 172.22 117.916 171.965C117.9 171.837 117.884 171.711 117.869 171.586C117.842 171.464 117.814 171.342 117.788 171.222C117.734 170.983 117.681 170.748 117.63 170.52C117.554 170.298 117.48 170.082 117.408 169.871C117.371 169.766 117.334 169.662 117.299 169.56C117.251 169.463 117.204 169.368 117.157 169.273C116.815 168.5 116.323 167.91 115.83 167.495C115.337 167.072 114.828 166.833 114.403 166.708C113.98 166.573 113.638 166.536 113.411 166.526C113.297 166.518 113.211 166.52 113.153 166.52C113.112 166.52 113.088 166.52 113.066 166.52C113.062 166.523 113.094 166.512 113.153 166.509C113.211 166.505 113.298 166.5 113.412 166.504C113.641 166.508 113.986 166.538 114.416 166.668C114.847 166.788 115.366 167.024 115.87 167.447C116.374 167.863 116.878 168.459 117.23 169.238C118.024 170.772 118.206 172.91 118.195 175.308C118.202 176.513 118.21 177.801 118.267 179.165C118.327 180.527 118.421 181.972 118.713 183.454C118.86 184.194 119.065 184.943 119.384 185.662C119.698 186.38 120.146 187.066 120.759 187.603C121.368 188.146 122.142 188.508 122.966 188.707C123.794 188.903 124.675 188.922 125.562 188.98C129.123 189.124 132.936 189.128 136.947 189.132C144.969 189.122 153.79 189.016 163.049 188.864C163.376 188.859 163.703 188.853 164.005 188.848L163.962 189.046C161.918 187.927 160.357 186.13 159.37 184.119C159.106 183.622 158.928 183.091 158.726 182.572L158.497 181.771L158.386 181.37L158.31 180.963L158.158 180.151L158.077 179.333C158.017 178.787 157.99 178.249 157.954 177.712C157.808 175.57 157.53 173.462 156.914 171.496C156.589 170.522 156.158 169.59 155.56 168.789C154.966 167.988 154.18 167.348 153.287 166.956C152.386 166.573 151.417 166.451 150.463 166.412C149.501 166.391 148.551 166.385 147.614 166.379C145.741 166.378 143.923 166.377 142.166 166.376C138.65 166.392 135.378 166.406 132.39 166.418C126.418 166.456 121.59 166.486 118.247 166.507C116.582 166.516 115.289 166.522 114.405 166.526C113.97 166.526 113.636 166.526 113.406 166.527C113.214 166.523 113.124 166.522 113.066 166.52Z" fill="#2B2028"/>
<path d="M114.403 166.507C114.403 166.532 113.998 166.49 113.282 166.59C112.579 166.69 111.523 166.997 110.594 167.899C109.651 168.776 108.949 170.209 108.597 171.873C108.234 173.543 108.214 175.437 108.127 177.418C108.044 179.398 107.914 181.302 107.482 182.981C107.274 183.822 106.967 184.591 106.654 185.289C106.335 185.988 105.977 186.617 105.561 187.129C105.148 187.642 104.67 188.019 104.21 188.269C103.746 188.516 103.307 188.631 102.949 188.705C102.588 188.763 102.305 188.789 102.112 188.783C101.92 188.784 101.82 188.782 101.82 188.775C101.82 188.767 101.92 188.756 102.11 188.741C102.301 188.733 102.58 188.695 102.933 188.627C103.282 188.542 103.708 188.417 104.154 188.168C104.595 187.915 105.051 187.543 105.446 187.037C105.844 186.533 106.188 185.913 106.496 185.219C106.801 184.522 107.096 183.765 107.296 182.935C107.712 181.276 107.836 179.387 107.919 177.409C108.006 175.434 108.03 173.528 108.409 171.832C108.777 170.146 109.508 168.682 110.493 167.793C111.463 166.878 112.556 166.586 113.271 166.51C113.453 166.487 113.615 166.475 113.756 166.476C113.896 166.471 114.015 166.471 114.111 166.479C114.303 166.49 114.403 166.499 114.403 166.507Z" fill="#2B2028"/>
<path d="M131.233 160.125C131.233 160.183 124.753 160.229 116.761 160.229C108.766 160.229 102.287 160.183 102.287 160.125C102.287 160.068 108.766 160.021 116.761 160.021C124.752 160.021 131.233 160.068 131.233 160.125Z" fill="#E0E0E0"/>
<path d="M131.83 164.432C131.83 164.49 125.564 164.536 117.837 164.536C110.106 164.536 103.842 164.489 103.842 164.432C103.842 164.375 110.106 164.328 117.837 164.328C125.564 164.328 131.83 164.375 131.83 164.432Z" fill="#E0E0E0"/>
<path d="M151.566 172.803C151.566 172.861 145.086 172.907 137.094 172.907C129.099 172.907 122.62 172.861 122.62 172.803C122.62 172.746 129.099 172.699 137.094 172.699C145.086 172.699 151.566 172.746 151.566 172.803Z" fill="#E0E0E0"/>
<path d="M151.925 177.829C151.925 177.886 145.98 177.933 138.649 177.933C131.315 177.933 125.371 177.886 125.371 177.829C125.371 177.771 131.315 177.725 138.649 177.725C145.98 177.725 151.925 177.771 151.925 177.829Z" fill="#E0E0E0"/>
<path d="M127.738 71.1188H124.92C124.224 71.1188 123.66 70.5548 123.66 69.8592V67.0409C123.66 66.3453 124.224 65.7812 124.92 65.7812H127.738C128.434 65.7812 128.998 66.3453 128.998 67.0409V69.8592C128.998 70.5548 128.434 71.1188 127.738 71.1188Z" fill="white"/>
<path d="M29.1413 59.9232L26.4953 59.604C24.8201 60.7228 22.7901 61.3596 20.5949 61.3044C15.4177 61.1744 11.1097 57.0476 10.7461 51.8816C10.3261 45.9124 15.1209 40.862 21.1477 41.0172C26.2641 41.1492 30.5369 45.1788 30.9757 50.278C31.1937 52.8084 30.4701 55.1796 29.1117 57.0716L29.1161 57.068L29.1413 59.9232Z" fill="white"/>
<path d="M29.1413 59.9226C29.1413 59.9226 29.1365 59.855 29.1329 59.7298C29.1297 59.5978 29.1253 59.4146 29.1193 59.1778C29.1101 58.6894 29.0965 57.9818 29.0793 57.0678L29.1397 57.0962C29.1397 57.0962 29.1369 57.0986 29.1353 57.0998C29.1193 57.113 29.0961 57.1106 29.0829 57.0946C29.0721 57.0814 29.0721 57.0622 29.0817 57.049C29.8021 56.0262 30.6013 54.5086 30.8617 52.5278C30.9949 51.543 30.9789 50.4558 30.7769 49.325C30.5653 48.197 30.1373 47.0322 29.4661 45.935C28.7909 44.8422 27.8669 43.8242 26.7265 43.0046C25.5885 42.1886 24.2349 41.5518 22.7505 41.2866C21.2725 41.009 19.6825 41.0646 18.1505 41.4854C16.6137 41.8966 15.1605 42.7322 13.9605 43.8706C13.3373 44.4322 12.8357 45.1014 12.3749 45.7798C12.1705 46.135 11.9601 46.487 11.7853 46.853L11.5453 47.4114L11.4273 47.6898L11.3377 47.9778C10.8281 49.5026 10.7145 51.1054 10.9209 52.6094C11.1205 54.1198 11.7105 55.511 12.4865 56.6906C13.2681 57.8722 14.2605 58.8402 15.3361 59.5602C16.4157 60.2766 17.5721 60.749 18.6977 61.0026C18.9817 61.0526 19.2613 61.1014 19.5361 61.1498C19.8117 61.1918 20.0869 61.1974 20.3549 61.2226C20.8921 61.2642 21.4125 61.2394 21.9077 61.1934C23.9001 60.997 25.4401 60.2514 26.4745 59.5734C26.4817 59.5686 26.4909 59.5666 26.4989 59.5674C27.3405 59.6782 27.9953 59.7642 28.4485 59.8242C28.6677 59.8542 28.8377 59.8774 28.9609 59.8946C29.0781 59.911 29.1413 59.9226 29.1413 59.9226C29.1413 59.9226 29.0869 59.9202 28.9741 59.909C28.8525 59.8966 28.6845 59.879 28.4685 59.8566C28.0089 59.8062 27.3449 59.733 26.4913 59.6394L26.5157 59.6334C25.4829 60.3294 23.9349 61.0978 21.9205 61.3098C21.4201 61.3598 20.8933 61.3878 20.3493 61.3494C20.0777 61.3258 19.7989 61.321 19.5193 61.2802C19.2405 61.2326 18.9569 61.1842 18.6685 61.1354C17.5261 60.8838 16.3505 60.4102 15.2521 59.687C14.1577 58.9606 13.1469 57.981 12.3489 56.7822C11.5569 55.5854 10.9537 54.1714 10.7477 52.6346C10.5345 51.1046 10.6485 49.473 11.1657 47.9202L11.2569 47.627L11.3769 47.3434C11.4581 47.1546 11.5393 46.965 11.6209 46.775C11.7985 46.4022 12.0121 46.0434 12.2205 45.6818C12.6889 44.991 13.2001 44.3098 13.8341 43.7374C15.0557 42.5782 16.5365 41.7282 18.1013 41.311C19.6617 40.8838 21.2789 40.8298 22.7833 41.1146C24.2937 41.3874 25.6693 42.0382 26.8237 42.8706C27.9801 43.707 28.9153 44.7434 29.5965 45.8558C30.2737 46.9722 30.7029 48.1558 30.9117 49.301C31.1113 50.4486 31.1205 51.549 30.9793 52.5446C30.7021 54.5474 29.8805 56.0726 29.1421 57.0934L29.0885 57.0426C29.0901 57.0414 29.0929 57.039 29.0929 57.039C29.1089 57.0258 29.1321 57.0282 29.1453 57.0438C29.1509 57.0506 29.1537 57.0594 29.1537 57.0674C29.1521 57.9918 29.1513 58.7074 29.1505 59.201C29.1489 59.4338 29.1477 59.6142 29.1465 59.7442C29.1449 59.865 29.1413 59.9226 29.1413 59.9226Z" fill="#2B2028"/>
<path d="M16.3865 51.781L17.6577 50.4206L20.2721 52.5902L25.0905 47.627L26.3573 48.9014L20.1705 55.1342L16.3865 51.781Z" fill="#C29E8A"/>
<path d="M38.7646 46.9804C39.375 43.0264 42.9198 40.2044 46.9098 40.4952L47.3062 40.524C51.5634 41.0852 53.465 45.014 52.7862 49.254L51.3042 64.3036L51.2326 67.414L41.0934 68.3336L41.3114 61.7656C41.3114 61.7656 37.2478 60.8272 37.4966 56.714C37.6166 54.7284 38.197 50.658 38.7646 46.9804Z" fill="#FFBF9D"/>
<path d="M41.2779 61.7578C41.2779 61.7578 43.8907 62.107 46.7771 60.5742C46.7771 60.5742 45.3483 63.5406 41.2747 62.8718L41.2779 61.7578Z" fill="#FF9A6C"/>
<path d="M40.357 51.0781C40.3234 51.3873 40.5574 51.6705 40.8798 51.7113C41.2014 51.7521 41.4898 51.5353 41.523 51.2265C41.5566 50.9173 41.3226 50.6337 41.001 50.5929C40.679 50.5517 40.3906 50.7689 40.357 51.0781Z" fill="#2B2028"/>
<path d="M39.5014 49.0556C39.5686 49.1372 40.037 48.8408 40.6686 48.8884C41.2998 48.9268 41.7398 49.2856 41.8138 49.2132C41.8498 49.1812 41.7858 49.0376 41.595 48.876C41.407 48.7152 41.0786 48.5484 40.685 48.5212C40.2914 48.4948 39.9502 48.6156 39.749 48.75C39.5438 48.8852 39.4682 49.0188 39.5014 49.0556Z" fill="#2B2028"/>
<path d="M46.2742 51.6426C46.2406 51.9518 46.475 52.2346 46.797 52.2758C47.1186 52.317 47.407 52.1002 47.4406 51.791C47.4742 51.4822 47.2398 51.1986 46.9182 51.1574C46.5962 51.1158 46.3078 51.3334 46.2742 51.6426Z" fill="#2B2028"/>
<path d="M45.7001 49.6251C45.7673 49.7071 46.2365 49.4107 46.8673 49.4583C47.4985 49.4967 47.9385 49.8555 48.0125 49.7831C48.0485 49.7515 47.9853 49.6079 47.7933 49.4463C47.6053 49.2855 47.2769 49.1187 46.8837 49.0915C46.4901 49.0651 46.1489 49.1859 45.9477 49.3199C45.7433 49.4547 45.6669 49.5883 45.7001 49.6251Z" fill="#2B2028"/>
<path d="M43.0669 54.1413C43.0725 54.1057 42.6849 54.0089 42.0549 53.8813C41.8949 53.8529 41.7445 53.8097 41.7253 53.6977C41.6957 53.5785 41.7761 53.4097 41.8677 53.2277C42.0477 52.8485 42.2361 52.4513 42.4341 52.0345C43.2237 50.3345 43.8077 48.9321 43.7389 48.9009C43.6701 48.8697 42.9745 50.2221 42.1849 51.9225C41.9941 52.3421 41.8117 52.7417 41.6381 53.1245C41.5637 53.3033 41.4437 53.5037 41.5085 53.7513C41.5433 53.8749 41.6553 53.9713 41.7565 54.0065C41.8577 54.0457 41.9481 54.0541 42.0277 54.0645C42.6653 54.1449 43.0621 54.1769 43.0669 54.1413Z" fill="#2B2028"/>
<path d="M44.8937 54.7131C44.7913 54.6995 44.7401 55.3851 44.1181 55.8287C43.4969 56.2739 42.7717 56.1439 42.7597 56.2395C42.7469 56.2819 42.9125 56.3843 43.2205 56.4155C43.5221 56.4479 43.9713 56.3831 44.3517 56.1115C44.7313 55.8391 44.9141 55.4523 44.9581 55.1727C45.0049 54.8879 44.9409 54.7123 44.8937 54.7131Z" fill="#2B2028"/>
<path d="M45.7173 47.1381C45.7673 47.3145 46.4037 47.2789 47.1377 47.4221C47.8749 47.5505 48.4565 47.8109 48.5661 47.6641C48.6153 47.5937 48.5229 47.4245 48.2933 47.2405C48.0661 47.0573 47.6953 46.8713 47.2545 46.7897C46.8133 46.7085 46.4009 46.7497 46.1229 46.8397C45.8429 46.9301 45.6965 47.0549 45.7173 47.1381Z" fill="#2B2028"/>
<path d="M39.8665 47.2446C39.9673 47.3962 40.4129 47.279 40.9365 47.3102C41.4613 47.323 41.8957 47.477 42.0085 47.3342C42.0585 47.2646 41.9993 47.1158 41.8157 46.9658C41.6349 46.8166 41.3237 46.6826 40.9637 46.6674C40.6033 46.6526 40.2825 46.7598 40.0897 46.8934C39.8941 47.0282 39.8225 47.1714 39.8665 47.2446Z" fill="#2B2028"/>
<path d="M51.835 53.2055C51.907 52.5731 52.4902 52.1123 53.1178 52.2183C53.8786 52.3471 54.6998 52.8443 54.5342 54.4243C54.2398 57.2271 51.4866 56.3535 51.4902 56.2723C51.4922 56.2175 51.7014 54.3771 51.835 53.2055Z" fill="#FFBF9D"/>
<path d="M52.2102 55.2828C52.2234 55.2752 52.2554 55.3224 52.3342 55.3688C52.4106 55.414 52.5466 55.454 52.6982 55.4148C53.0058 55.3372 53.3046 54.8936 53.371 54.3896C53.405 54.1356 53.377 53.8868 53.3078 53.6764C53.2438 53.4624 53.1262 53.3052 52.9798 53.2632C52.835 53.2132 52.7202 53.2912 52.6774 53.3668C52.6314 53.4412 52.6434 53.4992 52.6282 53.5024C52.6198 53.5084 52.573 53.4492 52.6078 53.3356C52.6254 53.2812 52.665 53.2184 52.7366 53.1716C52.8098 53.124 52.9114 53.1064 53.0142 53.1288C53.2286 53.1664 53.4022 53.3856 53.4786 53.6168C53.5666 53.85 53.6038 54.13 53.5658 54.4156C53.4886 54.9784 53.1438 55.4768 52.7266 55.5512C52.5238 55.582 52.3658 55.5052 52.2878 55.43C52.2082 55.3512 52.2002 55.2868 52.2102 55.2828Z" fill="#FF9A6C"/>
<path d="M54.0809 50.3486C53.8489 51.1522 53.9333 52.4866 53.2141 52.3054C51.7885 51.9462 52.1305 54.8682 51.4461 54.5818C50.7713 54.2998 50.1749 53.4678 50.1325 51.6702C50.0789 49.3878 50.9973 47.7402 50.0981 45.1258C49.4957 44.077 48.4225 43.363 47.2133 43.335C46.0041 43.307 44.8357 43.919 44.1853 44.939C44.0569 44.1426 43.6693 42.9414 42.9601 42.5578C42.2505 42.1742 41.3033 42.2194 40.6925 42.7462C40.0813 43.273 39.9141 44.2782 40.3957 44.9258C40.0709 45.0314 39.6829 44.8918 39.4997 44.6034C39.4697 44.9746 39.6025 45.3562 39.8557 45.6294C39.5645 45.5558 39.3021 45.373 39.1325 45.1254C39.2033 45.455 39.2741 45.7846 39.3449 46.1142C38.1429 46.1462 36.9669 44.9822 36.6329 43.9466C36.1269 42.377 36.5173 40.7938 37.3941 39.397C38.2713 38.0002 39.8421 37.0162 41.4913 37.0314C43.1405 37.0462 44.5217 37.8278 45.1577 39.3494C46.2281 38.5918 48.3961 38.3294 49.5897 38.8718C50.7833 39.4142 51.6493 40.6194 51.7825 41.9238C52.5289 41.6082 53.4253 41.8534 54.0541 42.3646C54.1065 42.407 54.1573 42.4514 54.2069 42.497C55.0693 43.2934 55.4225 44.505 55.2025 45.6582C55.1153 46.1154 54.9573 46.5886 54.8641 46.9558C54.5869 48.0458 54.0809 50.3486 54.0809 50.3486Z" fill="#2B2028"/>
<path d="M39.3121 44.5304C39.3093 44.5336 39.2765 44.5076 39.2165 44.4544C39.1561 44.4016 39.0721 44.3172 38.9801 44.1952C38.7937 43.9564 38.5737 43.5504 38.5093 43.0016C38.4417 42.4636 38.5673 41.7516 39.0689 41.2032C39.5489 40.6592 40.3613 40.2716 41.2125 40.3936C41.6329 40.4528 42.0201 40.6216 42.3497 40.8392C42.6801 41.058 42.9597 41.3236 43.1873 41.6052C43.6481 42.1672 43.9121 42.7796 44.0477 43.3064C44.1857 43.8356 44.2001 44.282 44.1877 44.5848C44.1773 44.7368 44.1677 44.854 44.1529 44.9328C44.1405 45.012 44.1321 45.0528 44.1281 45.0524C44.0937 45.0556 44.2485 44.3712 43.9629 43.3296C43.8189 42.8156 43.5525 42.2212 43.0993 41.6784C42.6553 41.142 41.9997 40.634 41.1953 40.5164C40.3925 40.4008 39.6161 40.7648 39.1541 41.2796C38.6725 41.7972 38.5429 42.4704 38.5965 42.9928C38.6473 43.524 38.8481 43.9248 39.0189 44.1672C39.1909 44.4124 39.3213 44.5212 39.3121 44.5304Z" fill="#455A64"/>
<path d="M38.7618 45.7859C38.7578 45.7879 38.7286 45.7407 38.6766 45.6491C38.625 45.5571 38.5494 45.4211 38.4566 45.2439C38.275 44.8883 38.0022 44.3707 37.7966 43.6787C37.697 43.3327 37.6194 42.9407 37.6122 42.5139C37.6062 42.0891 37.665 41.6255 37.8558 41.1799C38.043 40.7343 38.379 40.3235 38.8186 40.0339C39.2582 39.7459 39.7882 39.5627 40.3442 39.5287C40.901 39.4915 41.4438 39.6007 41.9318 39.7823C42.4198 39.9679 42.8562 40.2283 43.2322 40.5231C43.987 41.1123 44.483 41.8743 44.6526 42.5819C44.8278 43.2911 44.7162 43.8971 44.5698 44.2691C44.4986 44.4587 44.4146 44.5923 44.3598 44.6827C44.2982 44.7691 44.2646 44.8131 44.261 44.8107C44.2482 44.8035 44.3918 44.6279 44.5242 44.2527C44.6542 43.8831 44.7486 43.2903 44.5674 42.6039C44.3922 41.9203 43.903 41.1847 43.1614 40.6135C42.429 40.0471 41.433 39.5879 40.3518 39.6531C39.8174 39.6855 39.307 39.8615 38.885 40.1359C38.463 40.4123 38.1426 40.7999 37.9602 41.2255C37.7746 41.6507 37.713 42.0991 37.7146 42.5127C37.7174 42.9287 37.7878 43.3127 37.8806 43.6551C38.0722 44.3399 38.3314 44.8611 38.4994 45.2227C38.5814 45.3939 38.6474 45.5315 38.6982 45.6383C38.7438 45.7327 38.7654 45.7839 38.7618 45.7859Z" fill="#455A64"/>
<path d="M53.0902 48.532C53.0754 48.514 53.349 48.3216 53.6902 47.916C54.031 47.5156 54.4222 46.874 54.5862 46.084C54.7498 45.2936 54.6462 44.5496 54.4926 44.0464C54.341 43.5384 54.1662 43.2532 54.187 43.2424C54.1934 43.2384 54.243 43.3056 54.3182 43.4364C54.3934 43.5668 54.4882 43.7644 54.5762 44.02C54.7546 44.5264 54.8766 45.2928 54.7074 46.1092C54.5378 46.9252 54.121 47.5796 53.7558 47.9736C53.5734 48.1728 53.4078 48.3164 53.287 48.406C53.167 48.496 53.0946 48.538 53.0902 48.532Z" fill="#455A64"/>
<path d="M50.5328 48.4524C50.5276 48.4404 50.6732 48.39 50.8952 48.2384C51.1132 48.0876 51.4128 47.818 51.6032 47.3856L51.7212 47.1172L51.6948 47.41C51.6592 47.8052 51.6184 48.2604 51.574 48.754L51.4824 48.6992C51.8136 48.4744 52.136 48.1704 52.4 47.8008C52.7364 47.334 52.9408 46.8116 53.0276 46.322C53.1136 45.8304 53.0888 45.374 53.0196 45.0028C52.8764 44.2548 52.5965 43.8532 52.6229 43.842C52.6265 43.8396 52.6445 43.8636 52.6761 43.9108C52.7085 43.9576 52.75 44.03 52.8008 44.1252C52.9004 44.316 53.0229 44.6068 53.1057 44.9856C53.1873 45.3632 53.2224 45.8324 53.1404 46.3412C53.0572 46.8484 52.8489 47.3904 52.5013 47.8732C52.2289 48.2552 51.8933 48.568 51.5485 48.7972L51.4436 48.8668L51.4568 48.7424C51.5092 48.2496 51.5576 47.7952 51.5992 47.4008L51.6909 47.4252C51.4797 47.8752 51.1572 48.1428 50.9244 48.284C50.8064 48.3556 50.7076 48.3984 50.6396 48.424C50.5716 48.4476 50.5344 48.4568 50.5328 48.4524Z" fill="#455A64"/>
<path d="M49.7537 42.539C49.7289 42.5562 49.6093 42.139 49.1037 41.7286C48.8533 41.5294 48.5089 41.3414 48.0937 41.2586C47.6801 41.1738 47.2005 41.2122 46.7421 41.381C46.2837 41.5526 45.8945 41.831 45.6101 42.1458C45.3225 42.4598 45.1305 42.7986 45.0005 43.0942C44.7461 43.6918 44.7197 44.105 44.6945 44.0998C44.6877 44.099 44.6877 43.997 44.7145 43.8146C44.7413 43.6326 44.7993 43.3698 44.9193 43.061C45.0417 42.7542 45.2313 42.3998 45.5249 42.0698C45.8153 41.7382 46.2197 41.4438 46.6985 41.265C47.1777 41.0886 47.6821 41.0514 48.1161 41.147C48.5513 41.2402 48.9061 41.4454 49.1589 41.6614C49.4113 41.8806 49.5665 42.1066 49.6505 42.2714C49.6921 42.3546 49.7209 42.4202 49.7349 42.467C49.7517 42.5126 49.7577 42.5374 49.7537 42.539Z" fill="#455A64"/>
<path d="M49.0973 40.3959C49.0845 40.4191 48.8241 40.2123 48.3229 40.0971C47.8317 39.9783 47.0825 39.9963 46.3953 40.3695C45.7085 40.7459 45.2689 41.3399 45.0301 41.7887C44.7869 42.2427 44.7086 42.5579 44.6866 42.5507C44.6794 42.5487 44.6913 42.4687 44.7297 42.3275C44.7677 42.1863 44.8377 41.9851 44.9521 41.7487C45.1757 41.2803 45.6185 40.6539 46.3361 40.2607C47.0565 39.8699 47.8409 39.8667 48.3441 40.0123C48.5993 40.0831 48.7933 40.1771 48.9165 40.2567C49.0409 40.3359 49.1013 40.3903 49.0973 40.3959Z" fill="#455A64"/>
<path d="M40.0689 172.855L40.3517 180.547C40.3517 180.547 32.6277 183.418 32.5413 184.845L47.4765 184.832L47.5277 172.828L40.0689 172.855Z" fill="#2B2028"/>
<path d="M44.9693 179.896C45.2585 179.975 45.4585 180.3 45.3917 180.592C45.3249 180.884 44.9961 181.09 44.7057 181.017C44.4153 180.943 44.1633 180.561 44.2625 180.277C44.3617 179.995 44.7605 179.774 45.0249 179.915" fill="#E0E0E0"/>
<path d="M47.4764 184.831L47.4344 183.621L33.1308 184.086C33.1308 184.086 32.466 184.376 32.5416 184.844L47.4764 184.831Z" fill="#2B2028"/>
<path d="M40.1093 180.47C40.1117 180.543 40.4765 180.576 40.8357 180.81C41.2009 181.035 41.3861 181.351 41.4533 181.322C41.5205 181.308 41.4113 180.872 40.9717 180.596C40.5345 180.316 40.0937 180.403 40.1093 180.47Z" fill="white"/>
<path d="M38.5436 181.119C38.5272 181.19 38.8428 181.314 39.0908 181.622C39.3476 181.923 39.4104 182.256 39.4832 182.253C39.5516 182.265 39.6016 181.838 39.286 181.46C38.974 181.08 38.5448 181.05 38.5436 181.119Z" fill="white"/>
<path d="M37.6552 182.996C37.7216 183.012 37.8228 182.647 37.6352 182.248C37.4504 181.847 37.1064 181.69 37.0756 181.751C37.0344 181.811 37.256 182.025 37.4048 182.355C37.5616 182.682 37.5828 182.989 37.6552 182.996Z" fill="white"/>
<path d="M40.2397 178.712C40.2705 178.778 40.6049 178.677 41.0169 178.705C41.4297 178.724 41.7505 178.862 41.7885 178.8C41.8309 178.747 41.5173 178.477 41.0313 178.452C40.5457 178.422 40.2037 178.655 40.2397 178.712Z" fill="white"/>
<path d="M57.2067 173.557L57.8011 182.851L56.1515 190.337C56.0327 190.877 56.3955 191.405 56.9419 191.487C57.2479 191.532 57.5547 191.429 57.7691 191.206C59.1331 189.786 64.1255 184.537 64.0439 183.859C63.9495 183.075 64.0679 174.014 64.0679 174.014L57.2067 173.557Z" fill="#2B2028"/>
<path d="M56.9424 191.486L64.0188 183.23L64.0348 183.625C64.0488 183.966 63.9428 184.301 63.7328 184.569C63.1704 185.288 61.574 187.238 57.7976 191.204C57.578 191.435 57.256 191.541 56.9424 191.486Z" fill="#2B2028"/>
<g opacity="0.6">
<path d="M61.9859 180.307C61.7591 180.478 61.6975 180.834 61.8587 181.067C62.0203 181.301 62.3815 181.367 62.6107 181.2C62.8403 181.033 62.9275 180.608 62.7411 180.395C62.5547 180.181 62.1263 180.127 61.9435 180.343" fill="white"/>
</g>
<path d="M58.9023 187.334C58.8507 187.362 58.6211 186.883 58.0567 186.644C57.4999 186.387 56.9911 186.54 56.9771 186.483C56.9679 186.46 57.0831 186.383 57.2995 186.344C57.5139 186.303 57.8303 186.32 58.1395 186.457C58.4487 186.594 58.6743 186.816 58.7887 187.002C58.9047 187.189 58.9251 187.326 58.9023 187.334Z" fill="white"/>
<path d="M58.2907 188.608C58.2479 188.65 57.937 188.359 57.4498 188.241C56.9654 188.112 56.5538 188.219 56.5362 188.161C56.5074 188.115 56.9475 187.899 57.5003 188.043C58.0547 188.181 58.3379 188.581 58.2907 188.608Z" fill="white"/>
<path d="M60.0706 185.687C60.0286 185.733 59.5526 185.284 58.8114 185.034C58.0742 184.772 57.4222 184.831 57.4178 184.769C57.4006 184.719 58.0866 184.562 58.8782 184.841C59.6722 185.111 60.1142 185.659 60.0706 185.687Z" fill="white"/>
<path d="M60.1258 182.846C60.1034 182.903 59.5806 182.709 58.9106 182.713C58.2406 182.707 57.717 182.898 57.6946 182.841C57.667 182.797 58.191 182.503 58.911 182.508C59.631 182.506 60.1534 182.802 60.1258 182.846Z" fill="white"/>
<path d="M60.0206 180.113C59.9938 180.168 59.4642 179.879 58.759 179.94C58.0526 179.986 57.5726 180.351 57.5378 180.301C57.5218 180.282 57.6186 180.161 57.8278 180.028C58.0354 179.895 58.3634 179.766 58.7434 179.736C59.1238 179.708 59.467 179.787 59.6922 179.887C59.9194 179.987 60.0334 180.092 60.0206 180.113Z" fill="white"/>
<path d="M58.7543 179.42C58.7423 179.42 58.7163 179.296 58.7271 179.068C58.7387 178.842 58.7903 178.508 58.9691 178.135C59.0627 177.958 59.1583 177.731 59.4127 177.598C59.5395 177.531 59.7327 177.547 59.8483 177.666C59.9627 177.781 60.0035 177.932 60.0127 178.08C60.0271 178.67 59.5435 179.263 58.8827 179.375C58.2187 179.475 57.5987 179.119 57.3135 178.62C57.2503 178.49 57.2035 178.33 57.2695 178.17C57.3339 178.008 57.5207 177.938 57.6547 177.955C57.9327 177.985 58.1135 178.137 58.2807 178.248C58.6119 178.493 58.8215 178.756 58.9455 178.945C59.0699 179.136 59.1123 179.255 59.1019 179.261C59.0703 179.287 58.8479 178.814 58.1979 178.367C58.0343 178.265 57.8455 178.134 57.6459 178.124C57.5487 178.119 57.4667 178.161 57.4355 178.24C57.4031 178.317 57.4271 178.433 57.4819 178.534C57.7223 178.943 58.2895 179.267 58.8495 179.173C59.4075 179.084 59.8315 178.563 59.8247 178.087C59.8211 177.973 59.7863 177.859 59.7223 177.793C59.6591 177.729 59.5667 177.714 59.4827 177.752C59.3047 177.833 59.1911 178.033 59.0987 178.2C58.7339 178.9 58.7959 179.427 58.7543 179.42Z" fill="white"/>
<path d="M33.5242 107.835C33.5242 107.835 32.291 112.192 32.5786 117.541C32.6898 119.611 39.3382 179.421 39.3382 179.421L47.7974 178.66L46.335 122.74L46.6898 123.057C46.6898 123.057 51.729 146.583 52.0626 150.303C52.3626 153.646 56.385 180.501 56.385 180.501L64.593 180.111L62.7334 146.162L60.2438 115.341L59.2466 106.363L33.5242 107.835Z" fill="#2B2028"/>
<path d="M47.9623 117.92C47.9675 117.932 47.8275 118.01 47.5643 118.132C47.3003 118.249 46.9127 118.428 46.3891 118.513C46.1279 118.555 45.8315 118.562 45.5215 118.5C45.2139 118.438 44.8863 118.298 44.6247 118.043C44.3627 117.788 44.1987 117.434 44.0971 117.069C43.9947 116.701 43.9399 116.319 43.8711 115.931C43.6067 114.373 43.4359 112.953 43.3411 111.922C43.2935 111.407 43.2639 110.99 43.2491 110.7C43.2347 110.411 43.2339 110.251 43.2475 110.25C43.2615 110.249 43.2883 110.407 43.3263 110.693C43.3683 111.022 43.4199 111.427 43.4811 111.907C43.6115 112.931 43.8039 114.344 44.0675 115.897C44.2019 116.665 44.2871 117.446 44.7543 117.913C45.2211 118.371 45.8835 118.434 46.3699 118.374C46.8723 118.31 47.2639 118.155 47.5347 118.06C47.8055 117.96 47.9567 117.906 47.9623 117.92Z" fill="#455A64"/>
<path d="M45.2967 110.567C45.2939 110.558 45.3587 110.52 45.4915 110.514C45.6227 110.508 45.8211 110.552 46.0143 110.696C46.1995 110.839 46.3939 111.092 46.3943 111.432C46.4019 111.777 46.1255 112.109 45.7727 112.227C45.4231 112.354 44.9999 112.266 44.7915 111.992C44.5803 111.726 44.5747 111.406 44.6307 111.179C44.6923 110.946 44.8203 110.788 44.9271 110.712C45.0343 110.634 45.1091 110.624 45.1127 110.632C45.1379 110.659 44.8439 110.784 44.7687 111.209C44.7355 111.41 44.7619 111.677 44.9323 111.874C45.0959 112.075 45.4171 112.141 45.7071 112.039C45.9975 111.938 46.2083 111.687 46.2107 111.428C46.2215 111.168 46.0759 110.942 45.9251 110.805C45.6015 110.519 45.2935 110.604 45.2967 110.567Z" fill="#455A64"/>
<path d="M60.1263 114.788C60.1271 114.802 60.0127 114.817 59.8047 114.831C59.5967 114.849 59.2939 114.847 58.9215 114.821C58.1771 114.771 57.1483 114.566 56.1019 114.099C55.0567 113.628 54.2199 112.995 53.6871 112.473C53.4195 112.212 53.2171 111.987 53.0923 111.82C52.9647 111.655 52.8999 111.56 52.9103 111.552C52.9375 111.529 53.2319 111.882 53.7827 112.37C54.3315 112.858 55.1615 113.457 56.1835 113.918C57.2071 114.375 58.2063 114.596 58.9355 114.682C59.6655 114.768 60.1251 114.753 60.1263 114.788Z" fill="#455A64"/>
<path d="M37.3259 110.557C37.3459 110.568 37.1775 110.946 36.8151 111.506C36.4543 112.066 35.8823 112.798 35.1355 113.494C34.3863 114.187 33.6139 114.703 33.0283 115.022C32.4423 115.341 32.0535 115.481 32.0443 115.46C32.0307 115.431 32.3967 115.246 32.9571 114.9C33.5175 114.554 34.2631 114.029 34.9995 113.347C35.7339 112.664 36.3127 111.959 36.6991 111.426C37.0863 110.893 37.2979 110.541 37.3259 110.557Z" fill="#455A64"/>
<path d="M28.9329 76.7715C27.6745 80.4387 27.8149 80.1267 25.4637 91.0851C25.0301 93.1071 25.7953 96.2675 27.6185 97.2435C29.4413 98.2195 32.6821 97.1483 33.7669 95.3879L35.5137 78.8467L28.9329 76.7715Z" fill="#FFBF9D"/>
<path d="M59.2531 96.647L59.2047 87.9326L59.2391 87.0782L68.0843 85.0138C68.0843 85.0138 66.3479 79.2926 64.7551 73.1442C63.8355 69.5942 60.7739 67.8098 60.0347 67.4246V67.4198L59.8731 67.3442L59.8715 67.3434L51.3591 63.7402C49.6407 65.5742 47.1339 67.045 44.7215 66.3402C43.4023 65.955 42.0483 64.981 41.2211 63.9502L35.4831 65.919L35.4827 65.9214C34.0103 66.4594 32.4503 67.4862 31.5167 69.137C30.3159 71.2602 26.4811 80.9986 26.4143 81.2158L33.5195 81.8538C33.5195 81.8538 32.2587 104.9 32.7051 109.017C32.7051 109.017 34.4303 110.211 38.7855 110.416C47.6139 110.833 60.7543 110.206 60.7543 110.206C60.5483 108.876 60.3327 106.655 60.2111 105.53L59.2531 96.647Z" fill="#C29E8A"/>
<path d="M33.7613 73.2695C33.7973 73.2707 33.6085 78.7671 33.3397 85.5439C33.0709 92.3231 32.8237 97.8159 32.7881 97.8143C32.7521 97.8127 32.9409 92.3179 33.2097 85.5387C33.4785 78.7615 33.7253 73.2679 33.7613 73.2695Z" fill="#2B2028"/>
<path d="M58.2815 74.8066C58.2183 74.8094 58.3971 79.6866 58.6803 85.6986C58.9635 91.7126 59.2443 96.5838 59.3075 96.581C59.3703 96.5782 59.1919 91.7018 58.9087 85.6878C58.6251 79.6762 58.3443 74.8038 58.2815 74.8066Z" fill="#2B2028"/>
<path d="M68.1243 89.1609C67.8363 86.9981 67.5967 85.0849 67.5967 85.0849L60.5239 86.7269L60.8259 87.8661L55.3587 82.3125L54.4927 82.3869L51.7407 85.2493C51.7407 85.2493 54.1395 90.3165 55.5351 92.2897C57.3503 94.8561 60.2051 98.7689 64.1131 98.4405C67.7259 98.1369 68.6411 93.0421 68.1243 89.1609Z" fill="#FFBF9D"/>
<path d="M64.2926 90.4557C64.335 90.4141 63.6902 89.7109 62.7382 89.0281C61.7882 88.3417 60.917 87.9533 60.891 88.0069C60.8598 88.0657 61.6706 88.5381 62.605 89.2133C63.5414 89.8849 64.2466 90.5041 64.2926 90.4557Z" fill="#FF9A6C"/>
<path d="M45.8135 75.065L48.2431 73.8242L51.3947 74.8262L52.9575 76.2658L55.3587 82.313L57.2827 84.7474L53.8879 89.1702L51.7411 85.2502C51.7411 85.2502 49.9183 84.4538 49.1895 83.3042C48.4607 82.1542 48.1319 81.5286 48.1319 81.5286C48.1319 81.5286 47.0791 81.0234 46.8843 80.5382C46.6895 80.053 46.6983 79.6754 46.6983 79.6754L47.2315 78.8978C47.2315 78.8978 47.1795 78.1754 47.3919 77.9058C47.6043 77.6358 47.8115 77.5722 47.8115 77.5722C47.8115 77.5722 47.6551 76.9162 47.9007 76.6814C48.1463 76.4466 49.3559 76.0146 49.3559 76.0146L48.2959 75.4126C48.2959 75.4126 45.9439 76.1414 45.8135 75.065Z" fill="#FFBF9D"/>
<path d="M49.421 77.2603C49.4206 77.2911 49.0482 77.3003 48.6034 77.3959C48.1578 77.4883 47.8134 77.6303 47.8006 77.6019C47.7878 77.5787 48.1222 77.3895 48.5818 77.2943C49.041 77.1959 49.4234 77.2339 49.421 77.2603Z" fill="#FF9A6C"/>
<path d="M48.6919 78.6177C48.6903 78.6481 48.3727 78.6473 47.9891 78.7065C47.6051 78.7633 47.3019 78.8581 47.2915 78.8297C47.2807 78.8049 47.5767 78.6629 47.9735 78.6037C48.3703 78.5429 48.6951 78.5909 48.6919 78.6177Z" fill="#FF9A6C"/>
<path d="M47.6639 80.7442C47.6351 80.7438 47.6147 80.605 47.6183 80.4346C47.6219 80.2642 47.6479 80.1266 47.6767 80.127C47.7055 80.1274 47.7259 80.2662 47.7223 80.4366C47.7187 80.607 47.6927 80.7446 47.6639 80.7442Z" fill="#FF9A6C"/>
<path d="M48.129 81.3997C48.0994 81.4001 48.1182 81.1049 47.9046 80.8397C47.6986 80.5681 47.4078 80.5153 47.4154 80.4865C47.4166 80.4745 47.4922 80.4669 47.6078 80.5033C47.7226 80.5389 47.8718 80.6293 47.9866 80.7757C48.101 80.9225 48.1526 81.0889 48.1594 81.2089C48.1666 81.3301 48.141 81.4017 48.129 81.3997Z" fill="#FF9A6C"/>
<path d="M50.0294 79.4614C50.0022 79.4738 49.899 79.2046 49.6054 79.0462C49.3166 78.8794 49.033 78.933 49.0294 78.9034C49.0262 78.8914 49.0926 78.8578 49.211 78.8494C49.3282 78.8402 49.4966 78.867 49.6562 78.9554C49.8154 79.0446 49.9262 79.1738 49.9802 79.2786C50.0346 79.3838 50.041 79.4578 50.0294 79.4614Z" fill="#FF9A6C"/>
<path d="M51.1364 78.1159C51.1084 78.1275 51.0132 77.8763 50.748 77.7119C50.4868 77.5403 50.2188 77.5599 50.2176 77.5295C50.2156 77.5171 50.2812 77.4923 50.3928 77.4943C50.5036 77.4955 50.6588 77.5323 50.8036 77.6247C50.948 77.7171 51.0468 77.8427 51.0944 77.9427C51.1432 78.0423 51.1484 78.1123 51.1364 78.1159Z" fill="#FF9A6C"/>
<path d="M51.8778 77.4563C51.8622 77.4535 51.8698 77.3727 51.8522 77.2479C51.8358 77.1239 51.787 76.9539 51.675 76.8027C51.5626 76.6515 51.4138 76.5559 51.2998 76.5043C51.1854 76.4519 51.1058 76.4355 51.1074 76.4195C51.1082 76.4071 51.1938 76.3967 51.3254 76.4351C51.4554 76.4723 51.6306 76.5687 51.7582 76.7403C51.8854 76.9119 51.9274 77.1075 51.9254 77.2427C51.9246 77.3803 51.8902 77.4591 51.8778 77.4563Z" fill="#FF9A6C"/>
<path d="M50.8495 75.8764C50.8515 75.9132 50.3399 75.9212 49.7275 76.0144C49.1135 76.1096 48.6507 76.3244 48.6375 76.2944C48.6235 76.2736 49.0791 76.0104 49.7107 75.9116C50.0235 75.86 50.3099 75.8516 50.5159 75.8516C50.7215 75.8528 50.8487 75.8624 50.8495 75.8764Z" fill="#FF9A6C"/>
<g opacity="0.3">
<path d="M43.9289 89.5333C43.8397 88.8309 43.7385 88.0965 43.3289 87.5189C42.6181 86.5165 41.2217 86.3025 39.9941 86.3625C38.7669 86.4229 37.4937 86.6629 36.3385 86.2441L32.8933 96.4773C34.1717 96.1649 35.3145 95.3325 36.0045 94.2121C36.3569 93.6397 36.6125 92.9765 37.1453 92.5669C37.8789 92.0029 38.8977 92.0861 39.8229 92.0761C40.7905 92.0657 41.7561 91.9237 42.6857 91.6545C43.0797 91.5405 43.4913 91.3865 43.7353 91.0565C44.0473 90.6341 43.9953 90.0545 43.9289 89.5333Z" fill="black"/>
</g>
<path d="M35.0535 77.5541L36.1239 88.9417C36.1831 89.5729 36.4283 90.0129 36.8283 90.2529L43.7347 90.1065C44.0163 89.8521 44.3239 89.0393 44.2631 88.1705L43.4979 77.2701C43.4519 76.6153 43.2071 76.1417 42.9111 76.1349L35.6359 75.9669C35.2655 75.9585 34.9775 76.7441 35.0535 77.5541Z" fill="#2B2028"/>
<path d="M34.0494 79.8438C33.7574 79.5062 33.7962 78.9598 34.0718 78.6086C34.3474 78.2574 34.8086 78.0886 35.255 78.0822C35.7014 78.0758 36.1374 78.2134 36.5506 78.3826C37.0606 78.591 37.5502 78.8498 38.0102 79.1534C38.335 79.3678 38.6702 79.645 38.7258 80.0302C38.7814 80.4154 38.3542 80.8438 38.0206 80.6434C38.4558 80.8386 38.8882 81.3138 38.9474 81.801C39.0066 82.2882 38.741 82.543 38.2674 82.6722C38.6222 82.8194 38.8406 83.2742 38.6686 83.6178C38.4878 83.979 37.9822 84.0674 37.6086 83.9146C37.235 83.7618 36.9638 83.4366 36.709 83.1238C36.9666 83.5902 36.945 84.3378 36.8318 84.8586C35.8018 84.4798 34.7862 83.3342 35.0938 82.2458C34.5934 81.851 34.3666 81.037 34.6798 80.4818C34.2642 80.3414 33.8042 79.6918 33.847 79.255" fill="#FFBF9D"/>
<path d="M33.9341 78.8516L33.8517 83.7196L32.5897 85.6176L26.7993 90.7932C26.7993 90.7932 27.6581 97.828 30.2709 97.06C32.8837 96.292 33.5169 95.792 35.0625 92.9536C35.8901 91.4332 36.4001 88.9616 36.8769 87.5424C37.1565 86.7104 36.9105 84.0312 36.9105 84.0312L33.9341 78.8516Z" fill="#FFBF9D"/>
<path d="M38.258 82.6784C38.246 82.6912 38.0856 82.5444 37.8164 82.3244C37.5476 82.11 37.156 81.8132 36.6472 81.6916C36.3952 81.632 36.1436 81.6264 35.9272 81.676C35.71 81.7248 35.5284 81.822 35.3956 81.9264C35.1268 82.1396 35.0628 82.3608 35.0436 82.35C35.038 82.348 35.0456 82.2928 35.0872 82.2012C35.1284 82.1104 35.2092 81.9856 35.344 81.8644C35.4788 81.7448 35.6692 81.632 35.9028 81.5736C36.1364 81.5144 36.4064 81.5176 36.6732 81.5808C37.2124 81.7108 37.6104 82.0312 37.8688 82.2632C38.128 82.5024 38.2676 82.6684 38.258 82.6784Z" fill="#FF9A6C"/>
<path d="M38.189 80.6951C38.1822 80.7099 37.9718 80.6227 37.649 80.4551C37.487 80.3731 37.295 80.2739 37.0742 80.1879C36.8546 80.1051 36.5982 80.0311 36.3318 79.9771C36.0642 79.9251 35.803 79.9131 35.5734 79.9523C35.3442 79.9911 35.1486 80.0815 35.0058 80.1835C34.7134 80.3907 34.6478 80.6243 34.629 80.6127C34.6234 80.6107 34.6314 80.5531 34.6762 80.4583C34.7214 80.3647 34.8102 80.2363 34.9578 80.1191C35.1042 80.0015 35.3094 79.8967 35.5546 79.8491C35.7998 79.8011 36.0758 79.8115 36.3534 79.8655C36.631 79.9223 36.8846 79.9987 37.113 80.0907C37.339 80.1851 37.529 80.2931 37.687 80.3843C38.001 80.5703 38.1954 80.6815 38.189 80.6951Z" fill="#FF9A6C"/>
<path d="M27.4233 93.5924C27.4697 93.588 27.1653 92.9016 27.3517 91.7788C27.4441 91.2248 27.6609 90.5804 28.0357 89.938C28.4089 89.294 28.9449 88.6636 29.5653 88.0624C30.1881 87.4616 30.8289 86.9364 31.4001 86.442C31.9725 85.9492 32.4737 85.484 32.8633 85.0624C33.2529 84.6408 33.5333 84.2684 33.7073 83.9988C33.8817 83.7296 33.9569 83.568 33.9481 83.5628C33.9345 83.5544 33.8377 83.7024 33.6465 83.9556C33.4557 84.2096 33.1629 84.564 32.7657 84.9688C32.3681 85.3736 31.8629 85.8236 31.2861 86.3076C30.7105 86.7928 30.0637 87.316 29.4325 87.9244C28.8037 88.5336 28.2589 89.1812 27.8829 89.8496C27.5057 90.516 27.2957 91.1848 27.2181 91.758C27.1417 92.3332 27.1893 92.8064 27.2625 93.1196C27.3005 93.2764 27.3353 93.3964 27.3689 93.4748C27.3985 93.5544 27.4173 93.5948 27.4233 93.5924Z" fill="#FF9A6C"/>
</svg>
