<svg width="11" height="12" viewBox="0 0 11 12" fill="none" xmlns="http://www.w3.org/2000/svg">
<path fill-rule="evenodd" clip-rule="evenodd" d="M10.3723 1.94578C10.6057 1.94578 10.8 2.13958 10.8 2.38618V2.61417C10.8 2.85477 10.6057 3.05457 10.3723 3.05457H0.428312C0.194316 3.05457 0 2.85477 0 2.61417V2.38618C0 2.13958 0.194316 1.94578 0.428312 1.94578H2.17774C2.53311 1.94578 2.84238 1.69318 2.92233 1.33679L3.01394 0.927591C3.15632 0.370196 3.6249 0 4.16116 0H6.63884C7.16927 0 7.6431 0.370196 7.78022 0.898191L7.87826 1.33619C7.95762 1.69318 8.26689 1.94578 8.62284 1.94578H10.3723ZM9.48454 10.2803C9.66718 8.57817 9.98696 4.53421 9.98696 4.49341C9.99863 4.36981 9.95837 4.25281 9.87842 4.15861C9.79264 4.07041 9.6841 4.01821 9.56448 4.01821H1.24216C1.12195 4.01821 1.00758 4.07041 0.928216 4.15861C0.847688 4.25281 0.808008 4.36981 0.813844 4.49341C0.814916 4.50091 0.82639 4.64335 0.845574 4.88151C0.930793 5.93946 1.16814 8.88604 1.32152 10.2803C1.43005 11.3075 2.10403 11.9531 3.08028 11.9765C3.83362 11.9939 4.60972 11.9999 5.40332 11.9999C6.15082 11.9999 6.91 11.9939 7.68668 11.9765C8.69677 11.9591 9.37016 11.3249 9.48454 10.2803Z" fill="#C29E8A"/>
</svg>
