<svg width="20" height="20" viewBox="0 0 20 20" fill="none" xmlns="http://www.w3.org/2000/svg">
<g id="edit-03">
<path id="Icon" d="M10 16.6662H17.5M2.50002 16.6662H3.89548C4.30313 16.6662 4.50695 16.6662 4.69876 16.6202C4.86883 16.5793 5.0314 16.512 5.18052 16.4206C5.34871 16.3175 5.49284 16.1734 5.78109 15.8852L16.25 5.4162C16.9404 4.72585 16.9404 3.60656 16.25 2.9162C15.5597 2.22585 14.4404 2.22585 13.75 2.9162L3.28107 13.3852C2.99282 13.6734 2.84869 13.8175 2.74562 13.9857C2.65424 14.1349 2.5869 14.2974 2.54607 14.4675C2.50002 14.6593 2.50002 14.8631 2.50002 15.2708V16.6662Z" stroke="#2B2028" stroke-width="1.5" stroke-linecap="round" stroke-linejoin="round"/>
</g>
</svg>
