<svg width="300" height="300" viewBox="0 0 300 300" fill="none" xmlns="http://www.w3.org/2000/svg">
<path d="M300 229.438H0V229.588H300V229.438Z" fill="#EBEBEB"/>
<path d="M67.0002 234.473H47.127V234.623H67.0002V234.473Z" fill="#EBEBEB"/>
<path d="M98.1 238.799H79.9998V238.949H98.1V238.799Z" fill="#EBEBEB"/>
<path d="M57.0629 240.043H34.1123V240.193H57.0629V240.043Z" fill="#EBEBEB"/>
<path d="M269.941 239.717H260.4V239.867H269.941V239.717Z" fill="#EBEBEB"/>
<path d="M258.475 239.717H234.883V239.867H258.475V239.717Z" fill="#EBEBEB"/>
<path d="M168.2 234.396H150V234.546H168.2V234.396Z" fill="#EBEBEB"/>
<path d="M214.057 234.396H170.8V234.546H214.057V234.396Z" fill="#EBEBEB"/>
<path d="M142.209 202.68H26.3491C24.4609 202.68 22.9243 201.143 22.9243 199.255V36.3955C22.9243 34.5073 24.4609 32.9707 26.3491 32.9707H142.209C144.096 32.9707 145.633 34.5073 145.633 36.3955V199.255C145.633 201.143 144.096 202.68 142.209 202.68ZM26.3491 33.1213C24.5431 33.1213 23.0743 34.5901 23.0743 36.3961V199.255C23.0743 201.061 24.5431 202.53 26.3491 202.53H142.209C144.014 202.53 145.483 201.061 145.483 199.255V36.3955C145.483 34.5901 144.014 33.1207 142.209 33.1207L26.3491 33.1213Z" fill="#EBEBEB"/>
<path d="M271.986 202.68H156.127C154.239 202.68 152.703 201.143 152.703 199.255V36.3955C152.703 34.5073 154.24 32.9707 156.127 32.9707H271.986C273.875 32.9707 275.411 34.5073 275.411 36.3955V199.255C275.412 201.143 273.875 202.68 271.986 202.68ZM156.127 33.1213C154.322 33.1213 152.853 34.5901 152.853 36.3961V199.255C152.853 201.061 154.322 202.53 156.127 202.53H271.986C273.792 202.53 275.261 201.061 275.261 199.255V36.3955C275.261 34.5901 273.792 33.1207 271.986 33.1207L156.127 33.1213Z" fill="#EBEBEB"/>
<path d="M150 256.537C214.249 256.537 266.333 253.495 266.333 249.743C266.333 245.991 214.249 242.949 150 242.949C85.7507 242.949 33.6665 245.991 33.6665 249.743C33.6665 253.495 85.7507 256.537 150 256.537Z" fill="#FFF7F3"/>
<path d="M143.413 241.493L148.064 240.245L146.41 229.141L141.759 230.389L143.413 241.493Z" fill="#FFC3BD"/>
<path d="M100.399 245.711H105.215L108.968 234.559H104.152L100.399 245.711Z" fill="#FFC3BD"/>
<path d="M105.858 245.152H99.9865C99.7897 245.152 99.6193 245.289 99.5767 245.481L98.6251 249.762C98.5267 250.206 98.8753 250.626 99.3301 250.618C101.219 250.586 102.598 250.475 104.977 250.475C106.441 250.475 110.856 250.627 112.877 250.627C114.854 250.627 115.162 248.629 114.335 248.448C110.624 247.636 107.828 246.516 106.64 245.449C106.426 245.256 106.146 245.152 105.858 245.152Z" fill="#263238"/>
<path d="M147.887 239.716L142.807 241.079C142.617 241.13 142.488 241.306 142.496 241.503L142.687 245.884C142.707 246.338 143.141 246.657 143.578 246.532C145.402 246.009 148.021 245.191 150.324 244.573C153.017 243.85 154.168 243.615 157.326 242.768C159.235 242.255 159.247 240.182 158.401 240.222C154.549 240.403 152.768 240.873 149.104 239.778C148.706 239.658 148.288 239.608 147.887 239.716Z" fill="#263238"/>
<path d="M128.946 97.9395L134.071 106.601L136.641 110.921C137.511 112.348 138.371 113.775 139.252 115.178C139.377 115.384 139.48 115.521 139.504 115.563C139.532 115.609 139.423 115.524 139.143 115.487C138.865 115.434 138.556 115.544 138.531 115.582C138.484 115.628 138.606 115.597 138.766 115.48C139.099 115.244 139.56 114.756 139.984 114.211C140.415 113.655 140.83 113.02 141.234 112.358C142.048 111.031 142.797 109.582 143.517 108.107C144.249 106.642 144.927 105.095 145.587 103.609L149.067 104.595C148.434 108.097 147.573 111.448 146.13 114.854C145.762 115.705 145.345 116.554 144.843 117.418C144.325 118.283 143.755 119.164 142.818 120.061C142.343 120.505 141.762 120.972 140.932 121.348C140.13 121.73 138.939 121.946 137.828 121.725C136.713 121.51 135.855 120.969 135.246 120.46C134.63 119.943 134.195 119.415 133.831 118.927C131.738 116.137 129.782 113.295 127.921 110.403C126.053 107.507 124.29 104.59 122.606 101.557L128.946 97.9395Z" fill="#FFC3BD"/>
<path d="M120.37 98.5621C119.337 103.05 129.181 114.526 129.181 114.526L138.028 108.056C138.028 108.056 134.957 102.084 131.006 97.6256C126.949 93.0482 121.503 93.6379 120.37 98.5621Z" fill="#407BFF"/>
<path d="M120.37 98.5621C119.337 103.05 129.181 114.526 129.181 114.526L138.028 108.056C138.028 108.056 134.957 102.084 131.006 97.6256C126.949 93.0482 121.503 93.6379 120.37 98.5621Z" fill="#C29E8A"/>
<path opacity="0.2" d="M146.41 229.145L147.263 234.868L142.61 236.117L141.757 230.393L146.41 229.145Z" fill="black"/>
<path opacity="0.2" d="M104.15 234.561H108.968L107.031 240.31H102.213L104.15 234.561Z" fill="black"/>
<path d="M98.823 97.8932C105.093 115.845 105.207 135.291 105.909 139.185C109.653 138.687 123.753 136.785 131.439 135.747C133.167 108.183 125.595 94.5272 125.595 94.5272C125.595 94.5272 123.927 94.3052 121.671 94.2092C120.963 94.1792 120.201 94.1612 119.409 94.1672C118.971 94.1672 118.527 94.1792 118.077 94.1972C115.173 94.3232 110.463 95.0672 107.223 95.6612C106.545 95.7872 105.855 95.9312 105.189 96.0812C104.571 96.2252 103.965 96.3752 103.395 96.5252C100.808 97.2032 98.823 97.8932 98.823 97.8932Z" fill="#407BFF"/>
<path d="M98.823 97.8932C105.093 115.845 105.207 135.291 105.909 139.185C109.653 138.687 123.753 136.785 131.439 135.747C133.167 108.183 125.595 94.5272 125.595 94.5272C125.595 94.5272 123.927 94.3052 121.671 94.2092C120.963 94.1792 120.201 94.1612 119.409 94.1672C118.971 94.1672 118.527 94.1792 118.077 94.1972C115.173 94.3232 110.463 95.0672 107.223 95.6612C106.545 95.7872 105.855 95.9312 105.189 96.0812C104.571 96.2252 103.965 96.3752 103.395 96.5252C100.808 97.2032 98.823 97.8932 98.823 97.8932Z" fill="#C29E8A"/>
<path opacity="0.2" d="M104.693 106.162C105.707 108.868 104.915 116.362 103.805 118.918C103.409 116.242 102.923 113.434 102.311 110.555L104.693 106.162Z" fill="black"/>
<path d="M148.053 106.01L152.373 102.998L147.358 99.4355C147.358 99.4355 144.471 101.179 145.397 104.562L148.053 106.01Z" fill="#FFC3BD"/>
<path d="M154.742 100.615L150.241 97.7559L147.358 99.4347L152.373 102.997L154.742 100.615Z" fill="#FFC3BD"/>
<path d="M106.653 83.2969C107.808 86.6965 109.354 93.0019 107.225 95.6611C109.377 97.2919 112.151 99.1369 116.317 98.7235C120.483 98.3107 119.374 95.5561 118.076 94.1989C114.058 93.7939 113.768 90.8911 114.081 88.0867L106.653 83.2969Z" fill="#FFC3BD"/>
<path opacity="0.2" d="M109.682 85.25L114.078 88.0826C114.002 88.7468 113.963 89.4146 114.003 90.0536C112.487 90.0392 110.457 89.0384 109.65 87.4844C109.147 86.5178 109.314 85.418 109.682 85.25Z" fill="black"/>
<path d="M115.869 72.5625L117.249 79.6095C120.619 72.5625 115.869 72.5625 115.869 72.5625Z" fill="#263238"/>
<path d="M104.664 78.4231C105.912 83.0371 106.408 85.8007 109.261 87.7141C113.553 90.5917 118.881 87.2659 119.037 82.3717C119.178 77.9665 117.113 71.1613 112.156 70.2427C107.273 69.3373 103.416 73.8091 104.664 78.4231Z" fill="#FFC3BD"/>
<path d="M104.427 80.9855C102.493 79.0523 100.294 75.0521 102.027 73.8857C100.893 72.1523 102.282 69.7715 106.653 68.7671C111.024 67.7627 117.143 68.2931 118.827 69.1187C120.006 69.6971 116.527 70.6187 116.527 70.6187C116.527 70.6187 120.427 70.6523 120.36 72.1853C120.294 73.7189 106.86 74.2295 106.86 74.2295C106.86 74.2295 109.918 78.3359 104.427 80.9855Z" fill="#263238"/>
<path d="M102.868 74.0536C103.324 73.6696 102.529 73.1447 101.47 73.4387C100.409 73.7327 100.069 72.9395 100.069 72.9395C100.069 72.9395 100.078 74.188 101.165 73.9294C101.83 73.7716 102.195 74.6206 102.868 74.0536Z" fill="#263238"/>
<path d="M103.278 83.2431C104.162 84.1809 105.397 84.6237 106.456 84.6381C108.049 84.6597 108.439 83.1369 107.656 81.8463C106.952 80.6847 105.274 79.2735 103.838 79.8699C102.424 80.4567 102.268 82.1703 103.278 83.2431Z" fill="#FFC3BD"/>
<path d="M148.984 233.157L141.107 235.267C141.107 235.267 133.613 207.515 131.247 192.695C130.526 188.188 128.92 181.948 126.977 175.285C124.525 166.89 121.544 157.834 119.124 150.748C116.572 143.285 114.656 138.011 114.656 138.011L131.438 135.75C131.438 135.75 143.47 172.373 144.911 187.001C146.412 202.211 148.984 233.157 148.984 233.157Z" fill="#263238"/>
<path opacity="0.2" d="M126.977 175.284C124.525 166.889 121.544 157.833 119.124 150.747L120.631 146.867C125.133 151.568 127.248 166.876 126.977 175.284Z" fill="black"/>
<path d="M123.43 136.828C123.43 136.828 123.214 178.233 122.082 192.299C120.842 207.703 109.643 238.571 109.643 238.571H100.822C100.822 238.571 106.361 210.371 108.166 195.413C110.222 178.373 105.911 139.19 105.911 139.19L123.43 136.828Z" fill="#263238"/>
<path d="M110.353 239.25H99.9653V236.147L111.577 235.945L110.353 239.25Z" fill="#407BFF"/>
<path d="M149.61 233.249L140.224 235.769L139.41 232.736L149.332 229.91L149.61 233.249Z" fill="#407BFF"/>
<path d="M111.548 78.2705C111.626 78.6509 111.892 78.9179 112.141 78.8669C112.389 78.8159 112.528 78.4655 112.449 78.0851C112.37 77.7047 112.106 77.4377 111.857 77.4887C111.608 77.5403 111.47 77.8901 111.548 78.2705Z" fill="#263238"/>
<path d="M115.849 77.3877C115.927 77.7681 116.192 78.035 116.441 77.984C116.69 77.933 116.828 77.5833 116.75 77.2023C116.672 76.8219 116.407 76.5549 116.158 76.6059C115.909 76.6569 115.771 77.0067 115.849 77.3877Z" fill="#263238"/>
<path d="M114.993 77.8574C114.993 77.8574 116.309 79.8746 117.48 80.738C116.936 81.5048 115.732 81.4532 115.732 81.4532L114.993 77.8574Z" fill="#ED847E"/>
<path d="M114.338 82.7998C112.851 82.9024 111.972 82.0354 111.932 81.9946C111.888 81.9502 111.888 81.8776 111.933 81.8338C111.977 81.7894 112.05 81.79 112.094 81.8344C112.104 81.8446 113.129 82.8496 114.794 82.5076C114.856 82.495 114.916 82.5346 114.928 82.5964C114.941 82.6582 114.901 82.7182 114.84 82.7308C114.666 82.7668 114.498 82.789 114.338 82.7998Z" fill="#263238"/>
<path d="M110.409 77.1538C110.371 77.1562 110.332 77.1496 110.296 77.1322C110.182 77.0782 110.134 76.942 110.188 76.828C110.731 75.6886 111.773 75.5374 111.817 75.5314C111.942 75.5146 112.057 75.6022 112.073 75.7276C112.09 75.8518 112.003 75.9664 111.878 75.9838C111.844 75.9886 111.032 76.1152 110.599 77.0248C110.563 77.1016 110.488 77.1484 110.409 77.1538Z" fill="#263238"/>
<path d="M117.87 75.5252C117.796 75.53 117.722 75.4994 117.673 75.4364C117.06 74.6378 116.24 74.6834 116.205 74.6858C116.08 74.6942 115.971 74.6 115.962 74.4746C115.953 74.3492 116.046 74.2406 116.171 74.2304C116.217 74.228 117.267 74.1578 118.035 75.1586C118.112 75.2588 118.093 75.4016 117.993 75.4784C117.957 75.5066 117.913 75.5222 117.87 75.5252Z" fill="#263238"/>
<path d="M107.451 245.996C107.006 245.996 106.525 245.903 106.191 245.822C106.147 245.811 106.112 245.775 106.105 245.73C106.098 245.684 106.118 245.639 106.157 245.615C106.333 245.505 107.887 244.551 108.419 244.824C108.502 244.867 108.602 244.958 108.614 245.147C108.631 245.402 108.551 245.605 108.379 245.75C108.16 245.933 107.818 245.996 107.451 245.996ZM106.522 245.662C107.339 245.826 107.968 245.796 108.232 245.575C108.347 245.478 108.398 245.343 108.386 245.161C108.381 245.072 108.345 245.043 108.314 245.027C108.038 244.885 107.153 245.297 106.522 245.662Z" fill="#407BFF"/>
<path d="M106.217 245.825C106.196 245.825 106.174 245.819 106.155 245.806C106.12 245.784 106.1 245.743 106.103 245.702C106.108 245.643 106.223 244.254 106.783 243.796C106.928 243.678 107.092 243.628 107.269 243.649C107.541 243.683 107.613 243.851 107.632 243.948C107.734 244.485 106.77 245.54 106.271 245.811C106.255 245.821 106.236 245.825 106.217 245.825ZM107.189 243.873C107.096 243.873 107.009 243.906 106.927 243.973C106.568 244.266 106.415 245.076 106.358 245.482C106.854 245.106 107.468 244.309 107.407 243.992C107.402 243.963 107.389 243.895 107.241 243.877C107.224 243.874 107.207 243.873 107.189 243.873Z" fill="#407BFF"/>
<path d="M148.517 240.236C148.475 240.233 148.437 240.206 148.42 240.167C148.401 240.122 148.412 240.071 148.448 240.038C148.63 239.871 150.246 238.422 150.895 238.585C151.021 238.616 151.111 238.701 151.156 238.829C151.231 239.044 151.21 239.243 151.093 239.421C150.704 240.009 149.321 240.184 148.532 240.236C148.527 240.236 148.522 240.236 148.517 240.236ZM150.794 238.799C150.411 238.772 149.501 239.43 148.858 239.981C149.93 239.876 150.684 239.625 150.902 239.295C150.979 239.179 150.991 239.052 150.94 238.905C150.92 238.849 150.89 238.82 150.839 238.806C150.826 238.803 150.811 238.8 150.794 238.799Z" fill="#407BFF"/>
<path d="M148.517 240.235C148.506 240.235 148.495 240.232 148.485 240.228C148.447 240.214 148.42 240.181 148.412 240.14C148.403 240.086 148.192 238.799 148.654 238.155C148.795 237.958 148.983 237.839 149.214 237.802C149.525 237.752 149.654 237.882 149.707 238C149.933 238.503 149.091 239.807 148.597 240.21C148.574 240.229 148.546 240.238 148.517 240.235ZM149.369 238.02C149.338 238.018 149.299 238.019 149.251 238.027C149.08 238.055 148.945 238.14 148.839 238.288C148.536 238.711 148.571 239.505 148.61 239.887C149.09 239.389 149.635 238.395 149.498 238.093C149.491 238.075 149.469 238.027 149.369 238.02Z" fill="#407BFF"/>
<path d="M104.714 103.1C104.137 106.153 103.521 109.242 102.905 112.304C102.279 115.369 101.665 118.432 101.075 121.48L100.861 122.621L100.808 122.907C100.791 122.991 100.765 123.152 100.775 123.053C100.765 122.996 100.78 122.8 100.688 122.491C100.609 122.188 100.352 121.734 100.03 121.46C99.7134 121.182 99.4506 121.09 99.3162 121.06C99.0372 121.014 99.1776 121.087 99.348 121.093C99.7356 121.125 100.397 121.038 101.048 120.912C101.712 120.792 102.415 120.619 103.122 120.424C105.968 119.646 108.929 118.564 111.843 117.558L113.552 120.744C112.21 121.718 110.86 122.58 109.448 123.409C108.041 124.237 106.592 125.008 105.05 125.707C104.275 126.051 103.48 126.38 102.622 126.675C101.752 126.959 100.865 127.226 99.6756 127.348C99.0618 127.388 98.3982 127.448 97.3644 127.162C96.8562 127.012 96.231 126.743 95.6232 126.196C95.0082 125.655 94.554 124.84 94.3788 124.156C94.191 123.466 94.1856 122.869 94.2234 122.421L94.2972 121.68L94.4244 120.48C94.7844 117.289 95.2398 114.131 95.7582 110.991C96.2838 107.847 96.873 104.74 97.566 101.611L104.714 103.1Z" fill="#FFC3BD"/>
<path d="M97.2006 99.0757C94.0566 102.44 93.7734 112.779 93.7734 112.779L102.88 117.067C102.88 117.067 105.83 110.502 105.926 104.551C106.034 97.8073 100.366 95.6887 97.2006 99.0757Z" fill="#407BFF"/>
<path d="M97.2006 99.0757C94.0566 102.44 93.7734 112.779 93.7734 112.779L102.88 117.067C102.88 117.067 105.83 110.502 105.926 104.551C106.034 97.8073 100.366 95.6887 97.2006 99.0757Z" fill="#C29E8A"/>
<path d="M111.478 117.647L115.741 115.254L116.24 121.385C116.24 121.385 112.158 122.617 111.264 120.527L111.478 117.647Z" fill="#FFC3BD"/>
<path d="M120.156 115.254L121.793 118.5L116.24 121.385L115.741 115.254H120.156Z" fill="#FFC3BD"/>
<path d="M176.024 119.124C176.047 119.578 176.049 119.875 176.048 120.237C176.04 120.582 176.024 120.923 176.004 121.263C175.959 121.943 175.892 122.618 175.795 123.29C175.59 124.634 175.274 125.972 174.815 127.287C174.362 128.602 173.746 129.89 172.971 131.107C172.769 131.408 172.569 131.708 172.345 131.996C172.235 132.141 172.128 132.287 172.008 132.427L171.605 132.908C171.318 133.25 170.693 133.79 169.811 133.946C169.388 134.022 168.957 133.998 168.615 133.918C168.28 133.842 167.991 133.717 167.79 133.605C167.355 133.365 167.105 133.136 166.896 132.933C166.68 132.723 166.533 132.537 166.391 132.354C165.856 131.635 165.541 131.015 165.235 130.394C164.937 129.776 164.678 129.176 164.447 128.571C163.985 127.365 163.578 126.175 163.223 124.974C162.498 122.578 161.923 120.184 161.455 117.731L164.048 116.959C164.999 119.171 165.969 121.404 166.95 123.575C167.453 124.656 167.949 125.733 168.486 126.75C168.758 127.256 169.022 127.757 169.301 128.213C169.573 128.664 169.877 129.101 170.104 129.334C170.156 129.386 170.207 129.433 170.215 129.43C170.226 129.438 170.215 129.402 170.05 129.303C169.981 129.267 169.838 129.194 169.651 129.153C169.457 129.106 169.182 129.086 168.908 129.136C168.327 129.234 167.966 129.587 167.869 129.692C167.809 129.768 167.865 129.692 167.872 129.679L167.923 129.603L168.025 129.451C168.095 129.352 168.157 129.244 168.221 129.14C168.353 128.933 168.468 128.711 168.587 128.493C169.053 127.612 169.421 126.652 169.709 125.645C169.995 124.638 170.206 123.587 170.345 122.517C170.419 121.984 170.477 121.445 170.513 120.908C170.53 120.64 170.544 120.372 170.55 120.108C170.563 119.861 170.568 119.549 170.568 119.394L176.024 119.124Z" fill="#FFC3BD"/>
<path d="M173.499 113.177C168.634 116.901 168.83 123.918 168.83 123.918L177.531 125.999C177.531 125.999 180.2 118.943 179.118 116.359C177.987 113.663 176.237 111.081 173.499 113.177Z" fill="#C29E8A"/>
<path opacity="0.2" d="M176.411 118.32C175.397 119.298 174.191 122.382 173.903 125.13L177.533 126C177.533 126 179.207 121.566 179.363 118.44C178.843 117.654 177.718 117.175 176.411 118.32Z" fill="black"/>
<path d="M164.893 115.772L162.203 112.807L159.446 116.51C159.446 116.51 161.504 119.305 164.353 118.633L164.893 115.772Z" fill="#FFC3BD"/>
<path d="M159.982 110.438L158.299 111.925L159.446 116.51L162.203 112.806L159.982 110.438Z" fill="#FFC3BD"/>
<path d="M198.437 245.579L193.477 246.057L190.021 234.41L194.981 233.932L198.437 245.579Z" fill="#FFC3BD"/>
<path d="M233.214 228.359L229.539 231.81L221.604 223.09L225.28 219.639L233.214 228.359Z" fill="#FFC3BD"/>
<path d="M228.442 230.656L231.203 225.679C231.304 225.498 231.511 225.421 231.702 225.494L235.954 227.112C236.395 227.28 236.586 227.846 236.347 228.259C235.354 229.978 234.788 230.757 233.574 232.945C232.827 234.292 231.372 237.379 230.34 239.238C229.331 241.057 227.415 240.176 227.678 239.31C228.858 235.424 228.636 233.261 228.303 231.547C228.243 231.238 228.295 230.921 228.442 230.656Z" fill="#263238"/>
<path d="M192.612 244.545H198.622C198.84 244.545 199.037 244.697 199.096 244.91L200.403 249.665C200.539 250.159 200.176 250.612 199.67 250.617C197.552 250.636 196.548 250.627 193.905 250.627C192.279 250.627 188.073 250.627 185.828 250.627C183.632 250.627 183.172 248.407 184.081 248.206C188.155 247.304 190.504 246.061 191.761 244.874C191.987 244.66 192.292 244.545 192.612 244.545Z" fill="#263238"/>
<path opacity="0.2" d="M190.022 234.412L191.803 240.416H196.908L194.985 233.934L190.022 234.412Z" fill="black"/>
<path opacity="0.2" d="M225.283 219.641L221.606 223.093L225.697 227.586L229.374 224.134L225.283 219.641Z" fill="black"/>
<path d="M174.968 112.455C174.968 112.455 172.769 113.423 180.146 142.62C188.28 141.917 196.686 141.19 200.644 140.847C199.578 132.535 199.123 127.391 201.63 109.926C201.63 109.926 197.254 109.363 192.827 109.532C189.363 109.664 186.527 109.798 183.519 110.337C179.553 111.048 174.968 112.455 174.968 112.455Z" fill="#C29E8A"/>
<path opacity="0.2" d="M198.245 117.654C197.363 119.526 197.693 125.79 199.811 127.98C199.877 125.454 200.081 122.55 200.471 118.962C199.919 118.206 199.187 117.708 198.245 117.654Z" fill="black"/>
<path d="M185.702 116.494C185.663 116.927 185.476 117.264 185.283 117.247C185.091 117.23 184.966 116.865 185.004 116.432C185.043 115.999 185.23 115.662 185.423 115.678C185.615 115.695 185.74 116.061 185.702 116.494Z" fill="white"/>
<path d="M192.46 109.184L185.708 114.033C185.708 114.033 188.091 116.481 189.161 119.805C193.598 116.159 197.06 110.25 192.46 109.184Z" fill="white"/>
<path d="M183.906 110C180.381 110.9 180.004 116.206 182.437 118.978C183.386 115.556 185.27 114.239 185.27 114.239L183.906 110Z" fill="white"/>
<path d="M179.593 88.334C178.243 88.2092 177.843 89.4752 178.268 90.7316C178.888 92.564 176.77 96.1094 174.844 98.234C172.043 101.323 177.121 107.467 183.172 105.351C190.165 102.904 194.328 109.716 198.28 104.401C201.125 100.574 196.622 97.2098 197.844 92.0744C198.575 89.003 197.226 84.7418 192.498 85.0004C188.095 85.2416 187.002 80.2838 182.727 81.6338C178.452 82.9838 179.593 88.334 179.593 88.334Z" fill="#263238"/>
<path d="M190.998 99.1309C190.67 102.176 190.559 107.714 192.827 109.531C192.827 109.531 190.404 112.004 185.505 114.733C181.941 112.27 183.519 110.336 183.519 110.336C186.79 109.25 186.489 106.78 185.706 104.503L190.998 99.1309Z" fill="#FFC3BD"/>
<path opacity="0.2" d="M188.841 101.324L185.709 104.502C185.896 105.041 186.053 105.59 186.139 106.129C187.399 105.834 189.222 104.525 189.242 103.178C189.252 102.506 188.977 101.625 188.841 101.324Z" fill="black"/>
<path d="M193.677 94.3724C192.407 99.2366 191.973 101.323 188.989 103.362C184.501 106.428 178.804 103.804 178.595 98.6576C178.408 94.0256 180.517 86.849 185.722 85.8368C190.85 84.8396 194.948 89.5076 193.677 94.3724Z" fill="#FFC3BD"/>
<path d="M182.268 86.7505C179.06 88.9339 186.623 91.0459 188.793 91.0459C188.043 90.5755 187.475 89.2507 187.475 89.2507C187.475 89.2507 190.693 91.1809 190.627 92.9653C190.575 94.3411 190.118 97.3255 192.518 97.0009C194.918 96.6757 195.955 90.5011 194.299 88.5757C192.643 86.6509 187.421 83.2441 182.268 86.7505Z" fill="#263238"/>
<path d="M194.079 98.4985C193.601 99.4243 192.739 100.043 191.919 100.29C190.685 100.662 190.043 99.5641 190.364 98.3863C190.654 97.3261 191.644 95.8555 192.893 96.0001C194.123 96.1423 194.626 97.4401 194.079 98.4985Z" fill="#FFC3BD"/>
<path d="M180.146 142.621C180.146 142.621 173.211 173.299 177.841 194.928C180.941 209.414 189.654 238.676 189.654 238.676L198.397 238.451C198.397 238.451 192.401 207.742 190.651 195.665C187.658 175.007 195.156 141.322 195.156 141.322L180.146 142.621Z" fill="#2B2028"/>
<path opacity="0.2" d="M188.143 148.814L192.515 155.709C191.402 162.858 190.296 171.8 190.013 180.405C183.866 169.399 186.776 154.642 188.143 148.814Z" fill="black"/>
<path d="M188.422 239.129L199.222 238.854L198.597 235.535L187.577 236.058L188.422 239.129Z" fill="#263238"/>
<path d="M184.628 142.294C184.628 142.294 188.696 174.829 197.515 192.591C204.638 206.938 223.646 227.361 223.646 227.361L228.506 222.355C228.506 222.355 215.667 200.159 210.373 190.628C197.392 167.26 208.001 149.428 200.643 140.848L184.628 142.294Z" fill="#2B2028"/>
<path d="M223.154 228.03L229.426 221.917L227.345 219.086L220.694 225.724L223.154 228.03Z" fill="#263238"/>
<path d="M200.846 139.619L201.929 141.374C202.013 141.51 201.857 141.669 201.62 141.69L180.124 143.549C179.939 143.565 179.779 143.488 179.757 143.373L179.413 141.554C179.389 141.428 179.54 141.307 179.743 141.29L200.5 139.494C200.652 139.481 200.792 139.531 200.846 139.619Z" fill="#407BFF"/>
<path opacity="0.3" d="M200.846 139.619L201.929 141.374C202.013 141.51 201.857 141.669 201.62 141.69L180.124 143.549C179.939 143.565 179.779 143.488 179.757 143.373L179.413 141.554C179.389 141.428 179.54 141.307 179.743 141.29L200.5 139.494C200.652 139.481 200.792 139.531 200.846 139.619Z" fill="white"/>
<path d="M198.26 142.181L198.816 142.133C198.926 142.123 199.006 142.059 198.992 141.99L198.526 139.629C198.512 139.56 198.41 139.511 198.299 139.521L197.744 139.569C197.633 139.578 197.554 139.643 197.567 139.712L198.034 142.073C198.047 142.142 198.149 142.19 198.26 142.181Z" fill="#407BFF"/>
<path d="M181.704 143.612L182.26 143.564C182.371 143.555 182.45 143.49 182.436 143.421L181.969 141.06C181.955 140.991 181.854 140.943 181.743 140.952L181.187 141C181.076 141.01 180.997 141.074 181.011 141.143L181.478 143.504C181.492 143.573 181.593 143.622 181.704 143.612Z" fill="#407BFF"/>
<path d="M189.982 142.895L190.538 142.847C190.649 142.838 190.728 142.774 190.714 142.705L190.247 140.344C190.234 140.275 190.132 140.226 190.021 140.236L189.465 140.284C189.354 140.293 189.275 140.357 189.289 140.426L189.755 142.787C189.769 142.856 189.871 142.905 189.982 142.895Z" fill="#407BFF"/>
<path d="M185.443 94.2059C185.364 94.6067 185.087 94.8899 184.825 94.8383C184.563 94.7867 184.415 94.4201 184.493 94.0193C184.572 93.6185 184.849 93.3353 185.111 93.3869C185.372 93.4379 185.521 93.8051 185.443 94.2059Z" fill="#263238"/>
<path d="M180.911 93.3153C180.832 93.7161 180.555 93.9993 180.293 93.9477C180.031 93.8961 179.883 93.5295 179.961 93.1287C180.04 92.7279 180.317 92.4447 180.579 92.4963C180.84 92.5473 180.989 92.9145 180.911 93.3153Z" fill="#263238"/>
<path d="M180.69 92.541L179.781 92.0742C179.781 92.0742 180.128 92.9238 180.69 92.541Z" fill="#263238"/>
<path d="M182.468 94.3145C182.468 94.3145 181.449 95.9068 180.536 96.592C180.968 97.1902 181.913 97.1411 181.913 97.1411L182.468 94.3145Z" fill="#630F0F"/>
<path d="M183.766 99.0524C185.186 99.0524 186.011 98.2238 186.05 98.183C186.089 98.1434 186.088 98.0804 186.048 98.042C186.009 98.0036 185.947 98.0042 185.908 98.0438C185.897 98.0546 184.819 99.1298 183.056 98.7818C182.999 98.7698 182.949 98.807 182.939 98.8604C182.928 98.9144 182.963 98.9672 183.017 98.9774C183.282 99.0302 183.533 99.0524 183.766 99.0524Z" fill="#263238"/>
<path d="M188.165 92.6509C188.2 92.6509 188.235 92.6413 188.268 92.6221C188.362 92.5651 188.392 92.4427 188.335 92.3479C187.66 91.2307 186.574 91.1815 186.529 91.1797C186.412 91.1839 186.327 91.2619 186.323 91.3717C186.319 91.4815 186.405 91.5739 186.515 91.5787C186.553 91.5799 187.435 91.6279 187.994 92.5549C188.031 92.6161 188.097 92.6509 188.165 92.6509Z" fill="#263238"/>
<path d="M179.653 91.0458C179.686 91.0458 179.719 91.0374 179.749 91.0206C180.703 90.4878 181.51 90.9 181.517 90.9042C181.615 90.9558 181.736 90.9174 181.787 90.8202C181.838 90.723 181.801 90.6024 181.703 90.5508C181.663 90.5292 180.695 90.0348 179.555 90.672C179.459 90.726 179.425 90.8472 179.479 90.9432C179.515 91.0092 179.582 91.0458 179.653 91.0458Z" fill="#263238"/>
<path d="M203.398 114.826C204.704 117.176 205.849 119.512 206.865 122.016C207.373 123.268 207.838 124.544 208.222 125.947C208.412 126.658 208.586 127.384 208.667 128.29C208.7 128.75 208.733 129.254 208.598 129.982L208.531 130.27C208.5 130.379 208.465 130.487 208.428 130.593C208.387 130.706 208.33 130.833 208.275 130.949C208.22 131.062 208.199 131.089 208.158 131.163C208.017 131.413 207.85 131.66 207.661 131.891C206.908 132.844 205.814 133.442 204.863 133.696C203.898 133.964 203.022 133.997 202.219 133.959C200.611 133.862 199.225 133.482 197.9 133.036C195.258 132.116 192.925 130.878 190.648 129.394L191.92 127.006C194.226 127.864 196.664 128.636 198.981 129.113C200.137 129.343 201.295 129.488 202.267 129.428C202.749 129.406 203.173 129.317 203.438 129.199C203.711 129.073 203.769 128.971 203.802 128.896C203.812 128.874 203.821 128.85 203.831 128.816C203.828 128.819 203.851 128.777 203.827 128.817C203.803 128.858 203.782 128.912 203.767 128.95C203.753 128.98 203.741 129.01 203.734 129.042C203.726 129.062 203.72 129.076 203.716 129.094C203.69 129.187 203.696 129.04 203.657 128.861C203.585 128.488 203.435 127.963 203.258 127.441C202.894 126.379 202.407 125.258 201.905 124.142C200.881 121.918 199.736 119.635 198.607 117.447L203.398 114.826Z" fill="#FFC3BD"/>
<path d="M192.802 127.917L190.802 123.859L188.069 127.383C188.069 127.383 189.741 129.841 191.845 129.759L192.802 127.917Z" fill="#FFC3BD"/>
<path d="M188.642 122.688L186.049 125.549L188.07 127.382L190.802 123.858L188.642 122.688Z" fill="#FFC3BD"/>
<path d="M201.63 109.925C204.143 110.369 208.26 119.366 208.26 119.366L200.16 124.8C200.16 124.8 196.291 117.811 196.56 114.537C196.789 111.757 198.43 109.359 201.63 109.925Z" fill="#C29E8A"/>
<path d="M227.473 233.331C227.538 233.331 227.603 233.319 227.668 233.298C228.269 233.095 228.664 231.983 228.845 231.338C228.856 231.299 228.842 231.258 228.812 231.233C228.781 231.208 228.738 231.204 228.703 231.222C228.52 231.318 226.914 232.177 226.861 232.811C226.853 232.907 226.877 233.048 227.033 233.165C227.179 233.275 227.326 233.331 227.473 233.331ZM228.584 231.515C228.306 232.404 227.946 232.994 227.605 233.109C227.457 233.158 227.31 233.124 227.153 233.006C227.063 232.938 227.057 232.872 227.061 232.827C227.093 232.438 228.034 231.827 228.584 231.515Z" fill="#407BFF"/>
<path d="M227.225 231.765C227.795 231.765 228.494 231.583 228.801 231.395C228.831 231.376 228.85 231.343 228.848 231.308C228.848 231.273 228.828 231.24 228.797 231.223C228.743 231.193 227.471 230.494 226.787 230.737C226.609 230.8 226.483 230.919 226.412 231.091C226.304 231.36 226.423 231.516 226.504 231.584C226.656 231.714 226.922 231.765 227.225 231.765ZM228.529 231.309C227.985 231.541 226.931 231.684 226.633 231.432C226.583 231.39 226.534 231.322 226.597 231.166C226.645 231.048 226.729 230.968 226.853 230.925C227.32 230.759 228.168 231.132 228.529 231.309Z" fill="#407BFF"/>
<path d="M189.946 245.517C190.523 245.517 191.15 245.405 191.586 245.309C191.627 245.299 191.659 245.264 191.663 245.222C191.668 245.18 191.645 245.139 191.606 245.121C191.359 245.005 189.179 243.997 188.63 244.369C188.56 244.417 188.478 244.508 188.488 244.678C188.501 244.912 188.601 245.101 188.785 245.24C189.058 245.446 189.485 245.517 189.946 245.517ZM191.243 245.176C190.595 245.297 189.398 245.454 188.905 245.081C188.768 244.978 188.698 244.842 188.687 244.667C188.683 244.586 188.714 244.553 188.742 244.535C189.049 244.326 190.338 244.777 191.243 245.176Z" fill="#407BFF"/>
<path d="M191.564 245.312C191.587 245.312 191.611 245.303 191.629 245.288C191.657 245.264 191.669 245.226 191.662 245.189C191.641 245.097 191.146 242.948 189.963 243.084C189.667 243.12 189.586 243.267 189.57 243.384C189.496 243.931 190.871 245.035 191.527 245.303C191.539 245.309 191.551 245.312 191.564 245.312ZM190.07 243.278C190.826 243.278 191.266 244.529 191.413 245.031C190.702 244.659 189.72 243.762 189.767 243.412C189.771 243.386 189.781 243.308 189.987 243.284C190.015 243.28 190.043 243.278 190.07 243.278Z" fill="#407BFF"/>
<path d="M185.222 93.4316L184.313 92.9648C184.313 92.9648 184.66 93.8144 185.222 93.4316Z" fill="#263238"/>
<path d="M152.311 75.5087L151.967 75.0179C153.519 73.9283 155.115 72.8945 156.708 71.9453L157.015 72.4607C155.435 73.4021 153.852 74.4275 152.311 75.5087ZM131.542 54.7259C130.796 54.2837 130.035 53.8613 129.281 53.4695L129.558 52.9367C130.322 53.3339 131.092 53.7617 131.847 54.2093L131.542 54.7259ZM127.466 52.5755C124.406 51.1547 121.209 50.0981 117.963 49.4351L118.083 48.8477C121.374 49.5197 124.616 50.5913 127.718 52.0319L127.466 52.5755Z" fill="#407BFF"/>
<path d="M193.407 66.3726C175.67 62.7498 159.903 71.7264 151.608 77.8632C146.384 68.9658 135.4 54.5268 117.662 50.9046H117.662C101.877 47.6814 86.4179 57.9 83.1947 73.6818C81.6335 81.327 83.1431 89.1228 87.4445 95.6328C91.7465 102.143 98.3261 106.588 105.971 108.149C108.797 108.726 111.572 108.983 114.276 108.983C128.541 108.983 140.796 101.818 147.77 96.6594C152.994 105.557 163.978 119.995 181.716 123.617C183.68 124.019 185.639 124.211 187.569 124.211C201.156 124.211 213.361 114.659 216.183 100.84C219.407 85.0572 209.189 69.5952 193.407 66.3726ZM108.374 96.3912C103.869 95.4714 99.9923 92.8524 97.4573 89.016C94.9223 85.1802 94.0331 80.5872 94.9529 76.0824C96.6155 67.9398 103.806 62.3118 111.813 62.3118C112.95 62.3118 114.105 62.4258 115.262 62.6616H115.262C129.642 65.5986 138.619 79.0632 142.262 85.743C136.286 90.4644 122.754 99.3282 108.374 96.3912ZM204.426 98.4384C202.527 107.738 193.416 113.761 184.118 111.859C169.737 108.923 160.76 95.4576 157.116 88.7778C163.094 84.057 176.628 75.1944 191.006 78.1296C200.305 80.0286 206.326 89.1396 204.426 98.4384Z" fill="#80797E"/>
</svg>
