<svg width="200" height="200" viewBox="0 0 200 200" fill="none" xmlns="http://www.w3.org/2000/svg">
<path d="M42.6484 180.074C42.6484 180.074 52.736 148.034 52.95 146.994C53.1436 146.054 49.2892 122.996 48.8036 117.029L62.434 117.537C62.434 117.537 62.4344 117.574 62.4352 117.637L68.2288 117.958L63.0396 183.485H56.7672L57.3892 161.745C53.5216 172.129 47.9788 182.711 47.9788 182.711L42.6484 180.074Z" fill="#FFBE9D"/>
<path d="M57.1331 169.537C57.1275 169.338 57.2091 162.253 57.2091 162.253C57.2875 162.677 59.6139 156.101 59.5575 155.701C59.5283 155.495 57.1331 169.537 57.1331 169.537Z" fill="#EB996E"/>
<path d="M59.8235 152.588C59.8379 152.587 59.8515 152.729 59.8635 152.985C59.8771 153.241 59.8799 153.613 59.8551 154.071C59.8463 154.301 59.8223 154.552 59.7927 154.821C59.7583 155.089 59.7215 155.376 59.6595 155.674C59.5459 156.272 59.3703 156.919 59.1467 157.583C58.6911 158.908 58.1887 160.068 57.8319 160.909C57.6627 161.293 57.5175 161.623 57.3955 161.9C57.2883 162.132 57.2227 162.258 57.2095 162.253C57.1963 162.247 57.2363 162.111 57.3203 161.869C57.4043 161.628 57.5323 161.281 57.6955 160.854C58.0175 159.999 58.4983 158.83 58.9495 157.517C59.1707 156.859 59.3491 156.223 59.4715 155.636C59.5379 155.344 59.5803 155.062 59.6215 154.798C59.6583 154.534 59.6903 154.287 59.7083 154.061C59.7515 153.608 59.7711 153.239 59.7823 152.985C59.7951 152.729 59.8091 152.588 59.8235 152.588Z" fill="#EB996E"/>
<path d="M68.7235 130.039C68.9655 120.904 67.9391 111.441 67.1271 108.571C67.0499 108.297 66.9831 108.021 66.9171 107.744L65.3671 101.256C65.3671 101.256 64.7219 100.729 66.4455 98.4344C67.2443 97.3708 67.0955 93.3064 67.0955 93.3064L66.3247 98.6772L74.4215 94.7776C74.4215 94.7776 71.0219 85.0924 69.9231 83.6772C67.0707 80.0036 61.9175 80.6464 61.9175 80.6464L55.1719 80.5684C55.1719 80.5684 52.5975 80.7308 50.1383 81.882L49.9707 81.9256L49.9711 81.9604C48.0375 82.904 46.3131 84.4916 45.8167 87.0804C45.0071 91.3024 45.2615 93.2268 45.2615 93.2268L50.7571 93.1288L50.2695 104.762C49.8539 106.193 48.6935 105.85 46.9767 112.462C46.2707 115.182 45.8435 117.761 45.5943 120.061C45.2667 123.087 45.3207 126.14 45.7179 129.158L48.8031 152.586H67.4739L68.7235 130.039Z" fill="#455A64"/>
<path d="M53.4087 91.2356L54.4099 95.5016H44.9639L45.5855 88.3496L53.4087 91.2356Z" fill="#455A64"/>
<path d="M44.9639 95.5013C44.9627 95.4733 45.4399 95.4233 46.2143 95.3777C46.9883 95.3321 48.0595 95.2941 49.2435 95.2993C50.4279 95.3053 51.4991 95.3565 52.2723 95.4177C53.0459 95.4789 53.5215 95.5441 53.5195 95.5717C53.5171 95.6017 53.0379 95.5885 52.2643 95.5649C51.4907 95.5413 50.4227 95.5133 49.2423 95.5077C48.0623 95.5025 46.9935 95.5173 46.2191 95.5249C45.4451 95.5325 44.9655 95.5305 44.9639 95.5013Z" fill="#263238"/>
<path d="M65.3667 101.565C65.3543 101.566 65.3283 101.419 65.3115 101.149C65.3195 101.014 65.3083 100.845 65.3475 100.655C65.3723 100.463 65.4283 100.248 65.5107 100.019C65.5919 99.7898 65.7043 99.547 65.8423 99.2986C65.9779 99.0482 66.1391 98.7922 66.3071 98.5246C66.6451 97.9914 67.0131 97.4046 67.2403 96.7258C67.3475 96.385 67.4195 96.0454 67.4383 95.709C67.4623 95.3734 67.4439 95.0458 67.4091 94.7362C67.3419 94.1154 67.1971 93.5658 67.0687 93.1086C66.7991 92.1954 66.5743 91.6458 66.6071 91.633C66.6199 91.6278 66.6903 91.7586 66.7991 92.0038C66.9079 92.249 67.0575 92.6078 67.2091 93.0646C67.3571 93.5218 67.5191 94.0758 67.5995 94.713C67.6407 95.0306 67.6639 95.3694 67.6419 95.721C67.6251 96.073 67.5499 96.435 67.4379 96.7906C67.1999 97.5014 66.8147 98.1006 66.4683 98.6278C66.2955 98.8926 66.1311 99.1426 65.9923 99.3834C65.8507 99.623 65.7347 99.8538 65.6479 100.072C65.5599 100.289 65.4963 100.493 65.4619 100.676C65.4131 100.857 65.4127 101.019 65.3923 101.15C65.3843 101.414 65.3827 101.563 65.3667 101.565Z" fill="#263238"/>
<path d="M48.8032 152.587C48.8 152.586 48.8124 152.541 48.84 152.453C48.8724 152.355 48.9148 152.226 48.9684 152.063C49.0896 151.71 49.2616 151.21 49.4812 150.572C49.7008 149.923 49.9972 149.14 50.3308 148.227C50.6632 147.313 51.0572 146.278 51.4924 145.134C52.3752 142.847 53.424 140.129 54.5884 137.113C55.1688 135.602 55.7776 134.017 56.4088 132.374C57.0404 130.731 57.6744 129.022 58.324 127.272C58.9612 125.517 59.5904 123.805 60.16 122.14C60.446 121.308 60.7268 120.49 61.002 119.689C61.2628 118.884 61.518 118.095 61.7668 117.326C62.2816 115.793 62.6816 114.308 63.1016 112.933C63.296 112.241 63.4636 111.567 63.6364 110.922C63.7992 110.275 63.9864 109.661 64.1052 109.061C64.2364 108.465 64.3616 107.896 64.48 107.358C64.5392 107.089 64.5972 106.828 64.6532 106.574C64.6956 106.319 64.7368 106.071 64.7768 105.831C64.8556 105.353 64.9292 104.907 64.9972 104.496C65.0652 104.086 65.1352 103.712 65.1544 103.37C65.2176 102.699 65.2668 102.174 65.3016 101.803C65.32 101.632 65.334 101.497 65.3452 101.395C65.356 101.303 65.3636 101.256 65.3672 101.256C65.3708 101.256 65.3704 101.303 65.3664 101.395C65.3604 101.498 65.3532 101.634 65.3436 101.805C65.318 102.177 65.2816 102.705 65.2348 103.379C65.2216 103.722 65.158 104.097 65.0952 104.51C65.0324 104.923 64.9644 105.371 64.8916 105.851C64.8544 106.092 64.8156 106.341 64.7756 106.597C64.722 106.852 64.6668 107.114 64.61 107.384C64.4956 107.924 64.3752 108.495 64.2488 109.094C64.1344 109.696 63.9512 110.312 63.7924 110.961C63.6236 111.608 63.4596 112.285 63.2684 112.979C62.8552 114.358 62.4604 115.847 61.9504 117.384C61.7032 118.155 61.45 118.945 61.1912 119.752C60.9172 120.554 60.638 121.373 60.3532 122.207C59.7856 123.875 59.1572 125.588 58.5196 127.344C57.8696 129.095 57.234 130.804 56.5996 132.447C55.9644 134.089 55.3516 135.673 54.7676 137.182C53.5876 140.193 52.5248 142.905 51.63 145.187C51.1896 146.327 50.7912 147.359 50.44 148.268C50.096 149.177 49.7888 149.956 49.5576 150.6C49.3224 151.232 49.1384 151.727 49.0084 152.077C48.9468 152.237 48.8976 152.363 48.8604 152.459C48.826 152.545 48.8064 152.589 48.8032 152.587Z" fill="#263238"/>
<path d="M53.8158 88.3145C53.8446 88.3157 53.8546 88.7301 53.8474 89.3997C53.8402 90.0689 53.8162 90.9933 53.7766 92.0133C53.737 93.0337 53.6894 93.9569 53.6446 94.6249C53.5998 95.2929 53.5578 95.7053 53.529 95.7041C53.5002 95.7029 53.4902 95.2885 53.4974 94.6193C53.5046 93.9501 53.5286 93.0257 53.5682 92.0053C53.6078 90.9853 53.6554 90.0621 53.7002 89.3941C53.745 88.7257 53.787 88.3133 53.8158 88.3145Z" fill="#263238"/>
<path opacity="0.3" d="M62.3344 94.832C62.3344 94.832 60.3116 107.575 54.41 107.163C54.41 107.163 51.7528 107.131 50.8984 105.365V104.67L62.3344 94.832Z" fill="black"/>
<path d="M65.3671 101.257C65.3687 101.315 64.0875 101.409 62.5051 101.469C60.9223 101.528 59.6387 101.529 59.6367 101.472C59.6351 101.414 60.9163 101.32 62.4987 101.26C64.0811 101.201 65.3651 101.199 65.3671 101.257Z" fill="#263238"/>
<path d="M63.2039 101.343C63.2059 101.353 63.1163 101.37 62.9987 101.283C62.8799 101.2 62.7807 101.017 62.6819 100.811C62.5683 100.576 62.4503 100.331 62.3271 100.075C62.2655 99.9347 62.1827 99.7955 62.1395 99.6067C62.0951 99.4255 62.1395 99.1619 62.3643 99.0423C62.4779 98.9835 62.6183 99.0011 62.7131 99.0579C62.8095 99.1131 62.8747 99.1883 62.9291 99.2631C63.0323 99.4175 63.0991 99.5631 63.1599 99.7127C63.2779 100.009 63.3287 100.293 63.3451 100.531C63.3735 101.011 63.2735 101.296 63.2515 101.29C63.2175 101.285 63.2627 100.997 63.1987 100.547C63.1647 100.323 63.1023 100.059 62.9827 99.7863C62.9239 99.6527 62.8491 99.5059 62.7639 99.3831C62.6763 99.2595 62.5507 99.1767 62.4571 99.2291C62.3563 99.2823 62.3059 99.4299 62.3395 99.5667C62.3671 99.7067 62.4439 99.8539 62.5019 99.9963C62.6111 100.259 62.7155 100.51 62.8163 100.751C62.9007 100.971 62.9683 101.136 63.0527 101.223C63.1335 101.312 63.2079 101.325 63.2039 101.343Z" fill="#263238"/>
<path d="M63.2173 101.558C63.1917 101.548 63.2781 101.226 63.4729 100.722C63.5705 100.471 63.6961 100.175 63.8489 99.8524C63.9253 99.6912 64.0089 99.5236 64.0989 99.3512C64.1441 99.2636 64.1989 99.1668 64.2869 99.0828C64.3677 98.9968 64.5425 98.9308 64.6829 99.0104C64.8157 99.0824 64.8773 99.2208 64.8873 99.3424C64.8969 99.4652 64.8729 99.5712 64.8473 99.6672C64.7985 99.8632 64.7257 100.045 64.6393 100.208C64.4637 100.533 64.2373 100.783 64.0221 100.956C63.5853 101.303 63.2325 101.36 63.2305 101.341C63.2153 101.306 63.5397 101.2 63.9253 100.844C64.1161 100.668 64.3153 100.425 64.4685 100.12C64.5437 99.9668 64.6065 99.7988 64.6485 99.6192C64.7005 99.44 64.6997 99.254 64.5853 99.1948C64.4945 99.1328 64.3573 99.2828 64.2785 99.4468C64.1901 99.6144 64.1045 99.7776 64.0205 99.9368C63.8597 100.251 63.7217 100.538 63.6077 100.78C63.3809 101.264 63.2457 101.568 63.2173 101.558Z" fill="#263238"/>
<path opacity="0.3" d="M53.8157 89.2324L54.9453 96.8636L54.2141 98.2024L53.3193 95.608L53.5193 95.572L53.8157 89.2324Z" fill="black"/>
<path d="M63.1574 183.809L63.1602 183.219L56.7354 182.939L56.7178 185.369L57.1142 185.396C58.8778 185.499 66.0886 185.797 67.2686 185.443C68.5846 185.048 63.1574 183.809 63.1574 183.809Z" fill="#E8505B"/>
<g opacity="0.5">
<path d="M59.0358 185.327C58.9466 184.792 58.651 184.295 58.2242 183.962C57.7974 183.628 57.2714 183.451 56.7314 183.492L56.7246 185.279L59.0358 185.327Z" fill="white"/>
</g>
<path opacity="0.5" d="M65.809 184.508C65.809 184.508 67.711 185.063 67.4726 185.375C67.2342 185.688 59.9358 185.662 56.7178 185.368L56.7286 185.225L65.241 185.329C65.241 185.329 65.4366 184.522 65.809 184.508Z" fill="white"/>
<path d="M56.6279 185.222C56.6279 185.224 56.6655 185.228 56.7379 185.234C56.8327 185.24 56.9363 185.247 57.0535 185.254C57.3691 185.269 57.7571 185.287 58.2151 185.309C59.1963 185.348 60.5523 185.383 62.0507 185.39C63.5495 185.396 64.9063 185.372 65.8875 185.342C66.3455 185.325 66.7339 185.31 67.0495 185.298C67.1667 185.292 67.2703 185.286 67.3651 185.281C67.4371 185.276 67.4751 185.272 67.4751 185.27C67.4751 185.267 67.4371 185.266 67.3647 185.266C67.2699 185.266 67.1659 185.267 67.0487 185.268C66.7327 185.274 66.3447 185.28 65.8863 185.288C64.9051 185.304 63.5491 185.319 62.0511 185.313C60.5539 185.306 59.1983 185.279 58.2171 185.254C57.7591 185.243 57.3707 185.233 57.0551 185.225C56.9379 185.223 56.8339 185.221 56.7391 185.219C56.6659 185.218 56.6279 185.219 56.6279 185.222Z" fill="#263238"/>
<path d="M65.2385 185.43C65.2621 185.434 65.2813 185.156 65.4577 184.877C65.6289 184.594 65.8685 184.453 65.8553 184.434C65.8509 184.414 65.5765 184.534 65.3917 184.836C65.2037 185.136 65.2193 185.435 65.2385 185.43Z" fill="#263238"/>
<path d="M63.3567 184.465C63.3747 184.477 63.4655 184.367 63.5591 184.221C63.6531 184.074 63.7143 183.946 63.6963 183.934C63.6783 183.923 63.5879 184.032 63.4939 184.179C63.3999 184.326 63.3387 184.454 63.3567 184.465Z" fill="#263238"/>
<path d="M62.8395 184.189C62.8539 184.205 62.9547 184.138 63.0655 184.04C63.1759 183.941 63.2539 183.848 63.2399 183.832C63.2255 183.816 63.1247 183.883 63.0139 183.982C62.9035 184.08 62.8255 184.173 62.8395 184.189Z" fill="#263238"/>
<path d="M62.5146 183.585C62.5142 183.607 62.6635 183.626 62.8479 183.629C63.0323 183.631 63.1819 183.616 63.1823 183.595C63.1827 183.573 63.0334 183.554 62.849 183.551C62.6646 183.549 62.515 183.564 62.5146 183.585Z" fill="#263238"/>
<path d="M62.4036 183.159C62.3964 183.178 62.5587 183.252 62.7755 183.268C62.9923 183.286 63.1639 183.238 63.1599 183.218C63.1563 183.196 62.9871 183.208 62.7815 183.191C62.5755 183.176 62.4104 183.137 62.4036 183.159Z" fill="#263238"/>
<path d="M63.5752 183.908C63.5748 183.917 63.7324 183.936 63.986 183.907C64.1124 183.892 64.2624 183.862 64.4236 183.812C64.5036 183.784 64.5876 183.763 64.6744 183.71C64.7152 183.682 64.7604 183.645 64.7764 183.582C64.7936 183.521 64.7608 183.452 64.7148 183.418C64.3228 183.213 63.9288 183.432 63.7824 183.635C63.7016 183.738 63.6648 183.839 63.6476 183.908C63.6308 183.979 63.632 184.019 63.6364 184.019C63.6508 184.024 63.6648 183.858 63.8248 183.67C63.9036 183.578 64.0232 183.488 64.1764 183.443C64.3216 183.4 64.528 183.39 64.666 183.478C64.7312 183.526 64.7052 183.603 64.6328 183.646C64.5652 183.689 64.4776 183.716 64.4016 183.744C64.246 183.797 64.1012 183.831 63.978 183.852C63.7316 183.896 63.5752 183.895 63.5752 183.908Z" fill="#263238"/>
<path d="M63.6814 183.929C63.6874 183.933 63.7482 183.829 63.7298 183.644C63.7202 183.553 63.6874 183.446 63.6186 183.344C63.5466 183.253 63.4533 183.127 63.2773 183.133C63.1821 183.145 63.1354 183.253 63.1502 183.322C63.1574 183.394 63.1894 183.456 63.2194 183.506C63.2802 183.609 63.349 183.692 63.4126 183.755C63.541 183.881 63.6426 183.93 63.647 183.922C63.6542 183.912 63.5653 183.848 63.4525 183.718C63.3965 183.653 63.3358 183.57 63.2814 183.471C63.2254 183.383 63.1874 183.227 63.2902 183.209C63.393 183.2 63.4977 183.303 63.5601 183.385C63.6245 183.474 63.6598 183.569 63.6754 183.652C63.7062 183.819 63.6678 183.926 63.6814 183.929Z" fill="#263238"/>
<path d="M56.7647 183.473C56.7659 183.487 56.9479 183.456 57.2367 183.491C57.5227 183.524 57.9203 183.643 58.2655 183.92C58.6103 184.197 58.8123 184.56 58.9059 184.832C59.0027 185.106 59.0115 185.29 59.0255 185.289C59.0303 185.288 59.0327 185.242 59.0263 185.16C59.0199 185.077 59.0007 184.958 58.9579 184.815C58.8751 184.531 58.6735 184.149 58.3139 183.859C57.9539 183.571 57.5371 183.457 57.2419 183.437C57.0931 183.426 56.9723 183.433 56.8903 183.445C56.8083 183.456 56.7639 183.468 56.7647 183.473Z" fill="#263238"/>
<path d="M59.8418 184.713C59.839 184.733 60.2558 184.8 60.7754 184.802C61.295 184.805 61.7122 184.743 61.7098 184.723C61.7078 184.701 61.2902 184.728 60.7758 184.724C60.261 184.722 59.8438 184.691 59.8418 184.713Z" fill="#263238"/>
<path d="M58.5889 184.7C58.5733 184.715 58.6229 184.788 58.6649 184.884C58.7085 184.979 58.7301 185.065 58.7521 185.064C58.7729 185.064 58.7853 184.963 58.7353 184.853C58.6865 184.742 58.6029 184.684 58.5889 184.7Z" fill="#263238"/>
<path d="M58.1194 184.111C58.1042 184.125 58.145 184.192 58.211 184.259C58.277 184.327 58.3426 184.369 58.3578 184.354C58.373 184.339 58.3322 184.273 58.2662 184.205C58.2006 184.138 58.135 184.095 58.1194 184.111Z" fill="#263238"/>
<path d="M57.4446 183.839C57.449 183.86 57.5338 183.86 57.6278 183.894C57.7222 183.925 57.789 183.977 57.8058 183.963C57.823 183.951 57.7694 183.86 57.653 183.82C57.5362 183.78 57.4382 183.819 57.4446 183.839Z" fill="#263238"/>
<path d="M56.964 183.712C56.956 183.732 56.9928 183.764 57.0456 183.785C57.0984 183.806 57.148 183.807 57.1556 183.787C57.1636 183.767 57.1268 183.734 57.074 183.713C57.0208 183.692 56.9716 183.692 56.964 183.712Z" fill="#263238"/>
<path d="M48.1044 183.242L48.3484 182.706L42.602 179.818L41.5908 182.028L41.9412 182.215C43.5076 183.031 49.964 186.256 51.1856 186.417C52.548 186.596 48.1044 183.242 48.1044 183.242Z" fill="#E8505B"/>
<g opacity="0.5">
<path d="M43.7226 182.938C43.8598 182.414 43.7938 181.839 43.5414 181.36C43.289 180.881 42.8818 180.504 42.3718 180.32L41.6338 181.947L43.7226 182.938Z" fill="white"/>
</g>
<path opacity="0.5" d="M50.2362 184.968C50.2362 184.968 51.7438 186.253 51.3982 186.44C51.0526 186.628 44.4054 183.614 41.5898 182.028L41.6582 181.902L49.3814 185.484C49.3814 185.484 49.8906 184.828 50.2362 184.968Z" fill="white"/>
<path d="M41.5684 181.858C41.5672 181.86 41.6 181.879 41.6636 181.914C41.7476 181.958 41.8396 182.007 41.9432 182.062C42.2252 182.204 42.5716 182.38 42.9808 182.587C43.86 183.024 45.0824 183.612 46.4464 184.232C47.8112 184.852 49.0584 185.386 49.966 185.76C50.3912 185.932 50.7512 186.077 51.044 186.196C51.1536 186.238 51.2504 186.275 51.3392 186.309C51.4068 186.334 51.4432 186.346 51.444 186.344C51.4448 186.342 51.4108 186.325 51.3452 186.295C51.2584 186.257 51.1632 186.215 51.0556 186.168C50.7652 186.044 50.4084 185.89 49.9872 185.71C49.0852 185.322 47.842 184.781 46.4784 184.162C45.1152 183.542 43.8896 182.962 43.0044 182.538C42.5912 182.339 42.2412 182.171 41.9564 182.034C41.8504 181.984 41.756 181.94 41.6704 181.9C41.6048 181.87 41.5696 181.855 41.5684 181.858Z" fill="#263238"/>
<path d="M49.3391 185.572C49.3595 185.585 49.4907 185.339 49.7659 185.157C50.0379 184.969 50.3143 184.939 50.3103 184.915C50.3139 184.895 50.0147 184.892 49.7223 185.092C49.4275 185.289 49.3195 185.569 49.3391 185.572Z" fill="#263238"/>
<path d="M48.0165 183.922C48.0281 183.94 48.1557 183.877 48.3013 183.782C48.4469 183.687 48.5553 183.595 48.5437 183.577C48.5321 183.559 48.4045 183.622 48.2589 183.717C48.1133 183.812 48.0049 183.904 48.0165 183.922Z" fill="#263238"/>
<path d="M47.6585 183.459C47.6649 183.479 47.7845 183.46 47.9257 183.415C48.0669 183.37 48.1761 183.318 48.1697 183.297C48.1633 183.277 48.0437 183.296 47.9025 183.341C47.7613 183.386 47.6521 183.438 47.6585 183.459Z" fill="#263238"/>
<path d="M47.6089 182.776C47.5997 182.795 47.7281 182.874 47.8949 182.952C48.0621 183.03 48.2049 183.078 48.2141 183.059C48.2233 183.039 48.0949 182.96 47.9281 182.882C47.7609 182.804 47.6177 182.756 47.6089 182.776Z" fill="#263238"/>
<path d="M47.6828 182.342C47.6684 182.356 47.7864 182.49 47.9772 182.594C48.1676 182.699 48.344 182.726 48.3484 182.706C48.3544 182.684 48.1952 182.626 48.0144 182.526C47.8328 182.428 47.698 182.325 47.6828 182.342Z" fill="#263238"/>
<path d="M48.4444 183.504C48.4404 183.511 48.576 183.594 48.8196 183.671C48.9412 183.709 49.0896 183.744 49.2576 183.764C49.3424 183.771 49.4272 183.786 49.528 183.773C49.5764 183.765 49.6332 183.749 49.6732 183.698C49.714 183.649 49.7128 183.573 49.6844 183.523C49.4108 183.176 48.9616 183.215 48.7448 183.339C48.6288 183.4 48.554 183.477 48.5096 183.534C48.4656 183.591 48.45 183.628 48.454 183.63C48.4648 183.641 48.546 183.494 48.7692 183.388C48.8788 183.337 49.0244 183.304 49.1828 183.326C49.3328 183.346 49.5256 183.421 49.6148 183.558C49.6544 183.629 49.5996 183.688 49.5156 183.698C49.436 183.71 49.3456 183.698 49.2644 183.692C49.1008 183.676 48.9544 183.648 48.8336 183.618C48.5924 183.556 48.4496 183.492 48.4444 183.504Z" fill="#263238"/>
<path d="M48.5328 183.566C48.5364 183.573 48.6348 183.502 48.6936 183.326C48.722 183.24 48.736 183.128 48.7156 183.007C48.6872 182.894 48.654 182.741 48.4904 182.675C48.3988 182.647 48.1845 182.831 48.1697 182.9C48.1469 182.969 48.278 182.934 48.2844 182.992C48.2976 183.11 48.3265 183.214 48.3585 183.298C48.4241 183.466 48.4964 183.552 48.504 183.546C48.5148 183.54 48.46 183.446 48.4104 183.28C48.386 183.198 48.3644 183.098 48.3556 182.985C48.34 182.882 48.3692 182.724 48.4708 182.75C48.5684 182.784 48.622 182.92 48.6452 183.02C48.6672 183.128 48.6604 183.23 48.6408 183.312C48.6004 183.477 48.5216 183.558 48.5328 183.566Z" fill="#263238"/>
<path d="M42.4093 180.318C42.4045 180.331 42.5833 180.377 42.8325 180.528C43.0801 180.675 43.3941 180.946 43.5957 181.34C43.7965 181.735 43.8321 182.148 43.8065 182.435C43.7821 182.725 43.7149 182.896 43.7285 182.9C43.7329 182.902 43.7541 182.861 43.7817 182.783C43.8097 182.705 43.8409 182.588 43.8605 182.44C43.9013 182.147 43.8737 181.715 43.6641 181.304C43.4541 180.893 43.1205 180.618 42.8593 180.48C42.7281 180.409 42.6153 180.366 42.5353 180.343C42.4561 180.32 42.4105 180.313 42.4093 180.318Z" fill="#263238"/>
<path d="M44.7092 182.708C44.6984 182.726 45.0516 182.957 45.5244 183.172C45.9968 183.388 46.4032 183.502 46.4092 183.483C46.4164 183.462 46.0248 183.316 45.5564 183.102C45.088 182.889 44.7208 182.689 44.7092 182.708Z" fill="#263238"/>
<path d="M43.5724 182.184C43.5516 182.192 43.5672 182.279 43.5664 182.384C43.5672 182.489 43.552 182.575 43.5724 182.583C43.5912 182.592 43.644 182.505 43.6436 182.384C43.644 182.262 43.5912 182.175 43.5724 182.184Z" fill="#263238"/>
<path d="M43.3843 181.454C43.3643 181.461 43.3743 181.539 43.4071 181.627C43.4395 181.715 43.4823 181.781 43.5023 181.774C43.5223 181.766 43.5123 181.688 43.4795 181.6C43.4471 181.512 43.4043 181.446 43.3843 181.454Z" fill="#263238"/>
<path d="M42.8801 180.93C42.8753 180.952 42.9529 180.986 43.0249 181.055C43.0985 181.122 43.1377 181.198 43.1589 181.191C43.1793 181.188 43.1681 181.082 43.0777 180.998C42.9881 180.914 42.8825 180.91 42.8801 180.93Z" fill="#263238"/>
<path d="M42.4944 180.616C42.4792 180.632 42.4992 180.676 42.5388 180.717C42.5784 180.758 42.6232 180.779 42.6384 180.764C42.6536 180.749 42.6336 180.704 42.594 180.663C42.5544 180.622 42.5096 180.601 42.4944 180.616Z" fill="#263238"/>
<path d="M66.6994 83.568C66.753 83.0336 66.8582 82.3128 66.883 81.9808C66.9582 80.9684 67.1306 80.7432 67.4678 80.8936C68.0158 81.1384 67.4418 83.7256 67.8358 83.76C68.0474 83.7784 68.3314 82.266 68.4446 81.52C68.5658 80.722 68.649 79.642 68.6998 79.2568C68.7554 78.8324 69.4774 78.7352 69.451 79.488C69.4238 80.2664 69.3866 82.4096 69.5682 82.494C70.0694 82.7264 70.051 79.6664 70.1702 78.6656C70.1966 78.4432 70.2466 78.2868 70.3082 78.178C70.4806 77.8736 70.9518 77.9884 70.999 78.3348C71.1318 79.3104 70.9374 81.9456 71.0114 82.3728C71.0342 82.5036 71.3618 82.57 71.4426 82.1324C71.551 81.5456 71.5026 78.738 72.0802 78.9872C72.7142 79.2608 72.033 82.5828 72.2922 82.9212C72.7758 83.5512 72.8302 79.9408 73.4298 80.0976C73.7334 80.1768 73.7266 80.2904 73.4186 82.218C73.277 83.1052 72.6834 85.028 72.3606 86.6732C73.7518 91.5816 76.187 100.775 75.831 103.805C75.627 105.542 71.5982 106.742 69.8706 105.446C68.143 104.151 66.9402 98.382 66.9402 98.382L69.017 97.154L66.987 86.0332C66.9014 85.8 66.8626 85.194 66.7398 84.9068C66.5974 84.5752 66.6634 83.9276 66.6994 83.568Z" fill="#FFBE9D"/>
<path d="M70.1967 103.015C70.1403 103.026 69.8387 101.726 69.5227 100.111C69.2071 98.4953 68.9967 97.1773 69.0531 97.1661C69.1095 97.1549 69.4111 98.4553 69.7271 100.071C70.0431 101.686 70.2531 103.004 70.1967 103.015Z" fill="#EB996E"/>
<path d="M65.2483 76.1874C67.0079 75.9326 68.7939 75.8602 70.5679 75.9726C70.8439 75.477 70.8875 74.8578 70.6831 74.3286C70.4787 73.7994 70.0307 73.3702 69.4931 73.1886C69.2739 73.1146 69.0307 73.0742 68.8615 72.9158C68.5879 72.6602 68.6267 72.2198 68.7191 71.8566C68.8115 71.4938 68.9335 71.0954 68.7667 70.7598C68.5059 70.2354 67.7423 70.2258 67.3175 69.8222C66.8291 69.3582 66.9439 68.573 66.8507 67.9058C66.6827 66.7014 65.6303 65.6778 64.4219 65.543" fill="#263238"/>
<path d="M58.788 62.4853C56.8168 62.0077 54.5844 62.9929 53.6096 64.7713C53.0804 65.7361 52.8104 66.9789 51.8264 67.4713C51.2252 67.7717 50.5152 67.6965 49.846 67.7597C49.1768 67.8229 48.4224 68.1333 48.2628 68.7865C48.1016 69.4469 48.606 70.2549 48.1604 70.7681C47.8748 71.0969 47.3664 71.0773 46.966 71.2473C46.1532 71.5921 45.9228 72.6469 46.0108 73.5253C46.0992 74.4037 46.3908 75.2929 46.184 76.1509C47.0768 76.4241 47.9808 76.6997 48.9136 76.7485C49.8464 76.7973 50.8252 76.5973 51.5504 76.0085C51.4732 76.3909 51.7216 76.7821 52.056 76.9833C52.3904 77.1845 52.7928 77.2341 53.1824 77.2585C54.4592 77.3381 55.75 77.1941 56.978 76.8357" fill="#263238"/>
<path d="M63.1777 81.1243C63.1517 79.4567 63.1277 77.8067 63.1277 77.8067C63.1277 77.8067 65.8253 77.5423 66.0173 74.8019C66.2093 72.0611 66.1121 65.7359 66.1121 65.7359L61.2305 63.2227L56.0293 67.4327L56.2413 81.2911C56.3045 83.2303 57.9449 84.7407 59.8825 84.6435C61.7497 84.5499 63.2069 82.9935 63.1777 81.1243Z" fill="#FFBE9D"/>
<path d="M65.5287 70.4154C65.5267 70.6094 65.3719 70.7646 65.1827 70.7626C64.9943 70.7606 64.8427 70.6022 64.8447 70.4082C64.8467 70.2142 65.0016 70.0586 65.1904 70.0606C65.3792 70.063 65.5307 70.2214 65.5287 70.4154Z" fill="#263238"/>
<path d="M65.8635 70.0362C65.8191 70.081 65.5687 69.8582 65.2007 69.8342C64.8331 69.8046 64.5543 69.989 64.5167 69.9378C64.4979 69.915 64.5451 69.8318 64.6667 69.7482C64.7863 69.6646 64.9879 69.5894 65.2171 69.6058C65.4463 69.6226 65.6351 69.7262 65.7419 69.8266C65.8507 69.927 65.8851 70.0162 65.8635 70.0362Z" fill="#263238"/>
<path d="M61.5649 70.4154C61.5629 70.6094 61.4081 70.7646 61.2189 70.7626C61.0301 70.7606 60.8789 70.6022 60.8809 70.4082C60.8829 70.2142 61.0377 70.0586 61.2265 70.0606C61.4153 70.063 61.5669 70.2218 61.5649 70.4154Z" fill="#263238"/>
<path d="M61.7814 70.0362C61.737 70.081 61.4866 69.8582 61.1186 69.8342C60.7514 69.8046 60.4722 69.989 60.4346 69.9378C60.4162 69.915 60.4626 69.8318 60.5846 69.7482C60.7042 69.6646 60.9058 69.5894 61.1346 69.6058C61.3638 69.6226 61.5526 69.7262 61.6594 69.8266C61.7686 69.927 61.8034 70.0162 61.7814 70.0362Z" fill="#263238"/>
<path d="M63.0768 73.1231C63.076 73.1007 63.3068 73.0739 63.6796 73.0483C63.774 73.0443 63.864 73.0303 63.8828 72.9627C63.908 72.8915 63.8736 72.7803 63.8332 72.6599C63.7552 72.4103 63.674 72.1487 63.5884 71.8743C63.25 70.7563 63.0096 69.8399 63.0516 69.8263C63.0936 69.8127 63.402 70.7079 63.7404 71.8259C63.8216 72.1015 63.8992 72.3639 63.9732 72.6155C64.004 72.7323 64.0592 72.8663 64.0048 73.0139C63.9764 73.0875 63.9048 73.1371 63.844 73.1507C63.7828 73.1663 63.73 73.1639 63.6832 73.1635C63.3088 73.1595 63.0772 73.1455 63.0768 73.1231Z" fill="#263238"/>
<path d="M51.9422 69.941C51.9722 69.747 51.9159 70.1518 51.9539 69.8474V69.8458C52.0071 69.4222 52.0667 68.9758 52.1307 68.7358C53.6483 63.0322 58.5566 62.0174 59.525 62.0274C60.5638 62.0382 63.5363 61.951 65.1898 64.0226C67.373 66.757 66.1362 69.465 66.1362 69.465L61.8063 68.6986C62.1271 67.6202 61.6859 66.2722 61.4347 65.6438L61.4099 65.6198C60.5875 69.7166 56.1719 70.6362 56.1719 70.6362L56.1206 76.641C52.9042 76.175 51.867 72.3154 51.9422 69.941Z" fill="#263238"/>
<path d="M56.2275 73.13C56.2535 72.7188 56.4447 71.7328 56.3071 71.3448C56.1695 70.9568 55.7383 70.8688 55.2635 70.8732C54.7895 70.8776 54.2199 71.3144 54.2367 71.898C54.2507 72.3716 54.4079 72.8588 54.8147 73.1024C55.2211 73.3464 55.7447 73.3544 56.1855 73.1788" fill="#FFBE9D"/>
<path d="M55.7153 72.5898C55.7009 72.5622 55.5805 72.6194 55.4081 72.5614C55.2337 72.5142 55.0593 72.3094 55.0525 72.0262C55.0461 71.8874 55.0801 71.7598 55.1497 71.6998C55.2209 71.6354 55.3329 71.6198 55.4213 71.627C55.6061 71.6482 55.7349 71.7014 55.7465 71.6702C55.7549 71.6498 55.6661 71.5526 55.4469 71.4838C55.3377 71.4558 55.1785 71.445 55.0301 71.5526C54.8817 71.6674 54.8393 71.8638 54.8465 72.0346C54.8529 72.2114 54.9149 72.3798 55.0181 72.5014C55.1193 72.625 55.2609 72.6898 55.3761 72.7042C55.6193 72.7342 55.7349 72.6054 55.7153 72.5898Z" fill="#EB996E"/>
<path d="M63.0541 73.9114C63.0349 73.8942 63.1229 73.7886 63.3101 73.8298C63.3969 73.8486 63.5101 73.9266 63.5449 74.0598C63.5793 74.185 63.5481 74.347 63.4157 74.4486C63.2785 74.5454 63.1133 74.5254 63.0045 74.4514C62.8877 74.3746 62.8545 74.2342 62.8729 74.1462C62.9105 73.9534 63.0529 73.923 63.0569 73.9494C63.0729 73.9738 63.0073 74.0402 63.0197 74.1542C63.0261 74.2102 63.0525 74.2622 63.1069 74.2886C63.1597 74.3178 63.2441 74.3174 63.2925 74.2806C63.3429 74.245 63.3685 74.165 63.3581 74.1034C63.3505 74.0422 63.3093 73.9962 63.2597 73.9678C63.1577 73.9106 63.0673 73.9378 63.0541 73.9114Z" fill="#263238"/>
<path d="M61.9951 68.9526C61.9819 69.0122 61.5787 68.9526 61.1063 69.0642C60.6315 69.1678 60.2939 69.3958 60.2563 69.3478C60.2163 69.311 60.5303 68.979 61.0599 68.861C61.5883 68.7386 62.0151 68.9018 61.9951 68.9526Z" fill="#263238"/>
<path d="M60.2226 62.0662C60.2198 62.0854 60.0598 62.0618 59.7718 62.0682C59.485 62.0738 59.0678 62.1246 58.587 62.2998C58.1094 62.477 57.571 62.7874 57.0914 63.2614C56.6106 63.733 56.2054 64.3734 55.9218 65.101C55.3558 66.5718 55.369 68.0382 55.3866 69.0666C55.4046 69.551 55.4198 69.9618 55.4322 70.297C55.4426 70.5882 55.4426 70.7498 55.4282 70.751C55.4138 70.7522 55.387 70.593 55.3514 70.3034C55.3166 70.0142 55.2722 69.5942 55.2394 69.073C55.209 68.5518 55.1902 67.927 55.2446 67.2342C55.2978 66.5422 55.437 65.7798 55.7274 65.0258C56.0202 64.2742 56.4466 63.6098 56.9574 63.1242C57.4662 62.6366 58.0354 62.3274 58.5382 62.1614C59.0442 61.9974 59.4794 61.9682 59.773 61.9878C59.9202 61.999 60.0334 62.013 60.109 62.0318C60.185 62.047 60.2238 62.059 60.2226 62.0662Z" fill="#455A64"/>
<path d="M63.4244 77.7453C63.428 77.7697 63.1852 77.8361 62.78 77.8653C62.3768 77.8897 61.8044 77.8665 61.2052 77.6837C60.604 77.5073 60.112 77.1957 59.8136 76.9181C59.5112 76.6405 59.3844 76.4181 59.4032 76.4041C59.4292 76.3825 59.5948 76.5681 59.9076 76.8045C60.2176 77.0421 60.692 77.3157 61.2656 77.4841C62.4184 77.8317 63.4224 77.6725 63.4244 77.7453Z" fill="#EB996E"/>
<path d="M50.1551 95.4336L53.3199 95.6088C53.5199 96.6348 54.2147 98.2036 54.2147 98.2036C56.7619 93.782 58.7371 87.8576 59.2275 85.4768C59.1559 85.2388 59.0715 84.976 58.9659 84.682C58.8439 84.3424 58.9487 83.7 59.0063 83.3432C59.0919 82.8132 59.2399 82.1 59.2847 81.7696C59.4203 80.7636 59.5823 80.6056 59.9335 80.7192C60.4107 80.874 59.7379 83.5444 60.1291 83.6024C60.3395 83.6336 60.5963 82.7184 60.6711 81.968C60.7459 81.2172 61.0851 78.908 61.3331 78.754C61.6971 78.5284 62.0139 78.8852 61.9219 79.6328C61.8291 80.3896 61.7115 82.646 62.1083 82.6764C62.4991 82.7064 62.8275 78.878 62.8275 78.878C62.8275 78.878 62.7655 78.0448 63.2251 78.0648C64.0535 78.1008 63.4063 82.1372 63.3355 82.5196C63.2859 82.7856 63.7163 82.8344 63.7543 82.5456C63.7931 82.2484 63.9931 78.7168 64.8367 78.7452C65.4843 78.7672 64.3351 82.0712 64.6987 82.8372C65.0623 83.6032 65.3147 80.2356 65.9331 80.282C66.1631 80.2996 66.3331 80.3444 65.9103 82.25C65.6831 83.274 65.0155 85.1572 64.4319 86.7164C63.4523 92.0004 59.1527 108.904 52.4119 105.81C48.6399 104.079 46.8799 95.506 46.8799 95.506L50.1551 95.4336Z" fill="#FFBE9D"/>
<path d="M63.5389 82.7387C63.5389 82.7387 63.5085 82.7443 63.4513 82.7267C63.3997 82.7107 63.2977 82.6467 63.3137 82.5155C63.3221 82.2887 63.3581 81.9579 63.4105 81.5303C63.4497 81.0999 63.5781 80.5839 63.5789 79.9723C63.5837 79.6663 63.5761 79.3371 63.5585 78.9883C63.5473 78.8139 63.5441 78.6327 63.5053 78.4619C63.4765 78.2963 63.3657 78.1067 63.2377 78.1295L63.2237 78.1319L63.2173 78.1315C63.0873 78.1255 62.9857 78.2267 62.9437 78.3819C62.8981 78.5299 62.8865 78.7047 62.8957 78.8715L62.8961 78.8783L62.8957 78.8831C62.8101 79.8187 62.7181 80.8427 62.5049 81.9363C62.4753 82.0727 62.4449 82.2103 62.4025 82.3491C62.3813 82.4183 62.3569 82.4883 62.3265 82.5587C62.3069 82.5947 62.2945 82.6291 62.2645 82.6671C62.2385 82.6991 62.2053 82.7547 62.1117 82.7631C61.9597 82.7519 61.9161 82.6367 61.8817 82.5711C61.8489 82.4951 61.8285 82.4207 61.8133 82.3463C61.7821 82.1975 61.7661 82.0491 61.7545 81.8999C61.7141 81.3035 61.7349 80.6947 61.7789 80.0707C61.7933 79.7555 61.8709 79.4407 61.8169 79.1547C61.7917 79.0139 61.7329 78.8719 61.6369 78.8135C61.5901 78.7851 61.5373 78.7791 61.4797 78.7935C61.4509 78.8019 61.4217 78.8135 61.3929 78.8311C61.3689 78.8543 61.3741 78.8439 61.3525 78.8851C61.2301 79.1467 61.1673 79.4879 61.0989 79.8043C61.0341 80.1279 60.9781 80.4575 60.9261 80.7911C60.8749 81.1247 60.8273 81.4623 60.7877 81.8023C60.7549 82.1423 60.7057 82.4987 60.6193 82.8423C60.5753 83.0151 60.5269 83.1875 60.4545 83.3591C60.4173 83.4451 60.3789 83.5299 60.3037 83.6175C60.2765 83.6547 60.1913 83.7247 60.0849 83.6971C59.9817 83.6627 59.9525 83.5807 59.9357 83.5331C59.8765 83.3227 59.8937 83.1479 59.8969 82.9639C59.9049 82.7823 59.9197 82.6031 59.9349 82.4239C59.9609 82.1159 59.9905 81.8111 60.0009 81.5111C60.0057 81.3615 60.0061 81.2119 59.9901 81.0711C59.9813 81.0023 59.9693 80.9315 59.9457 80.8803C59.9349 80.8543 59.9205 80.8355 59.9105 80.8259C59.9049 80.8199 59.9013 80.8227 59.8965 80.8167L59.8489 80.8031C59.6065 80.7027 59.5257 81.0403 59.4613 81.3123C59.4049 81.5959 59.3693 81.8887 59.3125 82.1775C59.2161 82.7535 59.0933 83.3259 59.0289 83.8759C59.0025 84.1483 58.9829 84.4319 59.0609 84.6627C59.1473 84.9271 59.2329 85.1887 59.3177 85.4471L59.3253 85.4707L59.3197 85.4951C58.8741 87.4615 58.2565 89.2207 57.6837 90.7827C57.1049 92.3431 56.5261 93.6915 56.0149 94.7943C55.5057 95.8983 55.0485 96.7487 54.7329 97.3287C54.5729 97.6039 54.4465 97.8211 54.3525 97.9827C54.2641 98.1299 54.2161 98.2051 54.2113 98.2023C54.2065 98.1995 54.2449 98.1187 54.3237 97.9663C54.4109 97.8011 54.5281 97.5791 54.6761 97.2983C54.9733 96.7095 55.4125 95.8527 55.9049 94.7443C56.3993 93.6371 56.9625 92.2863 57.5281 90.7255C58.0873 89.1655 58.6945 87.4015 59.1277 85.4559L59.1297 85.5039C59.0453 85.2487 58.9597 84.9907 58.8737 84.7299C58.7753 84.4315 58.8045 84.1399 58.8285 83.8547C58.8941 83.2827 59.0133 82.7271 59.1089 82.1483C59.1653 81.8623 59.2001 81.5687 59.2589 81.2687C59.2937 81.1195 59.3257 80.9687 59.4081 80.8159C59.4477 80.7419 59.5089 80.6579 59.6101 80.6127C59.7121 80.5683 59.8165 80.5811 59.8985 80.6011L59.9597 80.6183C59.9873 80.6307 60.0213 80.6455 60.0429 80.6655C60.0897 80.7063 60.1161 80.7523 60.1353 80.7955C60.1737 80.8831 60.1849 80.9643 60.1961 81.0451C60.2145 81.2059 60.2133 81.3615 60.2089 81.5171C60.1981 81.8271 60.1685 82.1339 60.1425 82.4411C60.1273 82.6195 60.1125 82.7971 60.1049 82.9723C60.0989 83.1431 60.0925 83.3315 60.1321 83.4639C60.1413 83.5023 60.1593 83.4951 60.1385 83.5135L60.1377 83.5151C60.1397 83.5027 60.1349 83.5335 60.1357 83.5287L60.1361 83.5251C60.1369 83.5203 60.1361 83.5159 60.1349 83.5123C60.1329 83.5091 60.1249 83.4963 60.1297 83.4955C60.1325 83.4947 60.1409 83.4895 60.1517 83.4755C60.1921 83.4291 60.2321 83.3531 60.2633 83.2775C60.3285 83.1243 60.3761 82.9579 60.4181 82.7919C60.5025 82.4567 60.5493 82.1235 60.5833 81.7783C60.6241 81.4343 60.6721 81.0951 60.7245 80.7595C60.7773 80.4239 60.8345 80.0919 60.9013 79.7639C60.9765 79.4339 61.0253 79.1171 61.1793 78.7875C61.1889 78.7543 61.2541 78.6803 61.2941 78.6591C61.3353 78.6347 61.3809 78.6155 61.4305 78.6019C61.5289 78.5747 61.6493 78.5871 61.7397 78.6447C61.9213 78.7647 61.9769 78.9551 62.0101 79.1207C62.0397 79.2911 62.0353 79.4591 62.0161 79.6219C61.9977 79.7779 61.9829 79.9311 61.9705 80.0855C61.9245 80.7011 61.9013 81.3071 61.9373 81.8867C61.9477 82.0311 61.9625 82.1739 61.9901 82.3091C62.0033 82.3767 62.0217 82.4423 62.0457 82.4983C62.0573 82.5259 62.0721 82.5523 62.0857 82.5667C62.0989 82.5971 62.1109 82.5595 62.1093 82.6091C62.0909 82.5715 62.1085 82.5923 62.1229 82.5611C62.1385 82.5439 62.1517 82.5111 62.1665 82.4855C62.1925 82.4259 62.2153 82.3627 62.2357 82.2979C62.2765 82.1683 62.3073 82.0335 62.3369 81.9007C62.5541 80.8267 62.6561 79.7999 62.7501 78.8711V78.8827C62.7421 78.6951 62.7545 78.5155 62.8097 78.3391C62.8377 78.2523 62.8785 78.1639 62.9525 78.0955C63.0253 78.0251 63.1297 77.9935 63.2237 77.9967L63.2033 77.9987C63.3505 77.9727 63.4573 78.0619 63.5185 78.1499C63.5813 78.2407 63.6093 78.3391 63.6309 78.4339C63.6713 78.6259 63.6705 78.8083 63.6797 78.9835C63.6925 79.3351 63.6953 79.6663 63.6853 79.9755C63.6737 80.5991 63.5333 81.1159 63.4837 81.5407C63.4201 81.9655 63.3725 82.2955 63.3521 82.5175C63.3289 82.6231 63.4141 82.6911 63.4589 82.7091C63.5093 82.7311 63.5397 82.7343 63.5389 82.7387Z" fill="#EB996E"/>
<path d="M137.513 140.36C131.292 136.014 129.881 127.947 130.127 120.696C130.168 119.485 130.035 118.209 130.61 117.147C131.186 116.085 132.53 115.359 133.614 115.869C134.512 116.292 134.904 117.338 135.407 118.203C136.076 119.353 137.073 120.306 138.246 120.914C139.017 121.314 139.97 121.559 140.731 121.139C141.775 120.563 141.898 119.121 141.891 117.916C141.876 115.672 141.863 113.428 141.849 111.185C141.841 109.982 141.838 108.752 142.212 107.609C142.586 106.467 143.414 105.406 144.559 105.085C145.704 104.764 147.12 105.424 147.362 106.603C147.463 107.093 147.363 107.602 147.397 108.102C147.43 108.602 147.663 109.155 148.138 109.294C148.618 109.435 149.1 109.094 149.46 108.742C150.702 107.526 151.546 105.96 152.334 104.403C153.122 102.845 153.886 101.251 155.014 99.9255C156.142 98.5995 157.701 97.5491 159.425 97.4515C161.15 97.3539 162.986 98.4183 163.422 100.111C163.859 101.808 162.869 103.53 161.791 104.904C160.193 106.942 158.302 108.745 156.196 110.237C155.816 110.506 155.405 110.798 155.26 111.244C154.998 112.046 155.759 112.843 156.552 113.107C157.449 113.406 158.423 113.313 159.361 113.423C160.3 113.534 161.317 113.948 161.672 114.835C162.165 116.065 161.136 117.355 160.124 118.2C158.096 119.892 155.78 121.228 153.31 122.133C152.425 122.457 151.493 122.741 150.779 123.363C150.065 123.985 149.634 125.068 150.065 125.915C150.497 126.764 151.604 127.035 152.532 126.863C153.459 126.691 154.29 126.188 155.174 125.854C156.828 125.23 158.965 125.344 160.025 126.773C160.721 127.713 160.783 129.022 160.43 130.142C160.078 131.262 159.364 132.228 158.605 133.117C155.954 136.228 152.559 138.733 148.721 140.064C144.883 141.395 141.327 141.755 137.513 140.36Z" fill="#455A64"/>
<path d="M137.418 145.736C137.681 142.863 138.311 139.47 139.385 135.814C140.452 132.154 141.955 128.24 143.667 124.199C144.099 123.191 144.526 122.194 144.946 121.212C145.368 120.233 145.786 119.262 146.254 118.337C147.182 116.484 148.216 114.772 149.248 113.178C150.28 111.583 151.316 110.107 152.296 108.734C153.279 107.363 154.22 106.102 155.126 104.989C156.931 102.756 158.598 101.131 159.788 100.062C160.381 99.5248 160.856 99.1236 161.181 98.856C161.337 98.7288 161.46 98.6292 161.552 98.554C161.637 98.4872 161.681 98.4544 161.684 98.4572C161.686 98.4604 161.647 98.4988 161.567 98.5716C161.478 98.6508 161.36 98.7564 161.209 98.8904C160.894 99.1688 160.429 99.5804 159.845 100.126C158.675 101.214 157.032 102.85 155.246 105.089C154.35 106.205 153.42 107.468 152.445 108.842C151.472 110.219 150.442 111.696 149.418 113.29C148.394 114.884 147.368 116.591 146.448 118.436C145.984 119.356 145.57 120.319 145.148 121.301C144.728 122.282 144.302 123.278 143.87 124.286C142.16 128.324 140.655 132.226 139.58 135.872C138.498 139.514 137.855 142.89 137.574 145.75" fill="#263238"/>
<path d="M146.318 118.329C146.303 118.332 146.262 118.149 146.2 117.816C146.137 117.483 146.061 116.999 145.977 116.399C145.806 115.2 145.628 113.537 145.438 111.702C145.248 109.867 145.046 108.211 144.858 107.018C144.766 106.422 144.686 105.939 144.627 105.607C144.57 105.274 144.545 105.088 144.56 105.084C144.575 105.081 144.628 105.26 144.711 105.588C144.796 105.916 144.9 106.396 145.012 106.991C145.24 108.181 145.468 109.841 145.658 111.678C145.84 113.489 146.006 115.128 146.132 116.379C146.192 116.944 146.244 117.42 146.285 117.803C146.32 118.139 146.333 118.327 146.318 118.329Z" fill="#263238"/>
<path d="M161.796 115.436C161.796 115.451 161.576 115.477 161.179 115.51C160.781 115.545 160.207 115.593 159.498 115.675C158.081 115.828 156.13 116.108 153.991 116.511C151.852 116.919 149.932 117.369 148.553 117.735C147.861 117.913 147.306 118.073 146.921 118.181C146.537 118.29 146.323 118.343 146.317 118.329C146.313 118.314 146.519 118.233 146.896 118.097C147.273 117.964 147.823 117.781 148.511 117.583C149.884 117.176 151.805 116.7 153.95 116.291C156.095 115.887 158.057 115.631 159.483 115.518C160.196 115.456 160.775 115.431 161.174 115.423C161.574 115.417 161.795 115.42 161.796 115.436Z" fill="#263238"/>
<path d="M139.574 135.53C139.567 135.533 139.531 135.468 139.468 135.341C139.397 135.189 139.31 135.005 139.204 134.781C138.976 134.294 138.665 133.58 138.292 132.693C137.545 130.92 136.591 128.439 135.575 125.686C134.558 122.932 133.628 120.445 132.919 118.659C132.572 117.79 132.286 117.076 132.074 116.545C131.983 116.315 131.908 116.125 131.847 115.969C131.797 115.837 131.774 115.765 131.782 115.762C131.789 115.759 131.825 115.824 131.888 115.951C131.959 116.102 132.046 116.287 132.152 116.511C132.38 116.998 132.691 117.711 133.064 118.598C133.811 120.371 134.765 122.853 135.782 125.607C136.798 128.36 137.728 130.847 138.437 132.633C138.784 133.501 139.07 134.216 139.282 134.746C139.373 134.977 139.448 135.167 139.509 135.323C139.559 135.455 139.582 135.527 139.574 135.53Z" fill="#263238"/>
<path d="M160.143 128.9C160.145 128.908 160.074 128.936 159.939 128.984C159.778 129.038 159.58 129.104 159.342 129.184C158.79 129.363 158.045 129.605 157.139 129.898C155.28 130.501 152.721 131.363 149.894 132.32C147.067 133.278 144.498 134.117 142.625 134.682C141.689 134.965 140.929 135.186 140.401 135.328C140.157 135.392 139.956 135.445 139.792 135.488C139.652 135.522 139.577 135.536 139.575 135.529C139.573 135.521 139.644 135.493 139.779 135.444C139.94 135.391 140.137 135.325 140.376 135.245C140.928 135.066 141.672 134.825 142.578 134.531C144.438 133.928 146.997 133.065 149.824 132.108C152.651 131.151 155.22 130.311 157.092 129.747C158.029 129.464 158.788 129.243 159.317 129.101C159.562 129.037 159.762 128.984 159.926 128.941C160.066 128.907 160.14 128.893 160.143 128.9Z" fill="#263238"/>
<path d="M130.158 158.309L87.0043 158.11C81.8143 158.086 77.6255 153.86 77.6475 148.67L78.1047 40.482C78.1267 35.2888 82.3551 31.0976 87.5483 31.1212L130.702 31.3204C135.892 31.3444 140.081 35.5704 140.059 40.7604L139.602 148.948C139.58 154.142 135.351 158.333 130.158 158.309Z" fill="#263238"/>
<path d="M130.64 34.841L122.274 34.8027C121.152 34.7975 120.238 35.7442 120.233 36.917L120.226 38.4346C120.222 39.6074 119.308 40.5542 118.186 40.549L101.877 40.4738C100.755 40.4686 99.8496 39.5134 99.8544 38.3406L99.8608 36.823C99.8656 35.6502 98.96 34.695 97.838 34.6898L94.8956 34.6762L87.5728 34.6426C83.936 34.6258 80.9744 37.5614 80.9592 41.1982L80.5128 146.797C80.4976 150.432 83.4308 153.392 87.0656 153.409L130.133 153.607C133.77 153.624 136.731 150.689 136.747 147.052L137.193 41.4527C137.208 37.8175 134.275 34.8578 130.64 34.841Z" fill="#FAFAFA"/>
<path d="M132.982 129.29H84.7247C83.4471 129.29 82.4111 128.254 82.4111 126.976V58.2687C82.4111 56.9911 83.4471 55.9551 84.7247 55.9551H132.982C134.259 55.9551 135.295 56.9907 135.295 58.2687V126.976C135.295 128.254 134.26 129.29 132.982 129.29Z" fill="#EBEBEB"/>
<path d="M103.376 72.5365L92.619 97.1753C91.1958 100.436 93.8098 104.022 97.349 103.663C104.823 102.905 116.021 101.751 123.783 100.949C127.634 100.551 129.552 96.0801 127.188 93.0137L110.703 71.6333C108.712 69.0509 104.681 69.5477 103.376 72.5365Z" fill="#E8505B"/>
<g opacity="0.5">
<path d="M103.929 74.1924C103.919 74.188 103.949 74.1072 104.018 73.9516C104.054 73.8748 104.093 73.7752 104.154 73.6648C104.224 73.5576 104.305 73.4348 104.395 73.296C104.493 73.1608 104.625 73.0268 104.76 72.8696C104.919 72.7392 105.075 72.5688 105.286 72.4408C105.685 72.1528 106.22 71.9152 106.854 71.806C107.485 71.6976 108.228 71.7284 108.969 72.0096C109.33 72.166 109.702 72.3556 110.029 72.6356C110.111 72.7052 110.194 72.7752 110.278 72.846C110.354 72.9236 110.426 73.008 110.501 73.09C110.658 73.2552 110.787 73.4272 110.924 73.6016C112.019 74.9988 113.264 76.5888 114.641 78.346C117.384 81.8724 120.648 86.0692 124.272 90.7284C124.724 91.3132 125.181 91.9048 125.644 92.5036C126.135 93.1396 126.462 93.9192 126.571 94.7372C126.8 96.3728 126.103 98.152 124.711 99.182C124.025 99.7008 123.18 100.017 122.318 100.106C121.506 100.19 120.687 100.274 119.861 100.36C118.211 100.53 116.537 100.702 114.842 100.877C111.452 101.223 108.142 101.56 104.945 101.887C103.347 102.048 101.776 102.207 100.239 102.362C99.8543 102.401 99.4719 102.44 99.0915 102.478L98.5223 102.535L97.9155 102.554C97.1067 102.529 96.3135 102.278 95.6543 101.843C94.3227 100.981 93.5499 99.4352 93.6119 97.9408C93.6303 97.7552 93.6299 97.568 93.6651 97.3864C93.7051 97.206 93.7387 97.0244 93.7851 96.8476L93.9715 96.3336C94.0371 96.1696 94.1083 96.0192 94.1759 95.8624C94.4499 95.242 94.7195 94.6308 94.9847 94.0304C96.0475 91.63 97.0379 89.3936 97.9423 87.3516C99.7551 83.2704 101.231 79.972 102.265 77.6984C102.785 76.5696 103.191 75.6904 103.469 75.0864C103.752 74.4916 103.909 74.1836 103.929 74.1924C103.949 74.2008 103.83 74.526 103.586 75.1364C103.332 75.7512 102.963 76.646 102.489 77.7952C101.524 80.0988 100.109 83.424 98.3483 87.528C97.4655 89.5796 96.4987 91.826 95.4607 94.2376C95.2003 94.8404 94.9359 95.4532 94.6671 96.076C94.6015 96.2308 94.5283 96.3896 94.4683 96.5436L94.3071 96.9984C94.2679 97.1544 94.2403 97.314 94.2055 97.4724C94.1751 97.6316 94.1787 97.7956 94.1623 97.9576C94.1159 99.262 94.8035 100.615 95.9683 101.359C96.5443 101.735 97.2311 101.948 97.9351 101.967L98.4647 101.948L99.0331 101.889C99.4131 101.849 99.7955 101.809 100.18 101.769C101.717 101.608 103.287 101.445 104.885 101.278C108.081 100.948 111.39 100.606 114.78 100.256C116.474 100.082 118.149 99.9108 119.799 99.742C120.624 99.658 121.443 99.5744 122.256 99.4916C123.02 99.4132 123.746 99.1416 124.345 98.6928C125.558 97.8036 126.176 96.2408 125.981 94.816C125.887 94.1028 125.608 93.4228 125.177 92.8584C124.718 92.2588 124.265 91.666 123.817 91.0804C120.232 86.3904 117.004 82.166 114.291 78.616C112.942 76.838 111.721 75.2292 110.648 73.8152C110.514 73.6384 110.384 73.4596 110.248 73.3116C110.18 73.2348 110.116 73.1556 110.047 73.0824C109.971 73.016 109.897 72.95 109.823 72.8852C109.528 72.6208 109.189 72.44 108.859 72.2868C108.18 72.0112 107.488 71.9632 106.891 72.0472C106.293 72.132 105.779 72.338 105.388 72.5968C105.181 72.71 105.027 72.8664 104.867 72.9836C104.731 73.128 104.596 73.2496 104.493 73.3744C104.396 73.5028 104.309 73.6164 104.235 73.7152C104.167 73.818 104.119 73.9104 104.075 73.9812C103.989 74.1244 103.939 74.1968 103.929 74.1924Z" fill="white"/>
</g>
<path opacity="0.5" d="M105.652 79.823L107.258 89.6422C107.389 90.445 108.098 91.0242 108.912 90.9922C109.769 90.9582 110.45 90.2582 110.459 89.4002L110.571 79.3606C110.58 78.6002 109.92 78.0046 109.165 78.0902L106.758 78.363C106.04 78.4442 105.536 79.1098 105.652 79.823Z" fill="white"/>
<path opacity="0.5" d="M111.877 95.9098C111.582 97.2154 110.286 98.0354 108.98 97.741C107.674 97.4466 106.854 96.1498 107.149 94.8442C107.443 93.5386 108.74 92.7186 110.046 93.013C111.351 93.307 112.171 94.6042 111.877 95.9098Z" fill="white"/>
<path d="M91.932 66.7091L83.922 74.0343C82.862 75.0035 83.2384 76.7555 84.6028 77.2035C87.4844 78.1499 91.8047 79.5607 94.7999 80.5379C96.2859 81.0227 97.7268 79.6883 97.3576 78.1691L94.7832 67.5775C94.4724 66.2983 92.9036 65.8203 91.932 66.7091Z" fill="#E8505B"/>
<g opacity="0.5">
<path d="M91.8649 67.4109C91.8557 67.4029 91.9321 67.2737 92.1661 67.1233C92.3933 66.9781 92.8181 66.8173 93.3541 66.9401C93.6173 67.0013 93.9021 67.1361 94.1457 67.3701C94.3897 67.5969 94.5649 67.9637 94.6433 68.3153C94.8265 69.0105 95.0341 69.7989 95.2629 70.6689C95.7085 72.4217 96.2373 74.5005 96.8241 76.8073C96.8961 77.0973 96.9689 77.3909 97.0425 77.6881C97.1265 78.0301 97.1205 78.4041 97.0185 78.7545C96.8181 79.4569 96.2217 80.0485 95.4733 80.2169C95.1029 80.3041 94.7013 80.2801 94.3409 80.1621C94.0273 80.0601 93.7109 79.9573 93.3925 79.8541C92.7557 79.6465 92.1097 79.4357 91.4557 79.2225C90.1485 78.7929 88.8725 78.3733 87.6397 77.9681C87.0241 77.7641 86.4193 77.5637 85.8269 77.3673C85.6789 77.3181 85.5317 77.2689 85.3853 77.2205L85.1661 77.1473L84.9181 77.0457C84.5961 76.8893 84.3201 76.6433 84.1329 76.3485C83.7517 75.7601 83.7201 75.0001 84.0157 74.4089C84.0881 74.2601 84.1817 74.1265 84.2829 74.0009L84.4501 73.8289L84.6049 73.6885C84.8089 73.5057 85.0097 73.3257 85.2069 73.1489C85.9977 72.4445 86.7345 71.7877 87.4089 71.1869C88.7585 69.9909 89.8577 69.0313 90.6269 68.3785C91.3965 67.7249 91.8357 67.3789 91.8649 67.4109C91.8941 67.4429 91.5105 67.8493 90.7917 68.5573C90.0729 69.2653 89.0189 70.2749 87.7077 71.5125C87.0493 72.1305 86.3293 72.8061 85.5573 73.5309C85.3633 73.7117 85.1665 73.8957 84.9661 74.0825L84.8181 74.2221L84.6981 74.3505C84.6273 74.4437 84.5609 74.5405 84.5113 74.6477C84.3073 75.0713 84.3397 75.6205 84.6157 76.0337C84.7513 76.2405 84.9449 76.4089 85.1737 76.5169L85.3513 76.5873L85.5709 76.6577C85.7177 76.7049 85.8657 76.7525 86.0141 76.8001C86.6081 76.9917 87.2145 77.1873 87.8317 77.3865C89.0657 77.7877 90.3429 78.2033 91.6509 78.6289C92.3041 78.8433 92.9501 79.0549 93.5865 79.2637C93.9045 79.3685 94.2205 79.4725 94.5337 79.5753C94.8009 79.6625 95.0749 79.6793 95.3377 79.6205C95.8653 79.5081 96.3021 79.0825 96.4469 78.5861C96.5213 78.3381 96.5305 78.0741 96.4717 77.8221C96.4021 77.5261 96.3333 77.2333 96.2653 76.9441C95.7277 74.6253 95.2429 72.5357 94.8345 70.7741C94.6385 69.8965 94.4613 69.1005 94.3049 68.3989C94.2393 68.0497 94.1253 67.7909 93.9333 67.5789C93.7445 67.3749 93.5133 67.2453 93.2917 67.1757C92.8413 67.0357 92.4541 67.1349 92.2257 67.2353C91.9905 67.3381 91.8841 67.4341 91.8649 67.4109Z" fill="white"/>
</g>
<path opacity="0.5" d="M91.5768 69.7698L90.5584 73.6558C90.4752 73.9734 90.642 74.3034 90.9472 74.425C91.2692 74.5534 91.6348 74.4066 91.7792 74.0914L93.4672 70.4058C93.5952 70.1266 93.4496 69.7986 93.1568 69.7066L92.224 69.4126C91.9456 69.3246 91.6508 69.4878 91.5768 69.7698Z" fill="white"/>
<path opacity="0.5" d="M91.2341 76.727C90.9113 77.1606 90.2985 77.2502 89.8649 76.9274C89.4313 76.6046 89.3417 75.9918 89.6645 75.5582C89.9873 75.125 90.6001 75.035 91.0337 75.3578C91.4673 75.6806 91.5569 76.2938 91.2341 76.727Z" fill="white"/>
<path d="M122.668 68.9819L120.851 77.2639C120.61 78.3599 121.639 79.3091 122.712 78.9807C124.977 78.2879 128.371 77.2443 130.723 76.5203C131.89 76.1611 132.209 74.6603 131.29 73.8567L124.879 68.2531C124.105 67.5763 122.888 67.9775 122.668 68.9819Z" fill="#E8505B"/>
<g opacity="0.5">
<path d="M122.941 69.4604C122.927 69.4584 122.913 69.3404 122.992 69.1348C123.069 68.936 123.267 68.634 123.671 68.4644C123.87 68.3816 124.117 68.3364 124.385 68.3756C124.649 68.4084 124.938 68.57 125.148 68.7584C125.581 69.1188 126.07 69.526 126.609 69.9744C127.687 70.8912 128.963 71.9764 130.379 73.18C130.555 73.3328 130.735 73.4872 130.916 73.6436C131.131 73.8304 131.303 74.082 131.399 74.362C131.596 74.9224 131.477 75.5936 131.059 76.0568C130.854 76.2888 130.575 76.4612 130.281 76.5512C130.035 76.6276 129.787 76.7044 129.537 76.7816C129.037 76.9356 128.53 77.092 128.017 77.2504C126.989 77.564 125.985 77.87 125.015 78.1656C124.53 78.312 124.054 78.4556 123.587 78.5964L123.239 78.7008L123.065 78.7524L122.853 78.8008C122.566 78.8476 122.267 78.8128 122.004 78.7044C121.475 78.4912 121.1 78.0012 121.02 77.47C120.999 77.3376 120.999 77.2048 121.007 77.0744L121.038 76.8824L121.074 76.7224C121.122 76.514 121.17 76.3088 121.217 76.1072C121.407 75.3028 121.585 74.5524 121.748 73.8652C122.077 72.4956 122.354 71.3896 122.56 70.6284C122.765 69.8676 122.899 69.4512 122.941 69.4604C122.983 69.4696 122.93 69.904 122.798 70.6812C122.665 71.4584 122.454 72.5788 122.18 73.9608C122.04 74.6532 121.887 75.4088 121.723 76.2192C121.682 76.422 121.639 76.6284 121.596 76.838L121.565 76.9932L121.547 77.1224C121.545 77.2088 121.546 77.2956 121.562 77.3812C121.621 77.7228 121.875 78.04 122.217 78.1704C122.386 78.2372 122.573 78.2552 122.757 78.2228L122.893 78.1896L123.065 78.1356L123.412 78.0264C123.877 77.8808 124.352 77.7324 124.835 77.5812C125.804 77.2816 126.806 76.9716 127.833 76.654C128.346 76.4968 128.854 76.3416 129.354 76.1884C129.605 76.1124 129.853 76.0368 130.099 75.9616C130.299 75.9004 130.47 75.7948 130.603 75.6484C130.873 75.358 130.957 74.9148 130.834 74.5544C130.774 74.3736 130.668 74.2104 130.525 74.0824C130.348 73.9244 130.172 73.7684 129.999 73.614C128.617 72.3724 127.371 71.2532 126.318 70.3076C125.801 69.8332 125.333 69.4028 124.918 69.022C124.558 68.6332 124.097 68.5824 123.755 68.6932C123.411 68.7996 123.207 69.0296 123.104 69.1924C122.998 69.3592 122.968 69.4672 122.941 69.4604Z" fill="white"/>
</g>
<path opacity="0.5" d="M123.819 71.0967L124.918 74.0359C125.008 74.2763 125.263 74.4119 125.513 74.3519C125.776 74.2887 125.943 74.0307 125.894 73.7647L125.313 70.6519C125.269 70.4163 125.028 70.2723 124.799 70.3451L124.071 70.5771C123.855 70.6463 123.739 70.8831 123.819 71.0967Z" fill="white"/>
<path opacity="0.5" d="M126.73 75.6929C126.72 76.1149 126.368 76.4481 125.946 76.4369C125.524 76.4261 125.191 76.0749 125.202 75.6529C125.213 75.2309 125.564 74.8977 125.986 74.9085C126.408 74.9197 126.742 75.2709 126.73 75.6929Z" fill="white"/>
<path d="M88.6845 105.654C88.6741 105.664 88.5745 105.572 88.4025 105.395C88.3149 105.308 88.2117 105.198 88.1049 105.059C87.9965 104.922 87.8637 104.771 87.7445 104.585C87.4865 104.226 87.2233 103.768 86.9765 103.238C86.7401 102.703 86.5265 102.093 86.3801 101.433C86.2417 100.771 86.1849 100.128 86.1797 99.5425C86.1861 98.9573 86.2369 98.4313 86.3245 97.9981C86.3569 97.7797 86.4153 97.5877 86.4577 97.4177C86.4981 97.2473 86.5465 97.1041 86.5905 96.9889C86.6745 96.7573 86.7273 96.6321 86.7405 96.6369C86.7785 96.6493 86.5977 97.1629 86.4697 98.0221C86.4021 98.4509 86.3673 98.9677 86.3713 99.5405C86.3869 100.113 86.4477 100.741 86.5833 101.389C86.7265 102.034 86.9297 102.632 87.1517 103.16C87.3837 103.684 87.6285 104.14 87.8665 104.503C88.3381 105.234 88.7141 105.628 88.6845 105.654Z" fill="#263238"/>
<path d="M92.1683 106.158C92.1599 106.17 92.0387 106.093 91.8259 105.941C91.7179 105.868 91.5895 105.773 91.4523 105.647C91.3139 105.524 91.1471 105.392 90.9891 105.219C90.6543 104.892 90.2991 104.459 89.9519 103.946C89.6155 103.426 89.2931 102.822 89.0379 102.153C88.7915 101.48 88.6383 100.813 88.5515 100.199C88.4771 99.5842 88.4615 99.0242 88.4995 98.5578C88.5051 98.3238 88.5447 98.115 88.5683 97.931C88.5899 97.7466 88.6243 97.5906 88.6575 97.4642C88.7191 97.2106 88.7595 97.0726 88.7735 97.0762C88.8143 97.0846 88.6759 97.6454 88.6463 98.565C88.6275 99.0242 88.6583 99.5722 88.7411 100.173C88.8367 100.772 88.9915 101.423 89.2327 102.08C89.4823 102.735 89.7919 103.327 90.1123 103.842C90.4435 104.349 90.7795 104.783 91.0951 105.118C91.7215 105.792 92.1935 106.125 92.1683 106.158Z" fill="#263238"/>
<path d="M129.373 101.9C129.338 101.881 129.649 101.323 130.002 100.363C130.182 99.884 130.354 99.2988 130.502 98.6404C130.64 97.9796 130.748 97.2444 130.79 96.4664C130.823 95.6876 130.786 94.9452 130.712 94.2744C130.627 93.6048 130.512 93.006 130.379 92.512C130.12 91.5224 129.863 90.9372 129.9 90.922C129.913 90.9164 129.984 91.0584 130.103 91.322C130.226 91.5836 130.372 91.9768 130.521 92.4724C130.674 92.9672 130.806 93.5716 130.902 94.25C130.988 94.93 131.032 95.6848 130.998 96.4764C130.956 97.2672 130.84 98.014 130.69 98.6828C130.528 99.3492 130.34 99.938 130.14 100.416C129.944 100.894 129.761 101.272 129.614 101.521C129.47 101.772 129.385 101.907 129.373 101.9Z" fill="#263238"/>
<path d="M132.583 101.076C132.549 101.058 132.799 100.602 133.066 99.8161C133.202 99.4245 133.326 98.9453 133.427 98.4077C133.517 97.8681 133.578 97.2681 133.577 96.6365C133.569 96.0045 133.499 95.4057 133.401 94.8673C133.293 94.3309 133.162 93.8537 133.02 93.4641C132.742 92.6821 132.486 92.2301 132.52 92.2113C132.532 92.2041 132.604 92.3121 132.724 92.5145C132.848 92.7149 132.999 93.0217 133.158 93.4121C133.321 93.8017 133.469 94.2837 133.59 94.8297C133.7 95.3773 133.777 95.9893 133.785 96.6353C133.786 97.2809 133.718 97.8941 133.616 98.4429C133.503 98.9901 133.362 99.4745 133.205 99.8661C133.052 100.258 132.905 100.568 132.784 100.77C132.666 100.974 132.596 101.083 132.583 101.076Z" fill="#263238"/>
<path d="M130.281 123.648H88.69C87.7568 123.648 87 122.892 87 121.958V113.688C87 112.755 87.7564 111.998 88.69 111.998H130.281C131.214 111.998 131.971 112.755 131.971 113.688V121.958C131.971 122.892 131.214 123.648 130.281 123.648Z" stroke="#E8505B" stroke-miterlimit="10"/>
<path d="M104.157 119.998L103.863 119.152H102.075L101.781 119.998H101.031L102.555 115.798H103.383L104.901 119.998H104.157ZM102.303 118.504H103.635L102.969 116.608L102.303 118.504ZM106.043 119.338H107.753V119.998H105.353V115.798H106.043V119.338ZM108.955 119.338H110.815V119.998H108.265V115.798H110.785V116.458H108.955V117.55H110.635V118.204H108.955V119.338ZM113.84 119.998L112.952 118.468H112.136V119.998H111.446V115.798H113.126C113.502 115.798 113.82 115.93 114.08 116.194C114.344 116.454 114.476 116.772 114.476 117.148C114.476 117.416 114.398 117.662 114.242 117.886C114.09 118.106 113.89 118.266 113.642 118.366L114.596 119.998H113.84ZM112.136 116.446V117.85H113.126C113.31 117.85 113.466 117.782 113.594 117.646C113.722 117.51 113.786 117.344 113.786 117.148C113.786 116.952 113.722 116.786 113.594 116.65C113.466 116.514 113.31 116.446 113.126 116.446H112.136ZM117.762 115.798V116.458H116.58V119.998H115.89V116.458H114.702V115.798H117.762Z" fill="#D1283B"/>
<path d="M135.295 52.8047H82.4111V60.0691H135.295V52.8047Z" fill="#E0E0E0"/>
<path d="M85.6704 57.499C86.2203 57.499 86.666 57.0533 86.666 56.5034C86.666 55.9536 86.2203 55.5078 85.6704 55.5078C85.1205 55.5078 84.6748 55.9536 84.6748 56.5034C84.6748 57.0533 85.1205 57.499 85.6704 57.499Z" fill="#F5F5F5"/>
<path d="M89.7524 57.499C90.3023 57.499 90.748 57.0533 90.748 56.5034C90.748 55.9536 90.3023 55.5078 89.7524 55.5078C89.2026 55.5078 88.7568 55.9536 88.7568 56.5034C88.7568 57.0533 89.2026 57.499 89.7524 57.499Z" fill="#F5F5F5"/>
<path d="M94.8301 56.5034C94.8301 57.053 94.3845 57.499 93.8345 57.499C93.2849 57.499 92.8389 57.0534 92.8389 56.5034C92.8389 55.9534 93.2845 55.5078 93.8345 55.5078C94.3845 55.5078 94.8301 55.9534 94.8301 56.5034Z" fill="#F5F5F5"/>
<path d="M51.6721 65.9139C51.2577 65.8119 49.2617 65.3215 45.4005 64.3727L45.4465 64.3655C44.0673 65.2451 42.1989 65.9551 40.0329 65.9887C38.9553 65.9847 37.8157 65.8551 36.6781 65.4987C35.5417 65.1447 34.4241 64.5575 33.4089 63.7655C31.3769 62.1939 29.7949 59.6747 29.4533 56.7755C29.2789 55.3355 29.3957 53.8211 29.8437 52.3715C30.3001 50.9255 31.0873 49.5555 32.1481 48.4023C32.6857 47.7931 33.3185 47.2871 33.9645 46.8199C34.3037 46.6107 34.6377 46.3931 34.9873 46.2091L35.5205 45.9523L35.7865 45.8247L36.0629 45.7235C37.5245 45.1567 39.0793 44.9375 40.5721 45.0367C42.0665 45.1327 43.4977 45.5511 44.7497 46.2095C46.0037 46.8667 47.0789 47.7595 47.9229 48.7727C48.7693 49.7863 49.3841 50.9195 49.7753 52.0635C50.1665 53.2091 50.3445 54.3611 50.3549 55.4495C50.3681 57.6363 49.6845 59.5127 48.8525 60.8823L48.8533 60.8259C50.5965 63.9731 51.4777 65.5631 51.6721 65.9139C51.4709 65.5671 50.5593 63.9943 48.7549 60.8819L48.7385 60.8539L48.7557 60.8251C49.5665 59.4623 50.2273 57.6067 50.2029 55.4511C50.1869 54.3779 50.0057 53.2447 49.6165 52.1195C49.2269 50.9955 48.6181 49.8839 47.7833 48.8903C46.9505 47.8971 45.8925 47.0235 44.6601 46.3811C43.4297 45.7375 42.0253 45.3303 40.5593 45.2383C39.0945 45.1431 37.5705 45.3599 36.1385 45.9163L35.8677 46.0155L35.6073 46.1411L35.0845 46.3931C34.7421 46.5735 34.4145 46.7875 34.0821 46.9923C33.4493 47.4511 32.8285 47.9467 32.3017 48.5443C31.2621 49.6747 30.4901 51.0171 30.0413 52.4339C29.6009 53.8543 29.4849 55.3391 29.6541 56.7523C29.9849 59.5959 31.5305 62.0711 33.5225 63.6219C34.5177 64.4031 35.6141 64.9843 36.7305 65.3371C37.8481 65.6919 38.9693 65.8247 40.0309 65.8343C42.1653 65.8119 44.0125 65.1247 45.3837 64.2663L45.4057 64.2527L45.4301 64.2591C49.2729 65.2775 51.2601 65.8047 51.6721 65.9139Z" fill="#263238"/>
<path d="M39.0043 50.8484L39.3359 56.0872C39.3631 56.5156 39.7051 56.8564 40.1335 56.882C40.5855 56.9088 40.9791 56.5768 41.0291 56.1268L41.6107 50.8616C41.6547 50.4628 41.3395 50.1156 40.9383 50.1212L39.6603 50.1392C39.2795 50.1448 38.9803 50.468 39.0043 50.8484Z" fill="#E8505B"/>
<path d="M41.5219 59.8283C41.2995 60.4987 40.5759 60.8615 39.9055 60.6391C39.2355 60.4167 38.8723 59.6931 39.0947 59.0227C39.3171 58.3523 40.0407 57.9895 40.7111 58.2119C41.3815 58.4347 41.7447 59.1583 41.5219 59.8283Z" fill="#E8505B"/>
</svg>
