<svg width="200" height="200" viewBox="0 0 200 200" fill="none" xmlns="http://www.w3.org/2000/svg">
<path d="M42.6479 180.074C42.6479 180.074 52.7355 148.034 52.9495 146.994C53.1431 146.054 49.2887 122.996 48.8031 117.029L62.4335 117.537C62.4335 117.537 62.434 117.574 62.4348 117.637L68.2283 117.958L63.0392 183.485H56.7668L57.3887 161.745C53.5211 172.129 47.9783 182.711 47.9783 182.711L42.6479 180.074Z" fill="#FFBE9D"/>
<path d="M57.1328 169.537C57.1272 169.338 57.2088 162.253 57.2088 162.253C57.2872 162.677 59.6136 156.101 59.5572 155.701C59.528 155.495 57.1328 169.537 57.1328 169.537Z" fill="#EB996E"/>
<path d="M59.8228 152.588C59.8372 152.587 59.8508 152.729 59.8628 152.985C59.8764 153.241 59.8792 153.613 59.8544 154.071C59.8456 154.301 59.8216 154.552 59.792 154.821C59.7576 155.089 59.7208 155.376 59.6588 155.674C59.5452 156.272 59.3696 156.919 59.146 157.583C58.6904 158.908 58.188 160.068 57.8312 160.909C57.662 161.293 57.5168 161.623 57.3948 161.9C57.2876 162.132 57.222 162.258 57.2088 162.253C57.1956 162.247 57.2356 162.111 57.3196 161.869C57.4036 161.628 57.5316 161.281 57.6948 160.854C58.0168 159.999 58.4976 158.83 58.9488 157.517C59.17 156.859 59.3484 156.223 59.4708 155.636C59.5372 155.344 59.5796 155.062 59.6208 154.798C59.6576 154.534 59.6896 154.287 59.7076 154.061C59.7508 153.608 59.7704 153.239 59.7816 152.985C59.7944 152.729 59.8084 152.588 59.8228 152.588Z" fill="#EB996E"/>
<path d="M68.7233 130.039C68.9653 120.904 67.9389 111.441 67.1269 108.571C67.0497 108.297 66.9829 108.021 66.9169 107.744L65.3669 101.256C65.3669 101.256 64.7217 100.729 66.4453 98.4344C67.2441 97.3708 67.0953 93.3064 67.0953 93.3064L66.3245 98.6772L74.4213 94.7776C74.4213 94.7776 71.0217 85.0924 69.9229 83.6772C67.0705 80.0036 61.9173 80.6464 61.9173 80.6464L55.1717 80.5684C55.1717 80.5684 52.5973 80.7308 50.1381 81.882L49.9705 81.9256L49.9709 81.9604C48.0373 82.904 46.3129 84.4916 45.8165 87.0804C45.0069 91.3024 45.2613 93.2268 45.2613 93.2268L50.7569 93.1288L50.2693 104.762C49.8537 106.193 48.6933 105.85 46.9765 112.462C46.2705 115.182 45.8433 117.761 45.5941 120.061C45.2665 123.087 45.3205 126.14 45.7177 129.158L48.8029 152.586H67.4737L68.7233 130.039Z" fill="#455A64"/>
<path d="M53.4089 91.2356L54.4101 95.5016H44.9641L45.5857 88.3496L53.4089 91.2356Z" fill="#455A64"/>
<path d="M44.9641 95.5013C44.9629 95.4733 45.4401 95.4233 46.2145 95.3777C46.9885 95.3321 48.0597 95.2941 49.2437 95.2993C50.4281 95.3053 51.4993 95.3565 52.2725 95.4177C53.0461 95.4789 53.5217 95.5441 53.5197 95.5717C53.5173 95.6017 53.0381 95.5885 52.2645 95.5649C51.4909 95.5413 50.4229 95.5133 49.2425 95.5077C48.0625 95.5025 46.9937 95.5173 46.2193 95.5249C45.4453 95.5325 44.9657 95.5305 44.9641 95.5013Z" fill="#263238"/>
<path d="M65.367 101.565C65.3546 101.566 65.3286 101.419 65.3118 101.149C65.3198 101.014 65.3086 100.845 65.3478 100.655C65.3726 100.463 65.4286 100.248 65.511 100.019C65.5922 99.7898 65.7046 99.547 65.8426 99.2986C65.9782 99.0482 66.1394 98.7922 66.3074 98.5246C66.6454 97.9914 67.0134 97.4046 67.2406 96.7258C67.3478 96.385 67.4198 96.0454 67.4386 95.709C67.4626 95.3734 67.4442 95.0458 67.4094 94.7362C67.3422 94.1154 67.1974 93.5658 67.069 93.1086C66.7994 92.1954 66.5746 91.6458 66.6074 91.633C66.6202 91.6278 66.6906 91.7586 66.7994 92.0038C66.9082 92.249 67.0578 92.6078 67.2094 93.0646C67.3574 93.5218 67.5194 94.0758 67.5998 94.713C67.641 95.0306 67.6642 95.3694 67.6422 95.721C67.6254 96.073 67.5502 96.435 67.4382 96.7906C67.2002 97.5014 66.815 98.1006 66.4686 98.6278C66.2958 98.8926 66.1314 99.1426 65.9926 99.3834C65.851 99.623 65.735 99.8538 65.6482 100.072C65.5602 100.289 65.4966 100.493 65.4622 100.676C65.4134 100.857 65.413 101.019 65.3926 101.15C65.3846 101.414 65.383 101.563 65.367 101.565Z" fill="#263238"/>
<path d="M48.8032 152.587C48.8 152.586 48.8124 152.541 48.84 152.453C48.8724 152.355 48.9148 152.226 48.9684 152.063C49.0896 151.71 49.2616 151.21 49.4812 150.572C49.7008 149.923 49.9972 149.14 50.3308 148.227C50.6632 147.313 51.0572 146.278 51.4924 145.134C52.3752 142.847 53.424 140.129 54.5884 137.113C55.1688 135.602 55.7776 134.017 56.4088 132.374C57.0404 130.731 57.6744 129.022 58.324 127.272C58.9612 125.517 59.5904 123.805 60.16 122.14C60.446 121.308 60.7268 120.49 61.002 119.689C61.2628 118.884 61.518 118.095 61.7668 117.326C62.2816 115.793 62.6816 114.308 63.1016 112.933C63.296 112.241 63.4636 111.567 63.6364 110.922C63.7992 110.275 63.9864 109.661 64.1052 109.061C64.2364 108.465 64.3616 107.896 64.48 107.358C64.5392 107.089 64.5972 106.828 64.6532 106.574C64.6956 106.319 64.7368 106.071 64.7768 105.831C64.8556 105.353 64.9292 104.907 64.9972 104.496C65.0652 104.086 65.1352 103.712 65.1544 103.37C65.2176 102.699 65.2668 102.174 65.3016 101.803C65.32 101.632 65.334 101.497 65.3452 101.395C65.356 101.303 65.3636 101.256 65.3672 101.256C65.3708 101.256 65.3704 101.303 65.3664 101.395C65.3604 101.498 65.3532 101.634 65.3436 101.805C65.318 102.177 65.2816 102.705 65.2348 103.379C65.2216 103.722 65.158 104.097 65.0952 104.51C65.0324 104.923 64.9644 105.371 64.8916 105.851C64.8544 106.092 64.8156 106.341 64.7756 106.597C64.722 106.852 64.6668 107.114 64.61 107.384C64.4956 107.924 64.3752 108.495 64.2488 109.094C64.1344 109.696 63.9512 110.312 63.7924 110.961C63.6236 111.608 63.4596 112.285 63.2684 112.979C62.8552 114.358 62.4604 115.847 61.9504 117.384C61.7032 118.155 61.45 118.945 61.1912 119.752C60.9172 120.554 60.638 121.373 60.3532 122.207C59.7856 123.875 59.1572 125.588 58.5196 127.344C57.8696 129.095 57.234 130.804 56.5996 132.447C55.9644 134.089 55.3516 135.673 54.7676 137.182C53.5876 140.193 52.5248 142.905 51.63 145.187C51.1896 146.327 50.7912 147.359 50.44 148.268C50.096 149.177 49.7888 149.956 49.5576 150.6C49.3224 151.232 49.1384 151.727 49.0084 152.077C48.9468 152.237 48.8976 152.363 48.8604 152.459C48.826 152.545 48.8064 152.589 48.8032 152.587Z" fill="#263238"/>
<path d="M53.816 88.3145C53.8448 88.3157 53.8548 88.7301 53.8476 89.3997C53.8404 90.0689 53.8164 90.9933 53.7768 92.0133C53.7372 93.0337 53.6896 93.9569 53.6448 94.6249C53.6 95.2929 53.558 95.7053 53.5292 95.7041C53.5004 95.7029 53.4904 95.2885 53.4976 94.6193C53.5048 93.9501 53.5288 93.0257 53.5684 92.0053C53.608 90.9853 53.6556 90.0621 53.7004 89.3941C53.7452 88.7257 53.7872 88.3133 53.816 88.3145Z" fill="#263238"/>
<path opacity="0.3" d="M62.3344 94.832C62.3344 94.832 60.3116 107.575 54.41 107.163C54.41 107.163 51.7528 107.131 50.8984 105.365V104.67L62.3344 94.832Z" fill="black"/>
<path d="M65.3669 101.257C65.3685 101.315 64.0873 101.409 62.5049 101.469C60.9221 101.528 59.6385 101.529 59.6365 101.472C59.6349 101.414 60.9161 101.32 62.4985 101.26C64.0809 101.201 65.3649 101.199 65.3669 101.257Z" fill="#263238"/>
<path d="M63.2046 101.343C63.2066 101.353 63.117 101.37 62.9994 101.283C62.8806 101.2 62.7814 101.017 62.6826 100.811C62.569 100.576 62.451 100.331 62.3278 100.075C62.2662 99.9347 62.1834 99.7955 62.1402 99.6067C62.0958 99.4255 62.1402 99.1619 62.365 99.0423C62.4786 98.9835 62.619 99.0011 62.7138 99.0579C62.8102 99.1131 62.8754 99.1883 62.9298 99.2631C63.033 99.4175 63.0998 99.5631 63.1606 99.7127C63.2786 100.009 63.3294 100.293 63.3458 100.531C63.3742 101.011 63.2742 101.296 63.2522 101.29C63.2182 101.285 63.2634 100.997 63.1994 100.547C63.1654 100.323 63.103 100.059 62.9834 99.7863C62.9246 99.6527 62.8498 99.5059 62.7646 99.3831C62.677 99.2595 62.5514 99.1767 62.4578 99.2291C62.357 99.2823 62.3066 99.4299 62.3402 99.5667C62.3678 99.7067 62.4446 99.8539 62.5026 99.9963C62.6118 100.259 62.7162 100.51 62.817 100.751C62.9014 100.971 62.969 101.136 63.0534 101.223C63.1342 101.312 63.2086 101.325 63.2046 101.343Z" fill="#263238"/>
<path d="M63.2173 101.558C63.1917 101.548 63.2781 101.226 63.4729 100.722C63.5705 100.471 63.6961 100.175 63.8489 99.8524C63.9253 99.6912 64.0089 99.5236 64.0989 99.3512C64.1441 99.2636 64.1989 99.1668 64.2869 99.0828C64.3677 98.9968 64.5425 98.9308 64.6829 99.0104C64.8157 99.0824 64.8773 99.2208 64.8873 99.3424C64.8969 99.4652 64.8729 99.5712 64.8473 99.6672C64.7985 99.8632 64.7257 100.045 64.6393 100.208C64.4637 100.533 64.2373 100.783 64.0221 100.956C63.5853 101.303 63.2325 101.36 63.2305 101.341C63.2153 101.306 63.5397 101.2 63.9253 100.844C64.1161 100.668 64.3153 100.425 64.4685 100.12C64.5437 99.9668 64.6065 99.7988 64.6485 99.6192C64.7005 99.44 64.6997 99.254 64.5853 99.1948C64.4945 99.1328 64.3573 99.2828 64.2785 99.4468C64.1901 99.6144 64.1045 99.7776 64.0205 99.9368C63.8597 100.251 63.7217 100.538 63.6077 100.78C63.3809 101.264 63.2457 101.568 63.2173 101.558Z" fill="#263238"/>
<path opacity="0.3" d="M53.816 89.2324L54.9456 96.8636L54.2144 98.2024L53.3196 95.608L53.5196 95.572L53.816 89.2324Z" fill="black"/>
<path d="M63.1574 183.809L63.1602 183.219L56.7354 182.939L56.7178 185.369L57.1142 185.396C58.8778 185.499 66.0886 185.797 67.2686 185.443C68.5846 185.048 63.1574 183.809 63.1574 183.809Z" fill="#E8505B"/>
<g opacity="0.5">
<path d="M59.0353 185.327C58.9461 184.792 58.6505 184.295 58.2237 183.962C57.7969 183.628 57.2709 183.451 56.7309 183.492L56.7241 185.279L59.0353 185.327Z" fill="white"/>
</g>
<path opacity="0.5" d="M65.809 184.508C65.809 184.508 67.711 185.063 67.4726 185.375C67.2342 185.688 59.9358 185.662 56.7178 185.368L56.7286 185.225L65.241 185.329C65.241 185.329 65.4366 184.522 65.809 184.508Z" fill="white"/>
<path d="M56.6277 185.222C56.6277 185.224 56.6653 185.228 56.7377 185.234C56.8325 185.24 56.9361 185.247 57.0533 185.254C57.3689 185.269 57.7569 185.287 58.2149 185.309C59.1961 185.348 60.5521 185.383 62.0505 185.39C63.5493 185.396 64.9061 185.372 65.8873 185.342C66.3453 185.325 66.7337 185.31 67.0493 185.298C67.1665 185.292 67.2701 185.286 67.3649 185.281C67.4369 185.276 67.4749 185.272 67.4749 185.27C67.4749 185.267 67.4369 185.266 67.3645 185.266C67.2697 185.266 67.1657 185.267 67.0485 185.268C66.7325 185.274 66.3445 185.28 65.8861 185.288C64.9049 185.304 63.5489 185.319 62.0509 185.313C60.5537 185.306 59.1981 185.279 58.2169 185.254C57.7589 185.243 57.3705 185.233 57.0549 185.225C56.9377 185.223 56.8337 185.221 56.7389 185.219C56.6657 185.218 56.6277 185.219 56.6277 185.222Z" fill="#263238"/>
<path d="M65.2385 185.43C65.2621 185.434 65.2813 185.156 65.4577 184.877C65.6289 184.594 65.8685 184.453 65.8553 184.434C65.8509 184.414 65.5765 184.534 65.3917 184.836C65.2037 185.136 65.2193 185.435 65.2385 185.43Z" fill="#263238"/>
<path d="M63.3562 184.465C63.3742 184.477 63.465 184.367 63.5586 184.221C63.6526 184.074 63.7138 183.946 63.6958 183.934C63.6778 183.923 63.5874 184.032 63.4934 184.179C63.3994 184.326 63.3382 184.454 63.3562 184.465Z" fill="#263238"/>
<path d="M62.8393 184.189C62.8537 184.205 62.9545 184.138 63.0653 184.04C63.1757 183.941 63.2537 183.848 63.2397 183.832C63.2253 183.816 63.1245 183.883 63.0137 183.982C62.9033 184.08 62.8253 184.173 62.8393 184.189Z" fill="#263238"/>
<path d="M62.5144 183.585C62.514 183.607 62.6632 183.626 62.8476 183.629C63.032 183.631 63.1816 183.616 63.182 183.595C63.1824 183.573 63.0332 183.554 62.8488 183.551C62.6644 183.549 62.5148 183.564 62.5144 183.585Z" fill="#263238"/>
<path d="M62.4038 183.159C62.3966 183.178 62.559 183.252 62.7758 183.268C62.9926 183.286 63.1642 183.238 63.1602 183.218C63.1566 183.196 62.9874 183.208 62.7818 183.191C62.5758 183.176 62.4106 183.137 62.4038 183.159Z" fill="#263238"/>
<path d="M63.575 183.908C63.5746 183.917 63.7322 183.936 63.9858 183.907C64.1122 183.892 64.2622 183.862 64.4234 183.812C64.5034 183.784 64.5874 183.763 64.6742 183.71C64.715 183.682 64.7602 183.645 64.7762 183.582C64.7934 183.521 64.7606 183.452 64.7146 183.418C64.3226 183.213 63.9286 183.432 63.7822 183.635C63.7014 183.738 63.6646 183.839 63.6474 183.908C63.6306 183.979 63.6318 184.019 63.6362 184.019C63.6506 184.024 63.6646 183.858 63.8246 183.67C63.9034 183.578 64.023 183.488 64.1762 183.443C64.3214 183.4 64.5278 183.39 64.6658 183.478C64.731 183.526 64.705 183.603 64.6326 183.646C64.565 183.689 64.4774 183.716 64.4014 183.744C64.2458 183.797 64.101 183.831 63.9778 183.852C63.7314 183.896 63.575 183.895 63.575 183.908Z" fill="#263238"/>
<path d="M63.6814 183.929C63.6874 183.933 63.7482 183.829 63.7298 183.644C63.7202 183.553 63.6874 183.446 63.6186 183.344C63.5466 183.253 63.4533 183.127 63.2773 183.133C63.1821 183.145 63.1354 183.253 63.1502 183.322C63.1574 183.394 63.1894 183.456 63.2194 183.506C63.2802 183.609 63.349 183.692 63.4126 183.755C63.541 183.881 63.6426 183.93 63.647 183.922C63.6542 183.912 63.5653 183.848 63.4525 183.718C63.3965 183.653 63.3358 183.57 63.2814 183.471C63.2254 183.383 63.1874 183.227 63.2902 183.209C63.393 183.2 63.4977 183.303 63.5601 183.385C63.6245 183.474 63.6598 183.569 63.6754 183.652C63.7062 183.819 63.6678 183.926 63.6814 183.929Z" fill="#263238"/>
<path d="M56.7644 183.473C56.7656 183.487 56.9476 183.456 57.2364 183.491C57.5224 183.524 57.92 183.643 58.2652 183.92C58.61 184.197 58.812 184.56 58.9056 184.832C59.0024 185.106 59.0112 185.29 59.0252 185.289C59.03 185.288 59.0324 185.242 59.026 185.16C59.0196 185.077 59.0004 184.958 58.9576 184.815C58.8748 184.531 58.6732 184.149 58.3136 183.859C57.9536 183.571 57.5368 183.457 57.2416 183.437C57.0928 183.426 56.972 183.433 56.89 183.445C56.808 183.456 56.7636 183.468 56.7644 183.473Z" fill="#263238"/>
<path d="M59.8418 184.713C59.839 184.733 60.2558 184.8 60.7754 184.802C61.295 184.805 61.7122 184.743 61.7098 184.723C61.7078 184.701 61.2902 184.728 60.7758 184.724C60.261 184.722 59.8438 184.691 59.8418 184.713Z" fill="#263238"/>
<path d="M58.5889 184.7C58.5733 184.715 58.6229 184.788 58.6649 184.884C58.7085 184.979 58.7301 185.065 58.7521 185.064C58.7729 185.064 58.7853 184.963 58.7353 184.853C58.6865 184.742 58.6029 184.684 58.5889 184.7Z" fill="#263238"/>
<path d="M58.1189 184.111C58.1037 184.125 58.1445 184.192 58.2105 184.259C58.2765 184.327 58.3421 184.369 58.3573 184.354C58.3725 184.339 58.3317 184.273 58.2657 184.205C58.2001 184.138 58.1345 184.095 58.1189 184.111Z" fill="#263238"/>
<path d="M57.4444 183.839C57.4488 183.86 57.5336 183.86 57.6276 183.894C57.722 183.925 57.7888 183.977 57.8056 183.963C57.8228 183.951 57.7692 183.86 57.6528 183.82C57.536 183.78 57.438 183.819 57.4444 183.839Z" fill="#263238"/>
<path d="M56.964 183.712C56.956 183.732 56.9928 183.764 57.0456 183.785C57.0984 183.806 57.148 183.807 57.1556 183.787C57.1636 183.767 57.1268 183.734 57.074 183.713C57.0208 183.692 56.9716 183.692 56.964 183.712Z" fill="#263238"/>
<path d="M48.1039 183.242L48.3479 182.706L42.6015 179.818L41.5903 182.028L41.9407 182.215C43.5071 183.031 49.9635 186.256 51.1851 186.417C52.5475 186.596 48.1039 183.242 48.1039 183.242Z" fill="#E8505B"/>
<g opacity="0.5">
<path d="M43.7219 182.938C43.8591 182.414 43.7931 181.839 43.5407 181.36C43.2883 180.881 42.8811 180.504 42.3711 180.32L41.6331 181.947L43.7219 182.938Z" fill="white"/>
</g>
<path opacity="0.5" d="M50.2365 184.968C50.2365 184.968 51.7441 186.253 51.3985 186.44C51.0529 186.628 44.4057 183.614 41.5901 182.028L41.6585 181.902L49.3817 185.484C49.3817 185.484 49.8909 184.828 50.2365 184.968Z" fill="white"/>
<path d="M41.5684 181.858C41.5672 181.86 41.6 181.879 41.6636 181.914C41.7476 181.958 41.8396 182.007 41.9432 182.062C42.2252 182.204 42.5716 182.38 42.9808 182.587C43.86 183.024 45.0824 183.612 46.4464 184.232C47.8112 184.852 49.0584 185.386 49.966 185.76C50.3912 185.932 50.7512 186.077 51.044 186.196C51.1536 186.238 51.2504 186.275 51.3392 186.309C51.4068 186.334 51.4432 186.346 51.444 186.344C51.4448 186.342 51.4108 186.325 51.3452 186.295C51.2584 186.257 51.1632 186.215 51.0556 186.168C50.7652 186.044 50.4084 185.89 49.9872 185.71C49.0852 185.322 47.842 184.781 46.4784 184.162C45.1152 183.542 43.8896 182.962 43.0044 182.538C42.5912 182.339 42.2412 182.171 41.9564 182.034C41.8504 181.984 41.756 181.94 41.6704 181.9C41.6048 181.87 41.5696 181.855 41.5684 181.858Z" fill="#263238"/>
<path d="M49.3391 185.572C49.3595 185.585 49.4907 185.339 49.7659 185.157C50.0379 184.969 50.3143 184.939 50.3103 184.915C50.3139 184.895 50.0147 184.892 49.7223 185.092C49.4275 185.289 49.3195 185.569 49.3391 185.572Z" fill="#263238"/>
<path d="M48.0165 183.922C48.0281 183.94 48.1557 183.877 48.3013 183.782C48.4469 183.687 48.5553 183.595 48.5437 183.577C48.5321 183.559 48.4045 183.622 48.2589 183.717C48.1133 183.812 48.0049 183.904 48.0165 183.922Z" fill="#263238"/>
<path d="M47.658 183.459C47.6644 183.479 47.784 183.46 47.9252 183.415C48.0664 183.37 48.1756 183.318 48.1692 183.297C48.1628 183.277 48.0432 183.296 47.902 183.341C47.7608 183.386 47.6516 183.438 47.658 183.459Z" fill="#263238"/>
<path d="M47.6091 182.776C47.5999 182.795 47.7283 182.874 47.8951 182.952C48.0623 183.03 48.2051 183.078 48.2143 183.059C48.2235 183.039 48.0951 182.96 47.9283 182.882C47.7611 182.804 47.6179 182.756 47.6091 182.776Z" fill="#263238"/>
<path d="M47.6823 182.342C47.6679 182.356 47.7859 182.49 47.9767 182.594C48.1671 182.699 48.3435 182.726 48.3479 182.706C48.3539 182.684 48.1947 182.626 48.0139 182.526C47.8323 182.428 47.6975 182.325 47.6823 182.342Z" fill="#263238"/>
<path d="M48.4439 183.504C48.4399 183.511 48.5755 183.594 48.8191 183.671C48.9407 183.709 49.0891 183.744 49.2571 183.764C49.3419 183.771 49.4267 183.786 49.5275 183.773C49.5759 183.765 49.6327 183.749 49.6727 183.698C49.7135 183.649 49.7123 183.573 49.6839 183.523C49.4103 183.176 48.9611 183.215 48.7443 183.339C48.6283 183.4 48.5535 183.477 48.5091 183.534C48.4651 183.591 48.4495 183.628 48.4535 183.63C48.4643 183.641 48.5455 183.494 48.7687 183.388C48.8783 183.337 49.0239 183.304 49.1823 183.326C49.3323 183.346 49.5251 183.421 49.6143 183.558C49.6539 183.629 49.5991 183.688 49.5151 183.698C49.4355 183.71 49.3451 183.698 49.2639 183.692C49.1003 183.676 48.9539 183.648 48.8331 183.618C48.5919 183.556 48.4491 183.492 48.4439 183.504Z" fill="#263238"/>
<path d="M48.5328 183.566C48.5364 183.573 48.6348 183.502 48.6936 183.326C48.722 183.24 48.736 183.128 48.7156 183.007C48.6872 182.894 48.654 182.741 48.4904 182.675C48.3988 182.647 48.1845 182.831 48.1697 182.9C48.1469 182.969 48.278 182.934 48.2844 182.992C48.2976 183.11 48.3265 183.214 48.3585 183.298C48.4241 183.466 48.4964 183.552 48.504 183.546C48.5148 183.54 48.46 183.446 48.4104 183.28C48.386 183.198 48.3644 183.098 48.3556 182.985C48.34 182.882 48.3692 182.724 48.4708 182.75C48.5684 182.784 48.622 182.92 48.6452 183.02C48.6672 183.128 48.6604 183.23 48.6408 183.312C48.6004 183.477 48.5216 183.558 48.5328 183.566Z" fill="#263238"/>
<path d="M42.4095 180.318C42.4047 180.331 42.5835 180.377 42.8327 180.528C43.0803 180.675 43.3943 180.946 43.5959 181.34C43.7967 181.735 43.8323 182.148 43.8067 182.435C43.7823 182.725 43.7151 182.896 43.7287 182.9C43.7331 182.902 43.7543 182.861 43.7819 182.783C43.8099 182.705 43.8411 182.588 43.8607 182.44C43.9015 182.147 43.8739 181.715 43.6643 181.304C43.4543 180.893 43.1207 180.618 42.8595 180.48C42.7283 180.409 42.6155 180.366 42.5355 180.343C42.4563 180.32 42.4107 180.313 42.4095 180.318Z" fill="#263238"/>
<path d="M44.7087 182.708C44.6979 182.726 45.0511 182.957 45.5239 183.172C45.9963 183.388 46.4027 183.502 46.4087 183.483C46.4159 183.462 46.0243 183.316 45.5559 183.102C45.0875 182.889 44.7203 182.689 44.7087 182.708Z" fill="#263238"/>
<path d="M43.5719 182.184C43.5511 182.192 43.5667 182.279 43.5659 182.384C43.5667 182.489 43.5515 182.575 43.5719 182.583C43.5907 182.592 43.6435 182.505 43.6431 182.384C43.6435 182.262 43.5907 182.175 43.5719 182.184Z" fill="#263238"/>
<path d="M43.3843 181.454C43.3643 181.461 43.3743 181.539 43.4071 181.627C43.4395 181.715 43.4823 181.781 43.5023 181.774C43.5223 181.766 43.5123 181.688 43.4795 181.6C43.4471 181.512 43.4043 181.446 43.3843 181.454Z" fill="#263238"/>
<path d="M42.8801 180.93C42.8753 180.952 42.9529 180.986 43.0249 181.055C43.0985 181.122 43.1377 181.198 43.1589 181.191C43.1793 181.188 43.1681 181.082 43.0777 180.998C42.9881 180.914 42.8825 180.91 42.8801 180.93Z" fill="#263238"/>
<path d="M42.4944 180.616C42.4792 180.632 42.4992 180.676 42.5388 180.717C42.5784 180.758 42.6232 180.779 42.6384 180.764C42.6536 180.749 42.6336 180.704 42.594 180.663C42.5544 180.622 42.5096 180.601 42.4944 180.616Z" fill="#263238"/>
<path d="M66.6991 83.568C66.7527 83.0336 66.8579 82.3128 66.8827 81.9808C66.9579 80.9684 67.1303 80.7432 67.4675 80.8936C68.0155 81.1384 67.4415 83.7256 67.8355 83.76C68.0471 83.7784 68.3311 82.266 68.4443 81.52C68.5655 80.722 68.6487 79.642 68.6995 79.2568C68.7551 78.8324 69.4771 78.7352 69.4507 79.488C69.4235 80.2664 69.3863 82.4096 69.5679 82.494C70.0691 82.7264 70.0507 79.6664 70.1699 78.6656C70.1963 78.4432 70.2463 78.2868 70.3079 78.178C70.4803 77.8736 70.9515 77.9884 70.9987 78.3348C71.1315 79.3104 70.9371 81.9456 71.0111 82.3728C71.0339 82.5036 71.3615 82.57 71.4423 82.1324C71.5507 81.5456 71.5023 78.738 72.0799 78.9872C72.7139 79.2608 72.0327 82.5828 72.2919 82.9212C72.7755 83.5512 72.8299 79.9408 73.4295 80.0976C73.7331 80.1768 73.7263 80.2904 73.4183 82.218C73.2767 83.1052 72.6831 85.028 72.3603 86.6732C73.7515 91.5816 76.1867 100.775 75.8307 103.805C75.6267 105.542 71.5979 106.742 69.8703 105.446C68.1427 104.151 66.9399 98.382 66.9399 98.382L69.0167 97.154L66.9867 86.0332C66.9011 85.8 66.8623 85.194 66.7395 84.9068C66.5971 84.5752 66.6631 83.9276 66.6991 83.568Z" fill="#FFBE9D"/>
<path d="M70.1967 103.015C70.1403 103.026 69.8387 101.726 69.5227 100.111C69.2071 98.4953 68.9967 97.1773 69.0531 97.1661C69.1095 97.1549 69.4111 98.4553 69.7271 100.071C70.0431 101.686 70.2531 103.004 70.1967 103.015Z" fill="#EB996E"/>
<path d="M65.2475 76.1874C67.0071 75.9326 68.7931 75.8602 70.5671 75.9726C70.8431 75.477 70.8867 74.8578 70.6823 74.3286C70.4779 73.7994 70.0299 73.3702 69.4923 73.1886C69.2731 73.1146 69.0299 73.0742 68.8607 72.9158C68.5871 72.6602 68.6259 72.2198 68.7183 71.8566C68.8107 71.4938 68.9327 71.0954 68.7659 70.7598C68.5051 70.2354 67.7415 70.2258 67.3167 69.8222C66.8283 69.3582 66.9431 68.573 66.8499 67.9058C66.6819 66.7014 65.6295 65.6778 64.4211 65.543" fill="#263238"/>
<path d="M58.7875 62.4853C56.8163 62.0077 54.5839 62.9929 53.6091 64.7713C53.0799 65.7361 52.8099 66.9789 51.8259 67.4713C51.2247 67.7717 50.5147 67.6965 49.8455 67.7597C49.1763 67.8229 48.4219 68.1333 48.2623 68.7865C48.1011 69.4469 48.6055 70.2549 48.1599 70.7681C47.8743 71.0969 47.3659 71.0773 46.9655 71.2473C46.1527 71.5921 45.9223 72.6469 46.0103 73.5253C46.0987 74.4037 46.3903 75.2929 46.1835 76.1509C47.0763 76.4241 47.9803 76.6997 48.9131 76.7485C49.8459 76.7973 50.8247 76.5973 51.5499 76.0085C51.4727 76.3909 51.7211 76.7821 52.0555 76.9833C52.3899 77.1845 52.7923 77.2341 53.1819 77.2585C54.4587 77.3381 55.7495 77.1941 56.9775 76.8357" fill="#263238"/>
<path d="M63.1775 81.1243C63.1515 79.4567 63.1275 77.8067 63.1275 77.8067C63.1275 77.8067 65.8251 77.5423 66.0171 74.8019C66.2091 72.0611 66.1119 65.7359 66.1119 65.7359L61.2303 63.2227L56.0291 67.4327L56.2411 81.2911C56.3043 83.2303 57.9447 84.7407 59.8823 84.6435C61.7495 84.5499 63.2067 82.9935 63.1775 81.1243Z" fill="#FFBE9D"/>
<path d="M65.5273 70.4154C65.5253 70.6094 65.3705 70.7646 65.1813 70.7626C64.9929 70.7606 64.8413 70.6022 64.8433 70.4082C64.8453 70.2142 65.0001 70.0586 65.1889 70.0606C65.3777 70.063 65.5293 70.2214 65.5273 70.4154Z" fill="#263238"/>
<path d="M65.8625 70.0362C65.8181 70.081 65.5677 69.8582 65.1997 69.8342C64.8321 69.8046 64.5533 69.989 64.5157 69.9378C64.4969 69.915 64.5441 69.8318 64.6657 69.7482C64.7853 69.6646 64.9869 69.5894 65.2161 69.6058C65.4453 69.6226 65.6341 69.7262 65.7409 69.8266C65.8497 69.927 65.8841 70.0162 65.8625 70.0362Z" fill="#263238"/>
<path d="M61.5644 70.4154C61.5624 70.6094 61.4076 70.7646 61.2184 70.7626C61.0296 70.7606 60.8784 70.6022 60.8804 70.4082C60.8824 70.2142 61.0372 70.0586 61.226 70.0606C61.4148 70.063 61.5664 70.2218 61.5644 70.4154Z" fill="#263238"/>
<path d="M61.7809 70.0362C61.7365 70.081 61.4861 69.8582 61.1181 69.8342C60.7509 69.8046 60.4717 69.989 60.4341 69.9378C60.4157 69.915 60.4621 69.8318 60.5841 69.7482C60.7037 69.6646 60.9053 69.5894 61.1341 69.6058C61.3633 69.6226 61.5521 69.7262 61.6589 69.8266C61.7681 69.927 61.8029 70.0162 61.7809 70.0362Z" fill="#263238"/>
<path d="M63.0761 73.1231C63.0753 73.1007 63.3061 73.0739 63.6789 73.0483C63.7733 73.0443 63.8633 73.0303 63.8821 72.9627C63.9073 72.8915 63.8729 72.7803 63.8325 72.6599C63.7545 72.4103 63.6733 72.1487 63.5877 71.8743C63.2493 70.7563 63.0089 69.8399 63.0509 69.8263C63.0929 69.8127 63.4013 70.7079 63.7397 71.8259C63.8209 72.1015 63.8985 72.3639 63.9725 72.6155C64.0033 72.7323 64.0585 72.8663 64.0041 73.0139C63.9757 73.0875 63.9041 73.1371 63.8433 73.1507C63.7821 73.1663 63.7293 73.1639 63.6825 73.1635C63.3081 73.1595 63.0765 73.1455 63.0761 73.1231Z" fill="#263238"/>
<path d="M51.9418 69.941C51.9718 69.747 51.9154 70.1518 51.9534 69.8474V69.8458C52.0066 69.4222 52.0662 68.9758 52.1302 68.7358C53.6478 63.0322 58.5562 62.0174 59.5246 62.0274C60.5634 62.0382 63.5358 61.951 65.1894 64.0226C67.3726 66.757 66.1358 69.465 66.1358 69.465L61.8058 68.6986C62.1266 67.6202 61.6854 66.2722 61.4342 65.6438L61.4094 65.6198C60.587 69.7166 56.1714 70.6362 56.1714 70.6362L56.1202 76.641C52.9038 76.175 51.8666 72.3154 51.9418 69.941Z" fill="#263238"/>
<path d="M56.2265 73.13C56.2525 72.7188 56.4437 71.7328 56.3061 71.3448C56.1685 70.9568 55.7373 70.8688 55.2625 70.8732C54.7885 70.8776 54.2189 71.3144 54.2357 71.898C54.2497 72.3716 54.4069 72.8588 54.8137 73.1024C55.2201 73.3464 55.7437 73.3544 56.1845 73.1788" fill="#FFBE9D"/>
<path d="M55.7145 72.5898C55.7001 72.5622 55.5797 72.6194 55.4073 72.5614C55.2329 72.5142 55.0585 72.3094 55.0517 72.0262C55.0453 71.8874 55.0793 71.7598 55.1489 71.6998C55.2201 71.6354 55.3321 71.6198 55.4205 71.627C55.6053 71.6482 55.7341 71.7014 55.7457 71.6702C55.7541 71.6498 55.6653 71.5526 55.4461 71.4838C55.3369 71.4558 55.1777 71.445 55.0293 71.5526C54.8809 71.6674 54.8385 71.8638 54.8457 72.0346C54.8521 72.2114 54.9141 72.3798 55.0173 72.5014C55.1185 72.625 55.2601 72.6898 55.3753 72.7042C55.6185 72.7342 55.7341 72.6054 55.7145 72.5898Z" fill="#EB996E"/>
<path d="M63.0539 73.9114C63.0347 73.8942 63.1227 73.7886 63.3099 73.8298C63.3967 73.8486 63.5099 73.9266 63.5447 74.0598C63.5791 74.185 63.5479 74.347 63.4155 74.4486C63.2783 74.5454 63.1131 74.5254 63.0043 74.4514C62.8875 74.3746 62.8543 74.2342 62.8727 74.1462C62.9103 73.9534 63.0527 73.923 63.0567 73.9494C63.0727 73.9738 63.0071 74.0402 63.0195 74.1542C63.0259 74.2102 63.0523 74.2622 63.1067 74.2886C63.1595 74.3178 63.2439 74.3174 63.2923 74.2806C63.3427 74.245 63.3683 74.165 63.3579 74.1034C63.3503 74.0422 63.3091 73.9962 63.2595 73.9678C63.1575 73.9106 63.0671 73.9378 63.0539 73.9114Z" fill="#263238"/>
<path d="M61.9951 68.9526C61.9819 69.0122 61.5787 68.9526 61.1063 69.0642C60.6315 69.1678 60.2939 69.3958 60.2563 69.3478C60.2163 69.311 60.5303 68.979 61.0599 68.861C61.5883 68.7386 62.0151 68.9018 61.9951 68.9526Z" fill="#263238"/>
<path d="M60.2223 62.0662C60.2195 62.0854 60.0595 62.0618 59.7715 62.0682C59.4847 62.0738 59.0675 62.1246 58.5867 62.2998C58.1091 62.477 57.5707 62.7874 57.0911 63.2614C56.6103 63.733 56.2051 64.3734 55.9215 65.101C55.3555 66.5718 55.3687 68.0382 55.3863 69.0666C55.4043 69.551 55.4195 69.9618 55.4319 70.297C55.4423 70.5882 55.4423 70.7498 55.4279 70.751C55.4135 70.7522 55.3867 70.593 55.3511 70.3034C55.3163 70.0142 55.2719 69.5942 55.2391 69.073C55.2087 68.5518 55.1899 67.927 55.2443 67.2342C55.2975 66.5422 55.4367 65.7798 55.7271 65.0258C56.0199 64.2742 56.4463 63.6098 56.9571 63.1242C57.4659 62.6366 58.0351 62.3274 58.5379 62.1614C59.0439 61.9974 59.4791 61.9682 59.7727 61.9878C59.9199 61.999 60.0331 62.013 60.1087 62.0318C60.1847 62.047 60.2235 62.059 60.2223 62.0662Z" fill="#455A64"/>
<path d="M63.4239 77.7453C63.4275 77.7697 63.1847 77.8361 62.7795 77.8653C62.3763 77.8897 61.8039 77.8665 61.2047 77.6837C60.6035 77.5073 60.1115 77.1957 59.8131 76.9181C59.5107 76.6405 59.3839 76.4181 59.4027 76.4041C59.4287 76.3825 59.5943 76.5681 59.9071 76.8045C60.2171 77.0421 60.6915 77.3157 61.2651 77.4841C62.4179 77.8317 63.4219 77.6725 63.4239 77.7453Z" fill="#EB996E"/>
<path d="M50.1548 95.4336L53.3196 95.6088C53.5196 96.6348 54.2144 98.2036 54.2144 98.2036C56.7616 93.782 58.7368 87.8576 59.2272 85.4768C59.1556 85.2388 59.0712 84.976 58.9656 84.682C58.8436 84.3424 58.9484 83.7 59.006 83.3432C59.0916 82.8132 59.2396 82.1 59.2844 81.7696C59.42 80.7636 59.582 80.6056 59.9332 80.7192C60.4104 80.874 59.7376 83.5444 60.1288 83.6024C60.3392 83.6336 60.596 82.7184 60.6708 81.968C60.7456 81.2172 61.0848 78.908 61.3328 78.754C61.6968 78.5284 62.0136 78.8852 61.9216 79.6328C61.8288 80.3896 61.7112 82.646 62.108 82.6764C62.4988 82.7064 62.8272 78.878 62.8272 78.878C62.8272 78.878 62.7652 78.0448 63.2248 78.0648C64.0532 78.1008 63.406 82.1372 63.3352 82.5196C63.2856 82.7856 63.716 82.8344 63.754 82.5456C63.7928 82.2484 63.9928 78.7168 64.8364 78.7452C65.484 78.7672 64.3348 82.0712 64.6984 82.8372C65.062 83.6032 65.3144 80.2356 65.9328 80.282C66.1628 80.2996 66.3328 80.3444 65.91 82.25C65.6828 83.274 65.0152 85.1572 64.4316 86.7164C63.452 92.0004 59.1524 108.904 52.4116 105.81C48.6396 104.079 46.8796 95.506 46.8796 95.506L50.1548 95.4336Z" fill="#FFBE9D"/>
<path d="M63.5389 82.7387C63.5389 82.7387 63.5085 82.7443 63.4513 82.7267C63.3997 82.7107 63.2977 82.6467 63.3137 82.5155C63.3221 82.2887 63.3581 81.9579 63.4105 81.5303C63.4497 81.0999 63.5781 80.5839 63.5789 79.9723C63.5837 79.6663 63.5761 79.3371 63.5585 78.9883C63.5473 78.8139 63.5441 78.6327 63.5053 78.4619C63.4765 78.2963 63.3657 78.1067 63.2377 78.1295L63.2237 78.1319L63.2173 78.1315C63.0873 78.1255 62.9857 78.2267 62.9437 78.3819C62.8981 78.5299 62.8865 78.7047 62.8957 78.8715L62.8961 78.8783L62.8957 78.8831C62.8101 79.8187 62.7181 80.8427 62.5049 81.9363C62.4753 82.0727 62.4449 82.2103 62.4025 82.3491C62.3813 82.4183 62.3569 82.4883 62.3265 82.5587C62.3069 82.5947 62.2945 82.6291 62.2645 82.6671C62.2385 82.6991 62.2053 82.7547 62.1117 82.7631C61.9597 82.7519 61.9161 82.6367 61.8817 82.5711C61.8489 82.4951 61.8285 82.4207 61.8133 82.3463C61.7821 82.1975 61.7661 82.0491 61.7545 81.8999C61.7141 81.3035 61.7349 80.6947 61.7789 80.0707C61.7933 79.7555 61.8709 79.4407 61.8169 79.1547C61.7917 79.0139 61.7329 78.8719 61.6369 78.8135C61.5901 78.7851 61.5373 78.7791 61.4797 78.7935C61.4509 78.8019 61.4217 78.8135 61.3929 78.8311C61.3689 78.8543 61.3741 78.8439 61.3525 78.8851C61.2301 79.1467 61.1673 79.4879 61.0989 79.8043C61.0341 80.1279 60.9781 80.4575 60.9261 80.7911C60.8749 81.1247 60.8273 81.4623 60.7877 81.8023C60.7549 82.1423 60.7057 82.4987 60.6193 82.8423C60.5753 83.0151 60.5269 83.1875 60.4545 83.3591C60.4173 83.4451 60.3789 83.5299 60.3037 83.6175C60.2765 83.6547 60.1913 83.7247 60.0849 83.6971C59.9817 83.6627 59.9525 83.5807 59.9357 83.5331C59.8765 83.3227 59.8937 83.1479 59.8969 82.9639C59.9049 82.7823 59.9197 82.6031 59.9349 82.4239C59.9609 82.1159 59.9905 81.8111 60.0009 81.5111C60.0057 81.3615 60.0061 81.2119 59.9901 81.0711C59.9813 81.0023 59.9693 80.9315 59.9457 80.8803C59.9349 80.8543 59.9205 80.8355 59.9105 80.8259C59.9049 80.8199 59.9013 80.8227 59.8965 80.8167L59.8489 80.8031C59.6065 80.7027 59.5257 81.0403 59.4613 81.3123C59.4049 81.5959 59.3693 81.8887 59.3125 82.1775C59.2161 82.7535 59.0933 83.3259 59.0289 83.8759C59.0025 84.1483 58.9829 84.4319 59.0609 84.6627C59.1473 84.9271 59.2329 85.1887 59.3177 85.4471L59.3253 85.4707L59.3197 85.4951C58.8741 87.4615 58.2565 89.2207 57.6837 90.7827C57.1049 92.3431 56.5261 93.6915 56.0149 94.7943C55.5057 95.8983 55.0485 96.7487 54.7329 97.3287C54.5729 97.6039 54.4465 97.8211 54.3525 97.9827C54.2641 98.1299 54.2161 98.2051 54.2113 98.2023C54.2065 98.1995 54.2449 98.1187 54.3237 97.9663C54.4109 97.8011 54.5281 97.5791 54.6761 97.2983C54.9733 96.7095 55.4125 95.8527 55.9049 94.7443C56.3993 93.6371 56.9625 92.2863 57.5281 90.7255C58.0873 89.1655 58.6945 87.4015 59.1277 85.4559L59.1297 85.5039C59.0453 85.2487 58.9597 84.9907 58.8737 84.7299C58.7753 84.4315 58.8045 84.1399 58.8285 83.8547C58.8941 83.2827 59.0133 82.7271 59.1089 82.1483C59.1653 81.8623 59.2001 81.5687 59.2589 81.2687C59.2937 81.1195 59.3257 80.9687 59.4081 80.8159C59.4477 80.7419 59.5089 80.6579 59.6101 80.6127C59.7121 80.5683 59.8165 80.5811 59.8985 80.6011L59.9597 80.6183C59.9873 80.6307 60.0213 80.6455 60.0429 80.6655C60.0897 80.7063 60.1161 80.7523 60.1353 80.7955C60.1737 80.8831 60.1849 80.9643 60.1961 81.0451C60.2145 81.2059 60.2133 81.3615 60.2089 81.5171C60.1981 81.8271 60.1685 82.1339 60.1425 82.4411C60.1273 82.6195 60.1125 82.7971 60.1049 82.9723C60.0989 83.1431 60.0925 83.3315 60.1321 83.4639C60.1413 83.5023 60.1593 83.4951 60.1385 83.5135L60.1377 83.5151C60.1397 83.5027 60.1349 83.5335 60.1357 83.5287L60.1361 83.5251C60.1369 83.5203 60.1361 83.5159 60.1349 83.5123C60.1329 83.5091 60.1249 83.4963 60.1297 83.4955C60.1325 83.4947 60.1409 83.4895 60.1517 83.4755C60.1921 83.4291 60.2321 83.3531 60.2633 83.2775C60.3285 83.1243 60.3761 82.9579 60.4181 82.7919C60.5025 82.4567 60.5493 82.1235 60.5833 81.7783C60.6241 81.4343 60.6721 81.0951 60.7245 80.7595C60.7773 80.4239 60.8345 80.0919 60.9013 79.7639C60.9765 79.4339 61.0253 79.1171 61.1793 78.7875C61.1889 78.7543 61.2541 78.6803 61.2941 78.6591C61.3353 78.6347 61.3809 78.6155 61.4305 78.6019C61.5289 78.5747 61.6493 78.5871 61.7397 78.6447C61.9213 78.7647 61.9769 78.9551 62.0101 79.1207C62.0397 79.2911 62.0353 79.4591 62.0161 79.6219C61.9977 79.7779 61.9829 79.9311 61.9705 80.0855C61.9245 80.7011 61.9013 81.3071 61.9373 81.8867C61.9477 82.0311 61.9625 82.1739 61.9901 82.3091C62.0033 82.3767 62.0217 82.4423 62.0457 82.4983C62.0573 82.5259 62.0721 82.5523 62.0857 82.5667C62.0989 82.5971 62.1109 82.5595 62.1093 82.6091C62.0909 82.5715 62.1085 82.5923 62.1229 82.5611C62.1385 82.5439 62.1517 82.5111 62.1665 82.4855C62.1925 82.4259 62.2153 82.3627 62.2357 82.2979C62.2765 82.1683 62.3073 82.0335 62.3369 81.9007C62.5541 80.8267 62.6561 79.7999 62.7501 78.8711V78.8827C62.7421 78.6951 62.7545 78.5155 62.8097 78.3391C62.8377 78.2523 62.8785 78.1639 62.9525 78.0955C63.0253 78.0251 63.1297 77.9935 63.2237 77.9967L63.2033 77.9987C63.3505 77.9727 63.4573 78.0619 63.5185 78.1499C63.5813 78.2407 63.6093 78.3391 63.6309 78.4339C63.6713 78.6259 63.6705 78.8083 63.6797 78.9835C63.6925 79.3351 63.6953 79.6663 63.6853 79.9755C63.6737 80.5991 63.5333 81.1159 63.4837 81.5407C63.4201 81.9655 63.3725 82.2955 63.3521 82.5175C63.3289 82.6231 63.4141 82.6911 63.4589 82.7091C63.5093 82.7311 63.5397 82.7343 63.5389 82.7387Z" fill="#EB996E"/>
<path d="M137.512 140.36C131.292 136.014 129.88 127.947 130.126 120.696C130.167 119.485 130.034 118.209 130.61 117.147C131.186 116.085 132.53 115.359 133.613 115.869C134.512 116.292 134.904 117.338 135.407 118.203C136.076 119.353 137.072 120.306 138.246 120.914C139.016 121.314 139.97 121.559 140.731 121.139C141.775 120.563 141.898 119.121 141.89 117.916C141.876 115.672 141.862 113.428 141.848 111.185C141.841 109.982 141.837 108.752 142.212 107.609C142.586 106.467 143.413 105.406 144.558 105.085C145.704 104.764 147.12 105.424 147.362 106.603C147.463 107.093 147.363 107.602 147.396 108.102C147.43 108.602 147.663 109.155 148.137 109.294C148.618 109.435 149.1 109.094 149.459 108.742C150.702 107.526 151.545 105.96 152.333 104.403C153.121 102.845 153.886 101.251 155.014 99.9255C156.141 98.5995 157.701 97.5491 159.425 97.4515C161.149 97.3539 162.986 98.4183 163.422 100.111C163.858 101.808 162.868 103.53 161.791 104.904C160.192 106.942 158.301 108.745 156.196 110.237C155.816 110.506 155.405 110.798 155.26 111.244C154.998 112.046 155.758 112.843 156.551 113.107C157.448 113.406 158.422 113.313 159.361 113.423C160.3 113.534 161.316 113.948 161.672 114.835C162.165 116.065 161.136 117.355 160.123 118.2C158.096 119.892 155.78 121.228 153.31 122.133C152.424 122.457 151.492 122.741 150.778 123.363C150.064 123.985 149.633 125.068 150.065 125.915C150.496 126.764 151.604 127.035 152.532 126.863C153.459 126.691 154.29 126.188 155.174 125.854C156.828 125.23 158.964 125.344 160.024 126.773C160.721 127.713 160.782 129.022 160.43 130.142C160.078 131.262 159.364 132.228 158.605 133.117C155.953 136.228 152.559 138.733 148.72 140.064C144.883 141.395 141.326 141.755 137.512 140.36Z" fill="#455A64"/>
<path d="M137.417 145.736C137.68 142.863 138.31 139.47 139.384 135.814C140.451 132.154 141.954 128.24 143.666 124.199C144.098 123.191 144.525 122.194 144.945 121.212C145.367 120.233 145.785 119.262 146.253 118.337C147.181 116.484 148.215 114.772 149.247 113.178C150.279 111.583 151.315 110.107 152.295 108.734C153.278 107.363 154.219 106.102 155.125 104.989C156.93 102.756 158.597 101.131 159.787 100.062C160.38 99.5248 160.855 99.1236 161.18 98.856C161.336 98.7288 161.459 98.6292 161.551 98.554C161.636 98.4872 161.68 98.4544 161.683 98.4572C161.685 98.4604 161.646 98.4988 161.566 98.5716C161.477 98.6508 161.359 98.7564 161.208 98.8904C160.893 99.1688 160.428 99.5804 159.844 100.126C158.674 101.214 157.031 102.85 155.245 105.089C154.349 106.205 153.419 107.468 152.444 108.842C151.471 110.219 150.441 111.696 149.417 113.29C148.393 114.884 147.367 116.591 146.447 118.436C145.983 119.356 145.569 120.319 145.147 121.301C144.727 122.282 144.301 123.278 143.869 124.286C142.159 128.324 140.654 132.226 139.579 135.872C138.497 139.514 137.854 142.89 137.573 145.75" fill="#263238"/>
<path d="M146.317 118.329C146.302 118.332 146.261 118.149 146.199 117.816C146.136 117.483 146.06 116.999 145.976 116.399C145.805 115.2 145.627 113.537 145.437 111.702C145.247 109.867 145.045 108.211 144.857 107.018C144.765 106.422 144.685 105.939 144.626 105.607C144.569 105.274 144.544 105.088 144.559 105.084C144.574 105.081 144.627 105.26 144.71 105.588C144.795 105.916 144.899 106.396 145.011 106.991C145.239 108.181 145.467 109.841 145.657 111.678C145.839 113.489 146.005 115.128 146.131 116.379C146.191 116.944 146.243 117.42 146.284 117.803C146.319 118.139 146.332 118.327 146.317 118.329Z" fill="#263238"/>
<path d="M161.795 115.436C161.796 115.451 161.576 115.477 161.178 115.51C160.781 115.545 160.206 115.593 159.498 115.675C158.08 115.828 156.129 116.108 153.99 116.511C151.851 116.919 149.931 117.369 148.552 117.735C147.861 117.913 147.306 118.073 146.921 118.181C146.537 118.29 146.322 118.343 146.317 118.329C146.312 118.314 146.518 118.233 146.895 118.097C147.273 117.964 147.823 117.781 148.511 117.583C149.883 117.176 151.804 116.7 153.95 116.291C156.095 115.887 158.057 115.631 159.483 115.518C160.195 115.456 160.774 115.431 161.174 115.423C161.573 115.417 161.794 115.42 161.795 115.436Z" fill="#263238"/>
<path d="M139.574 135.53C139.567 135.533 139.531 135.468 139.468 135.341C139.397 135.189 139.31 135.005 139.204 134.781C138.976 134.294 138.665 133.58 138.292 132.693C137.545 130.92 136.591 128.439 135.575 125.686C134.558 122.932 133.628 120.445 132.919 118.659C132.572 117.79 132.286 117.076 132.074 116.545C131.983 116.315 131.908 116.125 131.847 115.969C131.797 115.837 131.774 115.765 131.782 115.762C131.789 115.759 131.825 115.824 131.888 115.951C131.959 116.102 132.046 116.287 132.152 116.511C132.38 116.998 132.691 117.711 133.064 118.598C133.811 120.371 134.765 122.853 135.782 125.607C136.798 128.36 137.728 130.847 138.437 132.633C138.784 133.501 139.07 134.216 139.282 134.746C139.373 134.977 139.448 135.167 139.509 135.323C139.559 135.455 139.582 135.527 139.574 135.53Z" fill="#263238"/>
<path d="M160.143 128.9C160.145 128.908 160.074 128.936 159.939 128.984C159.778 129.038 159.58 129.104 159.341 129.184C158.79 129.363 158.045 129.605 157.139 129.898C155.279 130.501 152.721 131.363 149.894 132.32C147.067 133.278 144.498 134.117 142.625 134.682C141.689 134.965 140.929 135.186 140.401 135.328C140.157 135.392 139.955 135.445 139.792 135.488C139.652 135.522 139.577 135.536 139.575 135.529C139.573 135.521 139.643 135.493 139.779 135.444C139.939 135.391 140.137 135.325 140.376 135.245C140.928 135.066 141.672 134.825 142.578 134.531C144.438 133.928 146.997 133.065 149.824 132.108C152.651 131.151 155.219 130.311 157.092 129.747C158.029 129.464 158.788 129.243 159.317 129.101C159.561 129.037 159.762 128.984 159.926 128.941C160.066 128.907 160.14 128.893 160.143 128.9Z" fill="#263238"/>
<path d="M130.158 158.309L87.0041 158.11C81.8141 158.086 77.6253 153.86 77.6473 148.67L78.1045 40.482C78.1265 35.2888 82.3549 31.0976 87.5481 31.1212L130.702 31.3204C135.892 31.3444 140.081 35.5704 140.059 40.7604L139.602 148.948C139.579 154.142 135.351 158.333 130.158 158.309Z" fill="#263238"/>
<path d="M130.641 34.841L122.274 34.8027C121.152 34.7975 120.238 35.7442 120.233 36.917L120.227 38.4346C120.222 39.6074 119.308 40.5542 118.186 40.549L101.877 40.4738C100.755 40.4686 99.8498 39.5134 99.8546 38.3406L99.861 36.823C99.8658 35.6502 98.9602 34.695 97.8382 34.6898L94.8958 34.6762L87.573 34.6426C83.9362 34.6258 80.9746 37.5614 80.9594 41.1982L80.513 146.797C80.4978 150.432 83.431 153.392 87.0658 153.409L130.133 153.607C133.77 153.624 136.731 150.689 136.747 147.052L137.193 41.4527C137.209 37.8175 134.275 34.8578 130.641 34.841Z" fill="#FAFAFA"/>
<path d="M132.981 129.29H84.7245C83.4469 129.29 82.4109 128.254 82.4109 126.976V58.2687C82.4109 56.9911 83.4469 55.9551 84.7245 55.9551H132.981C134.259 55.9551 135.295 56.9907 135.295 58.2687V126.976C135.295 128.254 134.259 129.29 132.981 129.29Z" fill="#EBEBEB"/>
<path d="M103.376 72.5365L92.619 97.1753C91.1958 100.436 93.8098 104.022 97.349 103.663C104.823 102.905 116.021 101.751 123.783 100.949C127.634 100.551 129.552 96.0801 127.188 93.0137L110.703 71.6333C108.712 69.0509 104.681 69.5477 103.376 72.5365Z" fill="#E8505B"/>
<g opacity="0.5">
<path d="M103.929 74.1924C103.919 74.188 103.949 74.1072 104.018 73.9516C104.054 73.8748 104.093 73.7752 104.154 73.6648C104.224 73.5576 104.305 73.4348 104.395 73.296C104.493 73.1608 104.625 73.0268 104.76 72.8696C104.919 72.7392 105.075 72.5688 105.286 72.4408C105.685 72.1528 106.22 71.9152 106.854 71.806C107.485 71.6976 108.228 71.7284 108.969 72.0096C109.33 72.166 109.702 72.3556 110.029 72.6356C110.111 72.7052 110.194 72.7752 110.278 72.846C110.354 72.9236 110.426 73.008 110.501 73.09C110.658 73.2552 110.787 73.4272 110.924 73.6016C112.019 74.9988 113.264 76.5888 114.641 78.346C117.384 81.8724 120.648 86.0692 124.272 90.7284C124.724 91.3132 125.181 91.9048 125.644 92.5036C126.135 93.1396 126.462 93.9192 126.571 94.7372C126.8 96.3728 126.103 98.152 124.711 99.182C124.025 99.7008 123.18 100.017 122.318 100.106C121.506 100.19 120.687 100.274 119.861 100.36C118.211 100.53 116.537 100.702 114.842 100.877C111.452 101.223 108.142 101.56 104.945 101.887C103.347 102.048 101.776 102.207 100.239 102.362C99.8543 102.401 99.4719 102.44 99.0915 102.478L98.5223 102.535L97.9155 102.554C97.1067 102.529 96.3135 102.278 95.6543 101.843C94.3227 100.981 93.5499 99.4352 93.6119 97.9408C93.6303 97.7552 93.6299 97.568 93.6651 97.3864C93.7051 97.206 93.7387 97.0244 93.7851 96.8476L93.9715 96.3336C94.0371 96.1696 94.1083 96.0192 94.1759 95.8624C94.4499 95.242 94.7195 94.6308 94.9847 94.0304C96.0475 91.63 97.0379 89.3936 97.9423 87.3516C99.7551 83.2704 101.231 79.972 102.265 77.6984C102.785 76.5696 103.191 75.6904 103.469 75.0864C103.752 74.4916 103.909 74.1836 103.929 74.1924C103.949 74.2008 103.83 74.526 103.586 75.1364C103.332 75.7512 102.963 76.646 102.489 77.7952C101.524 80.0988 100.109 83.424 98.3483 87.528C97.4655 89.5796 96.4987 91.826 95.4607 94.2376C95.2003 94.8404 94.9359 95.4532 94.6671 96.076C94.6015 96.2308 94.5283 96.3896 94.4683 96.5436L94.3071 96.9984C94.2679 97.1544 94.2403 97.314 94.2055 97.4724C94.1751 97.6316 94.1787 97.7956 94.1623 97.9576C94.1159 99.262 94.8035 100.615 95.9683 101.359C96.5443 101.735 97.2311 101.948 97.9351 101.967L98.4647 101.948L99.0331 101.889C99.4131 101.849 99.7955 101.809 100.18 101.769C101.717 101.608 103.287 101.445 104.885 101.278C108.081 100.948 111.39 100.606 114.78 100.256C116.474 100.082 118.149 99.9108 119.799 99.742C120.624 99.658 121.443 99.5744 122.256 99.4916C123.02 99.4132 123.746 99.1416 124.345 98.6928C125.558 97.8036 126.176 96.2408 125.981 94.816C125.887 94.1028 125.608 93.4228 125.177 92.8584C124.718 92.2588 124.265 91.666 123.817 91.0804C120.232 86.3904 117.004 82.166 114.291 78.616C112.942 76.838 111.721 75.2292 110.648 73.8152C110.514 73.6384 110.384 73.4596 110.248 73.3116C110.18 73.2348 110.116 73.1556 110.047 73.0824C109.971 73.016 109.897 72.95 109.823 72.8852C109.528 72.6208 109.189 72.44 108.859 72.2868C108.18 72.0112 107.488 71.9632 106.891 72.0472C106.293 72.132 105.779 72.338 105.388 72.5968C105.181 72.71 105.027 72.8664 104.867 72.9836C104.731 73.128 104.596 73.2496 104.493 73.3744C104.396 73.5028 104.309 73.6164 104.235 73.7152C104.167 73.818 104.119 73.9104 104.075 73.9812C103.989 74.1244 103.939 74.1968 103.929 74.1924Z" fill="white"/>
</g>
<path opacity="0.5" d="M105.652 79.823L107.258 89.6422C107.389 90.445 108.098 91.0242 108.912 90.9922C109.769 90.9582 110.45 90.2582 110.459 89.4002L110.571 79.3606C110.58 78.6002 109.92 78.0046 109.165 78.0902L106.758 78.363C106.04 78.4442 105.536 79.1098 105.652 79.823Z" fill="white"/>
<path opacity="0.5" d="M111.876 95.9098C111.582 97.2154 110.285 98.0354 108.98 97.741C107.674 97.4466 106.854 96.1498 107.148 94.8442C107.443 93.5386 108.74 92.7186 110.046 93.013C111.35 93.307 112.17 94.6042 111.876 95.9098Z" fill="white"/>
<path d="M91.9317 66.7091L83.9217 74.0343C82.8617 75.0035 83.2381 76.7555 84.6025 77.2035C87.4841 78.1499 91.8045 79.5607 94.7997 80.5379C96.2857 81.0227 97.7265 79.6883 97.3573 78.1691L94.7829 67.5775C94.4721 66.2983 92.9033 65.8203 91.9317 66.7091Z" fill="#E8505B"/>
<g opacity="0.5">
<path d="M91.8646 67.4109C91.8554 67.4029 91.9318 67.2737 92.1658 67.1233C92.393 66.9781 92.8178 66.8173 93.3538 66.9401C93.617 67.0013 93.9018 67.1361 94.1454 67.3701C94.3894 67.5969 94.5646 67.9637 94.643 68.3153C94.8262 69.0105 95.0338 69.7989 95.2626 70.6689C95.7082 72.4217 96.237 74.5005 96.8238 76.8073C96.8958 77.0973 96.9686 77.3909 97.0422 77.6881C97.1262 78.0301 97.1202 78.4041 97.0182 78.7545C96.8178 79.4569 96.2214 80.0485 95.473 80.2169C95.1026 80.3041 94.701 80.2801 94.3406 80.1621C94.027 80.0601 93.7106 79.9573 93.3922 79.8541C92.7554 79.6465 92.1094 79.4357 91.4554 79.2225C90.1482 78.7929 88.8722 78.3733 87.6394 77.9681C87.0238 77.7641 86.419 77.5637 85.8266 77.3673C85.6786 77.3181 85.5314 77.2689 85.385 77.2205L85.1658 77.1473L84.9178 77.0457C84.5958 76.8893 84.3198 76.6433 84.1326 76.3485C83.7514 75.7601 83.7198 75.0001 84.0154 74.4089C84.0878 74.2601 84.1814 74.1265 84.2826 74.0009L84.4498 73.8289L84.6046 73.6885C84.8086 73.5057 85.0094 73.3257 85.2066 73.1489C85.9974 72.4445 86.7342 71.7877 87.4086 71.1869C88.7582 69.9909 89.8574 69.0313 90.6266 68.3785C91.3962 67.7249 91.8354 67.3789 91.8646 67.4109C91.8938 67.4429 91.5102 67.8493 90.7914 68.5573C90.0726 69.2653 89.0186 70.2749 87.7074 71.5125C87.049 72.1305 86.329 72.8061 85.557 73.5309C85.363 73.7117 85.1662 73.8957 84.9658 74.0825L84.8178 74.2221L84.6978 74.3505C84.627 74.4437 84.5606 74.5405 84.511 74.6477C84.307 75.0713 84.3394 75.6205 84.6154 76.0337C84.751 76.2405 84.9446 76.4089 85.1734 76.5169L85.351 76.5873L85.5706 76.6577C85.7174 76.7049 85.8654 76.7525 86.0138 76.8001C86.6078 76.9917 87.2142 77.1873 87.8314 77.3865C89.0654 77.7877 90.3426 78.2033 91.6506 78.6289C92.3038 78.8433 92.9498 79.0549 93.5862 79.2637C93.9042 79.3685 94.2202 79.4725 94.5334 79.5753C94.8006 79.6625 95.0746 79.6793 95.3374 79.6205C95.865 79.5081 96.3018 79.0825 96.4466 78.5861C96.521 78.3381 96.5302 78.0741 96.4714 77.8221C96.4018 77.5261 96.333 77.2333 96.265 76.9441C95.7274 74.6253 95.2426 72.5357 94.8342 70.7741C94.6382 69.8965 94.461 69.1005 94.3046 68.3989C94.239 68.0497 94.125 67.7909 93.933 67.5789C93.7442 67.3749 93.513 67.2453 93.2914 67.1757C92.841 67.0357 92.4538 67.1349 92.2254 67.2353C91.9902 67.3381 91.8838 67.4341 91.8646 67.4109Z" fill="white"/>
</g>
<path opacity="0.5" d="M91.5766 69.7698L90.5582 73.6558C90.475 73.9734 90.6418 74.3034 90.947 74.425C91.269 74.5534 91.6346 74.4066 91.779 74.0914L93.467 70.4058C93.595 70.1266 93.4494 69.7986 93.1566 69.7066L92.2238 69.4126C91.9454 69.3246 91.6506 69.4878 91.5766 69.7698Z" fill="white"/>
<path opacity="0.5" d="M91.2336 76.727C90.9108 77.1606 90.298 77.2502 89.8644 76.9274C89.4308 76.6046 89.3412 75.9918 89.664 75.5582C89.9868 75.125 90.5996 75.035 91.0332 75.3578C91.4668 75.6806 91.5564 76.2938 91.2336 76.727Z" fill="white"/>
<path d="M122.668 68.9819L120.85 77.2639C120.61 78.3599 121.639 79.3091 122.712 78.9807C124.977 78.2879 128.371 77.2443 130.723 76.5203C131.89 76.1611 132.209 74.6603 131.29 73.8567L124.879 68.2531C124.105 67.5763 122.888 67.9775 122.668 68.9819Z" fill="#E8505B"/>
<g opacity="0.5">
<path d="M122.94 69.4604C122.926 69.4584 122.912 69.3404 122.991 69.1348C123.068 68.936 123.266 68.634 123.67 68.4644C123.869 68.3816 124.117 68.3364 124.385 68.3756C124.648 68.4084 124.938 68.57 125.147 68.7584C125.58 69.1188 126.07 69.526 126.609 69.9744C127.687 70.8912 128.963 71.9764 130.378 73.18C130.555 73.3328 130.734 73.4872 130.915 73.6436C131.131 73.8304 131.302 74.082 131.399 74.362C131.595 74.9224 131.476 75.5936 131.058 76.0568C130.853 76.2888 130.574 76.4612 130.281 76.5512C130.035 76.6276 129.787 76.7044 129.537 76.7816C129.037 76.9356 128.53 77.092 128.016 77.2504C126.988 77.564 125.984 77.87 125.015 78.1656C124.53 78.312 124.053 78.4556 123.586 78.5964L123.238 78.7008L123.065 78.7524L122.852 78.8008C122.565 78.8476 122.266 78.8128 122.004 78.7044C121.475 78.4912 121.1 78.0012 121.02 77.47C120.998 77.3376 120.998 77.2048 121.007 77.0744L121.037 76.8824L121.073 76.7224C121.122 76.514 121.17 76.3088 121.216 76.1072C121.407 75.3028 121.585 74.5524 121.747 73.8652C122.077 72.4956 122.354 71.3896 122.559 70.6284C122.765 69.8676 122.898 69.4512 122.94 69.4604C122.982 69.4696 122.929 69.904 122.797 70.6812C122.665 71.4584 122.454 72.5788 122.179 73.9608C122.039 74.6532 121.886 75.4088 121.723 76.2192C121.681 76.422 121.638 76.6284 121.596 76.838L121.564 76.9932L121.547 77.1224C121.544 77.2088 121.546 77.2956 121.562 77.3812C121.62 77.7228 121.874 78.04 122.216 78.1704C122.386 78.2372 122.573 78.2552 122.756 78.2228L122.893 78.1896L123.064 78.1356L123.411 78.0264C123.876 77.8808 124.352 77.7324 124.835 77.5812C125.803 77.2816 126.805 76.9716 127.832 76.654C128.346 76.4968 128.853 76.3416 129.354 76.1884C129.604 76.1124 129.852 76.0368 130.099 75.9616C130.298 75.9004 130.469 75.7948 130.602 75.6484C130.872 75.358 130.956 74.9148 130.833 74.5544C130.773 74.3736 130.668 74.2104 130.524 74.0824C130.347 73.9244 130.172 73.7684 129.998 73.614C128.616 72.3724 127.37 71.2532 126.318 70.3076C125.801 69.8332 125.332 69.4028 124.917 69.022C124.557 68.6332 124.096 68.5824 123.754 68.6932C123.41 68.7996 123.207 69.0296 123.104 69.1924C122.997 69.3592 122.968 69.4672 122.94 69.4604Z" fill="white"/>
</g>
<path opacity="0.5" d="M123.819 71.0967L124.918 74.0359C125.008 74.2763 125.263 74.4119 125.512 74.3519C125.775 74.2887 125.943 74.0307 125.893 73.7647L125.312 70.6519C125.268 70.4163 125.028 70.2723 124.799 70.3451L124.071 70.5771C123.854 70.6463 123.739 70.8831 123.819 71.0967Z" fill="white"/>
<path opacity="0.5" d="M126.73 75.6929C126.72 76.1149 126.368 76.4481 125.946 76.4369C125.524 76.4261 125.191 76.0749 125.202 75.6529C125.213 75.2309 125.564 74.8977 125.986 74.9085C126.408 74.9197 126.742 75.2709 126.73 75.6929Z" fill="white"/>
<path d="M88.684 105.654C88.6736 105.664 88.574 105.572 88.402 105.395C88.3144 105.308 88.2112 105.198 88.1044 105.059C87.996 104.922 87.8632 104.771 87.744 104.585C87.486 104.226 87.2228 103.768 86.976 103.238C86.7396 102.703 86.526 102.093 86.3796 101.433C86.2412 100.771 86.1844 100.128 86.1792 99.5425C86.1856 98.9573 86.2364 98.4313 86.324 97.9981C86.3564 97.7797 86.4148 97.5877 86.4572 97.4177C86.4976 97.2473 86.546 97.1041 86.59 96.9889C86.674 96.7573 86.7268 96.6321 86.74 96.6369C86.778 96.6493 86.5972 97.1629 86.4692 98.0221C86.4016 98.4509 86.3668 98.9677 86.3708 99.5405C86.3864 100.113 86.4472 100.741 86.5828 101.389C86.726 102.034 86.9292 102.632 87.1512 103.16C87.3832 103.684 87.628 104.14 87.866 104.503C88.3376 105.234 88.7136 105.628 88.684 105.654Z" fill="#263238"/>
<path d="M92.168 106.158C92.1596 106.17 92.0384 106.093 91.8256 105.941C91.7176 105.868 91.5892 105.773 91.452 105.647C91.3136 105.524 91.1468 105.392 90.9888 105.219C90.654 104.892 90.2988 104.459 89.9516 103.946C89.6152 103.426 89.2928 102.822 89.0376 102.153C88.7912 101.48 88.638 100.813 88.5512 100.199C88.4768 99.5842 88.4612 99.0242 88.4992 98.5578C88.5048 98.3238 88.5444 98.115 88.568 97.931C88.5896 97.7466 88.624 97.5906 88.6572 97.4642C88.7188 97.2106 88.7592 97.0726 88.7732 97.0762C88.814 97.0846 88.6756 97.6454 88.646 98.565C88.6272 99.0242 88.658 99.5722 88.7408 100.173C88.8364 100.772 88.9912 101.423 89.2324 102.08C89.482 102.735 89.7916 103.327 90.112 103.842C90.4432 104.349 90.7792 104.783 91.0948 105.118C91.7212 105.792 92.1932 106.125 92.168 106.158Z" fill="#263238"/>
<path d="M129.372 101.9C129.337 101.881 129.648 101.323 130.002 100.363C130.181 99.884 130.353 99.2988 130.502 98.6404C130.639 97.9796 130.748 97.2444 130.789 96.4664C130.822 95.6876 130.785 94.9452 130.711 94.2744C130.626 93.6048 130.512 93.006 130.378 92.512C130.119 91.5224 129.862 90.9372 129.899 90.922C129.912 90.9164 129.984 91.0584 130.102 91.322C130.225 91.5836 130.371 91.9768 130.52 92.4724C130.673 92.9672 130.805 93.5716 130.902 94.25C130.987 94.93 131.031 95.6848 130.997 96.4764C130.955 97.2672 130.839 98.014 130.689 98.6828C130.528 99.3492 130.339 99.938 130.139 100.416C129.943 100.894 129.76 101.272 129.613 101.521C129.469 101.772 129.384 101.907 129.372 101.9Z" fill="#263238"/>
<path d="M132.583 101.076C132.549 101.058 132.799 100.602 133.066 99.8161C133.202 99.4245 133.326 98.9453 133.427 98.4077C133.517 97.8681 133.577 97.2681 133.577 96.6365C133.569 96.0045 133.499 95.4057 133.401 94.8673C133.293 94.3309 133.162 93.8537 133.02 93.4641C132.742 92.6821 132.486 92.2301 132.519 92.2113C132.532 92.2041 132.604 92.3121 132.724 92.5145C132.848 92.7149 132.999 93.0217 133.158 93.4121C133.321 93.8017 133.469 94.2837 133.589 94.8297C133.7 95.3773 133.777 95.9893 133.785 96.6353C133.786 97.2809 133.718 97.8941 133.615 98.4429C133.503 98.9901 133.361 99.4745 133.205 99.8661C133.051 100.258 132.905 100.568 132.784 100.77C132.666 100.974 132.596 101.083 132.583 101.076Z" fill="#263238"/>
<path d="M130.281 123.648H88.69C87.7568 123.648 87 122.892 87 121.958V113.688C87 112.755 87.7564 111.998 88.69 111.998H130.281C131.214 111.998 131.971 112.755 131.971 113.688V121.958C131.971 122.892 131.214 123.648 130.281 123.648Z" stroke="#E8505B" stroke-miterlimit="10"/>
<path d="M104.156 119.998L103.862 119.152H102.074L101.78 119.998H101.03L102.554 115.798H103.382L104.9 119.998H104.156ZM102.302 118.504H103.634L102.968 116.608L102.302 118.504ZM106.042 119.338H107.752V119.998H105.352V115.798H106.042V119.338ZM108.954 119.338H110.814V119.998H108.264V115.798H110.784V116.458H108.954V117.55H110.634V118.204H108.954V119.338ZM113.84 119.998L112.952 118.468H112.136V119.998H111.446V115.798H113.126C113.502 115.798 113.82 115.93 114.08 116.194C114.344 116.454 114.476 116.772 114.476 117.148C114.476 117.416 114.398 117.662 114.242 117.886C114.09 118.106 113.89 118.266 113.642 118.366L114.596 119.998H113.84ZM112.136 116.446V117.85H113.126C113.31 117.85 113.466 117.782 113.594 117.646C113.722 117.51 113.786 117.344 113.786 117.148C113.786 116.952 113.722 116.786 113.594 116.65C113.466 116.514 113.31 116.446 113.126 116.446H112.136ZM117.762 115.798V116.458H116.58V119.998H115.89V116.458H114.702V115.798H117.762Z" fill="#D1283B"/>
<path d="M135.295 52.8047H82.4114V60.0691H135.295V52.8047Z" fill="#E0E0E0"/>
<path d="M85.6702 57.499C86.22 57.499 86.6658 57.0533 86.6658 56.5034C86.6658 55.9536 86.22 55.5078 85.6702 55.5078C85.1203 55.5078 84.6746 55.9536 84.6746 56.5034C84.6746 57.0533 85.1203 57.499 85.6702 57.499Z" fill="#F5F5F5"/>
<path d="M89.7524 57.499C90.3023 57.499 90.748 57.0533 90.748 56.5034C90.748 55.9536 90.3023 55.5078 89.7524 55.5078C89.2026 55.5078 88.7568 55.9536 88.7568 56.5034C88.7568 57.0533 89.2026 57.499 89.7524 57.499Z" fill="#F5F5F5"/>
<path d="M94.8301 56.5034C94.8301 57.053 94.3845 57.499 93.8345 57.499C93.2849 57.499 92.8389 57.0534 92.8389 56.5034C92.8389 55.9534 93.2845 55.5078 93.8345 55.5078C94.3845 55.5078 94.8301 55.9534 94.8301 56.5034Z" fill="#F5F5F5"/>
<path d="M51.6716 65.9139C51.2572 65.8119 49.2612 65.3215 45.4 64.3727L45.446 64.3655C44.0668 65.2451 42.1984 65.9551 40.0324 65.9887C38.9548 65.9847 37.8152 65.8551 36.6776 65.4987C35.5412 65.1447 34.4236 64.5575 33.4084 63.7655C31.3764 62.1939 29.7944 59.6747 29.4528 56.7755C29.2784 55.3355 29.3952 53.8211 29.8432 52.3715C30.2996 50.9255 31.0868 49.5555 32.1476 48.4023C32.6852 47.7931 33.318 47.2871 33.964 46.8199C34.3032 46.6107 34.6372 46.3931 34.9868 46.2091L35.52 45.9523L35.786 45.8247L36.0624 45.7235C37.524 45.1567 39.0788 44.9375 40.5716 45.0367C42.066 45.1327 43.4972 45.5511 44.7492 46.2095C46.0032 46.8667 47.0784 47.7595 47.9224 48.7727C48.7688 49.7863 49.3836 50.9195 49.7748 52.0635C50.166 53.2091 50.344 54.3611 50.3544 55.4495C50.3676 57.6363 49.684 59.5127 48.852 60.8823L48.8528 60.8259C50.596 63.9731 51.4772 65.5631 51.6716 65.9139C51.4704 65.5671 50.5588 63.9943 48.7544 60.8819L48.738 60.8539L48.7552 60.8251C49.566 59.4623 50.2268 57.6067 50.2024 55.4511C50.1864 54.3779 50.0052 53.2447 49.616 52.1195C49.2264 50.9955 48.6176 49.8839 47.7828 48.8903C46.95 47.8971 45.892 47.0235 44.6596 46.3811C43.4292 45.7375 42.0248 45.3303 40.5588 45.2383C39.094 45.1431 37.57 45.3599 36.138 45.9163L35.8672 46.0155L35.6068 46.1411L35.084 46.3931C34.7416 46.5735 34.414 46.7875 34.0816 46.9923C33.4488 47.4511 32.828 47.9467 32.3012 48.5443C31.2616 49.6747 30.4896 51.0171 30.0408 52.4339C29.6004 53.8543 29.4844 55.3391 29.6536 56.7523C29.9844 59.5959 31.53 62.0711 33.522 63.6219C34.5172 64.4031 35.6136 64.9843 36.73 65.3371C37.8476 65.6919 38.9688 65.8247 40.0304 65.8343C42.1648 65.8119 44.012 65.1247 45.3832 64.2663L45.4052 64.2527L45.4296 64.2591C49.2724 65.2775 51.2596 65.8047 51.6716 65.9139Z" fill="#263238"/>
<path d="M39.0035 50.8484L39.3351 56.0872C39.3623 56.5156 39.7043 56.8564 40.1327 56.882C40.5847 56.9088 40.9783 56.5768 41.0283 56.1268L41.6099 50.8616C41.6539 50.4628 41.3387 50.1156 40.9375 50.1212L39.6595 50.1392C39.2787 50.1448 38.9795 50.468 39.0035 50.8484Z" fill="#E8505B"/>
<path d="M41.5217 59.8283C41.2993 60.4987 40.5757 60.8615 39.9053 60.6391C39.2353 60.4167 38.8721 59.6931 39.0945 59.0227C39.3169 58.3523 40.0405 57.9895 40.7109 58.2119C41.3813 58.4347 41.7445 59.1583 41.5217 59.8283Z" fill="#E8505B"/>
</svg>
