<svg width="20" height="20" viewBox="0 0 20 20" fill="none" xmlns="http://www.w3.org/2000/svg">
<path fill-rule="evenodd" clip-rule="evenodd" d="M2.91663 8.59748C2.91663 4.76426 6.11986 1.66602 9.9945 1.66602C13.8801 1.66602 17.0833 4.76426 17.0833 8.59748C17.0833 10.5291 16.3808 12.3224 15.2245 13.8423C13.949 15.5189 12.3768 16.9797 10.6071 18.1264C10.2021 18.3914 9.83652 18.4114 9.392 18.1264C7.61224 16.9797 6.04003 15.5189 4.77538 13.8423C3.61828 12.3224 2.91663 10.5291 2.91663 8.59748ZM7.66182 8.81331C7.66182 10.0974 8.70967 11.1074 9.9945 11.1074C11.2802 11.1074 12.3381 10.0974 12.3381 8.81331C12.3381 7.53918 11.2802 6.48004 9.9945 6.48004C8.70967 6.48004 7.66182 7.53918 7.66182 8.81331Z" fill="#2B2028"/>
</svg>
