<svg width="170" height="170" viewBox="0 0 170 170" fill="none" xmlns="http://www.w3.org/2000/svg">
<path d="M154.311 79.7978C154.241 79.7302 154.954 78.8696 155.905 77.8758C156.856 76.8816 157.683 76.1309 157.754 76.1986C157.825 76.2662 157.111 77.1268 156.16 78.1206C155.21 79.1144 154.382 79.8655 154.311 79.7978Z" fill="white"/>
<path d="M157.755 79.7978C157.684 79.8654 156.856 79.1144 155.905 78.1206C154.954 77.1264 154.241 76.2659 154.311 76.1985C154.382 76.1312 155.21 76.8816 156.161 77.8758C157.112 78.8696 157.825 79.7301 157.755 79.7978Z" fill="white"/>
<path d="M114.301 112.442C109.049 108.772 107.857 101.961 108.065 95.8381C108.099 94.816 107.987 93.7386 108.473 92.8416C108.959 91.9451 110.094 91.3324 111.009 91.7628C111.768 92.1202 112.098 93.0028 112.523 93.7331C113.088 94.7045 113.93 95.5086 114.92 96.0223C115.571 96.36 116.376 96.5667 117.019 96.2124C117.9 95.7259 118.004 94.508 117.998 93.4914C117.986 91.5969 117.974 89.7021 117.962 87.8079C117.956 86.7917 117.953 85.7537 118.269 84.7891C118.585 83.8245 119.284 82.9283 120.251 82.6573C121.218 82.3866 122.413 82.9439 122.618 83.9391C122.703 84.3532 122.618 84.783 122.647 85.2049C122.675 85.6268 122.871 86.0937 123.272 86.2113C123.678 86.3306 124.085 86.0423 124.388 85.7448C125.438 84.7187 126.15 83.3964 126.815 82.0817C127.48 80.7669 128.126 79.4208 129.078 78.3012C130.03 77.1816 131.347 76.2949 132.802 76.2122C134.258 76.13 135.809 77.0282 136.177 78.4576C136.546 79.8907 135.71 81.3445 134.8 82.5046C133.45 84.2257 131.854 85.7479 130.076 87.0079C129.756 87.2354 129.408 87.4812 129.286 87.8576C129.065 88.5352 129.707 89.2084 130.376 89.4311C131.134 89.6834 131.956 89.6048 132.748 89.698C133.541 89.7912 134.4 90.141 134.699 90.89C135.116 91.9291 134.247 93.0181 133.392 93.7311C131.68 95.1594 129.725 96.2879 127.639 97.0519C126.891 97.3256 126.104 97.5656 125.502 98.0909C124.899 98.6165 124.535 99.5298 124.899 100.246C125.264 100.963 126.199 101.192 126.982 101.046C127.765 100.901 128.466 100.476 129.213 100.194C130.609 99.6668 132.413 99.763 133.308 100.97C133.896 101.764 133.948 102.869 133.651 103.815C133.353 104.761 132.75 105.576 132.11 106.327C129.871 108.954 127.005 111.068 123.764 112.192C120.524 113.315 117.521 113.619 114.301 112.442Z" fill="#C29E8A"/>
<path d="M134.709 77.0637C134.711 77.066 134.677 77.099 134.61 77.1602C134.535 77.2272 134.435 77.3163 134.308 77.4295C134.042 77.6648 133.649 78.0119 133.156 78.4726C132.168 79.391 130.781 80.7727 129.274 82.6631C128.517 83.6053 127.731 84.6718 126.908 85.8323C126.087 86.9947 125.217 88.2422 124.352 89.5879C123.487 90.9329 122.621 92.3745 121.845 93.9321C121.453 94.709 121.103 95.5223 120.747 96.3512C120.392 97.1801 120.032 98.0209 119.668 98.8719C118.224 102.28 116.954 105.576 116.046 108.654C115.133 111.729 114.59 114.579 114.352 116.994C114.108 119.41 114.158 121.382 114.257 122.736C114.31 123.412 114.362 123.937 114.409 124.292C114.429 124.462 114.444 124.595 114.456 124.696C114.466 124.787 114.469 124.834 114.466 124.835C114.463 124.835 114.453 124.789 114.437 124.699C114.421 124.599 114.4 124.466 114.372 124.297C114.312 123.944 114.249 123.419 114.184 122.742C114.063 121.387 113.993 119.408 114.22 116.982C114.442 114.556 114.974 111.692 115.881 108.604C116.782 105.514 118.051 102.209 119.497 98.7978C119.861 97.9465 120.222 97.105 120.577 96.276C120.933 95.4492 121.286 94.6291 121.681 93.8484C122.465 92.2831 123.337 90.8381 124.209 89.4927C125.08 88.146 125.955 86.8999 126.782 85.7408C127.612 84.5828 128.406 83.5182 129.171 82.5788C130.696 80.6932 132.103 79.3209 133.107 78.4186C133.609 77.9653 134.009 77.6267 134.284 77.4006C134.416 77.2935 134.519 77.2092 134.598 77.1456C134.669 77.0888 134.707 77.0609 134.709 77.0637Z" fill="#263238"/>
<path d="M121.735 93.8405C121.722 93.8426 121.687 93.6882 121.635 93.407C121.582 93.1262 121.518 92.7175 121.447 92.2109C121.303 91.1987 121.152 89.7945 120.992 88.2455C120.831 86.6954 120.661 85.2974 120.502 84.2903C120.425 83.7867 120.357 83.3794 120.307 83.0986C120.259 82.8174 120.238 82.6603 120.251 82.6573C120.263 82.6545 120.308 82.8062 120.378 83.0833C120.45 83.36 120.538 83.7646 120.632 84.2672C120.825 85.2722 121.017 86.6737 121.177 88.2251C121.332 89.7541 121.471 91.1372 121.578 92.1943C121.629 92.6713 121.672 93.0735 121.707 93.3962C121.737 93.6804 121.748 93.8388 121.735 93.8405Z" fill="#263238"/>
<path d="M134.804 91.3981C134.804 91.411 134.618 91.4328 134.282 91.4607C133.947 91.4906 133.462 91.531 132.864 91.6004C131.666 91.7296 130.019 91.9659 128.213 92.3062C126.408 92.65 124.787 93.0304 123.622 93.3395C123.038 93.4898 122.569 93.6244 122.245 93.7155C121.92 93.8077 121.739 93.8529 121.735 93.8407C121.731 93.8281 121.905 93.7594 122.223 93.6451C122.542 93.5326 123.006 93.3783 123.587 93.2106C124.746 92.8676 126.368 92.4654 128.179 92.1203C129.99 91.7792 131.647 91.5626 132.851 91.4674C133.452 91.4151 133.941 91.3944 134.278 91.3876C134.616 91.3818 134.803 91.3848 134.804 91.3981Z" fill="#263238"/>
<path d="M116.042 108.363C116.036 108.365 116.006 108.311 115.952 108.203C115.892 108.075 115.818 107.919 115.729 107.73C115.537 107.319 115.274 106.716 114.959 105.967C114.329 104.47 113.523 102.375 112.665 100.051C111.806 97.7254 111.021 95.6252 110.423 94.1173C110.129 93.3842 109.888 92.7811 109.709 92.333C109.632 92.1385 109.569 91.978 109.517 91.8461C109.475 91.7342 109.456 91.674 109.462 91.671C109.468 91.6686 109.498 91.7233 109.551 91.8308C109.612 91.9586 109.686 92.1143 109.775 92.3034C109.967 92.7148 110.23 93.3173 110.545 94.0663C111.175 95.5633 111.981 97.6587 112.839 99.984C113.697 102.309 114.483 104.408 115.081 105.917C115.375 106.649 115.616 107.253 115.795 107.701C115.872 107.895 115.935 108.056 115.987 108.187C116.029 108.3 116.048 108.36 116.042 108.363Z" fill="#263238"/>
<path d="M133.409 102.766C133.41 102.773 133.351 102.797 133.236 102.837C133.101 102.883 132.934 102.939 132.732 103.006C132.266 103.157 131.637 103.361 130.872 103.609C129.302 104.118 127.141 104.846 124.755 105.654C122.368 106.463 120.199 107.172 118.618 107.648C117.827 107.887 117.185 108.074 116.74 108.193C116.534 108.247 116.364 108.292 116.225 108.329C116.107 108.358 116.044 108.369 116.042 108.363C116.041 108.357 116.1 108.333 116.215 108.292C116.35 108.247 116.517 108.191 116.719 108.123C117.185 107.972 117.813 107.769 118.578 107.52C120.149 107.011 122.31 106.283 124.696 105.475C127.083 104.666 129.252 103.958 130.833 103.481C131.624 103.242 132.265 103.056 132.711 102.936C132.917 102.881 133.087 102.837 133.226 102.801C133.344 102.772 133.407 102.76 133.409 102.766Z" fill="#263238"/>
<path d="M126.324 20.2913L124.572 20.9179L123.823 18.63C122.441 14.41 118.031 12.152 113.998 13.595C109.962 15.0386 107.804 19.646 109.186 23.866L109.935 26.1539L108.177 26.7826C106.811 27.2715 106.071 28.847 106.539 30.2774L111.413 45.1664C111.889 46.6185 113.398 47.3927 114.765 46.9038L132.912 40.4121C134.301 39.9154 135.041 38.3361 134.565 36.8843L129.691 21.9954C129.222 20.565 127.712 19.7942 126.324 20.2913ZM112.492 22.6828C111.735 20.3702 112.917 17.8446 115.13 17.0531C117.34 16.2623 119.756 17.5009 120.513 19.8136L121.262 22.1018L113.241 24.9707L112.492 22.6828ZM122.695 35.8929L123.94 39.6951C123.993 39.8559 123.901 40.0201 123.745 40.0759L122.004 40.6988C121.871 40.7464 121.7 40.676 121.648 40.5152L120.403 36.7129C119.054 36.6558 117.802 35.762 117.334 34.3316C116.732 32.4925 117.673 30.4818 119.438 29.8504C121.202 29.2193 123.124 30.2053 123.727 32.0447C124.195 33.4751 123.729 34.9837 122.695 35.8929Z" fill="#C29E8A"/>
<path d="M124.495 20.8763C124.512 20.9222 121.248 22.1442 117.206 23.6048C113.163 25.0662 109.874 26.2133 109.857 26.1674C109.84 26.1215 113.103 24.8999 117.147 23.4386C121.188 21.9779 124.479 20.8304 124.495 20.8763Z" fill="#263238"/>
<path d="M128.349 21.503C128.352 21.5019 128.365 21.5322 128.388 21.592C128.414 21.6614 128.446 21.7491 128.487 21.8586C128.574 22.1065 128.696 22.4512 128.85 22.8891C129.163 23.7993 129.607 25.0944 130.155 26.6897C130.7 28.3002 131.349 30.2117 132.068 32.3337C132.423 33.3989 132.811 34.5056 133.183 35.6745C133.355 36.262 133.498 36.89 133.438 37.5404C133.408 37.8631 133.32 38.1878 133.163 38.4815C133.003 38.7733 132.78 39.03 132.521 39.2391C131.998 39.6569 131.386 39.901 130.795 40.12C130.202 40.3332 129.617 40.5433 129.042 40.7497C127.893 41.1607 126.785 41.5575 125.729 41.9359C123.618 42.6873 121.716 43.3646 120.114 43.9351C118.523 44.4948 117.231 44.949 116.323 45.2683C115.884 45.4186 115.538 45.5372 115.29 45.6222C115.179 45.6583 115.09 45.6872 115.02 45.7099C114.958 45.729 114.927 45.7371 114.926 45.7341C114.925 45.7314 114.955 45.7174 115.014 45.6929C115.083 45.6657 115.17 45.6314 115.278 45.5886C115.524 45.4961 115.866 45.3669 116.3 45.2033C117.203 44.8712 118.489 44.3989 120.072 43.8172C121.67 43.2364 123.567 42.5473 125.674 41.7826C126.729 41.4011 127.836 41.0013 128.984 40.5865C129.558 40.3794 130.142 40.1686 130.735 39.9548C131.321 39.7375 131.917 39.4964 132.41 39.1014C132.654 38.9042 132.86 38.6662 133.008 38.3976C133.153 38.1269 133.235 37.8274 133.264 37.5238C133.321 36.9128 133.186 36.3025 133.017 35.7238C132.651 34.5664 132.263 33.4499 131.913 32.386C131.208 30.26 130.572 28.3438 130.036 26.7298C129.511 25.127 129.085 23.8258 128.785 22.9116C128.644 22.4692 128.533 22.1207 128.454 21.8705C128.42 21.7586 128.393 21.6692 128.372 21.5982C128.353 21.5359 128.346 21.504 128.349 21.503Z" fill="#263238"/>
<path d="M118.776 16.8143C118.767 16.8293 118.596 16.7229 118.261 16.5882C117.927 16.4604 117.42 16.3111 116.777 16.2907C116.139 16.2673 115.363 16.3659 114.587 16.7045C113.815 17.0391 113.054 17.633 112.509 18.4412C111.954 19.2463 111.711 20.1779 111.71 21.0228C111.703 21.8715 111.883 22.6273 112.056 23.2475C112.236 23.8683 112.419 24.361 112.54 24.703C112.662 25.045 112.728 25.2351 112.716 25.2399C112.705 25.2439 112.617 25.0627 112.475 24.7282C112.335 24.3929 112.133 23.906 111.937 23.2835C111.746 22.6616 111.549 21.8963 111.547 21.0218C111.538 20.1521 111.787 19.1749 112.362 18.3416C112.928 17.5038 113.719 16.8929 114.523 16.5546C115.329 16.2129 116.13 16.1251 116.783 16.1653C117.442 16.2023 117.956 16.3747 118.289 16.5246C118.453 16.6052 118.579 16.6712 118.658 16.7266C118.739 16.7793 118.78 16.8089 118.776 16.8143Z" fill="#263238"/>
<path d="M118.931 30.1186C118.929 30.1141 118.987 30.0849 119.103 30.0329C119.218 29.9795 119.393 29.9112 119.628 29.8442C119.861 29.7711 120.159 29.718 120.511 29.6973C120.862 29.68 121.276 29.7163 121.704 29.8751C122.573 30.1804 123.373 31.0685 123.766 32.2453C123.955 32.8396 123.972 33.5298 123.782 34.1972C123.579 34.8619 123.207 35.4994 122.67 36.0352L122.693 35.9451C123.144 37.1844 123.636 38.5332 124.148 39.9364L124.179 40.0217L124.093 40.0506C123.846 40.1333 123.582 40.222 123.316 40.3111C122.743 40.5028 122.178 40.6919 121.624 40.8775L121.54 40.9054L121.513 40.8214C121.047 39.4118 120.536 38.0827 120.166 36.8125L120.239 36.8703C119.543 36.8237 118.918 36.5316 118.42 36.1508C117.919 35.7663 117.536 35.2889 117.278 34.7868C117.024 34.2829 116.896 33.7481 116.917 33.2554C116.93 32.7631 117.044 32.3173 117.203 31.9416C117.52 31.1838 117.993 30.7071 118.343 30.447C118.699 30.1862 118.931 30.1186 118.931 30.1186C118.939 30.1339 118.715 30.2192 118.374 30.4881C118.041 30.7567 117.59 31.2341 117.294 31.9787C116.997 32.7053 116.869 33.7498 117.399 34.7245C117.653 35.2063 118.027 35.6643 118.511 36.0312C118.992 36.3943 119.594 36.668 120.248 36.7081L120.305 36.7115L120.321 36.7659C120.696 38.0273 121.209 39.3509 121.679 40.7663L121.568 40.7106C122.122 40.5249 122.686 40.3352 123.259 40.1431C123.525 40.054 123.79 39.9653 124.036 39.8827L123.981 39.9966C123.473 38.592 122.984 37.2419 122.536 36.0019L122.517 35.9519L122.558 35.9118C123.066 35.409 123.437 34.7854 123.632 34.153C123.818 33.5148 123.807 32.859 123.631 32.2864C123.259 31.1443 122.495 30.276 121.667 29.971C121.258 29.8112 120.857 29.7677 120.513 29.7769C120.168 29.7891 119.873 29.833 119.641 29.8969C119.174 30.0172 118.937 30.1335 118.931 30.1186Z" fill="#263238"/>
<path d="M108.423 128.288L74.4634 128.131C70.379 128.113 67.0827 124.787 67.1 120.703L67.4601 35.5654C67.4774 31.4786 70.805 28.1803 74.8915 28.1993L108.851 28.356C112.935 28.3751 116.231 31.7006 116.214 35.7847L115.854 120.922C115.837 125.009 112.51 128.308 108.423 128.288Z" fill="#455A64"/>
<path d="M108.803 31.2945L102.219 31.2642C101.336 31.2602 100.617 32.0054 100.613 32.9282L100.607 34.1226C100.604 35.0457 99.8845 35.7907 99.0015 35.7866L86.1675 35.7274C85.2846 35.7233 84.5719 34.9716 84.5757 34.0485L84.5808 32.8541C84.5845 31.931 83.8719 31.1792 82.9889 31.1752L80.6731 31.1643L74.9105 31.1378C72.0487 31.1245 69.718 33.4345 69.7058 36.2966L69.3545 119.397C69.3423 122.257 71.6509 124.586 74.5113 124.6L108.403 124.756C111.265 124.769 113.595 122.459 113.608 119.597L113.959 36.4968C113.971 33.6368 111.663 31.3081 108.803 31.2945Z" fill="white"/>
<path d="M104.678 116.875L79.1025 116.705C78.8378 116.703 78.6243 116.286 78.626 115.775L78.6543 106.111C78.6557 105.599 78.8717 105.186 79.1363 105.188L104.712 105.358C104.977 105.36 105.19 105.777 105.188 106.288L105.16 115.952C105.159 116.463 104.943 116.877 104.678 116.875Z" fill="#C29E8A"/>
<path d="M83.9686 111.658L85.6786 111.665L85.6758 112.325L83.2758 112.314L83.2935 108.114L83.9835 108.118L83.9686 111.658ZM87.4678 112.412C87.0278 112.41 86.6545 112.256 86.3477 111.951C86.041 111.645 85.8886 111.27 85.8905 110.826C85.8923 110.382 86.0479 110.009 86.3572 109.707C86.6664 109.404 87.0411 109.254 87.4811 109.256C87.9251 109.258 88.2984 109.411 88.6011 109.717C88.9079 110.022 89.0603 110.397 89.0584 110.841C89.0566 111.285 88.901 111.658 88.5917 111.961C88.2864 112.263 87.9118 112.414 87.4678 112.412ZM86.8056 111.509C86.9848 111.689 87.2065 111.78 87.4705 111.782C87.7345 111.783 87.9568 111.694 88.1376 111.515C88.3183 111.336 88.4093 111.11 88.4104 110.838C88.4116 110.566 88.3225 110.34 88.1433 110.159C87.964 109.978 87.7424 109.887 87.4784 109.886C87.2144 109.884 86.9921 109.973 86.8113 110.153C86.6305 110.332 86.5396 110.557 86.5385 110.829C86.5373 111.101 86.6264 111.328 86.8056 111.509ZM92.0386 109.355L92.6746 109.358L92.6626 112.22C92.6607 112.676 92.5092 113.025 92.2082 113.267C91.9072 113.51 91.5427 113.63 91.1147 113.628C90.4227 113.625 89.9497 113.381 89.6957 112.896L90.2551 112.574C90.4098 112.883 90.7011 113.039 91.1291 113.041C91.4091 113.042 91.6274 112.969 91.7841 112.822C91.9447 112.678 92.0255 112.477 92.0266 112.217L92.0281 111.851C91.7827 112.198 91.434 112.37 90.982 112.368C90.558 112.366 90.2006 112.214 89.9099 111.913C89.6191 111.608 89.4747 111.241 89.4765 110.813C89.4783 110.385 89.6258 110.022 89.9191 109.723C90.2123 109.42 90.571 109.27 90.995 109.272C91.447 109.274 91.7942 109.45 92.0368 109.799L92.0386 109.355ZM90.3917 111.489C90.5749 111.67 90.8025 111.761 91.0745 111.762C91.3465 111.764 91.5729 111.675 91.7536 111.495C91.9384 111.316 92.0313 111.093 92.0325 110.825C92.0336 110.557 91.9425 110.332 91.7593 110.151C91.58 109.971 91.3544 109.88 91.0824 109.878C90.8104 109.877 90.5821 109.966 90.3973 110.145C90.2165 110.324 90.1256 110.548 90.1245 110.816C90.1234 111.084 90.2124 111.308 90.3917 111.489ZM95.5443 108.801C95.464 108.88 95.3678 108.92 95.2558 108.919C95.1438 108.919 95.046 108.878 94.9623 108.798C94.8826 108.714 94.8431 108.616 94.8435 108.504C94.844 108.392 94.8844 108.296 94.9647 108.216C95.0451 108.132 95.1433 108.091 95.2593 108.091C95.3753 108.092 95.4731 108.134 95.5527 108.219C95.6324 108.299 95.672 108.395 95.6715 108.507C95.671 108.619 95.6286 108.717 95.5443 108.801ZM94.9173 112.368L94.9299 109.368L95.5779 109.371L95.5653 112.371L94.9173 112.368ZM97.9086 109.304C98.2526 109.305 98.5301 109.417 98.7412 109.637C98.9523 109.858 99.057 110.161 99.0554 110.545L99.0476 112.387L98.3997 112.384L98.4071 110.608C98.4081 110.384 98.3488 110.212 98.2293 110.091C98.1098 109.971 97.946 109.91 97.738 109.909C97.51 109.908 97.3257 109.979 97.1851 110.122C97.0446 110.262 96.9736 110.477 96.9724 110.769L96.9657 112.377L96.3177 112.374L96.3303 109.374L96.9783 109.377L96.9767 109.761C97.1739 109.454 97.4846 109.302 97.9086 109.304Z" fill="#2B2028"/>
<path d="M84.0619 55.716L75.3181 55.6758L75.3107 57.2802L84.0545 57.3205L84.0619 55.716Z" fill="#C29E8A"/>
<path opacity="0.1" d="M84.0619 55.716L75.3181 55.6758L75.3107 57.2802L84.0545 57.3205L84.0619 55.716Z" fill="black"/>
<path d="M109.703 65.5618C109.701 65.555 109.776 65.5659 109.902 65.5149C110.022 65.4686 110.21 65.3235 110.232 65.0572C110.231 64.5149 110.229 63.7268 110.227 62.715C110.227 62.2053 110.227 61.6399 110.226 61.0211C110.227 60.8661 110.227 60.7083 110.227 60.5468C110.231 60.3816 110.231 60.2282 110.131 60.1014C110.042 59.9753 109.889 59.8947 109.729 59.894C109.555 59.8937 109.377 59.8933 109.197 59.893C107.75 59.8903 106.104 59.8869 104.286 59.8835C97.002 59.8563 86.9502 59.8192 75.8478 59.7781C75.7013 59.777 75.5582 59.8488 75.4732 59.9674C75.3786 60.0878 75.3827 60.2296 75.3848 60.4118C75.3834 60.7569 75.3817 61.1007 75.3803 61.4437C75.3773 62.1295 75.3742 62.8105 75.3715 63.4864C75.3701 63.8247 75.3685 64.1613 75.3668 64.4969C75.3722 64.6577 75.3511 64.8502 75.381 64.975C75.4147 65.1113 75.518 65.2269 75.6466 65.2813C75.7135 65.3085 75.7761 65.318 75.857 65.3173L76.1059 65.3187L76.602 65.3211C76.9321 65.3228 77.2609 65.3245 77.5883 65.3262C80.2066 65.3401 82.7325 65.3537 85.139 65.3663C89.9497 65.3955 94.2826 65.4221 97.9237 65.4442C101.558 65.4727 104.501 65.4962 106.543 65.5122C107.555 65.5241 108.344 65.5332 108.886 65.5397C109.149 65.5448 109.351 65.5485 109.495 65.5513C109.632 65.5553 109.703 65.5618 109.703 65.5618C109.703 65.5618 109.632 65.5676 109.495 65.5696C109.351 65.571 109.149 65.573 108.886 65.5757C108.343 65.5771 107.555 65.5791 106.542 65.5815C104.5 65.5788 101.557 65.5747 97.9227 65.57C94.2816 65.5584 89.9487 65.5448 85.1377 65.5298C82.7315 65.5203 80.2056 65.5105 77.5873 65.5003C77.2599 65.4989 76.9311 65.4975 76.6009 65.4962L76.1045 65.4941L75.8557 65.4931C75.7707 65.4948 75.6653 65.4816 75.5782 65.4435C75.4004 65.3687 75.2586 65.2096 75.211 65.0202C75.1842 64.924 75.1903 64.8267 75.1899 64.7482L75.191 64.4969C75.1923 64.1613 75.1937 63.8244 75.195 63.4864C75.1978 62.8102 75.2005 62.1292 75.2032 61.4437C75.2046 61.101 75.2059 60.7569 75.2073 60.4118C75.21 60.3234 75.2022 60.2459 75.2161 60.1402C75.2311 60.0409 75.2695 59.9447 75.3297 59.8637C75.4463 59.6995 75.6469 59.5992 75.8482 59.6016C86.9502 59.6628 97.002 59.7186 104.285 59.7587C106.104 59.7719 107.75 59.7838 109.197 59.7944C109.377 59.7957 109.555 59.7971 109.729 59.7988C109.92 59.8005 110.101 59.8984 110.205 60.048C110.321 60.1946 110.32 60.3952 110.314 60.5475C110.312 60.709 110.311 60.8671 110.31 61.0218C110.304 61.6406 110.299 62.206 110.295 62.7153C110.282 63.7285 110.273 64.5177 110.266 65.0603C110.236 65.3439 110.033 65.4894 109.907 65.5319C109.776 65.5788 109.703 65.5618 109.703 65.5618Z" fill="#E0E0E0"/>
<path d="M93.6597 61.9203L77.665 61.8467L77.6581 63.3464L93.6528 63.42L93.6597 61.9203Z" fill="#C29E8A"/>
<path opacity="0.2" d="M93.6597 61.9203L77.665 61.8467L77.6581 63.3464L93.6528 63.42L93.6597 61.9203Z" fill="white"/>
<path d="M84.0002 70.3576L75.2565 70.3174L75.2491 71.9218L83.9929 71.9621L84.0002 70.3576Z" fill="#C29E8A"/>
<path opacity="0.1" d="M84.0002 70.3576L75.2565 70.3174L75.2491 71.9218L83.9929 71.9621L84.0002 70.3576Z" fill="black"/>
<path d="M109.478 80.2026C109.478 80.1964 109.55 80.2029 109.68 80.1645C109.803 80.124 110.002 80.022 110.111 79.7793C110.169 79.6596 110.175 79.5144 110.17 79.3481C110.169 79.1829 110.168 79.0027 110.168 78.8079C110.167 78.4165 110.166 77.966 110.165 77.4601C110.165 76.9525 110.164 76.3888 110.164 75.7724C110.164 75.618 110.164 75.4606 110.164 75.2998C110.172 75.1372 110.152 74.9866 110.065 74.851C109.984 74.7177 109.851 74.6119 109.696 74.5647C109.544 74.5164 109.362 74.5426 109.182 74.5354C107.74 74.5327 106.1 74.5293 104.287 74.5259C97.0289 74.4991 87.0118 74.4617 75.9482 74.4209C75.6408 74.4134 75.3569 74.664 75.3274 74.9679C75.3172 75.2913 75.3219 75.6486 75.3185 75.9859C75.3155 76.6689 75.3124 77.3479 75.3097 78.0215C75.3083 78.3584 75.3066 78.6943 75.3053 79.0285C75.311 79.1955 75.2872 79.3699 75.3267 79.5032C75.3651 79.6439 75.4549 79.7694 75.5749 79.8517C75.6997 79.9357 75.8346 79.9666 75.9978 79.9605L76.4925 79.9629C76.8217 79.9646 77.1491 79.9663 77.4755 79.968C80.085 79.9816 82.602 79.9952 84.9997 80.0077C89.794 80.037 94.1117 80.0635 97.7402 80.0856C101.362 80.1142 104.295 80.1373 106.329 80.1533C107.338 80.1652 108.124 80.1743 108.664 80.1808C108.927 80.1859 109.128 80.1896 109.272 80.1924C109.408 80.1961 109.478 80.2026 109.478 80.2026C109.478 80.2026 109.408 80.2083 109.271 80.2104C109.128 80.2117 108.926 80.2138 108.664 80.2165C108.124 80.2179 107.338 80.2199 106.329 80.2226C104.295 80.2199 101.362 80.2158 97.7395 80.2111C94.111 80.1998 89.7933 80.1862 84.999 80.1713C82.601 80.1618 80.084 80.1519 77.4748 80.1417C77.1484 80.1403 76.821 80.139 76.4919 80.1376L75.9972 80.1356C75.8309 80.1444 75.6266 80.1043 75.4763 79.9969C75.3223 79.8915 75.2073 79.7306 75.1577 79.5498C75.107 79.3594 75.1373 79.1938 75.1298 79.0279C75.1312 78.6936 75.1322 78.3577 75.1336 78.0208C75.1363 77.3469 75.1393 76.6683 75.1417 75.9849C75.1458 75.6387 75.139 75.3103 75.1516 74.9468C75.1893 74.5555 75.5545 74.2335 75.9489 74.2434C87.0125 74.3046 97.0292 74.36 104.288 74.4001C106.1 74.4134 107.74 74.4253 109.182 74.4362C109.36 74.4457 109.54 74.4168 109.723 74.4732C109.901 74.5286 110.051 74.6504 110.143 74.8027C110.241 74.9519 110.262 75.1427 110.252 75.2998C110.25 75.4606 110.249 75.618 110.248 75.7727C110.243 76.3891 110.238 76.9528 110.233 77.4605C110.228 77.9667 110.223 78.4169 110.219 78.8082C110.217 79.003 110.215 79.1832 110.213 79.3481C110.216 79.5103 110.206 79.6711 110.143 79.7939C110.023 80.0465 109.813 80.1458 109.684 80.1818C109.55 80.2155 109.478 80.2026 109.478 80.2026Z" fill="#E0E0E0"/>
<path d="M83.9346 85.6291L75.1908 85.5889L75.1834 87.1933L83.9272 87.2336L83.9346 85.6291Z" fill="#C29E8A"/>
<path opacity="0.1" d="M83.9346 85.6291L75.1908 85.5889L75.1834 87.1933L83.9272 87.2336L83.9346 85.6291Z" fill="black"/>
<path d="M109.413 95.4727C109.413 95.4666 109.485 95.4731 109.615 95.435C109.739 95.3946 109.937 95.2922 110.046 95.0494C110.104 94.9298 110.11 94.7846 110.105 94.6183C110.104 94.4531 110.103 94.2729 110.103 94.0781C110.102 93.6867 110.101 93.2362 110.1 92.7303C110.1 92.2227 110.1 91.659 110.099 91.0422C110.099 90.8882 110.1 90.7304 110.1 90.5693C110.107 90.4067 110.088 90.2565 110.001 90.1208C109.919 89.9875 109.786 89.8818 109.631 89.8342C109.479 89.7863 109.297 89.8124 109.117 89.805C107.676 89.8019 106.035 89.7988 104.223 89.7954C96.9639 89.7686 86.9472 89.7315 75.8836 89.6904C75.5759 89.6829 75.2923 89.9335 75.2628 90.2374C75.2526 90.5608 75.2573 90.9181 75.2543 91.2554C75.2512 91.9385 75.2481 92.6174 75.2454 93.291C75.2441 93.6279 75.2424 93.9632 75.241 94.2981C75.2468 94.4647 75.2226 94.6391 75.2621 94.7727C75.3005 94.9135 75.3903 95.0389 75.5103 95.1212C75.6351 95.2052 75.77 95.2365 75.9332 95.23L76.4279 95.2324C76.7571 95.2341 77.0845 95.2358 77.4109 95.2375C80.02 95.2514 82.5371 95.2647 84.9351 95.2773C89.7294 95.3068 94.0471 95.333 97.6756 95.3551C101.297 95.3837 104.23 95.4068 106.265 95.4228C107.274 95.4347 108.06 95.4442 108.6 95.4503C108.862 95.4554 109.064 95.4588 109.207 95.4619C109.343 95.4666 109.413 95.4727 109.413 95.4727C109.413 95.4727 109.343 95.4785 109.207 95.4806C109.063 95.4819 108.862 95.484 108.599 95.4867C108.059 95.4881 107.273 95.4901 106.264 95.4928C104.23 95.4898 101.297 95.486 97.6745 95.4813C94.0461 95.47 89.7284 95.4564 84.9341 95.4415C82.536 95.432 80.019 95.4221 77.4099 95.4119C77.0835 95.4105 76.756 95.4088 76.4269 95.4075L75.9322 95.4054C75.766 95.4143 75.5616 95.3738 75.4113 95.2667C75.2573 95.161 75.1424 95.0005 75.0928 94.8196C75.0424 94.6292 75.0724 94.4633 75.0649 94.2977C75.0662 93.9635 75.0676 93.6276 75.069 93.291C75.0717 92.6171 75.0744 91.9381 75.0771 91.255C75.0812 90.9093 75.0744 90.5808 75.087 90.217C75.1247 89.8257 75.4899 89.5037 75.8843 89.5139C86.9479 89.5751 96.9643 89.6305 104.223 89.6706C106.035 89.6839 107.675 89.6958 109.117 89.7064C109.295 89.7155 109.475 89.687 109.659 89.7434C109.836 89.7988 109.986 89.9206 110.078 90.0732C110.176 90.2225 110.197 90.4132 110.187 90.5703C110.186 90.7311 110.184 90.8885 110.183 91.0429C110.178 91.6597 110.173 92.2234 110.169 92.7306C110.163 93.2369 110.159 93.6874 110.155 94.0788C110.152 94.2732 110.15 94.4538 110.148 94.6187C110.151 94.7812 110.141 94.9417 110.077 95.0644C109.958 95.3167 109.748 95.4163 109.619 95.4523C109.485 95.4853 109.413 95.4727 109.413 95.4727Z" fill="#E0E0E0"/>
<path d="M93.5984 76.5619L77.6034 76.4883L77.5965 77.988L93.5915 78.0616L93.5984 76.5619Z" fill="#C29E8A"/>
<path opacity="0.2" d="M93.5984 76.5619L77.6034 76.4883L77.5965 77.988L93.5915 78.0616L93.5984 76.5619Z" fill="white"/>
<path d="M79.0537 92.6973C79.052 93.109 78.7375 93.4415 78.3513 93.4398C77.965 93.4378 77.6536 93.1026 77.6553 92.6908C77.657 92.2791 77.9715 91.9462 78.3577 91.9483C78.744 91.95 79.0554 92.2852 79.0537 92.6973Z" fill="#C29E8A"/>
<path d="M81.2206 92.707C81.2189 93.1188 80.9044 93.4513 80.5181 93.4496C80.1319 93.4479 79.8205 93.1127 79.8222 92.7006C79.8239 92.2888 80.1384 91.9563 80.5246 91.958C80.9108 91.9594 81.2223 92.295 81.2206 92.707Z" fill="#C29E8A"/>
<path d="M83.3873 92.7178C83.3856 93.1295 83.0711 93.4624 82.6849 93.4603C82.2986 93.4586 81.9872 93.1234 81.9889 92.7113C81.9906 92.2996 82.3051 91.9671 82.6913 91.9688C83.0772 91.9705 83.389 92.3057 83.3873 92.7178Z" fill="#C29E8A"/>
<path d="M85.5539 92.7275C85.5522 93.1393 85.2377 93.4721 84.8518 93.4701C84.4655 93.4684 84.1537 93.1332 84.1558 92.7211C84.1575 92.3093 84.472 91.9768 84.8582 91.9785C85.2441 91.9806 85.5559 92.3158 85.5539 92.7275Z" fill="#C29E8A"/>
<path d="M87.721 92.7373C87.7193 93.1494 87.4048 93.4819 87.0186 93.4799C86.6323 93.4782 86.3206 93.1429 86.3223 92.7312C86.3243 92.3191 86.6388 91.9866 87.0247 91.9883C87.411 91.9903 87.7224 92.3256 87.721 92.7373Z" fill="#C29E8A"/>
<path d="M89.8874 92.7471C89.8857 93.1592 89.5712 93.4917 89.185 93.4896C88.7988 93.4879 88.4873 93.1527 88.489 92.741C88.4907 92.3289 88.8052 91.9967 89.1911 91.9981C89.5777 91.9998 89.8891 92.3353 89.8874 92.7471Z" fill="#C29E8A"/>
<path d="M92.0546 92.7575C92.0525 93.1696 91.738 93.5021 91.3521 93.5004C90.9659 93.4983 90.6544 93.1631 90.6561 92.7514C90.6578 92.3393 90.9723 92.0071 91.3582 92.0088C91.7441 92.0105 92.0559 92.3457 92.0546 92.7575Z" fill="#C29E8A"/>
<path d="M94.2211 92.7672C94.2194 93.1793 93.9049 93.5118 93.519 93.5101C93.1327 93.5081 92.821 93.1732 92.823 92.7611C92.8247 92.3494 93.1392 92.0169 93.5251 92.0186C93.9113 92.0203 94.2228 92.3555 94.2211 92.7672Z" fill="#C29E8A"/>
<path d="M96.3879 92.7773C96.3862 93.1891 96.0717 93.5216 95.6858 93.5199C95.2996 93.5182 94.9878 93.183 94.9895 92.7709C94.9915 92.3591 95.306 92.027 95.6919 92.0283C96.0782 92.0297 96.3896 92.3653 96.3879 92.7773Z" fill="#C29E8A"/>
<g opacity="0.2">
<path d="M79.0537 92.6973C79.052 93.109 78.7375 93.4415 78.3513 93.4398C77.965 93.4378 77.6536 93.1026 77.6553 92.6908C77.657 92.2791 77.9715 91.9462 78.3577 91.9483C78.744 91.95 79.0554 92.2852 79.0537 92.6973Z" fill="white"/>
<path d="M81.2206 92.707C81.2189 93.1188 80.9044 93.4513 80.5181 93.4496C80.1319 93.4479 79.8205 93.1127 79.8222 92.7006C79.8239 92.2888 80.1384 91.9563 80.5246 91.958C80.9108 91.9594 81.2223 92.295 81.2206 92.707Z" fill="white"/>
<path d="M83.3873 92.7178C83.3856 93.1295 83.0711 93.4624 82.6849 93.4603C82.2986 93.4586 81.9872 93.1234 81.9889 92.7113C81.9906 92.2996 82.3051 91.9671 82.6913 91.9688C83.0772 91.9705 83.389 92.3057 83.3873 92.7178Z" fill="white"/>
<path d="M85.5539 92.7275C85.5522 93.1393 85.2377 93.4721 84.8518 93.4701C84.4655 93.4684 84.1537 93.1332 84.1558 92.7211C84.1575 92.3093 84.472 91.9768 84.8582 91.9785C85.2441 91.9806 85.5559 92.3158 85.5539 92.7275Z" fill="white"/>
<path d="M87.721 92.7373C87.7193 93.1494 87.4048 93.4819 87.0186 93.4799C86.6323 93.4782 86.3206 93.1429 86.3223 92.7312C86.3243 92.3191 86.6388 91.9866 87.0247 91.9883C87.411 91.9903 87.7224 92.3256 87.721 92.7373Z" fill="white"/>
<path d="M89.8874 92.7471C89.8857 93.1592 89.5712 93.4917 89.185 93.4896C88.7988 93.4879 88.4873 93.1527 88.489 92.741C88.4907 92.3289 88.8052 91.9967 89.1911 91.9981C89.5777 91.9998 89.8891 92.3353 89.8874 92.7471Z" fill="white"/>
<path d="M92.0546 92.7575C92.0525 93.1696 91.738 93.5021 91.3521 93.5004C90.9659 93.4983 90.6544 93.1631 90.6561 92.7514C90.6578 92.3393 90.9723 92.0071 91.3582 92.0088C91.7441 92.0105 92.0559 92.3457 92.0546 92.7575Z" fill="white"/>
<path d="M94.2211 92.7672C94.2194 93.1793 93.9049 93.5118 93.519 93.5101C93.1327 93.5081 92.821 93.1732 92.823 92.7611C92.8247 92.3494 93.1392 92.0169 93.5251 92.0186C93.9113 92.0203 94.2228 92.3555 94.2211 92.7672Z" fill="white"/>
<path d="M96.3879 92.7773C96.3862 93.1891 96.0717 93.5216 95.6858 93.5199C95.2996 93.5182 94.9878 93.183 94.9895 92.7709C94.9915 92.3591 95.306 92.027 95.6919 92.0283C96.0782 92.0297 96.3896 92.3653 96.3879 92.7773Z" fill="white"/>
</g>
<path d="M93.3106 43.6927C93.7683 43.5006 94.0937 43.029 94.0964 42.4731C94.0994 41.7448 93.5483 41.1518 92.8652 41.1484C92.1825 41.1454 91.6263 41.7332 91.6236 42.4615C91.6212 43.0225 91.9489 43.5002 92.4113 43.6927C90.5084 43.9793 90.5947 46.0475 90.5947 46.0475L95.0943 46.0682C95.0943 46.0682 95.197 43.9776 93.3106 43.6927Z" fill="#C29E8A"/>
<path opacity="0.1" d="M93.3106 43.6927C93.7683 43.5006 94.0937 43.029 94.0964 42.4731C94.0994 41.7448 93.5483 41.1518 92.8652 41.1484C92.1825 41.1454 91.6263 41.7332 91.6236 42.4615C91.6212 43.0225 91.9489 43.5002 92.4113 43.6927C90.5084 43.9793 90.5947 46.0475 90.5947 46.0475L95.0943 46.0682C95.0943 46.0682 95.197 43.9776 93.3106 43.6927Z" fill="black"/>
<path d="M100.625 47.4215L84.5791 47.3477L84.5703 49.2663L100.616 49.3401L100.625 47.4215Z" fill="#C29E8A"/>
<path opacity="0.2" d="M100.625 47.4215L84.5791 47.3477L84.5703 49.2663L100.616 49.3401L100.625 47.4215Z" fill="white"/>
<path d="M41.6381 57.3503C41.6381 57.3537 41.5844 57.3595 41.4803 57.368C41.3678 57.3761 41.2145 57.3874 41.0176 57.4016C40.8133 57.405 40.5647 57.4496 40.2716 57.5013C40.1258 57.5308 39.9646 57.5427 39.8001 57.5914C39.6348 57.6373 39.459 57.6859 39.2731 57.7376C38.5393 57.9691 37.6557 58.337 36.7659 58.9813C35.8785 59.6205 34.9908 60.5347 34.2989 61.7275C33.9351 62.3136 33.6712 62.9906 33.4342 63.7022C33.2415 64.4264 33.0708 65.1958 33.0579 66.0067C33.0218 66.411 33.0626 66.8217 33.0796 67.2392C33.0905 67.448 33.1354 67.6547 33.1622 67.8651C33.1908 68.0756 33.2217 68.2871 33.2816 68.4948C33.4536 69.3401 33.798 70.1686 34.2336 70.9625C35.1043 72.5565 36.5677 73.9297 38.3748 74.7257C39.2788 75.1245 40.2784 75.3397 41.295 75.3815C42.3127 75.4461 43.3551 75.2826 44.3431 74.9429L44.642 74.8331L44.6814 74.8188L44.7171 74.8368C46.1802 75.5797 47.615 76.308 49.0052 77.0139L48.8777 77.1227C48.4197 75.7015 47.976 74.3238 47.55 73.0015L47.5337 72.9505L47.5714 72.9128C48.6523 71.8306 49.4054 70.5158 49.8229 69.1697C50.2415 67.8196 50.3129 66.4446 50.1497 65.1846C49.9865 63.9218 49.5737 62.7736 49.0232 61.8074C48.4731 60.8384 47.789 60.0513 47.0869 59.4365C46.3767 58.8262 45.6402 58.4128 44.9803 58.0963C44.3044 57.8134 43.7019 57.6322 43.2011 57.5356C42.9508 57.4928 42.7281 57.455 42.534 57.422C42.3416 57.4084 42.1777 57.3972 42.042 57.3877C41.9155 57.3778 41.8159 57.3704 41.7404 57.3646C41.6728 57.3574 41.6381 57.353 41.6381 57.3503C41.6381 57.3479 41.6728 57.3472 41.7408 57.3483C41.8163 57.3503 41.9162 57.3534 42.0434 57.3568C42.1797 57.3622 42.345 57.369 42.5388 57.3768C42.7346 57.4061 42.9593 57.4394 43.212 57.4771C43.7179 57.5655 44.3282 57.7393 45.0146 58.0174C45.6844 58.3292 46.4338 58.7406 47.158 59.3526C47.874 59.9686 48.5727 60.7619 49.1368 61.7414C49.7009 62.7182 50.1265 63.882 50.2979 65.1642C50.4693 66.4433 50.4019 67.8413 49.9803 69.2166C49.5598 70.5879 48.7961 71.9298 47.6959 73.0355L47.7173 72.9468C48.145 74.268 48.5911 75.6454 49.0511 77.0659L49.1184 77.2736L48.9236 77.175C47.5327 76.4699 46.0979 75.7426 44.6342 75.0004L44.7093 75.0041L44.404 75.1163C43.3939 75.4638 42.3276 75.6301 41.2876 75.5641C40.2489 75.5209 39.2268 75.2996 38.3037 74.8909C36.4579 74.0759 34.969 72.671 34.086 71.0452C33.644 70.2353 33.2969 69.3904 33.1238 68.5298C33.064 68.3184 33.0334 68.1031 33.0048 67.8889C32.9783 67.6751 32.9338 67.4643 32.9232 67.2521C32.9072 66.8278 32.8675 66.4099 32.9059 65.9996C32.9225 65.1757 33.099 64.3944 33.2989 63.6604C33.543 62.9389 33.815 62.2538 34.1873 61.6612C34.8962 60.4559 35.8027 59.5362 36.7067 58.8973C37.6128 58.2533 38.5101 57.8916 39.2533 57.6685C39.4414 57.6196 39.6195 57.573 39.7868 57.5295C39.9531 57.4832 40.1159 57.4737 40.2631 57.4472C40.5593 57.4006 40.8095 57.3619 41.0152 57.3646C41.2131 57.3578 41.3675 57.353 41.4807 57.3489C41.5847 57.3469 41.6381 57.3472 41.6381 57.3503Z" fill="#C29E8A"/>
<path d="M43.5771 65.2887H42.9488L41.5776 63.3776V62.1233C41.5776 62.1233 40.6065 62.0635 40.7204 63.706C40.8347 65.3486 40.7113 64.9304 40.7113 64.9304C40.7113 64.9304 38.6492 64.9382 38.4778 65.1174C38.353 65.2476 38.2969 67.2961 38.2752 68.4069C38.2643 68.9662 38.6073 69.4864 39.1275 69.6186C39.2013 69.6377 39.2761 69.6485 39.3496 69.6485C39.864 69.6485 42.4918 69.2303 42.4918 69.2303H43.5771V65.2887Z" fill="#C29E8A"/>
<path d="M45.3757 64.9443L44.9894 69.2419H43.9133V65.031L45.3757 64.9443Z" fill="#C29E8A"/>
<path d="M58.191 152.436V149.527L52.9785 149.492L52.9353 153.887L53.2583 153.911C54.6962 154.004 60.5754 154.139 61.5387 153.841C62.6134 153.509 58.191 152.436 58.191 152.436Z" fill="#C29E8A"/>
<path d="M61.6621 153.568C61.6621 153.617 59.7122 153.657 57.3077 153.657C54.9022 153.657 52.953 153.617 52.953 153.568C52.953 153.519 54.9022 153.479 57.3077 153.479C59.7122 153.48 61.6621 153.519 61.6621 153.568Z" fill="#263238"/>
<path d="M58.2825 153.03C58.2397 153.008 58.2764 152.854 58.3883 152.702C58.4998 152.55 58.6361 152.47 58.6701 152.504C58.7051 152.539 58.6337 152.667 58.5307 152.808C58.4277 152.947 58.3264 153.054 58.2825 153.03Z" fill="#263238"/>
<path d="M58.615 153.222C58.5698 153.205 58.5932 153.032 58.6956 152.851C58.7976 152.669 58.9332 152.56 58.971 152.59C59.0101 152.62 58.9445 152.769 58.8496 152.938C58.7547 153.106 58.6616 153.24 58.615 153.222Z" fill="#263238"/>
<path d="M54.5235 153.555C54.5031 153.57 54.4256 153.493 54.3127 153.365C54.1991 153.238 54.0505 153.059 53.8554 152.907C53.6619 152.756 53.4487 152.68 53.2913 152.661C53.1329 152.639 53.0288 152.664 53.02 152.639C53.0108 152.62 53.1077 152.547 53.2957 152.536C53.4807 152.523 53.7422 152.593 53.9635 152.767C54.1835 152.938 54.3242 153.143 54.4137 153.291C54.5027 153.441 54.5429 153.542 54.5235 153.555Z" fill="#263238"/>
<path d="M58.2985 152.483C58.324 152.525 58.2346 152.626 58.0856 152.68C57.9371 152.735 57.8031 152.716 57.7963 152.668C57.7885 152.619 57.8942 152.562 58.0244 152.514C58.155 152.466 58.2726 152.441 58.2985 152.483Z" fill="#263238"/>
<path d="M58.2168 152.202C58.2216 152.251 58.0825 152.292 57.9068 152.294C57.7306 152.297 57.5906 152.259 57.5943 152.21C57.5977 152.161 57.7364 152.12 57.9044 152.117C58.072 152.115 58.2121 152.153 58.2168 152.202Z" fill="#263238"/>
<path d="M71.0264 152.436L71.0267 149.527L65.8142 149.492L65.771 153.842L66.094 153.866C67.5319 153.959 73.4111 154.139 74.3747 153.841C75.4491 153.509 71.0264 152.436 71.0264 152.436Z" fill="#C29E8A"/>
<path d="M74.4978 153.575C74.4978 153.624 72.5482 153.664 70.1434 153.664C67.7379 153.664 65.7887 153.624 65.7887 153.575C65.7887 153.526 67.7379 153.486 70.1434 153.486C72.5479 153.486 74.4978 153.526 74.4978 153.575Z" fill="#263238"/>
<path d="M71.1182 153.03C71.0754 153.008 71.1121 152.854 71.2243 152.702C71.3358 152.55 71.4721 152.47 71.5061 152.504C71.5412 152.539 71.4698 152.667 71.3667 152.808C71.2634 152.947 71.1617 153.054 71.1182 153.03Z" fill="#263238"/>
<path d="M71.4507 153.222C71.4055 153.205 71.4289 153.032 71.5313 152.851C71.6333 152.669 71.7689 152.56 71.8067 152.59C71.8458 152.62 71.7801 152.769 71.6856 152.938C71.5904 153.106 71.4969 153.24 71.4507 153.222Z" fill="#263238"/>
<path d="M67.3588 153.555C67.3384 153.57 67.2609 153.493 67.148 153.365C67.0348 153.238 66.8859 153.059 66.6907 152.907C66.4973 152.756 66.2844 152.68 66.1267 152.661C65.9682 152.639 65.8642 152.664 65.8553 152.639C65.8462 152.62 65.9431 152.547 66.1307 152.536C66.3157 152.523 66.5775 152.593 66.7985 152.767C67.0188 152.938 67.1589 153.143 67.2487 153.291C67.3384 153.441 67.3785 153.542 67.3588 153.555Z" fill="#263238"/>
<path d="M71.1342 152.483C71.1597 152.525 71.0703 152.626 70.9217 152.68C70.7728 152.735 70.6391 152.716 70.632 152.668C70.6242 152.619 70.7299 152.562 70.8601 152.514C70.9907 152.466 71.1083 152.441 71.1342 152.483Z" fill="#263238"/>
<path d="M71.0522 152.202C71.0569 152.251 70.9179 152.292 70.7421 152.294C70.566 152.297 70.4262 152.259 70.4296 152.21C70.433 152.161 70.5721 152.12 70.74 152.117C70.9077 152.115 71.0474 152.153 71.0522 152.202Z" fill="#263238"/>
<path d="M90.2285 66.1119C90.0925 65.9718 89.758 66.0377 89.758 66.0377C89.758 66.0377 89.8164 65.6403 89.7546 65.4482C89.693 65.2561 89.2646 65.2931 89.2646 65.2931C89.2646 65.2931 89.2381 65.1082 89.2755 64.8097C89.285 64.7349 89.2435 64.6798 89.1759 64.6386C88.9729 64.5159 88.5353 64.5217 88.5353 64.5217C88.2728 64.334 89.335 62.8489 89.7287 62.3736C90.118 61.904 90.0524 61.5276 89.7012 61.5283C89.4618 61.5287 88.2218 62.9563 87.8434 63.4357C87.4653 63.9148 86.4508 65.2479 86.4164 64.1841C86.3818 63.1202 85.9544 62.3154 85.6871 62.1784C85.4199 62.0414 85.1316 62.363 85.2795 62.6585C85.3992 62.8972 85.4746 63.3572 85.5175 63.705C85.5528 63.992 85.5409 64.283 85.4784 64.5649C85.3009 65.3618 85.1102 65.8793 85.0207 66.1006L84.9946 66.086C84.9946 66.086 77.5734 73.2019 77.0386 73.7098C76.5571 74.1668 66.914 73.1692 64.9822 72.9642C64.4541 72.9051 63.6721 72.799 62.9945 72.8289C62.1564 72.8656 62.0075 72.9846 61.1687 72.9958C58.6004 73.0302 56.4601 73.2801 54.8672 73.5497C52.9414 73.8754 51.3624 75.2463 50.7664 77.1064C48.8165 83.1914 44.4054 97.5976 43.6193 105.691C43.0001 106.855 42.3082 108.215 42.0271 108.98C41.4807 110.467 41.6133 110.518 41.7976 110.552C42.2919 110.644 42.8577 107.972 43.0688 108.617C43.2803 109.262 41.9971 111.804 42.5177 111.878C43.1963 111.975 43.7373 109.168 43.8005 108.933C43.862 108.706 44.2044 108.783 44.1361 108.991C44.0375 109.291 43.0807 112.463 43.7464 112.565C44.1153 112.621 44.1551 111.949 44.1551 111.949C44.1551 111.949 44.8317 108.915 45.1442 108.974C45.4617 109.033 45.1245 110.828 44.9677 111.425C44.813 112.015 45.031 112.328 45.3492 112.18C45.5661 112.078 46.0887 110.261 46.2295 109.667C46.3706 109.073 46.7279 107.436 47.208 108.386C47.6881 109.336 48.4146 109.886 48.7149 109.898C49.0147 109.909 49.1405 109.496 48.8818 109.291C48.6727 109.125 48.4102 108.739 48.2246 108.442C48.0716 108.197 47.9594 107.928 47.8975 107.646C47.6585 106.558 47.6605 105.925 47.6605 105.925L47.6051 105.575C48.3664 101.804 50.5611 90.7384 53.7135 83.6691L55.0117 86.3405L55.575 88.3179L52.1155 96.8652L66.876 96.6707L64.6755 88.1915L67.3489 79.3498H67.3486C70.242 79.4144 77.6733 79.5221 78.9222 78.9639C80.479 78.2682 88.5367 68.1111 88.5367 68.1111H88.5363C89.0807 67.6776 89.6342 67.2114 90.0425 66.8044C90.0432 66.8038 90.5236 66.4151 90.2285 66.1119Z" fill="#FFBE9D"/>
<path d="M51.4733 90.5722C51.9007 89.1106 54.1011 81.8829 54.1011 81.8829C54.1011 81.8829 55.181 87.7754 54.8971 88.485C54.57 89.3027 53.9689 90.2384 53.9689 90.2384C51.4733 94.0392 51.8007 95.9388 51.8007 95.9388L66.8763 95.4791C66.913 93.3708 65.6649 88.469 65.4041 87.688C65.143 86.907 66.0086 84.3438 66.0086 84.3438C66.0086 84.3438 67.7124 82.6135 67.6464 81.7231C67.5135 79.9292 67.3492 79.3499 67.3492 79.3499L76.5224 79.6875L76.2341 73.4631L63.0479 72.1436C62.5916 73.442 58.4392 72.8059 58.4392 72.8059C53.9563 72.9531 53.685 73.7776 51.8153 75.225C49.946 76.6724 46.8673 89.1034 46.8673 89.1034L51.4733 90.5722Z" fill="#C29E8A"/>
<path d="M60.3891 89.1025C60.3888 89.126 60.0855 89.146 59.5945 89.1426C59.1039 89.1396 58.4256 89.109 57.6803 89.0345C56.9347 88.959 56.2642 88.854 55.7824 88.7591C55.301 88.6646 55.0076 88.5847 55.012 88.5616C55.0168 88.5368 55.3177 88.5731 55.8025 88.6357C56.2874 88.6986 56.9565 88.7836 57.698 88.8581C58.4392 88.9325 59.1117 88.9825 59.5993 89.0175C60.0872 89.0529 60.3895 89.077 60.3891 89.1025Z" fill="#263238"/>
<path d="M61.4211 87.8204C61.4275 87.8422 61.1164 87.9601 60.5979 88.1009C60.0798 88.2413 59.3518 88.3967 58.5372 88.494C57.7222 88.5902 56.9779 88.6102 56.4411 88.5946C55.9039 88.5793 55.5741 88.5368 55.5754 88.5147C55.5765 88.4885 55.9076 88.4861 56.4407 88.4695C56.9739 88.4528 57.7089 88.4137 58.5161 88.3182C59.3226 88.222 60.0468 88.0876 60.569 87.9792C61.0913 87.8704 61.4139 87.7949 61.4211 87.8204Z" fill="#263238"/>
<path d="M66.4921 82.1007C66.5155 82.1058 66.4768 82.3995 66.3891 82.8697C66.3013 83.34 66.1636 83.986 65.9899 84.6945C65.8158 85.4034 65.6394 86.0402 65.4996 86.4975C65.3599 86.9552 65.2586 87.2336 65.2351 87.2272C65.2113 87.2204 65.2701 86.9304 65.3786 86.4652C65.5071 85.9345 65.655 85.3252 65.8179 84.6527C65.9845 83.9812 66.1354 83.3729 66.267 82.8429C66.3857 82.3798 66.4679 82.0956 66.4921 82.1007Z" fill="#263238"/>
<path d="M51.6314 89.7058C51.6185 89.7531 50.5787 89.5106 49.3092 89.1642C48.0393 88.8174 47.0206 88.4988 47.0336 88.4512C47.0465 88.4039 48.0859 88.6467 49.3558 88.9932C50.6253 89.3396 51.6443 89.6589 51.6314 89.7058Z" fill="#263238"/>
<path d="M67.5155 79.27C67.5155 79.2782 67.3757 79.2928 67.1251 79.268C66.8759 79.2425 66.5111 79.1844 66.0885 79.0208C65.6655 78.8624 65.1848 78.5975 64.7356 78.197C64.2865 77.7982 63.8849 77.2494 63.6289 76.6038C63.3688 75.9584 63.2835 75.2859 63.3243 74.6872C63.3637 74.0895 63.5222 73.5492 63.7897 73.1708C64.0546 72.7873 64.4058 72.6016 64.6503 72.5374C64.774 72.5044 64.874 72.4966 64.9406 72.4983C65.0076 72.5 65.042 72.5074 65.042 72.5129C65.0426 72.5295 64.9009 72.5217 64.671 72.603C64.4453 72.6839 64.1277 72.8746 63.8938 73.2408C63.431 73.9684 63.3018 75.2968 63.7938 76.5385C64.0403 77.1593 64.4194 77.6863 64.8458 78.0766C65.2718 78.4687 65.7301 78.7362 66.1354 78.9049C66.9521 79.2435 67.5216 79.2323 67.5155 79.27Z" fill="#263238"/>
<path d="M75.4405 79.5631C75.3919 79.5631 75.3548 78.1602 75.3582 76.43C75.3616 74.699 75.4041 73.2969 75.4528 73.2969C75.5017 73.2972 75.5385 74.6997 75.5351 76.4303C75.532 78.1606 75.4895 79.5634 75.4405 79.5631Z" fill="#263238"/>
<path d="M62.9673 72.5221C63.0044 71.7632 63.0839 70.9061 63.0839 70.9061C63.0839 70.9061 64.9601 70.6994 65.074 68.761C65.1879 66.8227 65.074 62.3534 65.074 62.3534L61.6566 60.6133L57.8976 63.5798L58.4671 73.2701L61.9259 73.4901C62.4713 73.5248 62.9394 73.0903 62.9673 72.5221Z" fill="#FFBE9D"/>
<path d="M63.3053 67.2285C63.3107 67.2299 63.311 67.2649 63.2757 67.3118C63.241 67.3574 63.1652 67.409 63.0598 67.407C62.8418 67.3965 62.6324 67.1557 62.5552 66.862C62.5165 66.7127 62.5168 66.5614 62.546 66.4312C62.5692 66.303 62.6433 66.1742 62.75 66.1391C62.801 66.1201 62.8541 66.1221 62.8945 66.1425C62.9343 66.1626 62.9588 66.1929 62.9714 66.2207C62.9969 66.2785 62.9772 66.3136 62.9721 66.3108C62.9642 66.3105 62.9663 66.2785 62.9377 66.2422C62.9109 66.2051 62.8469 66.1714 62.7762 66.2082C62.7041 66.2408 62.6548 66.3329 62.6365 66.4509C62.6151 66.5679 62.6178 66.7022 62.6521 66.8351C62.7201 67.0983 62.9027 67.3138 63.0649 67.3332C63.1451 67.3434 63.2118 67.3125 63.2478 67.2832C63.2852 67.2526 63.2981 67.2251 63.3053 67.2285Z" fill="#EB996E"/>
<path d="M66.2392 61.3075C65.978 60.4153 65.0294 59.972 64.1652 59.7272C62.8504 59.3545 61.4261 59.1896 60.1416 59.6626C58.8571 60.1355 57.3121 60.9675 57.3125 62.3867C56.5543 62.3241 56.1211 62.9885 55.8202 63.8116C55.6424 64.2978 55.5254 64.8391 55.4979 65.3753L55.4853 65.3712C55.3877 67.2286 54.8702 69.7878 53.666 71.1617C53.0009 71.9203 52.0435 72.4442 51.6559 73.3891C51.3189 74.2102 51.4934 75.1805 51.1748 76.0094C50.8936 76.7411 50.2711 77.2606 49.8246 77.8971C48.8526 79.2836 48.7863 81.2424 49.5006 82.7897C50.215 84.3371 51.6304 85.4693 53.2015 85.9881C54.7727 86.5069 56.4842 86.4498 58.0832 86.0337C59.2637 85.7263 60.4122 85.2177 61.353 84.4136C62.2938 83.6095 63.0156 82.4919 63.2308 81.2441C63.4702 79.8552 63.0816 78.4449 62.7956 77.0655C61.8912 72.7016 62.1496 72.4748 63.291 68.4268C63.3169 68.3554 63.3328 68.2809 63.3526 68.2075C63.3675 68.1537 63.3821 68.1024 63.3974 68.0473L63.3951 68.0466C63.427 67.8882 63.4478 67.727 63.4484 67.5625C63.118 67.6927 62.7188 67.606 62.4652 67.3496C62.2119 67.0933 62.1173 66.6798 62.2326 66.332C62.3652 65.9318 62.7324 65.6646 63.1095 65.5058C63.4865 65.347 63.8921 65.2685 64.2624 65.0927C65.0475 64.7191 65.5918 63.9439 65.9621 63.1316C66.2222 62.5621 66.4156 61.91 66.2392 61.3075Z" fill="#263238"/>
<path d="M63.4395 67.3107C63.4514 67.3056 63.5174 67.4321 63.6184 67.6466C63.7194 67.8612 63.8547 68.1641 64.0053 68.5123L64.0335 68.5782L63.9614 68.5843C63.8482 68.5942 63.7336 68.6041 63.6153 68.6143C63.378 68.6296 63.1801 68.6581 62.9503 68.6557C62.9139 68.6493 62.8734 68.616 62.8626 68.5786C62.8503 68.5418 62.8537 68.5109 62.8575 68.484C62.8673 68.4307 62.8792 68.3912 62.8894 68.346L62.9496 68.1053C63.0247 67.8115 63.0785 67.6313 63.0927 67.6347C63.107 67.6381 63.0791 67.8241 63.0227 68.1216L62.9754 68.3647C62.9581 68.447 62.9282 68.5697 62.9724 68.5602C63.1417 68.5531 63.3828 68.5248 63.6065 68.5082C63.7248 68.4987 63.8394 68.4898 63.9526 68.4806L63.9091 68.5527C63.7636 68.2029 63.6401 67.8945 63.5558 67.6728C63.4725 67.4515 63.4276 67.3158 63.4395 67.3107Z" fill="#C29E8A"/>
<path d="M51.8007 95.9382L66.8764 95.4785L73.4332 121.094L72.2256 150.476H64.2461L65.2348 121.719L59.4031 103.888L60.3018 151.616L52.2458 151.735L51.3972 106.872C51.3618 105.625 50.9514 102.812 51.1041 101.575L51.8007 95.9382Z" fill="#263238"/>
<path d="M61.4112 104.25C61.4082 104.273 61.1253 104.259 60.6717 104.206C60.2182 104.152 59.5943 104.057 58.9109 103.92C58.2275 103.782 57.6151 103.629 57.1762 103.502C56.7373 103.376 56.471 103.28 56.4772 103.257C56.4908 103.208 57.5852 103.473 58.9459 103.746C60.3056 104.021 61.4177 104.199 61.4112 104.25Z" fill="#455A64"/>
<path d="M72.1532 148.865C72.1532 148.914 70.3464 148.954 68.1188 148.954C65.8901 148.954 64.084 148.914 64.084 148.865C64.084 148.816 65.8901 148.776 68.1188 148.776C70.3464 148.777 72.1532 148.816 72.1532 148.865Z" fill="#455A64"/>
<path d="M60.2297 150.376C60.2297 150.425 58.4774 150.464 56.3157 150.464C54.1536 150.464 52.4012 150.425 52.4012 150.376C52.4012 150.327 54.1536 150.287 56.3157 150.287C58.4774 150.287 60.2297 150.327 60.2297 150.376Z" fill="#455A64"/>
<path d="M59.1921 150.253C59.1431 150.254 58.9313 139.825 58.7188 126.962C58.5063 114.095 58.3737 103.667 58.4226 103.666C58.4716 103.665 58.6834 114.092 58.8959 126.959C59.1084 139.822 59.241 150.252 59.1921 150.253Z" fill="#455A64"/>
<path d="M71.0814 148.865C71.0784 148.865 71.0773 148.817 71.0777 148.726C71.0794 148.626 71.0821 148.491 71.0852 148.319C71.0957 147.951 71.111 147.425 71.1304 146.753C71.178 145.385 71.246 143.42 71.3303 140.997C71.5163 136.129 71.773 129.419 72.0565 122.008C72.0593 121.939 72.062 121.871 72.0644 121.808L72.0671 121.833C70.2804 114.678 68.6654 108.211 67.4944 103.523C66.9198 101.187 66.4544 99.295 66.13 97.9764C65.9743 97.3284 65.8529 96.8215 65.7679 96.4672C65.7298 96.3009 65.7002 96.1707 65.6781 96.0738C65.6588 95.9847 65.6503 95.9392 65.6533 95.9385C65.656 95.9378 65.6703 95.9823 65.6955 96.0697C65.7217 96.1653 65.757 96.2945 65.8022 96.459C65.8951 96.8116 66.0273 97.3158 66.1966 97.9605C66.5339 99.2752 67.0177 101.163 67.6151 103.493C68.799 108.178 70.432 114.641 72.2384 121.79L72.2415 121.802L72.2412 121.815C72.2388 121.878 72.2357 121.946 72.2333 122.015C71.9297 129.425 71.6547 136.134 71.4551 141.002C71.3473 143.424 71.2599 145.387 71.1991 146.756C71.1651 147.428 71.1389 147.953 71.1205 148.32C71.11 148.492 71.1018 148.627 71.0957 148.727C71.0892 148.818 71.0845 148.865 71.0814 148.865Z" fill="#455A64"/>
<path d="M68.4809 121.211C68.489 121.259 67.6999 121.434 66.718 121.603C65.9849 121.729 65.3518 121.816 65.0754 121.831L65.0751 121.762C65.1669 121.787 65.2162 121.807 65.2141 121.819C65.2124 121.832 65.1591 121.835 65.0642 121.831L64.8582 121.822L65.0639 121.762C65.3297 121.684 65.9553 121.555 66.6884 121.429C67.6696 121.26 68.4724 121.162 68.4809 121.211Z" fill="#455A64"/>
<path d="M68.3282 122.188C68.3214 122.237 67.6131 122.183 66.741 122.116C65.8689 122.047 65.1607 121.991 65.1617 121.941C65.1628 121.893 65.8771 121.87 66.755 121.939C67.6322 122.006 68.3346 122.14 68.3282 122.188Z" fill="#455A64"/>
<path opacity="0.2" d="M51.7338 96.4798C52.0982 96.9929 52.6181 97.1727 53.2223 97.2717C53.8261 97.3706 54.4425 97.3047 55.0505 97.237C58.9418 96.8052 63.0653 96.4071 66.8763 95.4785C61.9433 95.7549 56.7338 95.6618 51.8007 95.9382C51.8007 95.9382 51.7586 96.2775 51.7487 96.3591" fill="black"/>
<g opacity="0.2">
<path d="M56.8188 103.434L59.598 114.223L59.4035 103.888L56.8188 103.434Z" fill="black"/>
</g>
</svg>
