<svg width="13" height="13" viewBox="0 0 13 13" fill="none" xmlns="http://www.w3.org/2000/svg">
<path id="Icon" fill-rule="evenodd" clip-rule="evenodd" d="M6.14464 0C2.75105 0 0 2.75105 0 6.14464C0 7.06446 0.202778 7.93894 0.566533 8.72417L1.24706 8.40892L0.566533 8.72417C0.844073 9.32329 0.926327 9.52287 0.840821 9.82041C0.82421 9.87821 0.800443 9.92979 0.75387 10.0309C0.737408 10.0666 0.718097 10.1085 0.695246 10.159C0.625929 10.3124 0.516735 10.5636 0.492708 10.8561C0.42395 11.6933 1.16119 12.3717 1.98975 12.2336L1.86713 11.4976L1.98976 12.2336C2.39473 12.1661 2.75595 11.9781 2.96614 11.8687C3.01057 11.8456 3.04825 11.826 3.07817 11.8118C3.268 11.7216 3.37637 11.6947 3.55912 11.7377C3.55908 11.7377 3.55921 11.7377 3.5595 11.7378C3.56404 11.7391 3.60848 11.7522 3.73609 11.7965C3.85861 11.839 4.02799 11.8995 4.26084 11.9828L4.50189 11.309L4.26084 11.9828C4.84145 12.1905 5.45534 12.2893 6.14464 12.2893C9.53823 12.2893 12.2893 9.53823 12.2893 6.14464C12.2893 2.75105 9.53823 0 6.14464 0ZM3.98682 4.31572C3.5726 4.31572 3.23682 4.65151 3.23682 5.06572C3.23682 5.47993 3.5726 5.81572 3.98682 5.81572H8.30253C8.71674 5.81572 9.05253 5.47993 9.05253 5.06572C9.05253 4.65151 8.71674 4.31572 8.30253 4.31572H3.98682ZM3.23682 7.2236C3.23682 6.80939 3.5726 6.4736 3.98682 6.4736H6.14467C6.55888 6.4736 6.89467 6.80939 6.89467 7.2236C6.89467 7.63782 6.55888 7.9736 6.14467 7.9736H3.98682C3.5726 7.9736 3.23682 7.63782 3.23682 7.2236Z" fill="#80797E"/>
</svg>
