<svg width="30" height="30" viewBox="0 0 30 30" fill="none" xmlns="http://www.w3.org/2000/svg">
<path d="M24.4641 15.0461C24.4641 9.95927 20.2182 5.82104 15 5.82104C9.78106 5.82104 5.53522 9.95927 5.53522 15.0461C5.53522 20.1329 9.781 24.2718 15 24.2718C20.2182 24.2718 24.4641 20.1329 24.4641 15.0461ZM14.119 20.466V19.5766C13.4871 19.5766 12.8604 19.524 12.1086 19.0014C11.7086 18.7236 11.6099 18.1743 11.8877 17.7748C12.1655 17.3753 12.7141 17.2761 13.1141 17.5539C13.352 17.7196 13.6245 17.8118 13.8812 17.8142H16.0002C16.0049 17.8142 16.0091 17.8148 16.0138 17.8148C16.5265 17.8148 16.9535 17.3981 16.9535 16.8707C16.9535 16.3508 16.5317 15.9273 16.0138 15.9273H13.9863C12.4963 15.9273 11.284 14.7135 11.284 13.2214C11.284 11.852 12.3213 10.5156 14.1191 10.5156V9.62673C14.1191 9.14029 14.5132 8.74554 15.0001 8.74554C15.4864 8.74554 15.8811 9.14029 15.8811 9.62673V10.5156C16.8301 10.5156 17.639 10.9075 18.214 11.5225C18.5464 11.8779 18.5276 12.4354 18.1722 12.7679C17.8169 13.1004 17.2596 13.0816 16.9271 12.7262C16.664 12.4447 16.3052 12.2815 15.9416 12.278H13.9858C13.4681 12.278 13.0461 12.6997 13.0461 13.2214C13.0461 13.7419 13.4679 14.1649 13.9864 14.1649H16.0139C17.5033 14.1649 18.7156 15.3791 18.7156 16.8707C18.7156 18.2554 17.6634 19.5766 15.8811 19.5766V20.466C15.8811 20.9524 15.4864 21.3471 15.0001 21.3471C14.5131 21.3471 14.119 20.9524 14.119 20.466Z" fill="#2B2028"/>
<path d="M6.85624 25.7125L6.37719 22.3275C6.30899 21.8457 5.86267 21.5094 5.38133 21.5785C4.89947 21.6467 4.56417 22.0926 4.63237 22.5744L4.73963 23.3324C3.81958 22.1966 3.09385 20.9164 2.59183 19.5436C-0.980064 9.77769 7.64615 -0.071601 17.7035 2.07379C18.1793 2.17506 18.6475 1.87183 18.7491 1.3959C18.8507 0.919971 18.5472 0.451853 18.0712 0.350287C6.71443 -2.07272 -3.13615 9.01327 0.936819 20.1489C1.50467 21.7018 2.32515 23.1502 3.36511 24.4356L2.5137 24.2721C2.03566 24.1804 1.57394 24.4933 1.48213 24.9711C1.39031 25.4491 1.70329 25.9109 2.18116 26.0027L5.74236 26.6868C6.37196 26.8646 6.94318 26.3257 6.85624 25.7125ZM29.0632 9.85094C28.4954 8.29806 27.6749 6.84965 26.6349 5.56421L27.4864 5.72775C27.964 5.81939 28.4262 5.50658 28.518 5.02871C28.6098 4.55078 28.2968 4.08895 27.8189 3.99714L24.257 3.31284C23.6239 3.13462 23.0575 3.67793 23.1439 4.28726L23.6229 7.67236C23.6913 8.15563 24.139 8.48976 24.6188 8.42132C25.1006 8.35318 25.4359 7.90727 25.3677 7.42546L25.2605 6.66739C26.1805 7.80321 26.9062 9.08345 27.4083 10.4562C30.9799 20.2216 22.355 30.072 12.2966 27.926C11.8209 27.8245 11.3526 28.128 11.251 28.6039C11.1494 29.0799 11.4529 29.548 11.9289 29.6495C23.2855 32.0727 33.1362 20.9867 29.0632 9.85094Z" fill="#2B2028"/>
</svg>
