<svg width="40" height="40" viewBox="0 0 40 40" fill="none" xmlns="http://www.w3.org/2000/svg">
<circle cx="20" cy="20" r="20" transform="matrix(-1 0 0 1 40 0)" fill="#F0E8D1"/>
<path d="M17.7106 12.9025C17.4322 12.2064 16.758 11.75 16.0084 11.75H13.4868C12.5276 11.75 11.75 12.5274 11.75 13.4867C11.75 21.6401 18.3599 28.25 26.5133 28.25C27.4726 28.25 28.25 27.4723 28.25 26.5131L28.2504 23.9911C28.2504 23.2415 27.7941 22.5675 27.0981 22.289L24.6814 21.3227C24.0561 21.0726 23.3443 21.1852 22.8269 21.6163L22.2032 22.1365C21.4748 22.7435 20.403 22.6952 19.7325 22.0247L17.9762 20.2668C17.3057 19.5963 17.2562 18.5254 17.8632 17.797L18.3833 17.1733C18.8144 16.656 18.9279 15.9439 18.6779 15.3187L17.7106 12.9025Z" stroke="#2B2028" stroke-width="1.5" stroke-linecap="round" stroke-linejoin="round"/>
</svg>
