<svg width="24" height="24" viewBox="0 0 24 24" fill="none" xmlns="http://www.w3.org/2000/svg">
<g id="profile">
<path id="Vector" d="M12.6622 11C12.5608 10.9899 12.4392 10.9899 12.3277 11C9.91554 10.9188 8 8.94025 8 6.50507C8 4.01917 10.0068 2 12.5 2C14.9831 2 17 4.01917 17 6.50507C16.9899 8.94025 15.0743 10.9188 12.6622 11Z" stroke="#2B2028" stroke-width="1.5" stroke-linecap="round" stroke-linejoin="round"/>
<path id="Vector_2" d="M6.8629 14.4326C4.37903 16.1235 4.37903 18.8791 6.8629 20.5596C9.68548 22.4801 14.3145 22.4801 17.1371 20.5596C19.621 18.8687 19.621 16.1131 17.1371 14.4326C14.3248 12.5225 9.69575 12.5225 6.8629 14.4326Z" stroke="#2B2028" stroke-width="1.5" stroke-linecap="round" stroke-linejoin="round"/>
</g>
</svg>
