<svg width="24" height="24" viewBox="0 0 24 24" fill="none" xmlns="http://www.w3.org/2000/svg">
<g id="Rating icons">
<path id="vector" d="M11.4019 2.19911C11.5748 1.61292 12.4226 1.58549 12.6124 2.20565C12.6124 2.20579 12.6124 2.20592 12.6125 2.20605L14.6172 8.80287V9.45528H15.3672H21.5349C22.1466 9.45528 22.4078 10.2368 21.9012 10.6035C21.9008 10.6038 21.9004 10.604 21.9001 10.6043L16.858 14.2038L16.4167 14.5187L16.5774 15.0365L18.5594 21.4223L18.5597 21.4234C18.7424 22.0087 18.0596 22.4897 17.5695 22.1145L17.5678 22.1131L12.4534 18.2206L12 17.8756L11.546 18.2199L6.43171 22.0985L6.42891 22.1006C5.93889 22.4759 5.2561 21.9948 5.4387 21.4096L5.43903 21.4085L7.42102 15.0226L7.58172 14.5049L7.1405 14.1899L2.09545 10.5883L2.09325 10.5868C1.6 10.2373 1.84398 9.44143 2.46356 9.44143H8.63125H9.18611L9.34844 8.91086L11.3997 2.20639L11.3997 2.20641L11.4019 2.19911Z" stroke="#2B2028" stroke-width="1.5"/>
</g>
</svg>
