<svg width="170" height="170" viewBox="0 0 170 170" fill="none" xmlns="http://www.w3.org/2000/svg">
<path d="M152.966 135.488H141.705V135.573H152.966V135.488Z" fill="#EBEBEB"/>
<path d="M112.615 136.41H109.659V136.495H112.615V136.41Z" fill="#EBEBEB"/>
<path d="M141.365 132.331H134.839V132.416H141.365V132.331Z" fill="#EBEBEB"/>
<path d="M32.5217 132.901H17.8361V132.986H32.5217V132.901Z" fill="#EBEBEB"/>
<path d="M37.7023 132.901H35.549V132.986H37.7023V132.901Z" fill="#EBEBEB"/>
<path d="M76.55 134.338H44.7001V134.423H76.55V134.338Z" fill="#EBEBEB"/>
<path d="M81.0564 114.852H15.4027C14.3327 114.852 13.462 113.981 13.462 112.911V20.6243C13.462 19.5543 14.3327 18.6836 15.4027 18.6836H81.0564C82.126 18.6836 82.9967 19.5543 82.9967 20.6243V112.911C82.9967 113.981 82.126 114.852 81.0564 114.852ZM15.4027 18.7689C14.3793 18.7689 13.547 19.6013 13.547 20.6247V112.912C13.547 113.935 14.3793 114.767 15.4027 114.767H81.0564C82.0794 114.767 82.9117 113.935 82.9117 112.912V20.6243C82.9117 19.6013 82.0794 18.7686 81.0564 18.7686L15.4027 18.7689Z" fill="#EBEBEB"/>
<path d="M154.597 114.852H88.9437C87.874 114.852 87.0033 113.981 87.0033 112.911V20.6243C87.0033 19.5543 87.874 18.6836 88.9437 18.6836H154.597C155.668 18.6836 156.538 19.5543 156.538 20.6243V112.911C156.538 113.981 155.667 114.852 154.597 114.852ZM88.9437 18.7689C87.9206 18.7689 87.0883 19.6013 87.0883 20.6247V112.912C87.0883 113.935 87.9206 114.767 88.9437 114.767H154.597C155.621 114.767 156.453 113.935 156.453 112.912V20.6243C156.453 19.6013 155.621 18.7686 154.597 18.7686L88.9437 18.7689Z" fill="#EBEBEB"/>
<path d="M170 130.016H0V130.101H170V130.016Z" fill="#EBEBEB"/>
<path d="M126.102 18.0625H115.031L107.201 107.567H118.271C121.42 107.567 124.205 105.006 124.48 101.858L131.312 23.7721C131.587 20.6237 129.25 18.0625 126.102 18.0625Z" fill="#C29E8A"/>
<path d="M123.843 18.0625H86.3752C83.2268 18.0625 80.4416 20.6237 80.1662 23.7721L73.3345 101.858C73.0591 105.006 75.3963 107.567 78.5447 107.567H116.012C119.161 107.567 121.946 105.006 122.221 101.858L129.053 23.7721C129.328 20.6237 126.991 18.0625 123.843 18.0625Z" fill="#C29E8A"/>
<path opacity="0.3" d="M123.843 18.0625H86.3752C83.2268 18.0625 80.4416 20.6237 80.1662 23.7721L73.3345 101.858C73.0591 105.006 75.3963 107.567 78.5447 107.567H116.012C119.161 107.567 121.946 105.006 122.221 101.858L129.053 23.7721C129.328 20.6237 126.991 18.0625 123.843 18.0625Z" fill="white"/>
<path opacity="0.4" d="M123.683 19.8916H113.804C113.222 19.8916 112.675 20.2741 112.459 20.8324C111.66 22.8962 109.638 24.3096 107.483 24.3096H101.642C99.4877 24.3096 97.7122 22.8958 97.2746 20.8324C97.1563 20.2741 96.6762 19.8919 96.0935 19.8919H86.2151C84.0721 19.8919 82.183 21.629 81.9954 23.772L75.1637 101.857C74.9764 104 76.5615 105.738 78.7045 105.738H116.172C118.315 105.738 120.204 104 120.392 101.857L127.224 23.772C127.411 21.629 125.826 19.8916 123.683 19.8916Z" fill="white"/>
<path d="M114.349 62.3068H88.1269C87.3493 62.3068 86.7744 61.6765 86.8424 60.8992L86.9736 59.3988C87.0416 58.6212 87.7271 57.9912 88.5047 57.9912H114.727C115.504 57.9912 116.079 58.6216 116.011 59.3988L115.88 60.8992C115.812 61.6765 115.127 62.3068 114.349 62.3068Z" fill="white"/>
<path d="M113.783 68.7805H87.5605C86.7829 68.7805 86.208 68.1501 86.276 67.3729L86.4072 65.8724C86.4752 65.0949 87.1606 64.4648 87.9382 64.4648H114.16C114.938 64.4648 115.513 65.0952 115.445 65.8724L115.314 67.3729C115.246 68.1501 114.56 68.7805 113.783 68.7805Z" fill="white"/>
<path opacity="0.1" d="M106.382 21.3539C106.306 22.2162 105.546 22.9149 104.684 22.9149C103.822 22.9149 103.184 22.2162 103.26 21.3539C103.335 20.4917 104.095 19.793 104.958 19.793C105.819 19.793 106.457 20.4917 106.382 21.3539Z" fill="black"/>
<path opacity="0.1" d="M105.674 21.3547C105.633 21.8256 105.217 22.2074 104.746 22.2074C104.275 22.2074 103.927 21.8256 103.968 21.3547C104.009 20.8838 104.424 20.502 104.895 20.502C105.367 20.502 105.715 20.8838 105.674 21.3547Z" fill="black"/>
<g opacity="0.8">
<path d="M119.07 23.9577C118.818 23.9577 118.631 23.753 118.653 23.5004L118.726 22.6643C118.748 22.4117 118.971 22.207 119.223 22.207C119.476 22.207 119.663 22.4117 119.641 22.6643L119.568 23.5004C119.546 23.753 119.323 23.9577 119.07 23.9577Z" fill="white"/>
<path d="M122.729 23.9578C122.477 23.9578 122.29 23.7531 122.312 23.5005L122.484 21.5384C122.506 21.2857 122.728 21.0811 122.981 21.0811C123.234 21.0811 123.421 21.2857 123.399 21.5384L123.227 23.5005C123.205 23.7531 122.982 23.9578 122.729 23.9578Z" fill="white"/>
<path d="M120.9 23.9582C120.647 23.9582 120.46 23.7536 120.482 23.5009L120.605 22.1018C120.627 21.8492 120.85 21.6445 121.102 21.6445C121.355 21.6445 121.542 21.8492 121.52 22.1018L121.397 23.5009C121.375 23.7536 121.153 23.9582 120.9 23.9582Z" fill="white"/>
</g>
<g opacity="0.8">
<path d="M87.7448 23.9574H85.4481C85.3049 23.9574 85.1992 23.8415 85.2118 23.6983L85.3196 22.4651C85.3321 22.322 85.4583 22.2061 85.6011 22.2061H87.8978C88.0409 22.2061 88.1467 22.322 88.1341 22.4651L88.0263 23.6983C88.0137 23.8415 87.8879 23.9574 87.7448 23.9574Z" fill="white"/>
<path d="M88.8096 23.6232C88.6665 23.6232 88.5608 23.5073 88.5733 23.3642L88.6226 22.8001C88.6352 22.657 88.7614 22.541 88.9042 22.541C89.0473 22.541 89.153 22.657 89.1405 22.8001L89.0912 23.3642C89.0789 23.5073 88.9528 23.6232 88.8096 23.6232Z" fill="white"/>
</g>
<path d="M110.033 52.4446C114.608 48.0651 115.064 41.1164 111.051 36.9243C107.038 32.7322 100.076 32.8841 95.5011 37.2636C90.9259 41.6431 90.4699 48.5917 94.4828 52.7839C98.4956 56.976 105.458 56.8241 110.033 52.4446Z" fill="white"/>
<path d="M102.802 44.4307C99.9171 44.4307 97.482 45.5282 97.2736 47.9133L97.0421 50.5602H107.49L107.721 47.9133C107.93 45.5282 105.687 44.4307 102.802 44.4307Z" fill="#C29E8A"/>
<path d="M102.898 43.3406C104.236 43.3406 104.854 42.2553 104.971 40.9164C105.088 39.5775 104.66 38.4922 103.321 38.4922C101.983 38.4922 101.365 39.5775 101.248 40.9164C101.131 42.2553 101.559 43.3406 102.898 43.3406Z" fill="#C29E8A"/>
<path d="M113.152 60.0723C112.44 60.0723 111.838 60.3432 111.787 60.9325L111.73 61.5863H114.31L114.367 60.9325C114.419 60.3432 113.865 60.0723 113.152 60.0723Z" fill="#C29E8A"/>
<path d="M113.176 59.8029C113.507 59.8029 113.659 59.5347 113.688 59.2042C113.717 58.8734 113.611 58.6055 113.28 58.6055C112.95 58.6055 112.797 58.8737 112.768 59.2042C112.74 59.535 112.845 59.8029 113.176 59.8029Z" fill="#C29E8A"/>
<path d="M105.207 75.2544H95.0038C93.8121 75.2544 92.9304 74.2885 93.0348 73.0965C93.1392 71.9048 94.1898 70.9385 95.3815 70.9385H105.585C106.776 70.9385 107.658 71.9048 107.553 73.0965C107.449 74.2885 106.399 75.2544 105.207 75.2544Z" fill="#C29E8A"/>
<path d="M103.976 99.3192H93.0563C91.7969 99.3192 90.8653 98.2982 90.9755 97.0388L91.6721 89.0743C91.7823 87.815 92.8924 86.7939 94.1517 86.7939H105.072C106.331 86.7939 107.262 87.815 107.152 89.0743L106.456 97.0388C106.345 98.2982 105.235 99.3192 103.976 99.3192Z" fill="#C29E8A"/>
<g opacity="0.6">
<path d="M100.608 91.0861C100.675 90.3283 100.114 89.7139 99.3561 89.7139C98.5983 89.7139 97.9302 90.3283 97.8639 91.0861C97.8244 91.5373 98.0104 91.9344 98.3249 92.1843L98.0849 94.9267C98.0454 95.3769 98.3783 95.7417 98.8284 95.7417C99.2786 95.7417 99.6754 95.3769 99.7148 94.9267L99.9549 92.1843C100.314 91.9344 100.569 91.5376 100.608 91.0861Z" fill="white"/>
</g>
<path d="M105.168 88.452H103.761L104.106 84.5114C104.313 82.1433 102.555 80.2168 100.187 80.2168C97.819 80.2168 95.7239 82.1433 95.5168 84.5114L95.1721 88.452H93.7648L94.1096 84.5114C94.3846 81.3674 97.1662 78.8096 100.31 78.8096C103.454 78.8096 105.788 81.3674 105.513 84.5114L105.168 88.452Z" fill="#C29E8A"/>
<path d="M113.325 66.1071L113.358 65.7291C113.392 65.3425 113.105 65.0283 112.718 65.0283C112.332 65.0283 111.99 65.3428 111.956 65.7291L111.924 66.1071C111.769 66.1071 111.633 66.2323 111.62 66.3866L111.532 67.3917C111.518 67.546 111.632 67.6711 111.787 67.6711H113.188C113.342 67.6711 113.478 67.546 113.492 67.3917L113.58 66.3866C113.593 66.2323 113.479 66.1071 113.325 66.1071ZM112.703 65.201C112.995 65.201 113.21 65.4377 113.185 65.7287L113.152 66.1068H112.097L112.13 65.7287C112.155 65.4377 112.412 65.201 112.703 65.201Z" fill="#C29E8A"/>
<path d="M92.2369 66.5098L91.7479 66.4088C91.6901 66.3969 91.6602 66.3361 91.6844 66.2789L91.888 65.7975C91.9319 65.6941 91.8061 65.6176 91.7269 65.6996L91.3573 66.0804C91.3134 66.1256 91.243 66.1256 91.2073 66.0804L90.9044 65.6996C90.8395 65.618 90.7004 65.6941 90.7259 65.7975L90.8452 66.2789C90.8595 66.3361 90.8191 66.3969 90.7589 66.4088L90.2523 66.5098C90.1435 66.5315 90.1302 66.6842 90.2353 66.706L90.7242 66.8069C90.782 66.8188 90.8119 66.8797 90.7878 66.9368L90.5841 67.4183C90.5403 67.5216 90.6661 67.5981 90.7453 67.5162L91.1149 67.1354C91.1587 67.0902 91.2291 67.0902 91.2648 67.1354L91.5677 67.5162C91.6327 67.5981 91.7717 67.5216 91.7462 67.4183L91.6269 66.9368C91.6126 66.8797 91.6531 66.8188 91.7133 66.8069L92.2199 66.706C92.3287 66.6842 92.3419 66.5312 92.2369 66.5098Z" fill="#263238"/>
<path d="M95.4543 66.5098L94.9654 66.4088C94.9076 66.3969 94.8776 66.3361 94.9018 66.2789L95.1054 65.7975C95.1493 65.6941 95.0235 65.6176 94.9443 65.6996L94.5747 66.0804C94.5308 66.1256 94.4608 66.1256 94.4248 66.0804L94.1218 65.6996C94.0569 65.618 93.9178 65.6941 93.9433 65.7975L94.0627 66.2789C94.0769 66.3361 94.0362 66.3969 93.9763 66.4088L93.4697 66.5098C93.3609 66.5315 93.3476 66.6842 93.4524 66.706L93.9413 66.8069C93.9991 66.8188 94.029 66.8797 94.0049 66.9368L93.8012 67.4183C93.7573 67.5216 93.8831 67.5981 93.9624 67.5162L94.3319 67.1354C94.3758 67.0902 94.4459 67.0902 94.4819 67.1354L94.7848 67.5162C94.8498 67.5981 94.9888 67.5216 94.9633 67.4183L94.844 66.9368C94.8297 66.8797 94.8705 66.8188 94.9304 66.8069L95.4369 66.706C95.5461 66.6842 95.5593 66.5312 95.4543 66.5098Z" fill="#263238"/>
<path d="M98.6717 66.5098L98.1828 66.4088C98.125 66.3969 98.0951 66.3361 98.1192 66.2789L98.3229 65.7975C98.3667 65.6941 98.2409 65.6176 98.1617 65.6996L97.7921 66.0804C97.7483 66.1256 97.6779 66.1256 97.6422 66.0804L97.3392 65.6996C97.2743 65.618 97.1352 65.6941 97.1607 65.7975L97.2801 66.2789C97.2943 66.3361 97.2539 66.3969 97.1937 66.4088L96.6871 66.5098C96.5783 66.5315 96.5651 66.6842 96.6698 66.706L97.1587 66.8069C97.2165 66.8188 97.2464 66.8797 97.2223 66.9368L97.0186 67.4183C96.9748 67.5216 97.1006 67.5981 97.1798 67.5162L97.5493 67.1354C97.5932 67.0902 97.6636 67.0902 97.6993 67.1354L98.0022 67.5162C98.0672 67.5981 98.2062 67.5216 98.1807 67.4183L98.0614 66.9368C98.0471 66.8797 98.0876 66.8188 98.1477 66.8069L98.6543 66.706C98.7635 66.6842 98.7768 66.5312 98.6717 66.5098Z" fill="#263238"/>
<path d="M101.889 66.5098L101.401 66.4088C101.343 66.3969 101.313 66.3361 101.337 66.2789L101.541 65.7975C101.584 65.6941 101.459 65.6176 101.379 65.6996L101.01 66.0804C100.966 66.1256 100.896 66.1256 100.86 66.0804L100.557 65.6996C100.492 65.618 100.353 65.6941 100.378 65.7975L100.498 66.2789C100.512 66.3361 100.472 66.3969 100.411 66.4088L99.9049 66.5098C99.7961 66.5315 99.7828 66.6842 99.8879 66.706L100.377 66.8069C100.435 66.8188 100.465 66.8797 100.44 66.9368L100.237 67.4183C100.193 67.5216 100.319 67.5981 100.398 67.5162L100.767 67.1354C100.811 67.0902 100.882 67.0902 100.917 67.1354L101.22 67.5162C101.285 67.5981 101.424 67.5216 101.399 67.4183L101.279 66.9368C101.265 66.8797 101.306 66.8188 101.366 66.8069L101.872 66.706C101.981 66.6842 101.995 66.5312 101.889 66.5098Z" fill="#263238"/>
<path d="M105.107 66.5098L104.618 66.4088C104.56 66.3969 104.53 66.3361 104.554 66.2789L104.758 65.7975C104.802 65.6941 104.676 65.6176 104.597 65.6996L104.227 66.0804C104.183 66.1256 104.113 66.1256 104.077 66.0804L103.774 65.6996C103.709 65.618 103.57 65.6941 103.596 65.7975L103.715 66.2789C103.73 66.3361 103.689 66.3969 103.629 66.4088L103.122 66.5098C103.013 66.5315 103 66.6842 103.105 66.706L103.594 66.8069C103.652 66.8188 103.682 66.8797 103.657 66.9368L103.454 67.4183C103.41 67.5216 103.536 67.5981 103.615 67.5162L103.985 67.1354C104.028 67.0902 104.098 67.0902 104.134 67.1354L104.437 67.5162C104.502 67.5981 104.641 67.5216 104.616 67.4183L104.497 66.9368C104.482 66.8797 104.523 66.8188 104.583 66.8069L105.09 66.706C105.198 66.6842 105.212 66.5312 105.107 66.5098Z" fill="#263238"/>
<path d="M108.324 66.5098L107.835 66.4088C107.778 66.3969 107.748 66.3361 107.772 66.2789L107.975 65.7975C108.019 65.6941 107.894 65.6176 107.814 65.6996L107.445 66.0804C107.401 66.1256 107.331 66.1256 107.295 66.0804L106.992 65.6996C106.927 65.618 106.788 65.6941 106.813 65.7975L106.933 66.2789C106.947 66.3361 106.906 66.3969 106.846 66.4088L106.34 66.5098C106.231 66.5315 106.218 66.6842 106.322 66.706L106.811 66.8069C106.869 66.8188 106.899 66.8797 106.875 66.9368L106.671 67.4183C106.627 67.5216 106.753 67.5981 106.832 67.5162L107.202 67.1354C107.246 67.0902 107.316 67.0902 107.352 67.1354L107.655 67.5162C107.72 67.5981 107.859 67.5216 107.833 67.4183L107.714 66.9368C107.7 66.8797 107.74 66.8188 107.8 66.8069L108.307 66.706C108.416 66.6842 108.429 66.5312 108.324 66.5098Z" fill="#263238"/>
<path d="M100.569 59.4697H94.5278C94.1524 59.4697 93.8216 59.774 93.7886 60.1494C93.7556 60.5247 94.0334 60.829 94.4088 60.829H100.45C100.825 60.829 101.156 60.5247 101.189 60.1494C101.222 59.774 100.944 59.4697 100.569 59.4697Z" fill="#263238"/>
<path d="M106.701 59.4697H103.196C102.821 59.4697 102.49 59.774 102.457 60.1494C102.424 60.5247 102.702 60.829 103.077 60.829H106.582C106.958 60.829 107.289 60.5247 107.322 60.1494C107.355 59.774 107.077 59.4697 106.701 59.4697Z" fill="#263238"/>
<path d="M111.329 90.2912C109.052 91.2007 107.055 92.5274 105.688 94.036C104.887 93.3539 103.747 92.8803 102.381 92.6637L102.221 92.6382L102.151 93.4403L102.241 93.474C103.589 93.9833 104.686 94.887 105.414 96.0869L105.528 96.2756L105.655 96.0733C107.055 93.8306 109.098 91.9518 111.406 90.7829L111.484 90.7431L111.531 90.21L111.329 90.2912Z" fill="#263238"/>
<path opacity="0.2" d="M68.3451 56.5908C67.9204 57.3378 67.6403 58.1711 67.5628 59.0541L62.4995 116.929H78.1657L81.3134 104.862L80.2774 92.794L83.4251 80.7264L82.3891 68.6588L85.5369 56.5912H68.3451V56.5908Z" fill="black"/>
<path d="M81.0291 65.2584L84.1765 53.1904H44.5584L41.4106 65.2584L42.447 77.326L39.2992 89.3936L40.3352 101.462L37.1875 113.529H76.8057L79.9534 101.462L78.9174 89.3936L82.0648 77.326L81.0291 65.2584Z" fill="#C29E8A"/>
<path opacity="0.7" d="M81.0291 65.2584L84.1765 53.1904H44.5584L41.4106 65.2584L42.447 77.326L39.2992 89.3936L40.3352 101.462L37.1875 113.529H76.8057L79.9534 101.462L78.9174 89.3936L82.0648 77.326L81.0291 65.2584Z" fill="white"/>
<path opacity="0.5" d="M81.0288 65.2584H41.4106L44.5584 53.1904H84.1765L81.0288 65.2584Z" fill="white"/>
<path opacity="0.5" d="M78.9174 89.3938H39.2992L42.4469 77.3262H82.0651L78.9174 89.3938Z" fill="white"/>
<path opacity="0.5" d="M76.8057 113.53H37.1875L40.3352 101.462H79.9534L76.8057 113.53Z" fill="white"/>
<path opacity="0.2" d="M75.7275 70.3015C75.3872 70.408 74.9513 70.4719 74.4763 70.4719C73.7769 70.4719 73.1622 70.3335 72.8127 70.1251C72.7168 70.0676 72.6114 70.0391 72.506 70.0391C72.4081 70.0391 72.3105 70.0666 72.2201 70.1159C72.2133 70.1196 72.2058 70.121 72.1993 70.1251C72.1956 70.1275 72.1908 70.1292 72.1871 70.1315C72.0576 70.207 71.8944 70.2733 71.704 70.3267C71.3772 70.4182 70.9733 70.4722 70.5361 70.4722C70.4174 70.4722 70.3008 70.4681 70.1879 70.4607C69.8489 70.4375 69.5399 70.3818 69.2849 70.3022C69.2403 70.2883 69.1954 70.2801 69.1516 70.2771C68.8432 70.2567 68.5661 70.4933 68.5661 70.8204V71.1889H53.1672C51.9755 71.1889 51.0092 72.1549 51.0092 73.3469V75.5216C51.0092 76.7133 51.9755 77.6795 53.1672 77.6795H70.6863C70.7251 77.6795 70.7625 77.6758 70.8009 77.6738C70.99 77.8302 71.1868 77.9862 71.3952 78.1443C71.6448 78.3334 71.9076 78.5251 72.183 78.725C72.3748 78.8641 72.6379 78.8641 72.8297 78.725C75.0326 77.1274 76.447 76.0254 76.447 72.9977V70.8207C76.4466 70.4464 76.0845 70.19 75.7275 70.3015Z" fill="black"/>
<path d="M70.3514 76.4808H52.8323C51.6406 76.4808 50.6743 75.5149 50.6743 74.3229V72.1482C50.6743 70.9565 51.6402 69.9902 52.8323 69.9902H70.3514C71.5431 69.9902 72.5094 70.9562 72.5094 72.1482V74.3229C72.5094 75.5146 71.5431 76.4808 70.3514 76.4808Z" fill="#C29E8A"/>
<path d="M74.1418 69.2736C73.4424 69.2736 72.828 69.1352 72.4781 68.9268C72.286 68.8122 72.0569 68.8122 71.8648 68.9268C71.5153 69.1352 70.9009 69.2736 70.2012 69.2736C69.7258 69.2736 69.2903 69.2096 68.95 69.1036C68.5933 68.992 68.2309 69.2481 68.2309 69.6221V71.7991C68.2309 74.8268 69.6453 75.9287 71.8481 77.5264C72.0399 77.6654 72.303 77.6654 72.4948 77.5264C74.6977 75.9287 76.1121 74.8268 76.1121 71.7991V69.6221C76.1121 69.2481 75.75 68.992 75.393 69.1036C75.0526 69.2096 74.6171 69.2736 74.1418 69.2736Z" fill="#C29E8A"/>
<path opacity="0.3" d="M74.1418 69.2736C73.4424 69.2736 72.828 69.1352 72.4781 68.9268C72.286 68.8122 72.0569 68.8122 71.8648 68.9268C71.5153 69.1352 70.9009 69.2736 70.2012 69.2736C69.7258 69.2736 69.2903 69.2096 68.95 69.1036C68.5933 68.992 68.2309 69.2481 68.2309 69.6221V71.7991C68.2309 74.8268 69.6453 75.9287 71.8481 77.5264C72.0399 77.6654 72.303 77.6654 72.4948 77.5264C74.6977 75.9287 76.1121 74.8268 76.1121 71.7991V69.6221C76.1121 69.2481 75.75 68.992 75.393 69.1036C75.0526 69.2096 74.6171 69.2736 74.1418 69.2736Z" fill="white"/>
<path opacity="0.2" d="M71.8648 68.9268C71.5153 69.1353 70.9009 69.2736 70.2012 69.2736C69.7258 69.2736 69.2903 69.2097 68.95 69.1036C68.5933 68.9921 68.2309 69.2481 68.2309 69.6218V71.7992C68.2309 74.8269 69.6453 75.9288 71.8481 77.5265C71.944 77.5958 72.0576 77.6308 72.1715 77.6308V68.8408C72.0661 68.8408 71.9607 68.8694 71.8648 68.9268Z" fill="white"/>
<path d="M75.329 71.2047C73.9055 71.7936 72.6872 72.6528 71.8879 73.6299C71.3303 73.1883 70.5656 72.8816 69.6687 72.7412L69.5637 72.7248V73.2444L69.6235 73.2661C70.5255 73.5959 71.2871 74.1814 71.8267 74.9583L71.9114 75.0804L71.9817 74.9495C72.762 73.497 73.9786 72.2801 75.4069 71.5233L75.4555 71.4974V71.1523L75.329 71.2047Z" fill="#263238"/>
<path d="M83.4771 56.5842H81.974C81.1403 56.5842 80.5239 55.9086 80.5967 55.0749L80.7282 53.5718C80.8013 52.7381 81.5361 52.0625 82.3698 52.0625H83.8729C84.7066 52.0625 85.323 52.7384 85.2502 53.5718L85.1187 55.0749C85.0456 55.9086 84.3108 56.5842 83.4771 56.5842Z" fill="#C29E8A"/>
<path d="M84.1017 53.5686L83.7757 53.2109L82.9546 53.9657L82.2657 53.2109L81.8768 53.5686L82.5656 54.3234L81.7448 55.0782L82.0712 55.4359L82.892 54.6811L83.5808 55.4359L83.9698 55.0782L83.281 54.3234L84.1017 53.5686Z" fill="white"/>
<path d="M46.6125 72.1221C47.4839 73.0697 48.3166 74.0512 49.1387 75.042C49.9618 76.0317 50.7646 77.0392 51.5575 78.0554C51.5921 78.0996 51.5782 78.0816 51.5864 78.0949C51.5901 78.1006 51.5908 78.1101 51.5955 78.1149C51.6044 78.1248 51.6091 78.1411 51.6197 78.1499C51.6353 78.1751 51.6581 78.1931 51.6809 78.2169C51.7292 78.2601 51.7951 78.2931 51.8686 78.3067C51.9049 78.3121 51.9434 78.3175 51.9825 78.3135C52.0035 78.3162 52.0222 78.3097 52.0443 78.309C52.0559 78.3094 52.0644 78.3033 52.0756 78.3019C52.093 78.2944 52.0821 78.3097 52.129 78.2818L52.9807 77.8201C54.1231 77.2153 55.2747 76.624 56.4657 76.0933L57.4612 77.3261C56.5017 78.2091 55.5025 79.3134 54.494 80.1226L53.7324 80.7213C53.7131 80.739 53.6311 80.7927 53.5798 80.8271C53.521 80.8648 53.4635 80.9056 53.4013 80.9389C53.2779 81.0069 53.1534 81.0749 53.0212 81.1273C52.76 81.2402 52.4812 81.3119 52.1987 81.3554C51.6319 81.4398 51.043 81.3826 50.4933 81.1858C50.2192 81.0872 49.9537 80.9556 49.7119 80.7877C49.5882 80.7074 49.475 80.6132 49.3621 80.5184C49.3053 80.4711 49.2546 80.4184 49.2016 80.3671L49.0663 80.2301C48.1666 79.3073 47.2769 78.3757 46.4071 77.4264C45.5367 76.4778 44.6765 75.5207 43.8551 74.5293L46.6125 72.1221Z" fill="#B55B52"/>
<path d="M56.0026 76.8444L56.7952 74.2988L58.8814 75.3385C58.8814 75.3385 58.5774 77.196 57.0587 77.5179L56.0026 76.8444Z" fill="#B55B52"/>
<path d="M57.6322 73.5918L59.5138 74.11L58.8817 75.3374L56.7955 74.2976L57.6322 73.5918Z" fill="#B55B52"/>
<path d="M35.638 72.8156C35.4109 73.8972 35.1334 74.9665 34.8427 76.0327C34.5534 77.0993 34.2375 78.1594 33.9091 79.2165L33.7867 79.6129L33.7255 79.8111C33.7126 79.8543 33.7041 79.8652 33.6925 79.8941C33.6551 79.9944 33.6327 80.1032 33.6283 80.2174C33.6225 80.4439 33.6762 80.6958 33.8244 80.9148C33.8367 80.9501 33.954 81.0732 34.0454 81.1725L34.3276 81.4792L34.8842 82.1024C35.2507 82.523 35.6159 82.9449 35.9627 83.3886L34.7778 84.7602C34.2885 84.4817 33.818 84.1815 33.3484 83.8799L32.6511 83.4199L32.3063 83.1849C32.189 83.1033 32.0949 83.0486 31.9072 82.8932C31.2605 82.3448 30.7774 81.5662 30.6002 80.7016C30.5098 80.2701 30.4877 79.8203 30.538 79.3749C30.5513 79.2681 30.5713 79.1437 30.5876 79.0522L30.6237 78.8479L30.6958 78.4392C30.8865 77.3488 31.0898 76.2615 31.3193 75.1803C31.5478 74.0991 31.7895 73.021 32.0813 71.9551L35.638 72.8156Z" fill="#B55B52"/>
<path d="M34.7985 83.2916L36.2014 82.5742L36.8202 84.9586C36.8202 84.9586 35.6944 85.3901 34.823 84.8359L34.7985 83.2916Z" fill="#B55B52"/>
<path d="M38.1397 81.8115L38.2033 83.9987L36.6369 85.0232L36.0936 82.6204L38.1397 81.8115Z" fill="#B55B52"/>
<path d="M42.7263 61.5741C42.7607 61.7427 42.8776 61.8611 42.9878 61.8386C43.0979 61.8162 43.1595 61.6615 43.1251 61.4928C43.0908 61.3242 42.9738 61.2059 42.8637 61.2283C42.7538 61.2508 42.6923 61.4055 42.7263 61.5741Z" fill="#263238"/>
<path d="M42.8623 61.8643C42.8623 61.8643 43.443 62.7585 43.9602 63.1416C43.7184 63.4806 43.186 63.4565 43.186 63.4565L42.8623 61.8643Z" fill="#A02724"/>
<path d="M41.9191 60.7637C41.8947 60.7637 41.8698 60.7549 41.8505 60.7369C41.8097 60.6991 41.8069 60.6352 41.845 60.5941C42.2241 60.1837 42.6841 60.2568 42.7042 60.2598C42.7593 60.2694 42.796 60.3214 42.7868 60.3765C42.7773 60.4312 42.7246 60.4679 42.6709 60.4591C42.6556 60.4567 42.2959 60.404 41.9936 60.7311C41.9735 60.7528 41.9463 60.7637 41.9191 60.7637Z" fill="#263238"/>
<path d="M37.8232 63.9443C38.1982 65.5039 38.5725 68.3616 37.2339 69.402C37.2339 69.402 37.7569 70.984 41.3123 70.984C45.2216 70.984 43.1805 69.9651 43.1805 69.9651C41.047 69.5499 41.1018 67.6966 41.4734 66.4848L37.8232 63.9443Z" fill="#B55B52"/>
<path d="M36.8174 69.6912C36.5845 69.2577 36.3278 68.762 36.8586 68.6066C37.4424 68.4356 41.1929 68.1188 42.2945 68.4397C41.9559 69.0418 42.5291 69.782 42.5291 69.782L36.8174 69.6912Z" fill="#263238"/>
<path d="M39.9227 142.647H42.3758L42.6199 137.71H40.1671L39.9227 142.647Z" fill="#B55B52"/>
<path d="M24.3564 141.967L26.8408 142.098L28.3508 137.234L25.866 137.103L24.3564 141.967Z" fill="#B55B52"/>
<path d="M26.765 141.902L24.4241 141.395C24.3391 141.376 24.2524 141.42 24.216 141.499L23.4034 143.262C23.3191 143.445 23.4306 143.659 23.6282 143.698C24.4483 143.861 24.8559 143.899 25.8851 144.122C26.5185 144.259 27.9479 144.607 28.8227 144.797C29.6781 144.982 29.9988 144.146 29.6577 143.99C28.1284 143.292 27.4896 142.676 27.0754 142.103C27.001 142 26.8898 141.929 26.765 141.902Z" fill="#263238"/>
<path d="M42.2459 142.4H39.9179C39.8309 142.4 39.7554 142.461 39.7364 142.546L39.3151 144.441C39.2716 144.637 39.4205 144.823 39.6218 144.82C40.4616 144.806 41.675 144.756 42.7307 144.756C43.9649 144.756 45.0308 144.824 46.4782 144.824C47.3534 144.824 47.5961 143.939 47.23 143.859C45.5623 143.494 44.2006 143.455 42.7593 142.566C42.6029 142.47 42.4298 142.4 42.2459 142.4Z" fill="#263238"/>
<path d="M32.7926 70.1227C30.9413 71.003 30.438 76.3393 30.438 76.3393L35.0178 78.4554C35.0178 78.4554 36.1545 76.7809 36.2415 74.148C36.3326 71.3895 34.6853 69.2227 32.7926 70.1227Z" fill="#263238"/>
<path opacity="0.4" d="M35.2769 73.4131C34.45 74.6966 34.5282 76.6825 34.8145 78.3608L35.0168 78.4556C35.0168 78.4556 36.1548 76.7791 36.2422 74.1468C36.2473 73.9822 36.2466 73.8187 36.2408 73.6596L35.2769 73.4131Z" fill="black"/>
<path d="M45.5725 69.994C45.5725 69.994 47.8416 72.557 45.6986 88.4203C42.2629 88.4203 35.9678 88.4203 34.296 88.4203C34.2175 86.67 35.3174 78.1316 33.6289 69.8842C33.6289 69.8842 35.5836 69.4919 37.4461 69.4021C38.903 69.3321 41.0124 69.2855 42.2932 69.4021C43.9819 69.5565 45.5725 69.994 45.5725 69.994Z" fill="#C29E8A"/>
<path opacity="0.6" d="M45.5725 69.994C45.5725 69.994 47.8416 72.557 45.6986 88.4203C42.2629 88.4203 35.9678 88.4203 34.296 88.4203C34.2175 86.67 35.3174 78.1316 33.6289 69.8842C33.6289 69.8842 35.5836 69.4919 37.4461 69.4021C38.903 69.3321 41.0124 69.2855 42.2932 69.4021C43.9819 69.5565 45.5725 69.994 45.5725 69.994Z" fill="#FAFAFA"/>
<path opacity="0.2" d="M46.569 74.8423L46.5255 74.8045L44.2577 73.5928C44.0272 77.0846 45.5881 79.2735 46.5166 80.2309C46.6445 77.9937 46.6414 76.2291 46.569 74.8423Z" fill="black"/>
<path opacity="0.2" d="M42.6196 137.711L42.4941 140.256H40.04L40.1654 137.711H42.6196Z" fill="black"/>
<path opacity="0.2" d="M25.8654 137.104L28.3508 137.236L27.5712 139.743L25.0858 139.612L25.8654 137.104Z" fill="black"/>
<path d="M37.0337 62.3593C37.5814 64.403 37.798 65.627 39.0594 66.4767C40.9563 67.7547 43.3183 66.288 43.392 64.1218C43.4587 62.1723 42.5516 59.1578 40.3586 58.7457C38.1979 58.3401 36.486 60.3155 37.0337 62.3593Z" fill="#B55B52"/>
<path d="M41.6536 88.4199C41.6536 88.4199 39.2342 104.712 37.9061 110.815C36.4516 117.499 28.6527 139.613 28.6527 139.613L24.8365 138.787C24.8365 138.787 29.7271 120.765 30.9477 111.421C31.424 107.775 31.999 101.897 32.7266 96.9961C33.4311 92.25 34.296 88.4199 34.296 88.4199H41.6536Z" fill="#263238"/>
<path d="M29.5663 138.338C29.5826 138.342 28.855 139.718 28.855 139.718L24.5615 138.789L24.9236 137.498L29.5663 138.338Z" fill="#C29E8A"/>
<path opacity="0.6" d="M29.5663 138.338C29.5826 138.342 28.855 139.718 28.855 139.718L24.5615 138.789L24.9236 137.498L29.5663 138.338Z" fill="white"/>
<path opacity="0.6" d="M40.1246 94.2248C37.3271 94.7732 37.6233 105.205 37.9599 110.571C38.7667 106.779 39.9475 99.4802 40.7543 94.3003C40.5687 94.2075 40.3596 94.1786 40.1246 94.2248Z" fill="black"/>
<path d="M45.6986 88.4199C45.6986 88.4199 46.8366 104.359 46.6047 110.86C46.3636 117.622 43.1574 139.763 43.1574 139.763H39.546C39.546 139.763 39.4134 118.017 39.2529 111.376C39.0778 104.136 38.2036 88.4199 38.2036 88.4199H45.6986Z" fill="#263238"/>
<path d="M43.8521 138.325C43.8687 138.325 43.6484 139.825 43.6484 139.825H39.2553L39.1366 138.486L43.8521 138.325Z" fill="#C29E8A"/>
<path opacity="0.6" d="M43.8521 138.325C43.8687 138.325 43.6484 139.825 43.6484 139.825H39.2553L39.1366 138.486L43.8521 138.325Z" fill="white"/>
<path d="M44.2417 72.9799C44.2417 77.2574 46.518 79.0186 46.518 79.0186L50.2179 75.4017C50.2179 75.4017 48.9599 73.2342 47.23 71.2445C45.0924 68.7863 44.2417 70.2293 44.2417 72.9799Z" fill="#263238"/>
<path opacity="0.2" d="M43.2625 64.8955C43.1686 65.1576 42.9221 65.602 42.303 65.7792C41.4 66.0376 41.3881 66.8029 41.3881 66.8029L41.3993 66.8172C42.2608 66.5326 42.9782 65.8206 43.2625 64.8955Z" fill="black"/>
<path d="M42.3034 58.2969C43.0656 57.3358 41.893 57.2899 41.893 57.2899C42.1976 56.1424 40.8261 56.7601 40.8261 56.7601C40.0026 55.6252 39.5381 57.0063 39.5381 57.0063C38.6841 56.0448 38.527 57.6163 38.527 57.6163C37.6705 56.3967 37.2343 58.1558 37.2343 58.1558C36.4455 56.8893 35.9627 58.5394 35.9627 58.5394C34.3341 57.9563 35.1083 59.6488 35.1083 59.6488C33.718 59.6879 34.8332 60.7633 34.8332 60.7633C33.1679 60.7674 34.6364 61.7211 34.6364 61.7211C33.3138 62.5888 34.974 62.8223 34.974 62.8223C33.8948 64.5098 35.7478 63.8838 35.7478 63.8838C34.9971 65.5539 36.6617 64.8181 36.6617 64.8181C36.5536 66.4297 37.4846 65.9911 37.932 65.6926C38.0184 66.0173 38.1795 66.3611 38.4787 66.4002C39.0594 66.476 39.1723 65.3798 39.1723 65.3798C39.1723 65.3798 39.7112 65.799 40.1631 65.5719C40.6149 65.3448 40.4446 64.7699 40.4446 64.7699C40.4446 64.7699 40.7904 65.0279 41.1072 64.7818C41.301 64.6311 41.3021 63.5489 41.0549 63.1685L41.9399 62.822C41.9399 62.822 42.5968 62.7295 42.3034 61.8635C42.0103 60.9979 42.2588 60.3142 42.2588 60.3142C43.2577 59.846 42.4383 59.2829 42.4383 59.2829C43.5933 58.5346 42.3034 58.2969 42.3034 58.2969Z" fill="#263238"/>
<path d="M40.5105 62.4446C40.6496 62.9811 41.0022 63.4422 41.3707 63.7166C41.9256 64.1293 42.3397 63.723 42.3003 63.0954C42.2649 62.5303 41.9334 61.6347 41.3214 61.4671C40.7189 61.3019 40.3517 61.8313 40.5105 62.4446Z" fill="#B55B52"/>
</svg>
