<svg width="22" height="22" viewBox="0 0 22 22" fill="none" xmlns="http://www.w3.org/2000/svg">
<circle cx="11" cy="11" r="11" fill="#D4C6A1"/>
<g clip-path="url(#clip0_90_14843)">
<path d="M4.71668 17.3364L4.6243 17.2981C4.56705 17.4362 4.6163 17.577 4.70429 17.6648C4.79244 17.7527 4.93332 17.8011 5.07284 17.7402C5.45163 17.5879 5.81687 17.4138 6.17423 17.2435C6.31792 17.1751 6.46034 17.1072 6.60186 17.0416L6.60187 17.0416L6.60347 17.0408C7.04394 16.827 7.69349 16.5785 8.06348 16.4918C8.5949 16.439 9.14395 16.4666 9.70301 16.5169C9.90846 16.5354 10.1163 16.5571 10.3251 16.5789C10.6826 16.6162 11.0426 16.6538 11.3972 16.676C12.5256 16.7466 13.6481 16.666 14.6522 15.9281C14.8326 15.8062 14.8779 15.5584 14.7515 15.3806C14.6267 15.2042 14.3818 15.1633 14.2064 15.2895L14.2064 15.2895L14.2045 15.2909C13.3086 15.9677 12.2927 16.0367 11.223 15.9637C10.9161 15.9428 10.612 15.911 10.3055 15.8789C10.0719 15.8545 9.83694 15.8299 9.59836 15.8099C9.05386 15.7642 8.50734 15.7444 7.97379 15.8145L7.97373 15.814L7.96414 15.8162C7.23598 15.9857 6.55183 16.3095 5.8848 16.6253C5.7691 16.6801 5.65391 16.7346 5.5391 16.788C5.61485 16.5842 5.70972 16.3764 5.80959 16.1634C5.82548 16.1296 5.8415 16.0955 5.85758 16.0614C5.97748 15.8067 6.10068 15.5451 6.19791 15.2817C6.41853 14.6839 6.51409 14.0542 6.13712 13.4239C4.91824 10.5996 5.28383 8.52557 6.40383 7.16195C7.52996 5.79086 9.4377 5.11404 11.3444 5.13082C13.2513 5.1476 15.1323 5.85787 16.2058 7.22868C17.2737 8.59233 17.5615 10.6349 16.2346 13.3636L16.2335 13.366C15.9603 13.9676 16.818 14.3969 17.1289 13.8009L17.129 13.8009L17.1301 13.7985C18.2656 11.4714 18.6274 8.56134 16.7283 6.47692L16.7285 6.4768L5.15899 16.1303L5.07017 16.0843C5.06849 16.0876 5.06729 16.0903 5.067 16.091L5.06698 16.0911L5.06688 16.0913L5.06575 16.094L5.06388 16.0987L5.05925 16.1108L5.04425 16.151L4.99367 16.2883C4.95235 16.4008 4.89795 16.5496 4.8436 16.6983L4.69374 17.1085L4.6435 17.2458C4.63366 17.2727 4.62764 17.289 4.6253 17.2954C4.62453 17.2974 4.62416 17.2985 4.62418 17.2984L4.71668 17.3364ZM4.71668 17.3364C4.63915 17.5234 4.84368 17.7324 5.03407 17.648M4.71668 17.3364L5.03407 17.648M5.03407 17.648C5.41032 17.4968 5.77158 17.3246 6.12831 17.1546C6.27265 17.0858 6.41625 17.0174 6.5598 16.9509C7.00665 16.734 7.66837 16.4806 8.04709 16.3929C8.79118 16.3181 9.56486 16.3989 10.339 16.4798C11.8245 16.635 13.3116 16.7903 14.5947 15.8462L5.03407 17.648ZM16.6544 6.54427C11.2538 1.29456 1.82376 6.08122 5.60045 13.7242L16.6544 6.54427Z" fill="white" stroke="white" stroke-width="0.2"/>
<path d="M12.022 13.5834C12.0095 13.5446 11.9933 13.5072 11.9737 13.4716M12.022 13.5834C12.022 13.5834 12.022 13.5835 12.022 13.5836L11.9745 13.5989M12.022 13.5834C12.022 13.5833 12.0219 13.5833 12.0219 13.5832L11.9745 13.5989M12.022 13.5834C12.112 13.8555 12.0696 14.0816 11.9492 14.2472C11.83 14.4111 11.6387 14.5098 11.4403 14.5382C11.2418 14.5666 11.0305 14.5254 10.8703 14.4018C10.7086 14.2771 10.6047 14.0728 10.6148 13.7881M11.9737 13.4716L11.9745 13.5989M11.9737 13.4716C12.0565 13.4362 12.1404 13.3865 12.2086 13.3214C12.2932 13.2408 12.3556 13.1347 12.3581 13.0031L12.3588 13.0031L12.3576 12.9949C12.2839 12.4932 12.397 12.0267 12.5824 11.5717C12.6751 11.3441 12.7856 11.1202 12.8994 10.8964C12.9227 10.8507 12.9461 10.8049 12.9695 10.7591C13.0601 10.5821 13.1509 10.4047 13.2337 10.2267C13.7871 9.24939 13.6263 8.32197 13.0678 7.70116C12.5107 7.082 11.5636 6.77374 10.5551 7.01844C9.54304 7.25957 8.72688 8.12493 8.86488 9.22249L8.86487 9.22249L8.86498 9.22326C8.93428 9.71232 9.15813 10.1313 9.41124 10.5295C9.48334 10.643 9.55755 10.7544 9.63137 10.8653C9.81783 11.1453 10.0019 11.4217 10.1437 11.718C10.2039 11.9124 10.2061 12.1183 10.2084 12.3342C10.2086 12.3459 10.2087 12.3577 10.2088 12.3694C10.2115 12.5958 10.2178 12.8319 10.3036 13.0578C10.362 13.2689 10.5057 13.4041 10.6845 13.4854M11.9737 13.4716L10.6845 13.4854M11.9745 13.5989C12.317 14.6339 10.625 14.8735 10.6648 13.7886M10.6148 13.7881C10.6148 13.7885 10.6148 13.7889 10.6148 13.7893L10.6648 13.7886M10.6148 13.7881C10.6134 13.6736 10.6389 13.5723 10.6845 13.4854M10.6148 13.7881C10.6148 13.7876 10.6148 13.7872 10.6148 13.7868L10.6648 13.7886M10.6648 13.7886L10.6845 13.4854M12.1756 11.1441C12.2543 10.978 12.3403 10.8131 12.4263 10.6485L12.4349 10.6322C12.5182 10.4727 12.6014 10.3136 12.6788 10.1526C12.8385 9.82038 12.9721 9.48324 13.0287 9.12789C13.0616 8.65365 12.8705 8.30972 12.5665 8.08461C12.2599 7.85757 11.8356 7.7497 11.4052 7.75899C10.975 7.76828 10.5447 7.89456 10.2273 8.12845C9.91199 8.36082 9.70817 8.69879 9.72228 9.13838C9.78067 9.52772 9.94976 9.88066 10.1477 10.2309C10.2038 10.3302 10.2624 10.4297 10.3214 10.5296C10.4643 10.7719 10.6092 11.0175 10.7247 11.2731C11.153 11.3085 11.6082 11.3823 12.0253 11.4571L12.0288 11.4578L12.0288 11.4579C12.0305 11.4583 12.0322 11.4588 12.0339 11.4592C12.0775 11.3526 12.1248 11.2475 12.1756 11.1441ZM12.1756 11.1441C12.1757 11.144 12.1757 11.1439 12.1758 11.1438L12.2206 11.1658L12.1755 11.1444C12.1755 11.1443 12.1756 11.1442 12.1756 11.1441ZM10.9282 12.8591L10.9283 12.8591L10.9277 12.8571C10.8728 12.6584 10.878 12.4517 10.8834 12.2338C10.8842 12.2018 10.885 12.1696 10.8856 12.1371C11.2125 12.0837 11.5437 12.0175 11.8669 11.948C11.7829 12.258 11.7392 12.5792 11.7581 12.9041C11.6406 12.9477 11.4943 12.9703 11.3474 12.9682C11.1955 12.966 11.0476 12.9375 10.9337 12.8826L10.9282 12.8591Z" fill="white" stroke="white" stroke-width="0.1"/>
</g>
<defs>
<clipPath id="clip0_90_14843">
<rect width="14.6667" height="16" fill="white" transform="translate(4 3)"/>
</clipPath>
</defs>
</svg>
