<svg width="15" height="16" viewBox="0 0 15 16" fill="none" xmlns="http://www.w3.org/2000/svg">
<g id="Frame" clip-path="url(#clip0_90_15006)">
<g id="Group">
<path id="Vector" d="M0.716677 14.3364L0.624301 14.2981C0.56705 14.4362 0.616302 14.577 0.704286 14.6648C0.79244 14.7527 0.933318 14.8011 1.07284 14.7402C1.45163 14.5879 1.81687 14.4138 2.17423 14.2435C2.31792 14.1751 2.46034 14.1072 2.60186 14.0416L2.60187 14.0416L2.60347 14.0408C3.04394 13.827 3.69349 13.5785 4.06348 13.4918C4.5949 13.439 5.14395 13.4666 5.70301 13.5169C5.90846 13.5354 6.11634 13.5571 6.3251 13.5789C6.68256 13.6162 7.04257 13.6538 7.39723 13.676C8.52559 13.7466 9.64815 13.666 10.6522 12.9281C10.8326 12.8062 10.8779 12.5584 10.7515 12.3806C10.6267 12.2042 10.3818 12.1633 10.2064 12.2895L10.2064 12.2895L10.2045 12.2909C9.30857 12.9677 8.29274 13.0367 7.22298 12.9637C6.91614 12.9428 6.61199 12.911 6.30545 12.8789C6.07189 12.8545 5.83694 12.8299 5.59836 12.8099C5.05386 12.7642 4.50734 12.7444 3.97379 12.8145L3.97373 12.814L3.96414 12.8162C3.23598 12.9857 2.55183 13.3095 1.8848 13.6253C1.7691 13.6801 1.65391 13.7346 1.5391 13.788C1.61485 13.5842 1.70972 13.3764 1.80959 13.1634C1.82548 13.1296 1.8415 13.0955 1.85758 13.0614C1.97748 12.8067 2.10068 12.5451 2.19791 12.2817C2.41853 11.6839 2.51409 11.0542 2.13712 10.4239C0.918241 7.59959 1.28383 5.52557 2.40383 4.16195C3.52996 2.79086 5.4377 2.11404 7.34442 2.13082C9.25134 2.1476 11.1323 2.85787 12.2058 4.22868C13.2737 5.59233 13.5615 7.63494 12.2346 10.3636L12.2335 10.366C11.9603 10.9676 12.818 11.3969 13.1289 10.8009L13.129 10.8009L13.1301 10.7985C14.2656 8.47137 14.6274 5.56134 12.7283 3.47692L12.7285 3.4768L1.15899 13.1303L1.07017 13.0843C1.06849 13.0876 1.06729 13.0903 1.067 13.091L1.06698 13.0911L1.06688 13.0913L1.06575 13.094L1.06388 13.0987L1.05925 13.1108L1.04425 13.151L0.993666 13.2883C0.952353 13.4008 0.897952 13.5496 0.843599 13.6983L0.69374 14.1085L0.6435 14.2458C0.633655 14.2727 0.627638 14.289 0.6253 14.2954C0.624531 14.2974 0.624159 14.2985 0.62418 14.2984L0.716677 14.3364ZM0.716677 14.3364C0.639151 14.5234 0.843682 14.7324 1.03407 14.648M0.716677 14.3364L1.03407 14.648M1.03407 14.648C1.41032 14.4968 1.77158 14.3246 2.12831 14.1546C2.27265 14.0858 2.41625 14.0174 2.5598 13.9509C3.00665 13.734 3.66837 13.4806 4.04709 13.3929C4.79118 13.3181 5.56486 13.3989 6.33898 13.4798C7.82446 13.635 9.31162 13.7903 10.5947 12.8462L1.03407 14.648ZM12.6544 3.54427C7.25381 -1.70544 -2.17624 3.08122 1.60045 10.7242L12.6544 3.54427Z" fill="white" stroke="white" stroke-width="0.2"/>
<path id="Vector_2" d="M8.02199 10.5834C8.00948 10.5446 7.99331 10.5072 7.97374 10.4716M8.02199 10.5834C8.02201 10.5834 8.02203 10.5835 8.02205 10.5836L7.97446 10.5989M8.02199 10.5834C8.02197 10.5833 8.02195 10.5833 8.02193 10.5832L7.97446 10.5989M8.02199 10.5834C8.11199 10.8555 8.06957 11.0816 7.94919 11.2472C7.83002 11.4111 7.6387 11.5098 7.44025 11.5382C7.24181 11.5666 7.03052 11.5254 6.87029 11.4018C6.70861 11.2771 6.60467 11.0728 6.61479 10.7881M7.97374 10.4716L7.97446 10.5989M7.97374 10.4716C8.0565 10.4362 8.14035 10.3865 8.20861 10.3214C8.29318 10.2408 8.35561 10.1347 8.35807 10.0031L8.35876 10.0031L8.35755 9.9949C8.28389 9.49318 8.39696 9.0267 8.58237 8.57169C8.67511 8.34409 8.7856 8.12018 8.8994 7.89642C8.92267 7.85068 8.94608 7.80492 8.96951 7.75913C9.0601 7.5821 9.15087 7.4047 9.23372 7.22673C9.78708 6.24939 9.62628 5.32197 9.06777 4.70116C8.51074 4.082 7.56358 3.77374 6.55514 4.01844C5.54304 4.25957 4.72688 5.12493 4.86488 6.22249L4.86487 6.22249L4.86498 6.22326C4.93428 6.71232 5.15813 7.13127 5.41124 7.52954C5.48334 7.64299 5.55755 7.75442 5.63137 7.86529C5.81783 8.14529 6.00188 8.42167 6.14365 8.71802C6.20385 8.91238 6.20609 9.1183 6.20844 9.33422C6.20857 9.34593 6.2087 9.35766 6.20883 9.36943C6.21147 9.59577 6.21778 9.8319 6.30363 10.0578C6.36199 10.2689 6.50572 10.4041 6.68447 10.4854M7.97374 10.4716L6.68447 10.4854M7.97446 10.5989C8.31701 11.6339 6.62503 11.8735 6.6648 10.7886M6.61479 10.7881C6.61479 10.7885 6.6148 10.7889 6.6148 10.7893L6.6648 10.7886M6.61479 10.7881C6.61341 10.6736 6.63893 10.5723 6.68447 10.4854M6.61479 10.7881C6.6148 10.7876 6.61482 10.7872 6.61483 10.7868L6.6648 10.7886M6.6648 10.7886L6.68447 10.4854M8.1756 8.14407C8.25434 7.97801 8.3403 7.81308 8.4263 7.64854L8.43486 7.63217C8.51821 7.47272 8.60139 7.31359 8.67877 7.15265C8.83852 6.82038 8.9721 6.48324 9.02872 6.12789C9.06159 5.65365 8.87045 5.30972 8.56646 5.08461C8.25986 4.85757 7.83558 4.7497 7.40519 4.75899C6.97496 4.76828 6.54472 4.89456 6.22733 5.12845C5.91199 5.36082 5.70817 5.69879 5.72228 6.13838C5.78067 6.52772 5.94976 6.88066 6.14765 7.23091C6.20377 7.33024 6.26242 7.42966 6.3214 7.52965C6.46432 7.77195 6.60919 8.01755 6.72475 8.27306C7.15296 8.30848 7.60818 8.3823 8.02532 8.45714L8.02882 8.45777L8.02878 8.45789C8.03049 8.45832 8.03218 8.45877 8.03387 8.45924C8.07752 8.3526 8.12479 8.24749 8.1756 8.14407ZM8.1756 8.14407C8.17566 8.14396 8.17571 8.14386 8.17576 8.14375L8.22063 8.16581L8.17545 8.14439C8.1755 8.14428 8.17555 8.14417 8.1756 8.14407ZM6.92822 9.85915L6.92826 9.85914L6.92771 9.85713C6.87281 9.65843 6.87798 9.45166 6.88342 9.23384C6.88422 9.20184 6.88502 9.16959 6.88565 9.1371C7.21253 9.08375 7.5437 9.01749 7.86687 8.94802C7.7829 9.25795 7.73917 9.57919 7.7581 9.90405C7.64061 9.94768 7.49429 9.97025 7.34742 9.96815C7.19548 9.96598 7.04755 9.93747 6.93367 9.88263L6.92822 9.85915Z" fill="white" stroke="white" stroke-width="0.1"/>
</g>
</g>
<defs>
<clipPath id="clip0_90_15006">
<rect width="14.6667" height="16" fill="white"/>
</clipPath>
</defs>
</svg>
