<svg width="15" height="15" viewBox="0 0 15 15" fill="none" xmlns="http://www.w3.org/2000/svg">
<g clip-path="url(#clip0_90_27576)">
<path d="M8.35953 8.08387C8.65474 7.93881 8.90335 7.71385 9.0771 7.43456C9.25086 7.15527 9.3428 6.83285 9.34248 6.50392C9.34248 5.53335 8.55776 4.74675 7.59056 4.74675C6.62336 4.74675 5.83826 5.53327 5.83826 6.50385C5.83788 6.83288 5.92988 7.15542 6.10379 7.43474C6.2777 7.71406 6.52653 7.93894 6.82196 8.0838V10.254H8.35946V8.08387M7.59063 13.125C4.49861 13.125 1.98341 10.6018 1.98341 7.5C1.98341 4.39815 4.49898 1.87545 7.59063 1.87545C10.1138 1.87545 12.2525 3.55545 12.9542 5.85915H14.8867C14.1411 2.50627 11.1576 0 7.59063 0C3.46158 0 0.114258 3.35783 0.114258 7.5C0.114258 11.6422 3.46158 15 7.59063 15C11.1576 15 14.1411 12.4937 14.8868 9.14077H12.9543C12.252 11.445 10.1138 13.125 7.59063 13.125Z" fill="white"/>
</g>
<defs>
<clipPath id="clip0_90_27576">
<rect width="15" height="15" fill="white"/>
</clipPath>
</defs>
</svg>
