<svg width="24" height="24" viewBox="0 0 24 24" fill="none" xmlns="http://www.w3.org/2000/svg">
<path d="M3.95813 11.3665C3.99823 11.5405 4.09833 11.6949 4.24088 11.8026L8.33438 14.9316C8.40164 14.9817 8.48147 15.0123 8.56503 15.0199C8.6486 15.0275 8.73264 15.0119 8.80786 14.9747C8.88308 14.9375 8.94655 14.8803 8.99124 14.8092C9.03594 14.7382 9.06013 14.6562 9.06113 14.5723C9.06294 14.4716 9.03011 14.3732 8.96813 14.2937L6.99413 11.8067C6.67438 11.8446 6.35225 11.7586 6.09393 11.5664C5.8356 11.3742 5.66069 11.0904 5.60513 10.7732L5.262 8.69009C5.25259 8.6372 5.25379 8.58296 5.26554 8.53054C5.27729 8.47812 5.29935 8.42856 5.33044 8.38475C5.36152 8.34094 5.40102 8.30375 5.44662 8.27535C5.49222 8.24695 5.54301 8.2279 5.59604 8.21932C5.64907 8.21074 5.70328 8.21279 5.75551 8.22536C5.80774 8.23793 5.85694 8.26077 5.90026 8.29254C5.94358 8.32431 5.98014 8.36439 6.00783 8.41043C6.03551 8.45646 6.05375 8.50755 6.0615 8.56071L6.4005 10.6397C6.4207 10.7468 6.47971 10.8426 6.56623 10.9088C6.65275 10.9751 6.76067 11.007 6.86929 10.9985C6.97791 10.9901 7.07959 10.9418 7.15481 10.863C7.23003 10.7842 7.2735 10.6804 7.27688 10.5715C7.27763 10.5471 7.27625 10.5228 7.27275 10.4987L6.98213 8.70996C6.951 8.51084 6.46538 8.00721 6.36413 7.83396L5.15288 6.27171C5.124 6.22934 5.08913 6.19483 5.06025 6.15059C4.82644 5.84628 4.66869 5.49054 4.60013 5.11296L4.15613 2.63009C4.14776 2.5803 4.12957 2.53268 4.10261 2.49C4.07565 2.44732 4.04046 2.41044 3.9991 2.3815C3.95774 2.35257 3.91103 2.33215 3.86169 2.32146C3.81236 2.31076 3.76138 2.31 3.71175 2.31921L2.25038 2.57346C2.19867 2.58254 2.14937 2.60213 2.10553 2.63102C2.06169 2.6599 2.02423 2.69747 1.99549 2.7414C1.96674 2.78533 1.9473 2.83469 1.93838 2.88643C1.92946 2.93817 1.93125 2.99119 1.94363 3.04221L3.95813 11.3665ZM17.1776 8.76396C17.1074 8.9575 17.064 9.15976 17.0486 9.36509L16.9084 10.5306C16.8803 10.7646 16.8926 11.0695 17.1146 11.149C17.1895 11.1678 17.2684 11.1621 17.3398 11.1327C17.4113 11.1033 17.4714 11.0519 17.5114 10.9858C17.5883 10.8521 17.6351 10.7031 17.6483 10.5493L17.9205 8.84121C17.935 8.68559 17.98 8.53435 18.0529 8.39609C18.0849 8.32325 18.1402 8.26309 18.2101 8.22502C18.28 8.18695 18.3606 8.17311 18.4391 8.18567C18.5177 8.19822 18.5899 8.23646 18.6445 8.29441C18.699 8.35237 18.7328 8.42676 18.7406 8.50596C18.7666 8.65905 18.7624 8.81573 18.7283 8.96721L18.5183 10.2943C18.4823 10.7199 18.3521 11.1322 18.1369 11.5011C18.0251 11.6828 17.8572 11.8232 17.6586 11.9011C17.46 11.9791 17.2414 11.9903 17.0359 11.9331C16.5413 12.5158 15.2708 14.0151 15.1973 14.2168C15.1223 14.4223 15.1534 15.034 15.4991 14.9893C15.6029 14.9667 15.6993 14.9179 15.7789 14.8476L19.5086 12.0685C19.7004 11.9431 19.8671 11.7831 20.0003 11.5967C20.0976 11.4192 20.165 11.2269 20.1998 11.0275L22.0279 3.11871C22.0369 3.07896 22.0459 3.03809 22.0523 2.99684C22.0738 2.90177 22.0624 2.80222 22.02 2.71446C21.9671 2.64875 21.9004 2.59556 21.8245 2.55874C21.7487 2.52191 21.6656 2.50235 21.5813 2.50146L20.4424 2.32746C20.3042 2.28855 20.1563 2.3044 20.0295 2.37171C19.9243 2.47289 19.8629 2.61129 19.8585 2.75721L19.5214 4.91346C19.4853 5.23002 19.4097 5.54081 19.2964 5.83859C19.1528 6.13645 18.9712 6.4144 18.756 6.66546L17.5084 8.25396C17.3756 8.40823 17.2643 8.57979 17.1776 8.76396ZM15.0889 1.89546C13.9973 1.36071 12.2258 1.52796 11.0393 1.50359C9.79918 1.50535 8.60006 1.94758 7.65579 2.7514C6.71151 3.55521 6.08349 4.66833 5.88375 5.89221L6.7035 6.95384C8.0115 5.04884 12.7478 2.74259 15.0885 1.89509L15.0889 1.89546ZM17.3535 7.14771L18.2783 5.94059C18.1731 5.22604 17.919 4.54157 17.5323 3.93158C17.1456 3.3216 16.6349 2.79973 16.0335 2.39984C15.2786 2.68259 14.1116 3.13859 12.852 3.72396C13.8561 3.78795 14.8189 4.147 15.6198 4.75609C16.4206 5.36517 17.0237 6.19717 17.3535 7.14771Z" fill="#C29E8A"/>
<path d="M9.59812 13.7889C9.76592 13.9979 9.86086 14.256 9.86849 14.5239C10.9305 15.0366 12.7189 15.5777 14.3497 14.5599C14.3209 14.3781 14.3312 14.1922 14.38 14.0147C14.4288 13.8372 14.5148 13.6721 14.6325 13.5306L16.3241 11.5243C16.1322 11.2764 16.0439 10.9637 16.0777 10.6521L16.3159 8.76656C16.3712 8.4641 16.5146 8.18468 16.728 7.96331C16.5375 6.99626 16.0178 6.12506 15.2574 5.49793C14.4971 4.87079 13.5429 4.52643 12.5572 4.52344H11.2492C9.25499 5.59744 7.89862 6.63881 7.21612 7.62019C7.48318 7.88875 7.67764 8.22076 7.78124 8.58506L8.06812 10.3652C8.09895 10.5583 8.08433 10.7559 8.02542 10.9423C7.9665 11.1288 7.86492 11.2989 7.72875 11.4392L9.59812 13.7889ZM20.3047 22.1582C20.3565 20.1452 17.7956 18.6264 15.5449 18.1168C15.1862 18.044 14.8637 17.8495 14.632 17.5663C14.4003 17.283 14.2735 16.9284 14.2732 16.5624V15.5207C13.6595 15.804 12.9909 15.9487 12.315 15.9444C11.3848 15.9263 10.4694 15.7089 9.63037 15.3069C9.59865 15.3561 9.56223 15.4021 9.52162 15.4442V16.7968C9.52264 17.1481 9.40643 17.4898 9.19138 17.7676C8.97633 18.0454 8.67474 18.2435 8.33437 18.3306C6.67087 18.7783 3.75562 19.5876 3.837 21.9156V22.4968H20.3047V22.1582Z" fill="#C29E8A"/>
</svg>
