<svg width="120" height="24" viewBox="0 0 120 24" fill="none" xmlns="http://www.w3.org/2000/svg">
<path d="M11.4294 1.75623C11.609 1.20344 12.391 1.20344 12.5706 1.75623L14.5595 7.87721C14.6398 8.12442 14.8702 8.2918 15.1301 8.2918H21.5661C22.1473 8.2918 22.389 9.03557 21.9187 9.37721L16.7119 13.1602C16.5016 13.313 16.4136 13.5838 16.494 13.831L18.4828 19.952C18.6624 20.5048 18.0297 20.9644 17.5595 20.6228L12.3527 16.8398C12.1424 16.687 11.8576 16.687 11.6473 16.8398L6.44052 20.6228C5.97029 20.9644 5.3376 20.5048 5.51721 19.952L7.50604 13.831C7.58636 13.5838 7.49837 13.313 7.28807 13.1602L2.08126 9.37721C1.61103 9.03557 1.8527 8.2918 2.43393 8.2918H8.86991C9.12984 8.2918 9.36022 8.12442 9.44054 7.87721L11.4294 1.75623Z" fill="#FBDA77"/>
<path d="M35.4294 1.75623C35.609 1.20344 36.391 1.20344 36.5706 1.75623L38.5595 7.87721C38.6398 8.12442 38.8702 8.2918 39.1301 8.2918H45.5661C46.1473 8.2918 46.389 9.03557 45.9187 9.37721L40.7119 13.1602C40.5016 13.313 40.4136 13.5838 40.494 13.831L42.4828 19.952C42.6624 20.5048 42.0297 20.9644 41.5595 20.6228L36.3527 16.8398C36.1424 16.687 35.8576 16.687 35.6473 16.8398L30.4405 20.6228C29.9703 20.9644 29.3376 20.5048 29.5172 19.952L31.506 13.831C31.5864 13.5838 31.4984 13.313 31.2881 13.1602L26.0813 9.37721C25.611 9.03557 25.8527 8.2918 26.4339 8.2918H32.8699C33.1298 8.2918 33.3602 8.12442 33.4405 7.87721L35.4294 1.75623Z" fill="#FBDA77"/>
<path d="M59.4294 1.75623C59.609 1.20344 60.391 1.20344 60.5706 1.75623L62.5595 7.87721C62.6398 8.12442 62.8702 8.2918 63.1301 8.2918H69.5661C70.1473 8.2918 70.389 9.03557 69.9187 9.37721L64.7119 13.1602C64.5016 13.313 64.4136 13.5838 64.494 13.831L66.4828 19.952C66.6624 20.5048 66.0297 20.9644 65.5595 20.6228L60.3527 16.8398C60.1424 16.687 59.8576 16.687 59.6473 16.8398L54.4405 20.6228C53.9703 20.9644 53.3376 20.5048 53.5172 19.952L55.506 13.831C55.5864 13.5838 55.4984 13.313 55.2881 13.1602L50.0813 9.37721C49.611 9.03557 49.8527 8.2918 50.4339 8.2918H56.8699C57.1298 8.2918 57.3602 8.12442 57.4405 7.87721L59.4294 1.75623Z" fill="#FBDA77"/>
<path d="M83.4294 1.75623C83.609 1.20344 84.391 1.20344 84.5706 1.75623L86.5595 7.87721C86.6398 8.12442 86.8702 8.2918 87.1301 8.2918H93.5661C94.1473 8.2918 94.389 9.03557 93.9187 9.37721L88.7119 13.1602C88.5016 13.313 88.4136 13.5838 88.494 13.831L90.4828 19.952C90.6624 20.5048 90.0297 20.9644 89.5595 20.6228L84.3527 16.8398C84.1424 16.687 83.8576 16.687 83.6473 16.8398L78.4405 20.6228C77.9703 20.9644 77.3376 20.5048 77.5172 19.952L79.506 13.831C79.5864 13.5838 79.4984 13.313 79.2881 13.1602L74.0813 9.37721C73.611 9.03557 73.8527 8.2918 74.4339 8.2918H80.8699C81.1298 8.2918 81.3602 8.12442 81.4405 7.87721L83.4294 1.75623Z" fill="#FBDA77"/>
<path d="M107.429 1.75623C107.609 1.20344 108.391 1.20344 108.571 1.75623L110.559 7.87721C110.64 8.12442 110.87 8.2918 111.13 8.2918H117.566C118.147 8.2918 118.389 9.03557 117.919 9.37721L112.712 13.1602C112.502 13.313 112.414 13.5838 112.494 13.831L114.483 19.952C114.662 20.5048 114.03 20.9644 113.559 20.6228L108.353 16.8398C108.142 16.687 107.858 16.687 107.647 16.8398L102.441 20.6228C101.97 20.9644 101.338 20.5048 101.517 19.952L103.506 13.831C103.586 13.5838 103.498 13.313 103.288 13.1602L98.0813 9.37721C97.611 9.03557 97.8527 8.2918 98.4339 8.2918H104.87C105.13 8.2918 105.36 8.12442 105.441 7.87721L107.429 1.75623Z" fill="#FBDA77"/>
</svg>
