<svg width="24" height="24" viewBox="0 0 24 24" fill="none" xmlns="http://www.w3.org/2000/svg">
<path d="M21.08 8.58003V15.42C21.08 16.54 20.48 17.58 19.51 18.15L13.57 21.58C12.6 22.14 11.4 22.14 10.42 21.58L4.47997 18.15C3.50997 17.59 2.90997 16.55 2.90997 15.42V8.58003C2.90997 7.46003 3.50997 6.41999 4.47997 5.84999L10.42 2.42C11.39 1.86 12.59 1.86 13.57 2.42L19.51 5.84999C20.48 6.41999 21.08 7.45003 21.08 8.58003Z" stroke="#292D32" stroke-width="1.5" stroke-linecap="round" stroke-linejoin="round"/>
<path d="M12.0019 10.9998C13.2887 10.9998 14.3319 9.95662 14.3319 8.6698C14.3319 7.38298 13.2887 6.33984 12.0019 6.33984C10.7151 6.33984 9.67188 7.38298 9.67188 8.6698C9.67188 9.95662 10.7151 10.9998 12.0019 10.9998Z" stroke="#292D32" stroke-width="1.5" stroke-linecap="round" stroke-linejoin="round"/>
<path d="M16 16.6594C16 14.8594 14.21 13.3994 12 13.3994C9.79 13.3994 8 14.8594 8 16.6594" stroke="#292D32" stroke-width="1.5" stroke-linecap="round" stroke-linejoin="round"/>
</svg>
