<svg width="18" height="18" viewBox="0 0 18 18" fill="none" xmlns="http://www.w3.org/2000/svg">
<path fill-rule="evenodd" clip-rule="evenodd" d="M9.13107 11.413H8.86879C7.06625 11.413 5.60518 9.96953 5.60518 8.19025V4.7228C5.60518 2.9428 7.06625 1.5 8.86879 1.5H9.13107C10.9336 1.5 12.3954 2.9428 12.3954 4.7228V8.19025C12.3954 9.96953 10.9336 11.413 9.13107 11.413ZM13.9219 8.08715C13.9219 7.6904 14.2474 7.3697 14.6485 7.3697C15.0495 7.3697 15.375 7.6904 15.375 8.08715C15.375 11.315 12.9004 13.9803 9.7269 14.3383V15.7825C9.7269 16.1786 9.40141 16.5 9.00036 16.5C8.59859 16.5 8.27383 16.1786 8.27383 15.7825V14.3383C5.09959 13.9803 2.625 11.315 2.625 8.08715C2.625 7.6904 2.95049 7.3697 3.35154 7.3697C3.75259 7.3697 4.07807 7.6904 4.07807 8.08715C4.07807 10.7668 6.28602 12.9472 9.00036 12.9472C11.714 12.9472 13.9219 10.7668 13.9219 8.08715Z" fill="#80797E"/>
</svg>
